<?xml version="1.0" encoding="utf-8"?>
<!-- Generator: Adobe Illustrator 23.0.1, SVG Export Plug-In . SVG Version: 6.00 Build 0)  -->
<svg version="1.1" id="Layer_1" xmlns="http://www.w3.org/2000/svg" xmlns:xlink="http://www.w3.org/1999/xlink" x="0px" y="0px"
	 viewBox="0 0 180 180" style="enable-background:new 0 0 180 180;" xml:space="preserve">
<style type="text/css">
	.st0{clip-path:url(#SVGID_2_);}
	.st1{fill:#FFFFFF;}
	.st2{fill:#001E3B;}
	.st3{fill:#204B63;}
	.st4{fill:none;}
	.st5{clip-path:url(#SVGID_4_);}
	.st6{fill:#0052A0;}
	.st7{clip-path:url(#SVGID_6_);fill:#EBF3F6;}
	.st8{clip-path:url(#SVGID_6_);fill:#ECF4F7;}
	.st9{clip-path:url(#SVGID_6_);fill:#EDF4F8;}
	.st10{clip-path:url(#SVGID_6_);fill:#EEF5F8;}
	.st11{clip-path:url(#SVGID_6_);fill:#EFF6F9;}
	.st12{clip-path:url(#SVGID_6_);fill:#F0F7FA;}
	.st13{clip-path:url(#SVGID_6_);fill:#F2F7FB;}
	.st14{clip-path:url(#SVGID_6_);fill:#F3F8FC;}
	.st15{clip-path:url(#SVGID_6_);fill:#F4F9FD;}
	.st16{clip-path:url(#SVGID_6_);fill:#F5FAFD;}
	.st17{clip-path:url(#SVGID_6_);fill:#F6FAFE;}
	.st18{clip-path:url(#SVGID_6_);fill:#F7FBFF;}
	.st19{clip-path:url(#SVGID_8_);fill:#EBF3F6;}
	.st20{clip-path:url(#SVGID_8_);fill:#ECF4F7;}
	.st21{clip-path:url(#SVGID_8_);fill:#EDF4F8;}
	.st22{clip-path:url(#SVGID_8_);fill:#EEF5F8;}
	.st23{clip-path:url(#SVGID_8_);fill:#EFF6F9;}
	.st24{clip-path:url(#SVGID_8_);fill:#F0F7FA;}
	.st25{clip-path:url(#SVGID_8_);fill:#F2F7FB;}
	.st26{clip-path:url(#SVGID_8_);fill:#F3F8FC;}
	.st27{clip-path:url(#SVGID_8_);fill:#F4F9FD;}
	.st28{clip-path:url(#SVGID_8_);fill:#F5FAFD;}
	.st29{clip-path:url(#SVGID_8_);fill:#F6FAFE;}
	.st30{clip-path:url(#SVGID_8_);fill:#F7FBFF;}
</style>
<g id="Group_6840" transform="translate(-71.937 -432.885)">
	<g id="Group_6839">
		<g>
			<defs>
				<path id="SVGID_1_" d="M96.5,428.9h130.8c13.6,0,24.6,11,24.6,24.6v130.8c0,13.6-11,24.6-24.6,24.6H96.5
					c-13.6,0-24.6-11-24.6-24.6V453.5C71.9,439.9,82.9,428.9,96.5,428.9z"/>
			</defs>
			<clipPath id="SVGID_2_">
				<use xlink:href="#SVGID_1_"  style="overflow:visible;"/>
			</clipPath>
			<g id="Group_6838" transform="translate(0 -2)" class="st0">
				<g id="Group_6837">
					<g id="Union_12">
						<path class="st1" d="M167.6,659.2c-36.2,0-65.6-29.4-65.6-65.6l0,0c0-12.4,4.6-24.3,12.9-33.5c-1-5-1.7-10.1-1.9-15.1l3-64.8
							c16.9,8.6,32,13.4,50.8,13.2c18.4-0.2,37.4-5.3,55.9-16v79.8c10.1,9.4,15.8,22.6,15.8,36.4c0,36.2-29.4,65.6-65.6,65.6
							L167.6,659.2z"/>
						<path class="st2" d="M167.6,661.7L167.6,661.7c-37.5,0-68.1-30.5-68.1-68.1c0-12.6,4.5-24.7,12.7-34.2
							c-0.9-4.7-1.5-9.5-1.7-14.3l0-0.1l3.2-68.8l3.5,1.8c18.4,9.4,32.8,13.2,49.6,13c18.7-0.2,37.1-5.5,54.7-15.7l3.8-2.2v83.1
							c10.1,9.8,15.8,23.4,15.8,37.5c0,37.5-30.5,68.1-68.1,68.1L167.6,661.7z M115.6,545.1c0.2,4.9,0.8,9.8,1.8,14.6l0.3,1.2
							l-0.9,0.9c-7.9,8.7-12.2,20-12.2,31.8c0,34.8,28.3,63.1,63.1,63.1l5.4,0c34.8,0,63.1-28.3,63.1-63.1c0-13.1-5.5-25.7-15-34.6
							l-0.8-0.7v-76.6c-17.2,9.3-35.2,14.1-53.4,14.3c-16.7,0.2-30.9-3.2-48.5-11.8L115.6,545.1z"/>
					</g>
					<g id="Group_6836">
						<g id="Path_3600">
							<path class="st3" d="M251.9,592.9"/>
						</g>
						<g id="Ellipse_158">
							<circle class="st4" cx="173.9" cy="582.2" r="56.6"/>
						</g>
						<g id="Group_6841" transform="translate(108.808 516.693)">
							<g>
								<defs>
									<circle id="SVGID_3_" cx="58.9" cy="65.2" r="50.4"/>
								</defs>
								<clipPath id="SVGID_4_">
									<use xlink:href="#SVGID_3_"  style="overflow:visible;"/>
								</clipPath>
								<g id="Group_6650" class="st5">
									<g id="Group_6649" transform="translate(-1.134 -0.016)">
										<g id="Path_3465">
											<path class="st6" d="M71,100.7c-3.4-9.6-27.5,0-27.5,0s0.5,3-2.6,1.4c-3.6-1.7,2-22.5-8.5-19.7
												c-2.5-2.9-10.9-2.4-12.9-5.5c-1.4-2.1,0.3-5.2,2.8-5.9c3-0.9,5.5,1,7.9,2.4c1.4-6.9,3.3-20.4,10.4-24.8
												c0.6-0.7,1.3-1.3,2.1-1.8c-0.6-0.5-0.9-1.1-0.6-1.2c-0.9,0.4-1.9,0.7-2.9,0.6c1.7-1.5,4-2.3,5.9-3.4
												c2.6-1.5,2.5-0.5,1.7-3.4c-1-2.8-3.1-5.1-5.9-6.4c-5.6-2-8.4,5.2-8.5,9.5c0.1-3.2-2.6-6.8-1.5-10c1-2.8,5.3-5.7,7.1-8.4
												c0.3,2.4,1,4.7,2.3,6.8c0.2,0.4,0.6,0.8,1,1c0.8,0.2,1.5-0.8,1.6-1.6c0.6-3.1-1.2-6.2-1.5-9.4c-0.1-0.5,0-1.1,0.4-1.5
												c0.5-0.4,1.2-0.1,1.8,0.2c4,2.4,7.2,5.9,9.2,10.1c1-3.6,1.2-7.4,0.4-11.1c-0.3-1.5-1-3.3-2.5-3.7
												c-0.2-0.1-0.3-0.1-0.5-0.1c-0.7,0-1.4,0.1-2,0.3C26.1,21,3.6,44.7,9,68.8C12.4,83.8,32.7,85,41.2,95.5
												c2.3,2.8-0.6,5.8,1.4,8.8c2.4,3.7,5.9,6.7,10,8.5c4.3,1.8,9.4,2,13.4-0.3C70.1,110.2,72.6,105.1,71,100.7z"/>
										</g>
										<g id="Path_2010">
											<path class="st6" d="M65,14.8c2.4,1.9,20.7,11.1,20.4,15.1c0,0.8-7.3-5.1-8.4-3.3c-4.7,8.2,10.6,6.3,10.1,6
												c1.3,0.7,1.9,10,1.8,9.9c13.4,11.5,0.8-4.7,6.9-3.1c6.2,2.1,8.7,1.3,11.1,9c-0.8-1.2-1.9-2.2-3.2-2.7
												c-0.3,0.9-0.3-0.9,0,0c0.3-0.5-3.9-0.6-5.6,0.9c-4,3.4-4,10.7-4.5,15.4c-0.6,6.2,0.6,29.9,9.4,18.4
												c-2,1.4-6.7,17.3-8.3,21.3C131.2,79.8,104.1,13.4,65,14.8z"/>
										</g>
									</g>
								</g>
							</g>
							<g id="Ellipse_86-2">
								<path class="st2" d="M58.9,118.1C29.7,118.1,6,94.4,6,65.2s23.7-52.9,52.9-52.9c29.2,0,52.9,23.7,52.9,52.9
									S88,118.1,58.9,118.1z M58.9,17.3C32.5,17.3,11,38.8,11,65.2c0,26.4,21.5,47.9,47.9,47.9c26.4,0,47.9-21.5,47.9-47.9
									C106.8,38.8,85.3,17.3,58.9,17.3z"/>
							</g>
						</g>
						<g id="Group_6835">
							<g id="Group_6842" transform="translate(2 -4)">
								<g id="Ellipse_161">
									<circle class="st2" cx="127.8" cy="517" r="41.3"/>
								</g>
								<g id="Ellipse_162">
									<g>
										<defs>
											<circle id="SVGID_5_" cx="127.6" cy="516.8" r="34.7"/>
										</defs>
										<clipPath id="SVGID_6_">
											<use xlink:href="#SVGID_5_"  style="overflow:visible;"/>
										</clipPath>
										<path class="st7" d="M92.9,482v69.4V482z"/>
										<rect x="92.9" y="482" class="st7" width="5.1" height="69.4"/>
										<rect x="98" y="482" class="st8" width="5.1" height="69.4"/>
										<rect x="103.1" y="482" class="st9" width="5.1" height="69.4"/>
										<rect x="108.2" y="482" class="st10" width="5.1" height="69.4"/>
										<rect x="113.4" y="482" class="st11" width="5.1" height="69.4"/>
										<rect x="118.5" y="482" class="st12" width="5.1" height="69.4"/>
										<rect x="123.6" y="482" class="st13" width="5.1" height="69.4"/>
										<rect x="128.7" y="482" class="st14" width="5.1" height="69.4"/>
										<rect x="133.8" y="482" class="st15" width="5.1" height="69.4"/>
										<rect x="139" y="482" class="st16" width="5.1" height="69.4"/>
										<rect x="144.1" y="482" class="st17" width="5.1" height="69.4"/>
										<rect x="149.2" y="482" class="st18" width="5.1" height="69.4"/>
										<rect x="154.3" y="482" class="st18" width="8" height="69.4"/>
									</g>
								</g>
								<g id="Path_3606">
									<path class="st2" d="M117.1,494.1c-2.3,0-4.5,0.6-6.4,1.9c1.3,1.5,1.2,3.8-0.2,5.1c-1.3,1.2-3.2,1.3-4.6,0.2
										c-1,2-1.5,4.2-1.5,6.4c0,7.5,5.7,13.6,12.7,13.6c7,0,12.7-6.1,12.7-13.6S124.1,494.1,117.1,494.1z"/>
								</g>
							</g>
							<g id="Group_6834" transform="translate(-1)">
								<g id="Ellipse_163">
									<circle class="st2" cx="202.5" cy="528.9" r="34"/>
								</g>
								<g id="Ellipse_164">
									<g>
										<defs>
											<circle id="SVGID_7_" cx="202.5" cy="528.9" r="27.3"/>
										</defs>
										<clipPath id="SVGID_8_">
											<use xlink:href="#SVGID_7_"  style="overflow:visible;"/>
										</clipPath>
										<path class="st19" d="M175.2,501.6v54.7V501.6z"/>
										<rect x="175.2" y="501.6" class="st19" width="4" height="54.7"/>
										<rect x="179.2" y="501.6" class="st20" width="4" height="54.7"/>
										<rect x="183.3" y="501.6" class="st21" width="4" height="54.7"/>
										<rect x="187.3" y="501.6" class="st22" width="4" height="54.7"/>
										<rect x="191.3" y="501.6" class="st23" width="4" height="54.7"/>
										<rect x="195.4" y="501.6" class="st24" width="4" height="54.7"/>
										<rect x="199.4" y="501.6" class="st25" width="4" height="54.7"/>
										<rect x="203.4" y="501.6" class="st26" width="4" height="54.7"/>
										<rect x="207.5" y="501.6" class="st27" width="4" height="54.7"/>
										<rect x="211.5" y="501.6" class="st28" width="4" height="54.7"/>
										<rect x="215.5" y="501.6" class="st29" width="4" height="54.7"/>
										<rect x="219.6" y="501.6" class="st30" width="4" height="54.7"/>
										<rect x="223.6" y="501.6" class="st30" width="6.3" height="54.7"/>
									</g>
								</g>
								<g id="Path_3607">
									<path class="st2" d="M195,510.7c-1.8,0-3.5,0.5-5,1.5c1.1,1.2,1,3-0.2,4c-1,0.9-2.5,1-3.6,0.2c-0.8,1.6-1.2,3.3-1.2,5
										c0,5.9,4.5,10.7,10,10.7s10-4.8,10-10.7S200.5,510.7,195,510.7z"/>
								</g>
							</g>
							<g id="Path_3605">
								<path class="st2" d="M177.8,545.9l-12.2-16.3c-0.1-0.4-0.5-0.7-0.9-0.7l-11.8,15.9c-1,1.3-1,3.1,0,4.4l11.8,15.9
									c0.4,0,0.8-0.3,0.9-0.7l12.2-16.3C178.1,547.3,178.1,546.6,177.8,545.9z"/>
							</g>
						</g>
					</g>
				</g>
			</g>
		</g>
	</g>
</g>
<g id="Path_3608">
	<path class="st2" d="M54.6,180c-0.4,0-0.8-0.1-1.2-0.3l-11.8-6.4l-8.2,4.4c-1.2,0.7-2.7,0.2-3.4-1c-0.7-1.2-0.2-2.7,1-3.4l10.6-5.7
		l14.2,7.7c1.2,0.7,1.7,2.2,1,3.4C56.3,179.5,55.4,180,54.6,180z"/>
</g>
<g id="Path_3609">
	<path class="st2" d="M137.2,179.8c-0.8,0-1.6-0.4-2.1-1.1c-0.8-1.2-0.4-2.7,0.7-3.5l17.6-11.5l9.2,6.3l1.9-0.8
		c1.3-0.5,2.7,0.1,3.3,1.3c0.5,1.3-0.1,2.7-1.3,3.3l-4.5,1.9l-8.7-6l-14.7,9.7C138.2,179.7,137.7,179.8,137.2,179.8z"/>
</g>
</svg>
