<svg xmlns="http://www.w3.org/2000/svg" xmlns:xlink="http://www.w3.org/1999/xlink" width="31.081" height="39.187" viewBox="0 0 31.081 39.187">
  <defs>
    <filter id="Rectangle_59" x="0" y="0" width="31.081" height="39.187" filterUnits="userSpaceOnUse">
      <feOffset input="SourceAlpha"/>
      <feGaussianBlur stdDeviation="1.5" result="blur"/>
      <feFlood flood-opacity="0.361"/>
      <feComposite operator="in" in2="blur"/>
      <feComposite in="SourceGraphic"/>
    </filter>
  </defs>
  <g id="arrowin" transform="translate(4.5 4.5)">
    <g id="Group_226" data-name="Group 226">
      <g id="Group_225" data-name="Group 225">
        <g transform="matrix(1, 0, 0, 1, -4.5, -4.5)" filter="url(#Rectangle_59)">
          <path id="Rectangle_59-2" data-name="Rectangle 59" d="M15.094,0h6.987a0,0,0,0,1,0,0V30.187a0,0,0,0,1,0,0H15.094A15.094,15.094,0,0,1,0,15.094v0A15.094,15.094,0,0,1,15.094,0Z" transform="translate(4.5 4.5)" fill="#0b84c7"/>
        </g>
      </g>
    </g>
    <g id="Group_243" data-name="Group 243" transform="translate(9.022 9.31)">
      <path id="Path_105" data-name="Path 105" d="M-951.176,1274.483l-5.406,5.406,5.406,5.406" transform="translate(956.582 -1274.483)" fill="none" stroke="#fff" stroke-width="2"/>
    </g>
  </g>
</svg>
