<svg id="bigcircle2" xmlns="http://www.w3.org/2000/svg" xmlns:xlink="http://www.w3.org/1999/xlink" width="1621" height="1621" viewBox="0 0 1621 1621">
  <defs>
    <clipPath id="clip-path">
      <rect id="Rectangle_1939" data-name="Rectangle 1939" width="1621" height="1621" transform="translate(2566 225)" fill="#fff" stroke="#707070" stroke-width="1"/>
    </clipPath>
  </defs>
  <g id="Mask_Group_6" data-name="Mask Group 6" transform="translate(-2566 -225)" clip-path="url(#clip-path)">
    <g id="Group_6654" data-name="Group 6654" transform="translate(3391.752 178.917) rotate(8)">
      <g id="Group_6692" data-name="Group 6692" transform="matrix(0.995, 0.105, -0.105, 0.995, 62.489, 0)">
        <circle id="Ellipse_96" data-name="Ellipse 96" cx="143" cy="143" r="143" transform="translate(0 44.74) rotate(-9)" fill="#ebf3fb"/>
        <circle id="Ellipse_98" data-name="Ellipse 98" cx="143" cy="143" r="143" transform="translate(304.898 135.157) rotate(-9)" fill="#ebf3fb"/>
        <circle id="Ellipse_97" data-name="Ellipse 97" cx="97.5" cy="97.5" r="97.5" transform="translate(202.629 115.918) rotate(-9)" fill="#ebf3fb"/>
        <circle id="Ellipse_99" data-name="Ellipse 99" cx="157" cy="157" r="157" transform="translate(422.203 287.684) rotate(-9)" fill="#ebf3fb"/>
      </g>
    </g>
    <g id="Group_6853" data-name="Group 6853" transform="translate(3629.21 1795) rotate(162)">
      <g id="Group_6692-2" data-name="Group 6692" transform="matrix(0.995, 0.105, -0.105, 0.995, 62.489, 0)">
        <circle id="Ellipse_96-2" data-name="Ellipse 96" cx="143" cy="143" r="143" transform="translate(0 44.74) rotate(-9)" fill="#ebf3fb"/>
        <circle id="Ellipse_98-2" data-name="Ellipse 98" cx="143" cy="143" r="143" transform="translate(304.898 135.157) rotate(-9)" fill="#ebf3fb"/>
        <circle id="Ellipse_97-2" data-name="Ellipse 97" cx="97.5" cy="97.5" r="97.5" transform="translate(202.629 115.918) rotate(-9)" fill="#ebf3fb"/>
        <circle id="Ellipse_99-2" data-name="Ellipse 99" cx="157" cy="157" r="157" transform="translate(422.203 287.684) rotate(-9)" fill="#ebf3fb"/>
        <circle id="Ellipse_165" data-name="Ellipse 165" cx="77" cy="77" r="77" transform="translate(540.573 535.732) rotate(-9)" fill="#ebf3fb"/>
      </g>
    </g>
    <g id="Group_6852" data-name="Group 6852" transform="translate(3964.406 454.174) rotate(52)">
      <g id="Group_6692-3" data-name="Group 6692" transform="matrix(0.995, 0.105, -0.105, 0.995, 62.489, 0)">
        <circle id="Ellipse_96-3" data-name="Ellipse 96" cx="143" cy="143" r="143" transform="translate(0 44.74) rotate(-9)" fill="#ebf3fb"/>
        <circle id="Ellipse_98-3" data-name="Ellipse 98" cx="143" cy="143" r="143" transform="translate(304.898 135.157) rotate(-9)" fill="#ebf3fb"/>
        <circle id="Ellipse_97-3" data-name="Ellipse 97" cx="97.5" cy="97.5" r="97.5" transform="translate(202.629 115.918) rotate(-9)" fill="#ebf3fb"/>
        <circle id="Ellipse_99-3" data-name="Ellipse 99" cx="157" cy="157" r="157" transform="translate(422.203 287.684) rotate(-9)" fill="#ebf3fb"/>
      </g>
    </g>
    <g id="Group_6849" data-name="Group 6849" transform="translate(2666.252 573.924) rotate(-48)">
      <g id="Group_6692-4" data-name="Group 6692" transform="matrix(0.995, 0.105, -0.105, 0.995, 62.489, 0)">
        <circle id="Ellipse_96-4" data-name="Ellipse 96" cx="143" cy="143" r="143" transform="translate(0 44.74) rotate(-9)" fill="#ebf3fb"/>
        <circle id="Ellipse_98-4" data-name="Ellipse 98" cx="143" cy="143" r="143" transform="translate(304.898 135.157) rotate(-9)" fill="#ebf3fb"/>
        <circle id="Ellipse_97-4" data-name="Ellipse 97" cx="97.5" cy="97.5" r="97.5" transform="translate(202.629 115.918) rotate(-9)" fill="#ebf3fb"/>
        <circle id="Ellipse_99-4" data-name="Ellipse 99" cx="157" cy="157" r="157" transform="translate(422.203 287.684) rotate(-9)" fill="#ebf3fb"/>
      </g>
    </g>
    <g id="Group_6810" data-name="Group 6810" transform="matrix(-0.819, -0.574, 0.574, -0.819, 2971.14, 1733.942)">
      <g id="Group_6692-5" data-name="Group 6692" transform="matrix(0.995, 0.105, -0.105, 0.995, 62.489, 0)">
        <ellipse id="Ellipse_96-5" data-name="Ellipse 96" cx="143" cy="143" rx="143" ry="143" transform="translate(0 44.74) rotate(-9)" fill="#ebf3fb"/>
        <ellipse id="Ellipse_98-5" data-name="Ellipse 98" cx="143" cy="143" rx="143" ry="143" transform="translate(304.898 135.157) rotate(-9)" fill="#ebf3fb"/>
        <ellipse id="Ellipse_97-5" data-name="Ellipse 97" cx="97.5" cy="97.5" rx="97.5" ry="97.5" transform="translate(202.629 115.918) rotate(-9)" fill="#ebf3fb"/>
        <ellipse id="Ellipse_99-5" data-name="Ellipse 99" cx="157" cy="157" rx="157" ry="157" transform="translate(422.203 287.684) rotate(-9)" fill="#ebf3fb"/>
      </g>
    </g>
    <g id="Group_6850" data-name="Group 6850" transform="matrix(-0.788, -0.616, 0.616, -0.788, 3005.836, 1373.081)">
      <g id="Group_6692-6" data-name="Group 6692" transform="matrix(0.995, 0.105, -0.105, 0.995, 62.489, 0)">
        <ellipse id="Ellipse_96-6" data-name="Ellipse 96" cx="143" cy="143" rx="143" ry="143" transform="translate(0 44.74) rotate(-9)" fill="#ebf3fb"/>
        <ellipse id="Ellipse_98-6" data-name="Ellipse 98" cx="143" cy="143" rx="143" ry="143" transform="translate(304.898 135.157) rotate(-9)" fill="#ebf3fb"/>
        <ellipse id="Ellipse_166" data-name="Ellipse 166" cx="143" cy="143" rx="143" ry="143" transform="translate(-77.608 -235.028) rotate(-9)" fill="#ebf3fb"/>
        <ellipse id="Ellipse_97-6" data-name="Ellipse 97" cx="97.5" cy="97.5" rx="97.5" ry="97.5" transform="translate(202.629 115.918) rotate(-9)" fill="#ebf3fb"/>
        <ellipse id="Ellipse_99-6" data-name="Ellipse 99" cx="157" cy="157" rx="157" ry="157" transform="translate(422.203 287.684) rotate(-9)" fill="#ebf3fb"/>
      </g>
    </g>
    <g id="Group_6851" data-name="Group 6851" transform="matrix(-0.259, 0.966, -0.966, -0.259, 4244.421, 1201.152)">
      <g id="Group_6692-7" data-name="Group 6692" transform="matrix(0.995, 0.105, -0.105, 0.995, 62.489, 0)">
        <ellipse id="Ellipse_96-7" data-name="Ellipse 96" cx="143" cy="143" rx="143" ry="143" transform="translate(0 44.74) rotate(-9)" fill="#ebf3fb"/>
        <ellipse id="Ellipse_98-7" data-name="Ellipse 98" cx="143" cy="143" rx="143" ry="143" transform="translate(304.898 135.157) rotate(-9)" fill="#ebf3fb"/>
        <ellipse id="Ellipse_97-7" data-name="Ellipse 97" cx="97.5" cy="97.5" rx="97.5" ry="97.5" transform="translate(202.629 115.918) rotate(-9)" fill="#ebf3fb"/>
        <ellipse id="Ellipse_99-7" data-name="Ellipse 99" cx="157" cy="157" rx="157" ry="157" transform="translate(422.203 287.684) rotate(-9)" fill="#ebf3fb"/>
      </g>
    </g>
    <path id="Path_3559" data-name="Path 3559" d="M724.5,0C1124.63,0,1449,319.445,1449,713.5S1124.63,1427,724.5,1427,0,1107.554,0,713.5,324.37,0,724.5,0Z" transform="translate(2649.344 349.001)" fill="#fff"/>
  </g>
</svg>
