<svg id="bigcircle3" xmlns="http://www.w3.org/2000/svg" xmlns:xlink="http://www.w3.org/1999/xlink" width="1197" height="1197" viewBox="0 0 1197 1197">
  <defs>
    <clipPath id="clip-path">
      <rect id="Rectangle_1940" data-name="Rectangle 1940" width="1197" height="1197" transform="translate(-18 3976)" fill="#fff"/>
    </clipPath>
  </defs>
  <g id="Mask_Group_7" data-name="Mask Group 7" transform="translate(18 -3976)" clip-path="url(#clip-path)">
    <g id="Group_6854" data-name="Group 6854">
      <g id="Group_6808" data-name="Group 6808" transform="translate(779.903 4638.563) rotate(172)">
        <g id="Group_6692" data-name="Group 6692" transform="matrix(0.995, -0.105, 0.105, 0.995, 0, 81.685)">
          <ellipse id="Ellipse_96" data-name="Ellipse 96" cx="143" cy="143" rx="143" ry="143" transform="translate(44.74 270.599) rotate(9)" fill="#ebf3fb"/>
          <ellipse id="Ellipse_98" data-name="Ellipse 98" cx="143" cy="143" rx="143" ry="143" transform="translate(349.638 180.183) rotate(9)" fill="#ebf3fb"/>
          <ellipse id="Ellipse_97" data-name="Ellipse 97" cx="97.5" cy="97.5" rx="97.5" ry="97.5" transform="translate(233.134 289.301) rotate(9)" fill="#ebf3fb"/>
          <ellipse id="Ellipse_99" data-name="Ellipse 99" cx="157" cy="157" rx="157" ry="157" transform="translate(471.323 0) rotate(9)" fill="#ebf3fb"/>
        </g>
      </g>
      <g id="Group_6811" data-name="Group 6811" transform="translate(474.409 3914.916) rotate(8)">
        <g id="Group_6692-2" data-name="Group 6692" transform="matrix(0.995, 0.105, -0.105, 0.995, 62.489, 0)">
          <ellipse id="Ellipse_96-2" data-name="Ellipse 96" cx="143" cy="143" rx="143" ry="143" transform="translate(0 44.74) rotate(-9)" fill="#ebf3fb"/>
          <ellipse id="Ellipse_98-2" data-name="Ellipse 98" cx="143" cy="143" rx="143" ry="143" transform="translate(304.898 135.157) rotate(-9)" fill="#ebf3fb"/>
          <ellipse id="Ellipse_97-2" data-name="Ellipse 97" cx="97.5" cy="97.5" rx="97.5" ry="97.5" transform="translate(202.629 115.918) rotate(-9)" fill="#ebf3fb"/>
          <ellipse id="Ellipse_99-2" data-name="Ellipse 99" cx="157" cy="157" rx="157" ry="157" transform="translate(422.203 287.684) rotate(-9)" fill="#ebf3fb"/>
        </g>
      </g>
      <path id="Path_3588" data-name="Path 3588" d="M528.906,0c292.107,0,528.906,236.8,528.906,528.906s-236.8,528.906-528.906,528.906S0,821.012,0,528.906,236.8,0,528.906,0Z" transform="translate(84 4065)" fill="#fff"/>
    </g>
  </g>
</svg>
