<svg id="clouds2" xmlns="http://www.w3.org/2000/svg" width="233.682" height="145.981" viewBox="0 0 233.682 145.981">
  <g id="Layer_37" data-name="Layer 37">
    <path id="Path_2037" data-name="Path 2037" d="M300.246,119c.011-.181.018-.363.018-.547a9.088,9.088,0,0,0-11.815-8.665c0-.03,0-.063,0-.094a11.242,11.242,0,0,0-21.89-3.6,8.7,8.7,0,0,0-13.019,9.083,8.7,8.7,0,0,0,1.26,17.313h43.233A6.925,6.925,0,0,0,300.246,119Z" transform="translate(-246.1 -98.453)" fill="#deedfa" style="isolation: isolate"/>
  </g>
  <g id="Layer_37-2" data-name="Layer 37" transform="translate(82.447 58.531)">
    <path id="Path_2037-2" data-name="Path 2037" d="M385.222,151.247c.029-.464.046-.932.046-1.4a23.351,23.351,0,0,0-30.357-22.263c0-.078.006-.161.006-.243a28.884,28.884,0,0,0-56.244-9.257,22.354,22.354,0,0,0-33.45,23.339A22.36,22.36,0,0,0,268.46,185.9H379.543a17.794,17.794,0,0,0,5.679-34.656Z" transform="translate(-246.1 -98.453)" fill="#deedfa" style="isolation: isolate"/>
  </g>
</svg>
