<svg xmlns="http://www.w3.org/2000/svg" width="535.261" height="298.477" viewBox="0 0 535.261 298.477">
  <g id="clouds1" transform="translate(0.5 0.5)">
    <g id="Layer_37" data-name="Layer 37" transform="translate(383.104 145.249)">
      <path id="Path_2037" data-name="Path 2037" d="M385.149,151.219c.029-.464.046-.932.046-1.4a23.339,23.339,0,0,0-30.341-22.252c0-.078.006-.161.006-.242a28.869,28.869,0,0,0-56.215-9.252A22.342,22.342,0,0,0,265.214,141.4a22.349,22.349,0,0,0,3.235,44.462H379.474a17.784,17.784,0,0,0,5.676-34.638Z" transform="translate(-246.1 -98.453)" fill="#b6daf3" stroke="#2b6db5" stroke-miterlimit="10" stroke-width="1" opacity="0.77" style="isolation: isolate"/>
    </g>
    <g id="Layer_36" data-name="Layer 36" transform="translate(0 30.145)">
      <path id="Path_2038" data-name="Path 2038" d="M130.2,116.1c.012-.3.024-.6.024-.9v-.237l-.185.016a20.385,20.385,0,0,0-23.587-16.571c-.183.032-.364.066-.545.1a24.518,24.518,0,0,0-44.891,11.544,15.383,15.383,0,0,0-22.934,13.4v.153a15.228,15.228,0,0,0,15.229,15.229h53.271c.586,0,1.165-.03,1.739-.07.545.044,1.1.07,1.652.07a20.34,20.34,0,0,0,20.369-20.31,19.907,19.907,0,0,0-.143-2.433Z" transform="translate(-38.083 -87.51)" fill="#8ec6e8" stroke="#2b6db5" stroke-miterlimit="10" stroke-width="1" opacity="0.94" style="isolation: isolate"/>
    </g>
    <g id="Layer_20" data-name="Layer 20" transform="translate(92.261 185.568)">
      <g id="Group_6666" data-name="Group 6666">
        <rect id="Rectangle_1600" data-name="Rectangle 1600" width="99.303" height="47.045" rx="16.932" fill="#68a2d7" stroke="#2b6db5" stroke-miterlimit="10" stroke-width="1" opacity="0.63" style="isolation: isolate"/>
        <g id="Group_6665" data-name="Group 6665" transform="translate(15.541 10.389)">
          <g id="Group_6660" data-name="Group 6660" transform="translate(0 0.327)">
            <path id="Path_3473" data-name="Path 3473" d="M38.7,159.027v10.864H34.826V144.257H38.7V155.14h4.668V144.257h3.87v25.634h-3.87V159.027Z" transform="translate(-34.826 -144.257)" fill="#fff"/>
          </g>
          <g id="Group_6661" data-name="Group 6661" transform="translate(15.867 0.307)">
            <path id="Path_3474" data-name="Path 3474" d="M47.137,169.9V144.241H58.153v3.887H51.006v7h5.221v3.887H51.006v7h7.147V169.9Z" transform="translate(-47.137 -144.241)" fill="#fff"/>
          </g>
          <g id="Group_6662" data-name="Group 6662" transform="translate(29.544 0.327)">
            <path id="Path_3475" data-name="Path 3475" d="M68.293,169.891H57.749V144.257h3.869v21.788h6.675Z" transform="translate(-57.749 -144.257)" fill="#fff"/>
          </g>
          <g id="Group_6663" data-name="Group 6663" transform="translate(42.75 0.327)">
            <path id="Path_3476" data-name="Path 3476" d="M78.54,169.891H67.995V144.257h3.87v21.788H78.54Z" transform="translate(-67.995 -144.257)" fill="#fff"/>
          </g>
          <g id="Group_6664" data-name="Group 6664" transform="translate(55.956)">
            <path id="Path_3477" data-name="Path 3477" d="M84.363,144a6.132,6.132,0,0,1,6.143,6.138v13.993a6.132,6.132,0,1,1-12.265,0V150.141A6.132,6.132,0,0,1,84.363,144Zm2.11,6.055a2.2,2.2,0,0,0-2.212-2.209,2.166,2.166,0,0,0-1.576.644,2.108,2.108,0,0,0-.656,1.565v14.034a2.112,2.112,0,0,0,.656,1.566,2.166,2.166,0,0,0,1.576.644,2.2,2.2,0,0,0,2.212-2.21Z" transform="translate(-78.241 -144.003)" fill="#fff"/>
          </g>
        </g>
      </g>
    </g>
    <g id="Layer_19" data-name="Layer 19" transform="translate(229.721 98.582)">
      <g id="Group_6670" data-name="Group 6670">
        <rect id="Rectangle_1601" data-name="Rectangle 1601" width="86.705" height="47.045" rx="16.932" fill="#68a2d7" stroke="#2b6db5" stroke-miterlimit="10" stroke-width="1" opacity="0.63" style="isolation: isolate"/>
        <g id="Group_6669" data-name="Group 6669" transform="translate(13.165 9.001)">
          <g id="Group_6667" data-name="Group 6667">
            <path id="Path_3478" data-name="Path 3478" d="M151.978,123.124a37.6,37.6,0,0,1-3.243,4.862,15.673,15.673,0,0,0-1.342-1.683c2.932-3.49,5.738-9.411,7.517-15.176l2.588.78c-.125.311-.406.374-.749.343a68.839,68.839,0,0,1-2.962,7.385l.9.249c-.062.187-.218.343-.624.374v19.82h-2.089Zm21.361.748c.249-1.154.561-2.9.842-4.581h-6.206v18.2c0,2.244-.811,2.649-5.176,2.649a8.529,8.529,0,0,0-.78-2.15c.78.031,1.529.031,2.12.031h1.248c.406,0,.53-.125.53-.53v-18.2H160.9a26.739,26.739,0,0,1-3.212,5.89,9.228,9.228,0,0,0-1.59-1.279c2.245-2.9,4.086-7.79,5.145-12.682l2.588.686c-.062.218-.28.343-.686.311a48.109,48.109,0,0,1-1.5,5.112h13.784l1.092.031a52.841,52.841,0,0,1-1.4,6.855Zm-9.98,1.029c-.093.218-.312.343-.686.343A30.5,30.5,0,0,1,158,135.65a10.04,10.04,0,0,0-1.652-1.059c1.9-2.368,3.522-6.388,4.49-10.377Zm11.32,10.5a43.04,43.04,0,0,0-4.273-10.752l1.84-.653a41.082,41.082,0,0,1,4.429,10.658Z" transform="translate(-147.394 -111.126)" fill="#fff"/>
          </g>
          <g id="Group_6668" data-name="Group 6668" transform="translate(31.467 0.031)">
            <path id="Path_3479" data-name="Path 3479" d="M182.536,117.632l1.184.312-.187.437a40.616,40.616,0,0,1-2.994,13.4,22.242,22.242,0,0,1,3.68,3.4l-1.279,1.713a22.151,22.151,0,0,0-3.337-3.24,16.824,16.824,0,0,1-6.174,6.513,8.687,8.687,0,0,0-1.309-1.714,14.731,14.731,0,0,0,5.862-6.076,41.658,41.658,0,0,0-3.555-2.4l-.374,1.371-1.777-.936c.78-2.741,1.746-6.7,2.65-10.719h-3.118v-1.963h3.555c.5-2.337.936-4.581,1.309-6.576l2.557.312c-.031.218-.218.343-.624.374-.343,1.776-.78,3.8-1.246,5.89h4.8Zm-5.613,2.057c-.655,2.9-1.373,5.828-2.027,8.383,1.309.717,2.651,1.589,3.961,2.462a36.913,36.913,0,0,0,2.588-10.844Zm23.794,5.36v2.025H193.2v10.315c0,2.4-.936,2.774-6.456,2.712a10.716,10.716,0,0,0-.78-2.088c1.5.031,2.869.062,3.743.062,1.059,0,1.371,0,1.371-.655V127.074h-7.639v-2.025h7.639v-5.3l1.03.063a31.179,31.179,0,0,0,4.615-5.079H184.719v-1.963h13.6l.4-.125,1.654,1.029a.924.924,0,0,1-.5.312,40.161,40.161,0,0,1-6.672,7.2v3.864Z" transform="translate(-171.809 -111.15)" fill="#fff"/>
          </g>
        </g>
      </g>
    </g>
    <g id="Layer_18" data-name="Layer 18" transform="translate(142.169 0.477)">
      <g id="Group_6679" data-name="Group 6679">
        <rect id="Rectangle_1602" data-name="Rectangle 1602" width="139.758" height="47.045" rx="16.932" fill="#68a2d7" stroke="#2b6db5" stroke-miterlimit="10" stroke-width="1" opacity="0.63" style="isolation: isolate"/>
        <g id="Group_6678" data-name="Group 6678" transform="translate(12.896 9.162)">
          <g id="Group_6671" data-name="Group 6671" transform="translate(0 0.335)">
            <path id="Path_3480" data-name="Path 3480" d="M96.325,68.1V40.049h6.335a8.076,8.076,0,0,1,4.521,1.32,6.141,6.141,0,0,1,2.463,3.467,9.748,9.748,0,0,1,.4,2.976,6.578,6.578,0,0,1-1.5,4.517,4.242,4.242,0,0,1-1.477,1.1,4.91,4.91,0,0,1,2.395,2.124,8.256,8.256,0,0,1,.963,2.775,11.045,11.045,0,0,1,.157,1.945,9.362,9.362,0,0,1-1.008,4.519,6.029,6.029,0,0,1-2.216,2.326,6.112,6.112,0,0,1-3.2.985Zm4.566-16.6h1.768a2.592,2.592,0,0,0,2.642-1.923,5.493,5.493,0,0,0,.246-1.767,3.693,3.693,0,0,0-.851-2.64,2.68,2.68,0,0,0-2.038-.827h-1.768Zm0,12.414h1.768a3,3,0,0,0,2.977-2.214,4.868,4.868,0,0,0,.291-1.744,5.316,5.316,0,0,0-.9-3.423,2.888,2.888,0,0,0-2.373-.985h-1.768Z" transform="translate(-96.325 -40.049)" fill="#fff"/>
          </g>
          <g id="Group_6672" data-name="Group 6672" transform="translate(17.864)">
            <path id="Path_3481" data-name="Path 3481" d="M116.878,39.789a6.7,6.7,0,0,1,6.716,6.711V61.8a6.7,6.7,0,1,1-13.409,0V46.5a6.7,6.7,0,0,1,6.693-6.711Zm2.306,6.621a2.407,2.407,0,0,0-2.418-2.415,2.365,2.365,0,0,0-1.723.705,2.307,2.307,0,0,0-.717,1.71V61.755a2.307,2.307,0,0,0,.717,1.71,2.365,2.365,0,0,0,1.723.705,2.407,2.407,0,0,0,2.418-2.415Z" transform="translate(-110.185 -39.789)" fill="#fff"/>
          </g>
          <g id="Group_6673" data-name="Group 6673" transform="translate(34.989 0.335)">
            <path id="Path_3482" data-name="Path 3482" d="M128.221,40.049,133.836,58.9V40.049h4.231V68.1h-4.544L127.7,50.138V68.1h-4.23V40.049Z" transform="translate(-123.472 -40.049)" fill="#fff"/>
          </g>
          <g id="Group_6674" data-name="Group 6674" transform="translate(52.494 0.402)">
            <path id="Path_3483" data-name="Path 3483" d="M146.367,61.732a6.393,6.393,0,0,1-1.959,4.73,6.491,6.491,0,0,1-4.735,1.936,8.451,8.451,0,0,1-2.619-.336l.6-3.936a6.889,6.889,0,0,0,1.231.134,6.431,6.431,0,0,0,.9-.022,2.687,2.687,0,0,0,1.735-.739,2.22,2.22,0,0,0,.706-1.678V40.1h4.141Z" transform="translate(-137.054 -40.101)" fill="#fff"/>
          </g>
          <g id="Group_6675" data-name="Group 6675" transform="translate(65.501)">
            <path id="Path_3484" data-name="Path 3484" d="M153.839,39.789a6.7,6.7,0,0,1,6.715,6.711V61.8a6.7,6.7,0,1,1-13.408,0V46.5a6.7,6.7,0,0,1,6.693-6.711Zm2.306,6.621a2.407,2.407,0,0,0-2.418-2.415A2.37,2.37,0,0,0,152,44.7a2.311,2.311,0,0,0-.715,1.71V61.755a2.311,2.311,0,0,0,.715,1.71,2.37,2.37,0,0,0,1.724.705,2.407,2.407,0,0,0,2.418-2.415Z" transform="translate(-147.146 -39.789)" fill="#fff"/>
          </g>
          <g id="Group_6676" data-name="Group 6676" transform="translate(82.603 0.358)">
            <path id="Path_3485" data-name="Path 3485" d="M167.109,68.408a6.647,6.647,0,0,1-6.694-6.666V40.067h4.141V61.7a2.315,2.315,0,0,0,.717,1.712,2.374,2.374,0,0,0,1.724.7,2.407,2.407,0,0,0,2.418-2.415V40.067h4.409V61.742a6.37,6.37,0,0,1-1.969,4.742A6.55,6.55,0,0,1,167.109,68.408Z" transform="translate(-160.415 -40.067)" fill="#fff"/>
          </g>
          <g id="Group_6677" data-name="Group 6677" transform="translate(99.773 0.358)">
            <path id="Path_3486" data-name="Path 3486" d="M180.408,40.067q3.536,0,5.193,1.946a7.065,7.065,0,0,1,1.456,4.742v4.071a6.551,6.551,0,0,1-2.262,5.033l3.134,12.235h-4.575l-2.566-10.558h-2.82V68.094h-4.231V40.067Zm2.53,6.755a2.147,2.147,0,0,0-2.418-2.439h-2.552v8.97h2.552a2.308,2.308,0,0,0,1.712-.717,2.363,2.363,0,0,0,.706-1.722Z" transform="translate(-173.737 -40.067)" fill="#fff"/>
          </g>
        </g>
      </g>
    </g>
    <g id="Layer_17" data-name="Layer 17" transform="translate(383.267)">
      <g id="Group_6685" data-name="Group 6685">
        <rect id="Rectangle_1603" data-name="Rectangle 1603" width="86.705" height="47.045" rx="16.932" fill="#68a2d7" stroke="#2b6db5" stroke-miterlimit="10" stroke-width="1" opacity="0.63" style="isolation: isolate"/>
        <g id="Group_6684" data-name="Group 6684" transform="translate(11.638 9.33)">
          <g id="Group_6680" data-name="Group 6680" transform="translate(0 0.354)">
            <path id="Path_3487" data-name="Path 3487" d="M281.162,74.406V86.144h-4.181v-27.7h4.181V70.206h5.045V58.445h4.181v27.7h-4.181V74.406Z" transform="translate(-276.981 -58.445)" fill="#fff"/>
          </g>
          <g id="Group_6681" data-name="Group 6681" transform="translate(17.102)">
            <path id="Path_3488" data-name="Path 3488" d="M296.864,58.17A6.627,6.627,0,0,1,303.5,64.8V79.923a6.626,6.626,0,1,1-13.252,0V64.8a6.625,6.625,0,0,1,6.614-6.632Zm2.28,6.544a2.379,2.379,0,0,0-2.39-2.387,2.343,2.343,0,0,0-1.7.7,2.281,2.281,0,0,0-.709,1.691V79.879a2.281,2.281,0,0,0,.709,1.691,2.343,2.343,0,0,0,1.7.7,2.379,2.379,0,0,0,2.39-2.387Z" transform="translate(-290.25 -58.17)" fill="#fff"/>
          </g>
          <g id="Group_6682" data-name="Group 6682" transform="translate(34.049 0.354)">
            <path id="Path_3489" data-name="Path 3489" d="M314.793,86.144H303.4v-27.7h4.181V81.989h7.212Z" transform="translate(-303.399 -58.445)" fill="#fff"/>
          </g>
          <g id="Group_6683" data-name="Group 6683" transform="translate(48.319 0.354)">
            <path id="Path_3490" data-name="Path 3490" d="M319.84,79.777l-1.016,6.367h-4.354l4.712-27.7h5.752l4.645,27.7h-4.4l-.978-6.367Zm2.2-14.988-1.548,10.922h3.1Z" transform="translate(-314.471 -58.445)" fill="#fff"/>
          </g>
        </g>
      </g>
    </g>
    <g id="Layer_16" data-name="Layer 16" transform="translate(281.608 250.432)">
      <g id="Group_6689" data-name="Group 6689">
        <rect id="Rectangle_1604" data-name="Rectangle 1604" width="99.303" height="47.045" rx="16.932" fill="#68a2d7" stroke="#2b6db5" stroke-miterlimit="10" stroke-width="1" opacity="0.63" style="isolation: isolate"/>
        <g id="Group_6688" data-name="Group 6688" transform="translate(17.435 7.598)">
          <g id="Group_6686" data-name="Group 6686" transform="translate(0 0.287)">
            <path id="Path_3491" data-name="Path 3491" d="M282.355,183.874c.575-.108,1.041-.287,1.041-.718a1.342,1.342,0,0,0-.324-.717c-.322-.251-.467-.43-.467-.575,0-.107.144-.179.467-.179,1.077,0,2.369.61,2.369,1.148,0,.394-.43.753-.5,1.183,4.163.969,5.994,3.551,5.994,6.17,0,3.229-2.872,6.385-7.539,6.385-4.953,0-7.861-3.013-7.861-6.385C275.536,187.389,277.69,184.592,282.355,183.874Zm-4.559,6.313c0,2.44,1.831,4.842,5.492,4.842,3.591,0,5.385-2.4,5.385-4.842,0-2.4-1.794-4.878-5.385-4.878C279.628,185.308,277.8,187.783,277.8,190.187Zm7.4,12.376c-.036-.682-.862-1-2.692-1.543-.4-.107-.682-.25-.682-.43s.322-.358,1.148-.5a27.217,27.217,0,0,1,3.8.251c.646.143.79.358.79.681,0,.251-.072.539-.108.933,0,1.578,0,3.7.036,4.95.036.825.5,1.147,1.759,1.219l6.5-.072c2.692-.215,1.4-1.04,4.595-1.04,1.184,0,2.692.144,2.692,1.219,0,.43-.36.79-.969.79H289.1c-2.4-.036-3.733-.61-3.877-2.4Zm12.132-21.235c0-.394-.933-1.04-3.087-1.973-.539-.179-.825-.394-.825-.537,0-.215.43-.36,1.291-.394.144,0,5.061.61,5.061,1.793,0,.251-.143.539-.143.9l-.036,11.263c.5-.036,1.077,0,1.615-.072,1.652-.322.9-1,3.662-1,.718,0,2.047,0,2.047.968a.952.952,0,0,1-1.041.9l-6.318.144c-.036,6.492-.251,8.106-.61,9.111-.323.682-.718,1.219-1.041,1.219s-.539-.43-.575-1.614Z" transform="translate(-275.536 -178.422)" fill="#fff"/>
          </g>
          <g id="Group_6687" data-name="Group 6687" transform="translate(34.892)">
            <path id="Path_3492" data-name="Path 3492" d="M306.2,184.906c0-.681-1.472-1.147-2.836-1.543-.36-.107-.754-.25-.754-.465,0-.179.287-.36,1.112-.575,4.273.215,4.739.646,4.739,1.221,0,.179-.036.358-.036.574v8.322c-.036.537.143.825,1.148.825a32.557,32.557,0,0,0,10.8-3.551,2.084,2.084,0,0,1,.718-.215c.072,0,.108,0,.108.071,0,.108-.179.324-.61.682-4.416,2.977-11.452,5.2-12.636,5.2-1.041,0-1.508-1.83-1.651-2.583Zm15,13.739a.648.648,0,0,0,.575-.61.922.922,0,0,0-.36-.682c-.251-.215-.358-.394-.358-.5,0-.143.107-.179.322-.179.647,0,2.19.574,2.19,1.076,0,.287-.251.574-.322,1.04,3.984.646,5.814,3.156,5.814,5.7,0,3.013-2.584,6.063-7.071,6.063-4.7,0-7.215-3.049-7.215-6.063,0-2.618,1.938-5.237,6.067-5.739Zm-4.416,5.775c0,2.368,1.759,4.7,5.277,4.7a4.685,4.685,0,1,0,0-9.364C318.546,199.756,316.787,202.089,316.787,204.421Zm10.231-23.208c-.036-.36-1.508-1.255-3.2-2.009-.358-.107-1.005-.322-1.005-.537,0-.251.9-.467,1.114-.467.754,0,5.564.718,5.564,1.865,0,.324-.215.646-.251,1.112l-.072,9.936c0,6.027-.467,7.1-1.184,8.107-.144.215-.287.287-.394.287-.36,0-.575-.825-.575-2.225v-4.233c-1.651.036-3.267.179-4.452.251-.646.143-.718.43-1.184.43-.646,0-3.159-1.112-3.159-1.435,0-.144.216-.18.611-.18.358,0,2.045.072,2.441.072,1.687,0,3.446-.107,5.743-.251v-6.206c-2.154.036-3.734.144-4.595.215-.862.108-.9.467-1.364.467-.539,0-2.908-.9-2.908-1.471,0-.107.143-.179.467-.179a6.307,6.307,0,0,1,.682.072c.826.036,1.508.036,2.19.036,1.759,0,3.2-.072,5.528-.18Z" transform="translate(-302.608 -178.199)" fill="#fff"/>
          </g>
        </g>
      </g>
    </g>
  </g>
</svg>
