<svg id="extension" xmlns="http://www.w3.org/2000/svg" xmlns:xlink="http://www.w3.org/1999/xlink" width="47.444" height="38.66" viewBox="0 0 47.444 38.66">
  <defs>
    <linearGradient id="linear-gradient" x1="0.5" x2="0.5" y2="1" gradientUnits="objectBoundingBox">
      <stop offset="0" stop-color="#006aa2"/>
      <stop offset="0.345" stop-color="#2f8da6"/>
      <stop offset="0.786" stop-color="#66b6ac"/>
      <stop offset="1" stop-color="#7cc6af"/>
    </linearGradient>
    <linearGradient id="linear-gradient-2" x1="0.5" x2="0.5" y2="1" gradientUnits="objectBoundingBox">
      <stop offset="0" stop-color="#fff" stop-opacity="0.42"/>
      <stop offset="1" stop-color="#fff" stop-opacity="0"/>
    </linearGradient>
  </defs>
  <g id="Group_6818" data-name="Group 6818" transform="translate(-244.5 -631)">
    <path id="Path_3597" data-name="Path 3597" d="M162.1,750.126a4.5,4.5,0,0,1,1.156,2.993l-.343,0h.343a4.206,4.206,0,0,1-.087.749,5.743,5.743,0,0,1,.052.693q0,.17-.016.342l6.186.008a.348.348,0,0,0,.355-.3l.006-.023,0-.053.018-.051.021-.1-.011-6.159.006-.03a1.054,1.054,0,0,1,.948-.858l.093-.017a1.01,1.01,0,0,1,.438.1v0l.035.014.011.008a4.092,4.092,0,0,0,1.827.431h.009a4.111,4.111,0,0,0,1.136-.179,3.891,3.891,0,0,0,2.87-3.7l0-.089v-.02l0-.093a3.723,3.723,0,0,0-.73-2.205,4.025,4.025,0,0,0-2.139-1.5,4.641,4.641,0,0,0-.643-.138,3.266,3.266,0,0,0-.49-.044h-.013a4.059,4.059,0,0,0-1.825.434l-.015.009-.017.006-.02.008,0,0a1.046,1.046,0,0,1-.434.1l-.084-.016a1.053,1.053,0,0,1-.955-.858l-.006-.029.011-6.159-.009-.05-.011-.054-.018-.05,0-.054a.352.352,0,0,0-.36-.327l-6.92.012-.1-.08a1.032,1.032,0,0,1-.378-.791.992.992,0,0,1,.116-.466,3.76,3.76,0,0,0,.426-1.74,4.54,4.54,0,0,0-.914-2.641,1.394,1.394,0,0,0-.367-.358,4.891,4.891,0,0,0-2.728-.885,3.948,3.948,0,0,0-4.011,3.872v.007a3.746,3.746,0,0,0,.426,1.741.985.985,0,0,1,.112.451,1.037,1.037,0,0,1-.441.837l-.093.066-6.948.011a.352.352,0,0,0-.361.341l.011,6.416.015.1v.063a.3.3,0,0,0,.1.228.385.385,0,0,0,.251.092l.214-.061a4.768,4.768,0,0,1,2.514-.711,5.584,5.584,0,0,1,3.012.932l.018.012.015.012a4.684,4.684,0,0,1,.887.97l.006.008.006.008a5.157,5.157,0,0,1,.773,2.573v.011a5.147,5.147,0,0,1-.773,2.571l0,.008-.007.009a4.666,4.666,0,0,1-.887.969l-.017.013-.016.012a5.576,5.576,0,0,1-3.014.931,4.763,4.763,0,0,1-2.514-.71l-.212-.062a.379.379,0,0,0-.251.093.3.3,0,0,0-.1.228v.062l0,.025-.011.077-.011,6.418a.353.353,0,0,0,.361.342l6.274.011a3.5,3.5,0,0,1-.032-.45v0a3.575,3.575,0,0,1,.09-.65,4.627,4.627,0,0,1-.058-.686,5.177,5.177,0,0,1,.959-2.911l.067-.11a2.171,2.171,0,0,1,.551-.534,6.057,6.057,0,0,1,1.665-.784c.173-.05.346-.088.517-.12a5.026,5.026,0,0,1,.937-.1A4.75,4.75,0,0,1,162.1,750.126Z" transform="translate(114.791 -94.912)" fill="url(#linear-gradient)"/>
    <g id="Group_6817" data-name="Group 6817" transform="translate(-0.5 -53.5)">
      <path id="Path_3591" data-name="Path 3591" d="M76.032,8.176H63.912a4.9,4.9,0,0,0-4.284,7.3l-6.06-10.4a13.072,13.072,0,0,1,22.464,3.1Z" transform="translate(194.169 697)" fill="#f44336"/>
      <path id="Path_3592" data-name="Path 3592" d="M238.735,164.926a13.09,13.09,0,0,1-13.08,13.08,11.667,11.667,0,0,1-1.635-.109l5.886-10.518a4.917,4.917,0,0,0-1.8-6.7,4.859,4.859,0,0,0-2.442-.654h12.109A12.9,12.9,0,0,1,238.735,164.926Z" transform="translate(32.425 545.155)" fill="#ffc107"/>
      <path id="Path_3593" data-name="Path 3593" d="M17.332,109.887,11.446,120.4h-.011a13.072,13.072,0,0,1-8.7-20.971l6.06,10.4.033.055a4.9,4.9,0,0,0,8.5,0Z" transform="translate(244.999 602.646)" fill="#4caf50"/>
      <path id="Path_3595" data-name="Path 3595" d="M169.07,167.377a4.9,4.9,0,0,1-8.5,0l-.033-.055a4.9,4.9,0,0,1,4.284-7.3h.011a4.859,4.859,0,0,1,2.441.654A4.917,4.917,0,0,1,169.07,167.377Z" transform="translate(93.261 545.156)" fill="#2196f3"/>
      <path id="Path_3596" data-name="Path 3596" d="M154.711,160.255a5.411,5.411,0,0,1-2.706-.726,5.454,5.454,0,1,1,7.449-2h0A5.48,5.48,0,0,1,154.711,160.255Zm.028-9.81a4.362,4.362,0,1,0,3.768,6.54h0a4.36,4.36,0,0,0-3.767-6.54h0Z" transform="translate(103.351 555.276)" fill="#fafafa"/>
    </g>
  </g>
  <circle id="Ellipse_157" data-name="Ellipse 157" cx="12.5" cy="12.5" r="12.5" transform="translate(0.5 13)" fill="url(#linear-gradient-2)"/>
</svg>
