<?xml version="1.0" encoding="utf-8"?>
<!-- Generator: Adobe Illustrator 23.0.1, SVG Export Plug-In . SVG Version: 6.00 Build 0)  -->
<svg version="1.1" id="feature1" xmlns="http://www.w3.org/2000/svg" xmlns:xlink="http://www.w3.org/1999/xlink" x="0px" y="0px"
	 viewBox="0 0 233 247" style="enable-background:new 0 0 233 247;" xml:space="preserve">
<style type="text/css">
	.st0{clip-path:url(#SVGID_2_);}
	.st1{fill:none;stroke:#5D99D2;stroke-miterlimit:10;}
	.st2{fill:#FFFFFF;stroke:#5D99D2;stroke-miterlimit:10;}
	.st3{fill:#FED8C7;}
	.st4{fill-rule:evenodd;clip-rule:evenodd;fill:#FFFFFF;}
	.st5{fill:#DEEDFA;}
	.st6{fill:none;}
	.st7{fill:none;stroke:#DEEDFA;stroke-width:2;stroke-miterlimit:10;}
	.st8{fill:url(#Rectangle_1631_1_);stroke:#DEEDFA;stroke-width:1.04;}
	.st9{fill-rule:evenodd;clip-rule:evenodd;fill:#DEEDFA;}
	.st10{font-family:'ProductSans-Regular';}
	.st11{font-size:3px;}
	.st12{clip-path:url(#SVGID_4_);}
	.st13{fill:#3168B1;}
	.st14{clip-path:url(#SVGID_6_);}
	.st15{fill:#3C983D;}
	.st16{clip-path:url(#SVGID_8_);}
	.st17{fill:#FBAB00;}
	.st18{clip-path:url(#SVGID_10_);}
	.st19{fill:#DE2824;}
	.st20{fill:#C5CFD4;}
	.st21{fill:#425C67;}
	.st22{fill:#267EC3;}
	.st23{fill:#244496;}
	.st24{fill:#FFFFFF;}
	.st25{opacity:0.58;}
	.st26{fill:#3D6DB4;}
	.st27{fill:#FFFFFF;stroke:#004D9D;stroke-miterlimit:10;}
	.st28{fill:#004D9D;}
	.st29{fill:#003568;}
	.st30{fill:none;stroke:#FFFFFF;stroke-width:2;}
	.st31{clip-path:url(#SVGID_12_);}
	.st32{clip-path:url(#SVGID_14_);}
	.st33{clip-path:url(#SVGID_16_);}
	.st34{clip-path:url(#SVGID_18_);}
	.st35{fill:none;stroke:#2B6DB5;stroke-miterlimit:10;}
	.st36{fill:none;stroke:#2B6DB5;}
	.st37{fill:#55B8A1;}
	.st38{opacity:0.63;}
	.st39{fill:#68A2D7;}
	.st40{fill:none;stroke:#003568;stroke-width:6;stroke-linecap:round;stroke-miterlimit:10;stroke-dasharray:0,8;}
	.st41{fill:#FED8C7;stroke:#ED5140;}
</style>
<g>
	<defs>
		<rect id="SVGID_1_" width="233" height="247"/>
	</defs>
	<clipPath id="SVGID_2_">
		<use xlink:href="#SVGID_1_"  style="overflow:visible;"/>
	</clipPath>
	<g id="Mask_Group_3" transform="translate(0 0)" class="st0">
		<g id="Group_6846">
			<g id="Group_6744" transform="translate(-46.689 -54.809)">
				<g id="Group_6755">
					<g id="Layer_127" transform="translate(88.391 54.809)">
						<path id="Rectangle_1612" class="st1" d="M25.9,0h78.3C118.5,0,130,11.6,130,25.9v179.6c0,14.3-11.6,25.9-25.9,25.9H25.9
							C11.6,231.3,0,219.7,0,205.4V25.9C0,11.6,11.6,0,25.9,0z"/>
					</g>
					<g id="Layer_126" transform="translate(93.055 59.842)">
						<path id="Rectangle_1613" class="st2" d="M20.5,0h79.3c11.3,0,20.5,9.2,20.5,20.5v179.9c0,11.3-9.2,20.5-20.5,20.5H20.5
							C9.2,220.8,0,211.7,0,200.4V20.5C0,9.2,9.2,0,20.5,0z"/>
					</g>
				</g>
				<g id="Layer_79" transform="translate(98.723 66.012)">
					<g id="Group_6714">
						<g id="_YOUR_IMAGE_HERE_" transform="translate(0 16.25)">
							<rect id="Mask" x="0" y="0" class="st3" width="105.6" height="39.7"/>
							<path id="Icon" class="st4" d="M51.3,13.7c-1.1,0-1.9,0.9-1.9,1.9s0.9,1.9,1.9,1.9c1.1,0,1.9-0.9,1.9-1.9
								C53.2,14.6,52.4,13.7,51.3,13.7 M51.3,17c-0.7,0-1.3-0.6-1.3-1.3s0.6-1.3,1.3-1.3c0.7,0,1.3,0.6,1.3,1.3
								C52.6,16.4,52.1,17,51.3,17 M62.5,11H43.1c-1.1,0-2.1,0.9-2.1,2.1v12.3c0,1.1,0.9,2.1,2.1,2.1h19.4c1.1,0,2.1-0.9,2.1-2.1
								V13.1C64.5,11.9,63.6,11,62.5,11L62.5,11z M43,26.8l4.8-6.8l3.7,4.8l5.1-7.3l6.2,9.3c-0.1,0-0.2,0-0.3,0L43,26.8L43,26.8z
								 M63.9,25.4c0,0.5-0.2,0.9-0.6,1.2l-6.7-10l-5.2,7.3l-3.7-4.8l-5.4,7.6c-0.5-0.3-0.8-0.7-0.8-1.3V13.1c0-0.8,0.7-1.5,1.5-1.5
								l0,0h19.4c0.8,0,1.5,0.7,1.5,1.5v0L63.9,25.4z"/>
						</g>
						<g id="_YOUR_IMAGE_HERE_2" transform="translate(1.175 110.452)">
							<rect id="Mask-2" x="0" y="0" class="st5" width="50.6" height="39.7"/>
							<path id="Icon-2" class="st4" d="M23.8,14.4c-1.1,0-1.9,0.9-1.9,1.9s0.9,1.9,1.9,1.9c1.1,0,1.9-0.9,1.9-1.9
								C25.7,15.2,24.9,14.4,23.8,14.4 M23.8,17.6c-0.7,0-1.3-0.6-1.3-1.3s0.6-1.3,1.3-1.3c0.7,0,1.3,0.6,1.3,1.3
								C25.1,17,24.5,17.6,23.8,17.6 M35,11.6H15.6c-1.1,0-2.1,0.9-2.1,2.1c0,0,0,0,0,0V26c0,1.1,0.9,2.1,2.1,2.1H35
								c1.1,0,2.1-0.9,2.1-2.1V13.7C37,12.6,36.1,11.6,35,11.6C35,11.6,35,11.6,35,11.6L35,11.6z M15.5,27.5l4.8-6.8l3.7,4.8
								l5.1-7.3l6.2,9.3c-0.1,0-0.2,0-0.3,0L15.5,27.5L15.5,27.5z M36.4,26c0,0.5-0.2,0.9-0.6,1.2l-6.7-10L24,24.4l-3.7-4.8
								l-5.4,7.6c-0.5-0.3-0.8-0.7-0.8-1.3V13.7c0-0.8,0.7-1.5,1.5-1.5c0,0,0,0,0,0H35c0.8,0,1.5,0.7,1.5,1.5c0,0,0,0,0,0L36.4,26z"
								/>
						</g>
						<g id="Toolbar" transform="translate(0.411)">
							<g id="Toolbar_contents">
								<rect id="Rectangle_1614" x="0" y="0" class="st6" width="105.6" height="16.4"/>
								<g id="Star" transform="translate(93.419 4.078)">
									<rect id="Bounds" x="0" y="0" class="st6" width="7" height="7"/>
									<path id="Icon-3" class="st5" d="M6.4,3L4.3,2.8L3.5,0.8L2.7,2.8L0.6,3l1.6,1.4L1.7,6.4l1.8-1.1l1.8,1.1L4.8,4.3L6.4,3z
										 M3.5,4.8L2.4,5.4l0.3-1.3l-1-0.8L3,3.2L3.5,2L4,3.2l1.3,0.1l-1,0.8l0.3,1.3L3.5,4.8z"/>
								</g>
								<path id="Path_3547" class="st7" d="M9.4,5.1L6.8,7.7l2.6,2.6"/>
							</g>
						</g>
						<g id="Group_6711" transform="translate(0.572 66.26)">
							<path id="Rectangle_1615" class="st5" d="M3.7,0h41.2c2,0,3.7,1.7,3.7,3.7l0,0c0,2-1.7,3.7-3.7,3.7H3.7C1.7,7.4,0,5.8,0,3.7
								l0,0C0,1.7,1.7,0,3.7,0z"/>
							<path id="Rectangle_1616" class="st5" d="M3.5,10h6.2c1.5,0,2.7,1.2,2.7,2.7l0,0c0,1.5-1.2,2.7-2.7,2.7H3.5
								c-1.5,0-2.7-1.2-2.7-2.7l0,0C0.7,11.2,1.9,10,3.5,10z"/>
							<path id="Rectangle_1617" class="st5" d="M2.8,19h92.3c1.2,0,2.1,0.9,2.1,2.1l0,0c0,1.2-0.9,2.1-2.1,2.1H2.8
								c-1.2,0-2.1-0.9-2.1-2.1l0,0C0.7,20,1.6,19,2.8,19z"/>
							<path id="Rectangle_1618" class="st5" d="M2.8,30.6h62.5c1.2,0,2.1,0.9,2.1,2.1l0,0c0,1.2-0.9,2.1-2.1,2.1H2.8
								c-1.2,0-2.1-0.9-2.1-2.1l0,0C0.7,31.6,1.6,30.6,2.8,30.6z"/>
							<path id="Rectangle_1619" class="st5" d="M2.8,24.8h100.1c1.2,0,2.1,0.9,2.1,2.1l0,0c0,1.2-0.9,2.1-2.1,2.1H2.8
								c-1.2,0-2.1-0.9-2.1-2.1l0,0C0.7,25.8,1.6,24.8,2.8,24.8z"/>
						</g>
						<g id="Group_6712" transform="translate(1.281 166.673)">
							<path id="Rectangle_1620" class="st5" d="M2.7,0H9c1.5,0,2.7,1.2,2.7,2.7l0,0c0,1.5-1.2,2.7-2.7,2.7H2.7C1.2,5.5,0,4.3,0,2.7
								l0,0C0,1.2,1.2,0,2.7,0z"/>
							<path id="Rectangle_1621" class="st5" d="M2.1,9h92.3c1.2,0,2.1,0.9,2.1,2.1l0,0c0,1.2-0.9,2.1-2.1,2.1H2.1
								c-1.2,0-2.1-0.9-2.1-2.1l0,0C0,10,0.9,9,2.1,9z"/>
							<path id="Rectangle_1622" class="st5" d="M2.1,20.6h62.5c1.2,0,2.1,0.9,2.1,2.1l0,0c0,1.2-0.9,2.1-2.1,2.1H2.1
								c-1.2,0-2.1-0.9-2.1-2.1l0,0C0,21.6,0.9,20.6,2.1,20.6z"/>
							<path id="Rectangle_1623" class="st5" d="M2.1,14.8h100.1c1.2,0,2.1,0.9,2.1,2.1l0,0c0,1.2-0.9,2.1-2.1,2.1H2.1
								C0.9,19,0,18.1,0,16.9l0,0C0,15.8,0.9,14.8,2.1,14.8z"/>
						</g>
						<g id="Group_6713" transform="translate(58.151 111.582)">
							<path id="Rectangle_1624" class="st5" d="M3.7,0H35c2,0,3.7,1.7,3.7,3.7l0,0c0,2-1.7,3.7-3.7,3.7H3.7C1.7,7.4,0,5.8,0,3.7
								l0,0C0,1.7,1.7,0,3.7,0z"/>
							<path id="Rectangle_1625" class="st5" d="M3.1,10h10.3c1.5,0,2.7,1.2,2.7,2.7l0,0c0,1.5-1.2,2.7-2.7,2.7H3.1
								c-1.5,0-2.7-1.2-2.7-2.7l0,0C0.3,11.2,1.5,10,3.1,10z"/>
							<path id="Rectangle_1626" class="st5" d="M2.4,19h39.4c1.2,0,2.1,0.9,2.1,2.1l0,0c0,1.2-0.9,2.1-2.1,2.1H2.4
								c-1.2,0-2.1-0.9-2.1-2.1l0,0C0.3,20,1.3,19,2.4,19z"/>
							<path id="Rectangle_1627" class="st5" d="M2.8,36.5h39.4c1.2,0,2.1,0.9,2.1,2.1l0,0c0,1.2-0.9,2.1-2.1,2.1H2.8
								c-1.2,0-2.1-0.9-2.1-2.1l0,0C0.7,37.4,1.6,36.5,2.8,36.5z"/>
							<path id="Rectangle_1628" class="st5" d="M2.4,30.6h25.9c1.2,0,2.1,0.9,2.1,2.1l0,0c0,1.2-0.9,2.1-2.1,2.1H2.4
								c-1.2,0-2.1-0.9-2.1-2.1l0,0C0.3,31.6,1.3,30.6,2.4,30.6z"/>
							<path id="Rectangle_1629" class="st5" d="M2.4,43.2h25.9c1.2,0,2.1,0.9,2.1,2.1l0,0c0,1.2-0.9,2.1-2.1,2.1H2.4
								c-1.2,0-2.1-0.9-2.1-2.1l0,0C0.3,44.2,1.3,43.2,2.4,43.2z"/>
							<path id="Rectangle_1630" class="st5" d="M2.4,24.8h42.9c1.2,0,2.1,0.9,2.1,2.1l0,0c0,1.2-0.9,2.1-2.1,2.1H2.4
								c-1.2,0-2.1-0.9-2.1-2.1l0,0C0.3,25.8,1.3,24.8,2.4,24.8z"/>
						</g>
						
							<linearGradient id="Rectangle_1631_1_" gradientUnits="userSpaceOnUse" x1="-352.0407" y1="391.3162" x2="-351.0407" y2="391.3162" gradientTransform="matrix(76.128 0 0 -9.677 26814.1152 3794.4795)">
							<stop  offset="0" style="stop-color:#FFFFFF;stop-opacity:3.900000e-02"/>
							<stop  offset="0.25" style="stop-color:#FFFFFF;stop-opacity:2.000000e-02"/>
							<stop  offset="1" style="stop-color:#FFFFFF;stop-opacity:0"/>
						</linearGradient>
						<path id="Rectangle_1631" class="st8" d="M18.8,2.9h66.5c2.7,0,4.8,2.2,4.8,4.8l0,0c0,2.7-2.2,4.8-4.8,4.8H18.8
							c-2.7,0-4.8-2.2-4.8-4.8l0,0C14,5,16.1,2.9,18.8,2.9z"/>
						<path id="Shape" class="st9" d="M82.6,8.4c-0.8,0-1.4-0.6-1.4-1.4s0.6-1.4,1.4-1.4c0.8,0,1.4,0.6,1.4,1.4v0
							C84.1,7.7,83.4,8.4,82.6,8.4z M84.4,8.4h-0.3l-0.1-0.1c0.7-0.9,0.6-2.2-0.2-2.9c-0.9-0.7-2.2-0.6-2.9,0.2
							c-0.7,0.9-0.6,2.2,0.2,2.9c0.8,0.7,1.9,0.7,2.7,0L84,8.6v0.3l1.6,1.6L86,10L84.4,8.4z"/>
						<text transform="matrix(1 0 0 1 17.581 7.999)" class="st5 st10 st11">http://www.myfavoritesite.com</text>
					</g>
				</g>
				<g id="Layer_78" transform="translate(179.434 135.584)">
					<g id="Component_25_8">
						<g id="Component_67_1" transform="translate(11.691 0.081)">
							<g id="Group_41" transform="translate(3.977 3.217)">
								<g id="Group_6716">
									<g>
										<defs>
											<path id="SVGID_3_" d="M3.8,0.8c0-0.3,0-0.5-0.1-0.8H0v1.5h2.1C2,2,1.8,2.4,1.3,2.7v1h1.3C3.4,2.9,3.9,1.9,3.8,0.8z"/>
										</defs>
										<clipPath id="SVGID_4_">
											<use xlink:href="#SVGID_3_"  style="overflow:visible;"/>
										</clipPath>
										<g id="Group_6715" class="st12">
											<g id="Group_40" transform="translate(-2.209 -2.184)">
												<rect id="Rectangle_17" x="0" y="0" class="st13" width="8.2" height="8.1"/>
											</g>
										</g>
									</g>
								</g>
							</g>
							<g id="Group_43" transform="translate(0.422 4.679)">
								<g id="Group_6718">
									<g>
										<defs>
											<path id="SVGID_5_" d="M3.6,3.2c1,0,1.9-0.3,2.6-1l-1.3-1C3.8,2,2.3,1.6,1.6,0.5C1.5,0.4,1.4,0.2,1.3,0H0v1
												C0.7,2.4,2.1,3.2,3.6,3.2z"/>
										</defs>
										<clipPath id="SVGID_6_">
											<use xlink:href="#SVGID_5_"  style="overflow:visible;"/>
										</clipPath>
										<g id="Group_6717" class="st14">
											<g id="Group_42" transform="translate(-2.209 -2.185)">
												<rect id="Rectangle_18" x="0" y="0" class="st15" width="10.6" height="7.6"/>
											</g>
										</g>
									</g>
								</g>
							</g>
							<g id="Group_45" transform="translate(0 2.166)">
								<g id="Group_6720">
									<g>
										<defs>
											<path id="SVGID_7_" d="M1.8,2.5C1.6,2,1.6,1.5,1.8,1V0H0.4c-0.6,1.1-0.6,2.4,0,3.5L1.8,2.5z"/>
										</defs>
										<clipPath id="SVGID_8_">
											<use xlink:href="#SVGID_7_"  style="overflow:visible;"/>
										</clipPath>
										<g id="Group_6719" class="st16">
											<g id="Group_44" transform="translate(-2.209 -2.185)">
												<rect id="Rectangle_19" x="0" y="0" class="st17" width="6.2" height="7.9"/>
											</g>
										</g>
									</g>
								</g>
							</g>
							<g id="Group_47" transform="translate(0.423)">
								<g id="Group_6722">
									<g>
										<defs>
											<path id="SVGID_9_" d="M3.6,1.6c0.6,0,1.1,0.2,1.5,0.6L6.2,1C5.5,0.4,4.5,0,3.6,0C2.1,0,0.7,0.8,0,2.2l1.3,1
												C1.7,2.2,2.5,1.6,3.6,1.6z"/>
										</defs>
										<clipPath id="SVGID_10_">
											<use xlink:href="#SVGID_9_"  style="overflow:visible;"/>
										</clipPath>
										<g id="Group_6721" class="st18">
											<g id="Group_46" transform="translate(-2.21 -2.185)">
												<rect id="Rectangle_20" x="0" y="0" class="st19" width="10.6" height="7.6"/>
											</g>
										</g>
									</g>
								</g>
							</g>
						</g>
						<g id="icontranslate">
							<path id="Path_120" class="st20" d="M1.9,1.5h5.4c0.2,0,0.4,0.2,0.4,0.4v5.4c0,0.2-0.2,0.4-0.4,0.4h-3L1.9,1.5z"/>
							<path id="Path_121" class="st21" d="M4.5,6.3L4.3,5.9l0.2-0.1c0.8-0.5,1.5-1.1,2-2l0.1-0.2L7,3.8L6.9,4
								C6.4,4.9,5.6,5.7,4.7,6.2L4.5,6.3z"/>
							<path id="Path_122" class="st21" d="M6.9,6.1L6.7,6C6,5.5,5.4,5,4.9,4.3L5.3,4c0.5,0.6,1,1.1,1.7,1.5l0.2,0.1L6.9,6.1z
								 M4.3,3.5h3v0.4h-3L4.3,3.5z"/>
							<path id="Path_123" class="st21" d="M5.6,3h0.4v0.9H5.6V3z"/>
							<path id="Path_124" class="st22" d="M5.9,6.3H0.4C0.2,6.3,0,6.1,0,5.9l0,0V0.4C0,0.2,0.2,0,0.4,0h3L5.9,6.3z"/>
							<path id="Path_125" class="st23" d="M4.3,7.8L3.7,6.3h2.2L4.3,7.8z"/>
							<path id="Path_126" class="st24" d="M2.9,3.9H1.9L1.7,4.6H1.1l1-2.8h0.5l1,2.8H3.1L2.9,3.9z M2,3.5h0.7l-0.3-1L2,3.5z"/>
						</g>
					</g>
				</g>
				<g id="Layer_40" transform="translate(46.689 87.359)">
					<g id="Group_6743">
						<g id="Group_6724" transform="translate(3.147 2.606)" class="st25">
							<g id="Group_6723">
								<path id="Path_3552" class="st26" d="M129.3,0H6.3C2.8,0,0,2.8,0,6.3c0,0,0,0,0,0V100c0,3.5,2.8,6.3,6.3,6.3c0,0,0,0,0,0
									h129.3V6.3C135.7,2.8,132.8,0,129.3,0C129.3,0,129.3,0,129.3,0z"/>
								<path id="Path_3553" class="st26" d="M142.1,78.4h-2.9l-3.6-5.6l0,0v5.6l0,0v28h6.5c7.7,0,14-6.3,14-14
									C156.1,84.6,149.9,78.4,142.1,78.4L142.1,78.4L142.1,78.4z"/>
							</g>
						</g>
						<g id="Group_6728">
							<path id="Rectangle_1632" class="st27" d="M6.6,0h122.6c3.6,0,6.6,2.9,6.6,6.6v99.8l0,0H6.6c-3.6,0-6.6-2.9-6.6-6.6V6.6
								C0,2.9,2.9,0,6.6,0z"/>
							<g id="Group_274" transform="translate(135.852 73.254)">
								<g id="Group_226" transform="translate(0)">
									<g id="Group_6727">
										<g id="Group_225">
											<g id="Group_6726" transform="translate(0.004 5.631)">
												<g id="Group_6725">
													<path id="Rectangle_59-2" class="st28" d="M0,0h6.5c7.7,0,14,6.3,14,14l0,0c0,7.7-6.3,14-14,14H0V0z"/>
												</g>
											</g>
											<path id="Path_157" class="st29" d="M0,0l3.6,5.6H0L0,0L0,0z"/>
										</g>
									</g>
								</g>
								<g id="Group_243" transform="translate(6.967 14.258)">
									<path id="Path_105" class="st30" d="M0,0l5,5l0,0l-5,5"/>
								</g>
							</g>
						</g>
						<g id="Component_25_8-2" transform="translate(110.377 6.028)">
							<g id="Component_67_1-2">
								<g id="Group_41-2" transform="translate(7.128 5.767)">
									<g id="Group_6730">
										<g>
											<defs>
												<path id="SVGID_11_" d="M6.8,1.4c0-0.5,0-1-0.1-1.4H0v2.7h3.8C3.7,3.6,3.2,4.4,2.4,4.9v1.8h2.3C6.1,5.3,6.9,3.4,6.8,1.4
													z"/>
											</defs>
											<clipPath id="SVGID_12_">
												<use xlink:href="#SVGID_11_"  style="overflow:visible;"/>
											</clipPath>
											<g id="Group_6729" class="st31">
												<g id="Group_40-2" transform="translate(-3.96 -3.915)">
													<rect id="Rectangle_17-2" x="0" y="0" class="st13" width="14.8" height="14.5"/>
												</g>
											</g>
										</g>
									</g>
								</g>
								<g id="Group_43-2" transform="translate(0.758 8.387)">
									<g id="Group_6732">
										<g>
											<defs>
												<path id="SVGID_13_" d="M6.4,5.7c1.7,0,3.4-0.6,4.7-1.7L8.8,2.2C6.8,3.5,4.1,2.9,2.8,1C2.7,0.7,2.5,0.3,2.4,0H0v1.8
													C1.2,4.2,3.7,5.7,6.4,5.7L6.4,5.7z"/>
											</defs>
											<clipPath id="SVGID_14_">
												<use xlink:href="#SVGID_13_"  style="overflow:visible;"/>
											</clipPath>
											<g id="Group_6731" class="st32">
												<g id="Group_42-2" transform="translate(-3.96 -3.915)">
													<rect id="Rectangle_18-2" x="0" y="0" class="st15" width="19" height="13.5"/>
												</g>
											</g>
										</g>
									</g>
								</g>
								<g id="Group_45-2" transform="translate(0 3.883)">
									<g id="Group_6734">
										<g>
											<defs>
												<path id="SVGID_15_" d="M3.1,4.5c-0.3-0.9-0.3-1.8,0-2.7V0H0.8c-1,2-1,4.3,0,6.3L3.1,4.5L3.1,4.5z"/>
											</defs>
											<clipPath id="SVGID_16_">
												<use xlink:href="#SVGID_15_"  style="overflow:visible;"/>
											</clipPath>
											<g id="Group_6733" class="st33">
												<g id="Group_44-2" transform="translate(-3.96 -3.915)">
													<rect id="Rectangle_19-2" x="0" y="0" class="st17" width="11.1" height="14.2"/>
												</g>
											</g>
										</g>
									</g>
								</g>
								<g id="Group_47-2" transform="translate(0.758)">
									<g id="Group_6736">
										<g>
											<defs>
												<path id="SVGID_17_" d="M6.4,2.8c1,0,2,0.4,2.7,1.1l2-2C9.8,0.6,8.1,0,6.4,0C3.7,0,1.2,1.5,0,3.9l2.4,1.8
													C3,4,4.6,2.8,6.4,2.8z"/>
											</defs>
											<clipPath id="SVGID_18_">
												<use xlink:href="#SVGID_17_"  style="overflow:visible;"/>
											</clipPath>
											<g id="Group_6735" class="st34">
												<g id="Group_46-2" transform="translate(-3.96 -3.916)">
													<rect id="Rectangle_20-2" x="0" y="0" class="st19" width="19.1" height="13.5"/>
												</g>
											</g>
										</g>
									</g>
								</g>
							</g>
						</g>
						<g id="Group_237" transform="translate(9.599 26.623)">
							<g id="Group_6737">
								<g id="Group_240">
									<g id="Group_235">
										<g id="Group_230">
											<g id="Rectangle_67">
												<path id="Rectangle_1633" class="st35" d="M1.9,0h112.2c1.1,0,1.9,0.9,1.9,1.9v11.2c0,1.1-0.9,1.9-1.9,1.9H1.9
													c-1.1,0-1.9-0.9-1.9-1.9V1.9C0,0.9,0.9,0,1.9,0z"/>
												<path id="Rectangle_1634" class="st36" d="M1.9,0.1h112.3c1,0,1.8,0.8,1.8,1.8v11.3c0,1-0.8,1.8-1.8,1.8H1.9
													c-1,0-1.8-0.8-1.8-1.8V1.9C0.1,0.9,0.9,0.1,1.9,0.1z"/>
											</g>
										</g>
									</g>
								</g>
							</g>
						</g>
						<path id="Rectangle_1635" class="st37" d="M11.5,48.5h29.2c1.1,0,1.9,0.9,1.9,1.9l0,0c0,1.1-0.9,1.9-1.9,1.9H11.5
							c-1.1,0-1.9-0.9-1.9-1.9l0,0C9.6,49.4,10.5,48.5,11.5,48.5z"/>
						<g id="Group_6742" transform="translate(9.599 58.9)" class="st38">
							<g id="Group_6741">
								<g id="Group_6738">
									<path id="Rectangle_1636" class="st39" d="M2.6,0h98.5c1.4,0,2.6,1.2,2.6,2.6v0c0,1.4-1.2,2.6-2.6,2.6H2.6
										C1.2,5.2,0,4,0,2.6v0C0,1.2,1.2,0,2.6,0z"/>
									<path id="Rectangle_1637" class="st6" d="M2.6,0h98.5c1.4,0,2.6,1.2,2.6,2.6v0c0,1.4-1.2,2.6-2.6,2.6H2.6
										C1.2,5.2,0,4,0,2.6v0C0,1.2,1.2,0,2.6,0z"/>
								</g>
								<g id="Group_6739" transform="translate(0 11.695)">
									<path id="Rectangle_1638" class="st39" d="M2.6,0h106.9c1.4,0,2.6,1.2,2.6,2.6v0c0,1.4-1.2,2.6-2.6,2.6H2.6
										C1.2,5.2,0,4,0,2.6v0C0,1.2,1.2,0,2.6,0z"/>
									<path id="Rectangle_1639" class="st6" d="M2.6,0h106.9c1.4,0,2.6,1.2,2.6,2.6v0c0,1.4-1.2,2.6-2.6,2.6H2.6
										C1.2,5.2,0,4,0,2.6v0C0,1.2,1.2,0,2.6,0z"/>
								</g>
								<g id="Group_6740" transform="translate(0 23.715)">
									<path id="Rectangle_1640" class="st39" d="M2.6,0h71.1c1.4,0,2.6,1.2,2.6,2.6v0c0,1.4-1.2,2.6-2.6,2.6H2.6
										C1.2,5.2,0,4,0,2.6v0C0,1.2,1.2,0,2.6,0z"/>
									<path id="Rectangle_1641" class="st6" d="M2.6,0h71.1c1.4,0,2.6,1.2,2.6,2.6v0c0,1.4-1.2,2.6-2.6,2.6H2.6
										C1.2,5.2,0,4,0,2.6v0C0,1.2,1.2,0,2.6,0z"/>
								</g>
							</g>
						</g>
						<line id="Line_1" class="st40" x1="14.9" y1="34.7" x2="54" y2="34.7"/>
					</g>
				</g>
			</g>
			<path id="Path_3558" class="st41" d="M201.8,155.7l-1.4-4.9c-1.1-4-5.2-6.3-9.1-5.2c0,0,0,0,0,0l0,0c-4,1.1-6.3,5.2-5.2,9.1
				c0,0,0,0,0,0l-1.1-3.8c-1.1-4-5.2-6.3-9.1-5.2c0,0,0,0,0,0l0,0c-4,1.1-6.3,5.2-5.2,9.1c0,0,0,0,0,0l-9.5-34.6
				c-1.3-4.7-6.1-7.4-10.8-6.1l0,0c-4.7,1.3-7.4,6.1-6.1,10.8l16.2,58.9l0,0l0.7,2.5l-2-1.1c-0.7-0.4-1.5-0.7-2.3-0.9
				c-0.6-0.3-1.3-0.4-2-0.4l0,0c-1.5-0.2-3,0-4.4,0.3l-10.4,2.9c-5.5,1.4-8.8,6.9-7.7,12.4c1.3,5.5,6.9,8.9,12.4,7.5
				c0.1,0,0.2-0.1,0.3-0.1l9.6-2.6c3.6-1,8,1.8,10.9,4l4.7,4.4c2.7,3.7,6.1,6.8,10.1,8.9h0l10.2,6l4.3,15.5l34.3,4.3l-11.4-27
				l5.3-14.5l0,0c2.3-6,2.6-12.6,0.9-18.8l-2.3-8.2l0,0L215,154c-1-3.5-3.4-5-7.1-5C205.2,149,201.2,151.8,201.8,155.7"/>
			<circle id="Ellipse_140" class="st24" cx="210" cy="269" r="38"/>
		</g>
	</g>
</g>
</svg>
