<svg id="flashcard2" xmlns="http://www.w3.org/2000/svg" xmlns:xlink="http://www.w3.org/1999/xlink" width="297.403" height="308.592" viewBox="0 0 297.403 308.592">
  <defs>
    <linearGradient id="linear-gradient" x1="-152.011" y1="-39.659" x2="-151.962" y2="-39.659" gradientUnits="objectBoundingBox">
      <stop offset="0" stop-color="#e1edf1"/>
      <stop offset="0.885" stop-color="#f4fbfe"/>
    </linearGradient>
    <linearGradient id="linear-gradient-2" x1="-153.304" y1="-39.659" x2="-153.255" y2="-39.659" xlink:href="#linear-gradient"/>
  </defs>
  <g id="Layer_30" data-name="Layer 30" transform="translate(-85.556 -107.784)">
    <g id="Group_6778" data-name="Group 6778" transform="translate(74.94 141.79)">
      <g id="Group_6777" data-name="Group 6777" transform="translate(10.616)">
        <path id="Path_3584" data-name="Path 3584" d="M359.045,193.224H283.766a53.106,53.106,0,0,0-106.159,0H102.65a20.506,20.506,0,0,0-20.5,20.506V344.036a20.505,20.505,0,0,0,20.5,20.5H359.045a20.5,20.5,0,0,0,20.5-20.5V213.729A20.5,20.5,0,0,0,359.045,193.224Z" transform="translate(-82.146 -141.79)" fill="#0062af"/>
        <g id="Group_5911" data-name="Group 5911" transform="translate(91.208 -34.006)">
          <g id="Component_172_1" data-name="Component 172 1">
            <g id="Group_6648" data-name="Group 6648">
              <path id="Path_3459" data-name="Path 3459" d="M256.764,159.943l-.02,60.325H166.98l-.056-61.014C194.751,169.04,226.759,171.934,256.764,159.943Z" transform="translate(-154.519 -134.103)" fill="#00438f"/>
              <path id="Path_3460" data-name="Path 3460" d="M197.982,188.656l-8.77-11.734a.78.78,0,0,0-.661-.529l-8.473,11.463a2.646,2.646,0,0,0,0,3.135l8.473,11.465a.8.8,0,0,0,.661-.54l8.77-11.734A1.881,1.881,0,0,0,197.982,188.656Z" transform="translate(-131.777 -103.267)" fill="#00438f"/>
              <circle id="Ellipse_116" data-name="Ellipse 116" cx="28.792" cy="28.792" r="28.792" transform="translate(0 41.622)" fill="#001b30"/>
              <circle id="Ellipse_117" data-name="Ellipse 117" cx="22.368" cy="22.368" r="22.368" transform="translate(6.424 48.029)" fill="url(#linear-gradient)"/>
              <path id="Path_3461" data-name="Path 3461" d="M178.019,172.3a7.686,7.686,0,0,0-4.109,1.2,2.323,2.323,0,0,1-3.087,3.437,9.227,9.227,0,0,0-.957,4.112,8.183,8.183,0,1,0,8.157-8.747Z" transform="translate(-149.228 -110.638)" fill="#001b30"/>
              <circle id="Ellipse_118" data-name="Ellipse 118" cx="28.792" cy="28.792" r="28.792" transform="translate(57.081 41.622)" fill="#001b30"/>
              <circle id="Ellipse_119" data-name="Ellipse 119" cx="22.368" cy="22.368" r="22.368" transform="translate(63.505 48.029)" fill="url(#linear-gradient-2)"/>
              <path id="Path_3462" data-name="Path 3462" d="M198.411,172.3a7.686,7.686,0,0,0-4.109,1.2,2.323,2.323,0,0,1-3.087,3.437,9.228,9.228,0,0,0-.957,4.112,8.183,8.183,0,1,0,8.157-8.747Z" transform="translate(-112.539 -110.638)" fill="#001b30"/>
              <g id="Group_6647" data-name="Group 6647" transform="translate(31.929)">
                <circle id="Ellipse_120" data-name="Ellipse 120" cx="25.152" cy="25.152" r="25.152" fill="#0088cd"/>
                <path id="Path_3463" data-name="Path 3463" d="M189.538,170.551l-7.871-7.871a1.322,1.322,0,0,0-1.87,0l0,0-2.962,2.962a1.323,1.323,0,0,0,0,1.873h0l11.278,11.278,1.355,1.358a1.8,1.8,0,0,0,2.553,0,2.267,2.267,0,0,0,.21-.252l.882-1.29L212.494,154.6l-20.747,16A1.6,1.6,0,0,1,189.538,170.551Z" transform="translate(-169.319 -142.484)" fill="#fff"/>
              </g>
            </g>
          </g>
        </g>
        <g id="Group_6775" data-name="Group 6775" transform="translate(51.584 104.254)" style="isolation: isolate">
          <g id="Group_6772" data-name="Group 6772">
            <path id="Path_3585" data-name="Path 3585" d="M122.286,222.816a5.151,5.151,0,0,1-3.623-1.5,3.987,3.987,0,0,1-.631-.785,4.084,4.084,0,0,1-.479-.888,6.028,6.028,0,0,1-.29-.958,4.811,4.811,0,0,1-.1-.991,4.872,4.872,0,0,1,.1-1.008,5.965,5.965,0,0,1,.29-.956,4.468,4.468,0,0,1,.479-.89,4.577,4.577,0,0,1,.631-.785,7.083,7.083,0,0,1,.769-.633,5,5,0,0,1,.89-.46,4.826,4.826,0,0,1,.956-.308,5.223,5.223,0,0,1,4.63,1.4,5.425,5.425,0,0,1,.632.785,4.473,4.473,0,0,1,.48.89,4.867,4.867,0,0,1,.29.956,4.975,4.975,0,0,1,.1,1.008,5.135,5.135,0,0,1-5.127,5.127Z" transform="translate(-117.161 -212.557)" fill="#fff"/>
          </g>
          <g id="Group_6773" data-name="Group 6773" transform="translate(13.805 0.006)">
            <path id="Path_3586" data-name="Path 3586" d="M167.919,217.688a5.131,5.131,0,0,1,5.125-5.127h0a5.122,5.122,0,0,1,5.127,5.127h0a5.131,5.131,0,0,1-5.127,5.127h0A5.141,5.141,0,0,1,167.919,217.688Zm-13.791,0a5.121,5.121,0,0,1,5.127-5.127h0a5.132,5.132,0,0,1,5.125,5.127h0a5.142,5.142,0,0,1-5.125,5.127h0A5.13,5.13,0,0,1,154.128,217.688Zm-13.805,0a5.131,5.131,0,0,1,5.125-5.127h0a5.121,5.121,0,0,1,5.127,5.127h0a5.13,5.13,0,0,1-5.127,5.127h0A5.141,5.141,0,0,1,140.323,217.688Zm-13.791,0a5.121,5.121,0,0,1,5.127-5.127h0a5.131,5.131,0,0,1,5.125,5.127h0a5.141,5.141,0,0,1-5.125,5.127h0A5.13,5.13,0,0,1,126.532,217.688Z" transform="translate(-126.532 -212.561)" fill="#fff"/>
          </g>
          <g id="Group_6774" data-name="Group 6774" transform="translate(68.98 0.069)">
            <path id="Path_3587" data-name="Path 3587" d="M169.127,222.794a5.142,5.142,0,0,1-3.621-1.5,5.2,5.2,0,0,1-1.522-3.623,5.139,5.139,0,0,1,1.522-3.623,5.273,5.273,0,0,1,7.244,0,5.121,5.121,0,0,1,1.5,3.623,5.175,5.175,0,0,1-1.5,3.623,4.7,4.7,0,0,1-.787.632,4.958,4.958,0,0,1-.887.479,6.048,6.048,0,0,1-.959.29A4.787,4.787,0,0,1,169.127,222.794Z" transform="translate(-163.984 -212.604)" fill="#fff"/>
          </g>
        </g>
        <g id="Group_6776" data-name="Group 6776" transform="translate(51.286 131.099)">
          <rect id="Rectangle_1673" data-name="Rectangle 1673" width="140.401" height="7.309" rx="2.139" fill="#deedfa" stroke="#707070" stroke-width="1.04"/>
          <rect id="Rectangle_1674" data-name="Rectangle 1674" width="97.042" height="7.309" rx="2.139" transform="translate(0 31.621)" fill="#deedfa" stroke="#707070" stroke-width="1.04"/>
          <rect id="Rectangle_1675" data-name="Rectangle 1675" width="151.757" height="7.309" rx="2.139" transform="translate(0 15.93)" fill="#deedfa" stroke="#707070" stroke-width="1.04"/>
        </g>
      </g>
    </g>
  </g>
  <ellipse id="Ellipse_148" data-name="Ellipse 148" cx="59.552" cy="10.814" rx="59.552" ry="10.814" transform="translate(85.304 286.964)" fill="#e6edf1"/>
</svg>
