<svg id="flashcard" xmlns="http://www.w3.org/2000/svg" xmlns:xlink="http://www.w3.org/1999/xlink" width="312" height="255.541" viewBox="0 0 312 255.541">
  <defs>
    <filter id="Rectangle_59" x="263.989" y="216.354" width="31.081" height="39.187" filterUnits="userSpaceOnUse">
      <feOffset input="SourceAlpha"/>
      <feGaussianBlur stdDeviation="1.5" result="blur"/>
      <feFlood flood-opacity="0.361"/>
      <feComposite operator="in" in2="blur"/>
      <feComposite in="SourceGraphic"/>
    </filter>
  </defs>
  <g id="Component_35_1" data-name="Component 35 – 1">
    <path id="Union_5" data-name="Union 5" d="M12,0H277a12,12,0,0,1,12,12V249a2,2,0,0,1-2,2H12A12,12,0,0,1,0,239V12A12,12,0,0,1,12,0Z" fill="#fff"/>
    <g id="arrowin" transform="translate(268.489 220.854)">
      <g id="Group_226" data-name="Group 226">
        <g id="Group_225" data-name="Group 225">
          <g transform="matrix(1, 0, 0, 1, -268.49, -220.85)" filter="url(#Rectangle_59)">
            <path id="Rectangle_59-2" data-name="Rectangle 59" d="M15.094,0h6.987a0,0,0,0,1,0,0V30.187a0,0,0,0,1,0,0H15.094A15.094,15.094,0,0,1,0,15.094v0A15.094,15.094,0,0,1,15.094,0Z" transform="translate(268.49 220.85)" fill="#0b84c7"/>
          </g>
        </g>
      </g>
      <g id="Group_243" data-name="Group 243" transform="translate(9.022 9.31)">
        <path id="Path_105" data-name="Path 105" d="M-951.176,1274.483l-5.406,5.406,5.406,5.406" transform="translate(956.582 -1274.483)" fill="none" stroke="#fff" stroke-width="2"/>
      </g>
    </g>
  </g>
  <g id="Component_40_1" data-name="Component 40 – 1" transform="translate(11.953 12.978)">
    <g id="Group_295" data-name="Group 295" transform="translate(159.727)">
      <rect id="Rectangle_71" data-name="Rectangle 71" width="75.793" height="25.983" rx="6" transform="translate(0)" fill="#0b84c7"/>
      <text id="TRANSLATE" transform="translate(9.527 16.284)" fill="#fff" font-size="9" font-family="ProductSans-Bold, Product Sans" font-weight="700" letter-spacing="0.02em"><tspan x="0" y="0">TRANSLATE</tspan></text>
    </g>
    <g id="Component_25_11" data-name="Component 25 – 11" transform="translate(240.047 0.022)">
      <g id="Component_25_10" data-name="Component 25 – 10">
        <g id="Rectangle_79" data-name="Rectangle 79" fill="#fff" stroke="#169adf" stroke-width="1">
          <rect width="26" height="26" rx="6" stroke="none"/>
          <rect x="0.5" y="0.5" width="25" height="25" rx="5.5" fill="none"/>
        </g>
        <g id="Group_268" data-name="Group 268" transform="translate(4.733 4.733)">
          <path id="Path_120" data-name="Path 120" d="M15,13H26.469a.918.918,0,0,1,.918.918V25.387a.918.918,0,0,1-.918.918H20.046Z" transform="translate(-10.871 -9.789)" fill="#cfd8dc"/>
          <path id="Path_121" data-name="Path 121" d="M26.336,28.233l-.42-.815.408-.211a10.707,10.707,0,0,0,4.149-4.177l.2-.411.821.41-.205.411a11.457,11.457,0,0,1-4.549,4.583Z" transform="translate(-16.779 -14.995)" fill="#546e7a"/>
          <path id="Path_122" data-name="Path 122" d="M31.514,27.505l-.4-.225a13.453,13.453,0,0,1-3.9-3.517l.746-.533a12.749,12.749,0,0,0,3.6,3.251l.4.226ZM26,22h6.423v.918H26Z" transform="translate(-16.825 -14.66)" fill="#546e7a"/>
          <path id="Path_123" data-name="Path 123" d="M32,20h.918v1.835H32Z" transform="translate(-20.072 -13.577)" fill="#546e7a"/>
          <path id="Path_124" data-name="Path 124" d="M18.387,19.3H6.918A.918.918,0,0,1,6,18.387V6.918A.918.918,0,0,1,6.918,6H13.34Z" transform="translate(-6 -6)" fill="#2196f3"/>
          <path id="Path_125" data-name="Path 125" d="M24.376,38.211,23,35h4.588Z" transform="translate(-15.201 -21.696)" fill="#3f51b5"/>
          <path id="Path_126" data-name="Path 126" d="M14.749,18.588h-2l-.462,1.376H11L13.186,14h1.121l2.2,5.964H15.218Zm-1.71-.918h1.423l-.715-2.163Z" transform="translate(-8.706 -10.33)" fill="#fff"/>
        </g>
      </g>
      <g id="icontranslate" transform="translate(4.733 4.733)">
        <path id="Path_120-2" data-name="Path 120" d="M15,13H26.469a.918.918,0,0,1,.918.918V25.387a.918.918,0,0,1-.918.918H20.046Z" transform="translate(-10.871 -9.789)" fill="#cfd8dc"/>
        <path id="Path_121-2" data-name="Path 121" d="M26.336,28.233l-.42-.815.408-.211a10.707,10.707,0,0,0,4.149-4.177l.2-.411.821.41-.205.411a11.457,11.457,0,0,1-4.549,4.583Z" transform="translate(-16.779 -14.995)" fill="#546e7a"/>
        <path id="Path_122-2" data-name="Path 122" d="M31.514,27.505l-.4-.225a13.453,13.453,0,0,1-3.9-3.517l.746-.533a12.749,12.749,0,0,0,3.6,3.251l.4.226ZM26,22h6.423v.918H26Z" transform="translate(-16.825 -14.66)" fill="#546e7a"/>
        <path id="Path_123-2" data-name="Path 123" d="M32,20h.918v1.835H32Z" transform="translate(-20.072 -13.577)" fill="#546e7a"/>
        <path id="Path_124-2" data-name="Path 124" d="M18.387,19.3H6.918A.918.918,0,0,1,6,18.387V6.918A.918.918,0,0,1,6.918,6H13.34Z" transform="translate(-6 -6)" fill="#2196f3"/>
        <path id="Path_125-2" data-name="Path 125" d="M24.376,38.211,23,35h4.588Z" transform="translate(-15.201 -21.696)" fill="#3f51b5"/>
        <path id="Path_126-2" data-name="Path 126" d="M14.749,18.588h-2l-.462,1.376H11L13.186,14h1.121l2.2,5.964H15.218Zm-1.71-.918h1.423l-.715-2.163Z" transform="translate(-8.706 -10.33)" fill="#fff"/>
      </g>
    </g>
    <text id="To:" transform="translate(0 15.592)" fill="#bfcdd4" font-size="9" font-family="ProductSans-Regular, Product Sans" letter-spacing="0.02em"><tspan x="0" y="0">To:</tspan></text>
    <g id="Group_294" data-name="Group 294" transform="translate(23.99 0.014)">
      <text id="ENGLISH" transform="translate(7.917 15.997)" fill="#0b84c7" font-size="9" font-family="ProductSans-Bold, Product Sans" font-weight="700" letter-spacing="0.02em"><tspan x="0" y="0">ENGLISH</tspan></text>
      <path id="Polygon_1" data-name="Polygon 1" d="M5.2,0l5.2,5.2H0Z" transform="translate(122.879 16.524) rotate(180)" fill="#0b84c7"/>
      <g id="Rectangle_68" data-name="Rectangle 68" transform="translate(0.057 0.009)" fill="none" stroke="#0b84c7" stroke-width="1">
        <rect width="130" height="26" rx="8" stroke="none"/>
        <rect x="0.5" y="0.5" width="129" height="25" rx="7.5" fill="none"/>
      </g>
    </g>
    <text id="To:-2" data-name="To:" transform="translate(0 15.592)" fill="#bfcdd4" font-size="9" font-family="ProductSans-Regular, Product Sans" letter-spacing="0.02em"><tspan x="0" y="0">To:</tspan></text>
  </g>
</svg>
