<svg xmlns="http://www.w3.org/2000/svg" width="120.196" height="72.503" viewBox="0 0 120.196 72.503">
  <g id="flying" transform="translate(1.023 1)">
    <g id="Group_6643" data-name="Group 6643">
      <path id="Path_3449" data-name="Path 3449" d="M24.775,72.833a25.372,25.372,0,0,0-10.767,2c-3.39,1.443-5.883,4.587-3.534,8.159a9.949,9.949,0,0,0,4.589,3.474c1.8.753,3.7,1.212,5.532,1.871a8.413,8.413,0,0,0-5.208,2.052,4.071,4.071,0,0,0-1.425,2.161,3.643,3.643,0,0,0,1.8,3.57A13.914,13.914,0,0,0,23.9,97.768,6.363,6.363,0,0,0,19.86,100.4c-1.858,2.723.439,4.554,3.146,4.84a111.848,111.848,0,0,0,14.532.406c.832-.021,10.79.213,10.981-.483,0,0,2.964-10.974,2.981-10.976,3.889-.555-2.394,2.3-2.155.461.263-2.029,5.146-4.364-2.857-12.316A32.94,32.94,0,0,0,24.775,72.833Z" transform="translate(-9.553 -72.821)" fill="#d8f0fa" stroke="#00233f" stroke-linecap="round" stroke-linejoin="round" stroke-width="2"/>
      <path id="Path_3450" data-name="Path 3450" d="M149.312,72.833a25.372,25.372,0,0,1,10.767,2c3.39,1.443,5.883,4.587,3.534,8.159a9.949,9.949,0,0,1-4.589,3.474c-1.8.753-3.7,1.212-5.532,1.871A8.414,8.414,0,0,1,158.7,90.39a4.071,4.071,0,0,1,1.425,2.161,3.643,3.643,0,0,1-1.8,3.57,13.914,13.914,0,0,1-8.144,1.647,6.363,6.363,0,0,1,4.043,2.636c1.858,2.723-.439,4.554-3.146,4.84a111.848,111.848,0,0,1-14.532.406c-.832-.021-10.79.213-10.981-.483,0,0-2.964-10.974-2.981-10.976-3.888-.555,2.395,2.3,2.155.461-.263-2.029-5.146-4.364,2.858-12.316A32.94,32.94,0,0,1,149.312,72.833Z" transform="translate(-46.383 -72.821)" fill="#d8f0fa" stroke="#00233f" stroke-linecap="round" stroke-linejoin="round" stroke-width="2"/>
    </g>
    <path id="Union_11" data-name="Union 11" d="M37.111,44.42H9.208A9.208,9.208,0,0,1,0,35.212v-26A9.208,9.208,0,0,1,9.208,0H58.253A9.208,9.208,0,0,1,67.46,9.208v26a9.208,9.208,0,0,1-9.207,9.208H53.422L33.768,55.046Z" transform="translate(26.617 14.405)" fill="#fff" stroke="#00233f" stroke-miterlimit="10" stroke-width="2"/>
    <path id="Path_3610" data-name="Path 3610" d="M-44.22-3.675a5.745,5.745,0,0,1,3.6-3.42,1.913,1.913,0,0,1,1.17.045c1.005.615.45,1.155-.135,1.065-.375-.06-.525.045-1.11.405a5.283,5.283,0,0,0-1.56,1.635,2.187,2.187,0,0,0-.315.72,4.03,4.03,0,0,1,2.31-.27,1.194,1.194,0,0,1,.63,2.175C-40.7-.255-42.09.12-42.84-.42a.665.665,0,0,1-.345-.63c.06-.48.39-.36.66-.315A1.566,1.566,0,0,0-41.46-1.71c.27-.18.675-.54.585-.585,0,0-1.38.21-1.875.27-1.2.15-1.56-.66-1.56-1.11A1.934,1.934,0,0,1-44.22-3.675Zm6.54-.81a3.591,3.591,0,0,1,2.1-2.4c2.16-.645,2.55.63,2.64,1.155a3.189,3.189,0,0,1-2.97,2.955c-.195,0-.18,0-.135.18.27,1.32,1.95,1.125,2.145,1.17.24.135.51.39.51.525,0,.57-1.47.75-2.565.3C-38.055-1.32-37.83-3.96-37.68-4.485Zm2.535-.225a1.617,1.617,0,0,0,.525-.975c.045-.225,0-.27-.15-.135a.84.84,0,0,1-.18.135,4.924,4.924,0,0,0-.765.885c-.09.225-.285.75-.285.75A2.841,2.841,0,0,0-35.145-4.71Zm3.255-2.475c-.06-2.4,0-3.195.195-3.255a1.032,1.032,0,0,1,1.2.27c.135.195.135.465.27,2.46A53.268,53.268,0,0,0-29.7-1.455c.06.87.075,1.2-.195,1.26a1.147,1.147,0,0,1-1.275-.27c-.135-.135-.2-.255-.255-.66A29.584,29.584,0,0,1-31.89-7.185Zm3.375,2.7a3.591,3.591,0,0,1,2.1-2.4c2.16-.645,2.55.63,2.64,1.155a3.189,3.189,0,0,1-2.97,2.955c-.195,0-.18,0-.135.18.27,1.32,1.95,1.125,2.145,1.17.24.135.51.39.51.525,0,.57-1.47.75-2.565.3C-28.89-1.32-28.665-3.96-28.515-4.485Zm2.535-.225a1.617,1.617,0,0,0,.525-.975c.045-.225,0-.27-.15-.135a.84.84,0,0,1-.18.135,4.924,4.924,0,0,0-.765.885c-.09.225-.285.75-.285.75A2.841,2.841,0,0,0-25.98-4.71Zm5.115-1.845a2.883,2.883,0,0,1,1.305-.78c1.305-.09,1.815.525,1.86.78a.611.611,0,0,1-.09.675,1.087,1.087,0,0,1-.885-.045c-.15-.045-.27-.105-.315-.105a4.479,4.479,0,0,0-.885.99,4.8,4.8,0,0,0-.885,1.92,2.684,2.684,0,0,0-.045,1.41c.435.315,1.14-.06,1.56-.27a1.283,1.283,0,0,1,.975,0c.675.36.585.885-.15,1.305a3.5,3.5,0,0,1-3.9-.36c-.81-.96-.27-2.865.255-3.96A5.623,5.623,0,0,1-20.865-6.555Zm5.415-4.875a.446.446,0,0,1,.225-.42,1.009,1.009,0,0,1,1.05.495A7.245,7.245,0,0,1-13.98-9.12c0,1.185,0,1.2.495,1.125,1.35-.165,1.335.555,1.26.765s-.285.27-1.05.63c-.63.21-.63.21-.63,2.31v2.31c.075.36.075.345.36.27.63,0,1.05.36,1.05.78,0,.69-1.05.885-2.1.63-1.17-.36-1.125-1.245-1.125-3.285-.075-2.04-.06-2.04-.42-2.04a.929.929,0,0,1-1.05-.42c-.135-.135-.135-.21,0-.345.075-.21.555-.495,1.185-.78.36-.075.345-.06.345-.975A18.532,18.532,0,0,1-15.45-11.43ZM-4.41-6.24a3.009,3.009,0,0,1,1.1-.855,1.941,1.941,0,0,1,1.2.075c.48.21.63.525.465.855-.09.12-.105.135.075.3.315.3.225.72.225,1.2A11.193,11.193,0,0,0-.84-1.44,1.127,1.127,0,0,1-.72-.8c-.045.255-.63.33-1.065.21-.3-.12-.42-.24-.72-.93,0-.09-.045-.18-.09-.18,0,0-.075.135-.165.3a1.851,1.851,0,0,1-.885.93,2.133,2.133,0,0,1-1.53,0,1.459,1.459,0,0,1-.915-1.14A6.643,6.643,0,0,1-4.41-6.24Zm-.06,4.425c1.485-.75,1.365-3.63,1.365-3.63a1.132,1.132,0,0,0-.255.255A5.515,5.515,0,0,0-4.2-3.48a1.329,1.329,0,0,1-.18.465A2.957,2.957,0,0,0-4.47-1.815ZM-28.59,9.04c0-.09.1-.18.15-.225a1.336,1.336,0,0,1,1.125,0c.33.2.375.27.465.93a26.682,26.682,0,0,1,0,4.98,1.2,1.2,0,0,1-1.41.81,2.7,2.7,0,0,1-1.59-1.32c-.24-.375-.24-.375-.33,0-.345,1.635-1.035,1.74-1.32,1.74a1.186,1.186,0,0,1-1.32-.66,6.828,6.828,0,0,1-.465-2.2,15.966,15.966,0,0,1,.09-3.435c.645-.69,1.1,0,1.23.09.09.135.09.24.135.855.045,1.08-.045,3.345.375,2.325.165-.54.435-1.86.525-2.145.195-.615.24-.7.7-.7.96-.015,1.035.39,1.08.9a7.556,7.556,0,0,0,.555,2.445c.09.135.1.135.1-.99,0-.66,0-1.59-.045-2.2C-28.575,9.655-28.59,9.13-28.59,9.04Zm3.915.945c.45-.81.735-1.08,1.14-1.215,2.01.06,2.535.885,2.9,2.04a4.81,4.81,0,0,1,0,1.965,3.19,3.19,0,0,1-3.375,2.655c-1.68,0-1.68-1.68-1.635-2.2A6.666,6.666,0,0,1-24.675,9.985Zm2.3,2.43a2.916,2.916,0,0,0-.255-2.265.222.222,0,0,0-.135-.045,4.512,4.512,0,0,0-1.14,2.235c-.18.75-.06,1.815.12,1.77C-22.665,13.84-22.56,13-22.38,12.415Zm4.455-2.6A2.607,2.607,0,0,1-16.74,8.68a1.868,1.868,0,0,1,1.035,0c1.02.33.945.825.855,1.005a.665.665,0,0,1-.675.21c-.645-.18-.825.315-1.095.675-.405.765-.435,1.68-.66,3.57-.045.5-.135.93-.135.975a.918.918,0,0,1-1.575-.3c-.045-.09-.465-4.005-.465-4.455-.045-.72-.03-.735.06-.825a.931.931,0,0,1,.9.06.52.52,0,0,1,.315.3C-18.09,10.165-18.105,10.18-17.925,9.82Zm6.06-4.065c0-.12.12-.18.24-.24a.976.976,0,0,1,1.11.36c.27.255.225,3.135.225,4.125a14.651,14.651,0,0,0,.465,4.305c.12.81.12.87-.12,1.11-.12.18-.795.18-1.035,0-.12-.06-.12-.06-.24,0a3.032,3.032,0,0,1-1.74.525c-1.62.105-1.86-.765-2.04-1.05a4.3,4.3,0,0,1,.81-3.09A6.532,6.532,0,0,1-12.33,10c.24-.12.24-.1.24-.75A34.13,34.13,0,0,1-11.865,5.755Zm.12,7.965c-.06-.4-.18-1.395-.18-1.68a1.482,1.482,0,0,0-.045-.345c-.06,0-.18.105-.36.285-.7.87-1.275,2.61-.99,2.73a1.887,1.887,0,0,0,1.17-.465C-11.745,13.9-11.685,13.9-11.745,13.72Zm3.3,1.8c-.2-.57-.135-1.32.12-1.44a1.618,1.618,0,0,1,1.065,0c.315.195.615.33.555.585a4.444,4.444,0,0,0,.12.69A.978.978,0,0,1-8.445,15.52Zm3.03,0c-.2-.57-.135-1.32.12-1.44a1.618,1.618,0,0,1,1.065,0c.315.195.615.33.555.585a4.444,4.444,0,0,0,.12.69A.978.978,0,0,1-5.415,15.52Zm3.03,0c-.195-.57-.135-1.32.12-1.44a1.618,1.618,0,0,1,1.065,0c.315.195.615.33.555.585a4.444,4.444,0,0,0,.12.69A.978.978,0,0,1-2.385,15.52Z" transform="translate(78 33)" fill="#001e3b"/>
  </g>
</svg>
