<svg id="googleplay" xmlns="http://www.w3.org/2000/svg" xmlns:xlink="http://www.w3.org/1999/xlink" width="156.985" height="38.457" viewBox="0 0 156.985 38.457">
  <defs>
    <clipPath id="clip-path">
      <path id="Path_3498" data-name="Path 3498" d="M160.228,343.853,152.2,339.22l-15.481-8.938c-.86-.5-1.716-.2-1.716.841v36.417c0,.777.612,1.113,1.359.682l15.837-9.145,8.025-4.633,7.715-4.453c.905-.523.818-1.24.055-1.652S160.228,343.853,160.228,343.853Z" transform="translate(-135.006 -330.047)" fill="none"/>
    </clipPath>
    <linearGradient id="linear-gradient" x1="0.5" x2="0.5" y2="1" gradientUnits="objectBoundingBox">
      <stop offset="0" stop-color="#006aa2"/>
      <stop offset="0.345" stop-color="#2f8da6"/>
      <stop offset="0.786" stop-color="#66b6ac"/>
      <stop offset="1" stop-color="#7cc6af"/>
    </linearGradient>
    <linearGradient id="linear-gradient-2" y1="0.5" x2="1" y2="0.5" gradientUnits="objectBoundingBox">
      <stop offset="0" stop-color="#4ab59d"/>
      <stop offset="1" stop-color="#dfe385"/>
    </linearGradient>
    <linearGradient id="linear-gradient-3" x1="0.5" x2="0.5" y2="1" gradientUnits="objectBoundingBox">
      <stop offset="0" stop-color="#e4282d"/>
      <stop offset="0.316" stop-color="#ba2d4e"/>
      <stop offset="0.777" stop-color="#83357b"/>
      <stop offset="1" stop-color="#6e388d"/>
    </linearGradient>
    <linearGradient id="linear-gradient-4" x1="0.5" x2="0.5" y2="1" gradientUnits="objectBoundingBox">
      <stop offset="0" stop-color="#f07165"/>
      <stop offset="0.659" stop-color="#faa460"/>
      <stop offset="1" stop-color="#ffba5e"/>
    </linearGradient>
  </defs>
  <g id="PLAY" transform="translate(0 0.093)">
    <g id="Group_6699" data-name="Group 6699" transform="translate(0)" clip-path="url(#clip-path)">
      <path id="Path_3494" data-name="Path 3494" d="M135.006,328.285v39.428L154.888,348Z" transform="translate(-135.006 -328.898)" fill="url(#linear-gradient)"/>
      <path id="Path_3495" data-name="Path 3495" d="M160.228,342.435,152.2,337.8l-17.2-9.929v.143l19.882,19.714Z" transform="translate(-135.006 -328.63)" fill="url(#linear-gradient-2)"/>
      <path id="Path_3496" data-name="Path 3496" d="M135.006,404.651v.143l17.2-9.929,8.025-4.633-5.34-5.295Z" transform="translate(-135.006 -365.836)" fill="url(#linear-gradient-3)"/>
      <path id="Path_3497" data-name="Path 3497" d="M197.48,369.721l-5.34,5.3,5.34,5.295,9.172-5.295Z" transform="translate(-172.258 -355.915)" fill="url(#linear-gradient-4)"/>
    </g>
  </g>
  <g id="Group_6813" data-name="Group 6813" transform="translate(119.834 10.413)">
    <path id="Path_3499" data-name="Path 3499" d="M484.7,384.817a4.958,4.958,0,0,1-2.045-.413,3.854,3.854,0,0,1-1.554-1.271h-.125a15.409,15.409,0,0,1,.125,1.9v4.718h-1.736V373.141h1.412l.24,1.569h.083a4.037,4.037,0,0,1,1.56-1.36,4.736,4.736,0,0,1,2.04-.419,4.238,4.238,0,0,1,3.521,1.559,8.3,8.3,0,0,1-.02,8.763A4.248,4.248,0,0,1,484.7,384.817Zm-.251-10.41a3.077,3.077,0,0,0-2.542.973,5.01,5.01,0,0,0-.806,3.1v.387a5.736,5.736,0,0,0,.806,3.458,3.064,3.064,0,0,0,2.584,1.04,2.688,2.688,0,0,0,2.329-1.2,5.708,5.708,0,0,0,.842-3.317,5.494,5.494,0,0,0-.842-3.29A2.772,2.772,0,0,0,484.452,374.407Z" transform="translate(-479.368 -368.328)" fill="#f9f9f9"/>
    <path id="Path_3500" data-name="Path 3500" d="M516.681,375.982h-1.737V359.7h1.737Z" transform="translate(-502.564 -359.703)" fill="#f9f9f9"/>
    <path id="Path_3501" data-name="Path 3501" d="M533.807,384.646l-.346-1.632h-.084a4.811,4.811,0,0,1-1.711,1.459,5.2,5.2,0,0,1-2.129.382,3.831,3.831,0,0,1-2.673-.879,3.2,3.2,0,0,1-.968-2.5q0-3.473,5.555-3.641l1.947-.063v-.711a2.9,2.9,0,0,0-.581-1.993,2.386,2.386,0,0,0-1.857-.644,7.562,7.562,0,0,0-3.243.879l-.534-1.329a8.158,8.158,0,0,1,1.858-.722,8.041,8.041,0,0,1,2.024-.262,4.369,4.369,0,0,1,3.039.91,3.8,3.8,0,0,1,.988,2.919v7.825Zm-3.923-1.224a3.528,3.528,0,0,0,2.548-.889,3.293,3.293,0,0,0,.926-2.491v-1.036l-1.738.073a6.318,6.318,0,0,0-2.987.644,1.94,1.94,0,0,0-.915,1.773,1.787,1.787,0,0,0,.57,1.433A2.364,2.364,0,0,0,529.884,383.423Z" transform="translate(-509.705 -368.368)" fill="#f9f9f9"/>
    <path id="Path_3502" data-name="Path 3502" d="M555.222,373.533h1.861l2.511,6.539a24.988,24.988,0,0,1,1.026,3.233h.084q.136-.535.57-1.827t2.84-7.946h1.863l-4.928,13.057a6.513,6.513,0,0,1-1.711,2.747,3.638,3.638,0,0,1-2.4.81,7.025,7.025,0,0,1-1.57-.177v-1.391a6.062,6.062,0,0,0,1.287.126,2.653,2.653,0,0,0,2.553-2.009l.638-1.632Z" transform="translate(-528.826 -368.72)" fill="#f9f9f9"/>
  </g>
  <g id="Group_6814" data-name="Group 6814" transform="translate(40.662 9.131)">
    <path id="Path_3503" data-name="Path 3503" d="M385.489,374.977a3.906,3.906,0,0,1-.312,6.643,1.687,1.687,0,0,0-.672,1.177,1.315,1.315,0,0,0,.624,1.031l.864.67c1.055.888,2.013,1.7,2.013,3.359,0,2.254-2.183,4.532-6.307,4.532-3.478,0-5.156-1.654-5.156-3.43a3.451,3.451,0,0,1,1.847-2.926,10.337,10.337,0,0,1,4.581-1.1,2.509,2.509,0,0,1-.72-1.629,2.164,2.164,0,0,1,.24-.937c-.265.025-.528.048-.768.048a3.792,3.792,0,0,1-3.981-3.765,4.314,4.314,0,0,1,1.534-3.214,6.541,6.541,0,0,1,4.295-1.32h4.94l-1.535.864Zm-1.7,10.649a3.721,3.721,0,0,0-.551-.025,9.6,9.6,0,0,0-2.519.386,2.694,2.694,0,0,0-2.063,2.47c0,1.7,1.656,2.927,4.222,2.927,2.3,0,3.525-1.105,3.525-2.591C386.4,387.566,385.609,386.921,383.785,385.626Zm.7-4.557a2.426,2.426,0,0,0,.6-1.751c0-1.726-1.031-4.412-3.021-4.412a2.24,2.24,0,0,0-1.679.792,2.77,2.77,0,0,0-.528,1.775c0,1.607.935,4.269,3,4.269A2.456,2.456,0,0,0,384.481,381.069Z" transform="translate(-333.153 -367.816)" fill="#f9f9f9"/>
    <path id="Path_3504" data-name="Path 3504" d="M347.915,384.6a5.651,5.651,0,0,1-5.842-5.652,5.933,5.933,0,0,1,6.2-5.817A5.6,5.6,0,0,1,354,378.786,5.851,5.851,0,0,1,347.915,384.6Zm2.993-1.939a4.332,4.332,0,0,0,.719-2.659c0-2.108-1.005-6.13-3.975-6.13a3.335,3.335,0,0,0-2.154.815,3.623,3.623,0,0,0-1.1,2.922c0,2.369,1.173,6.27,4.071,6.27A3.058,3.058,0,0,0,350.908,382.665Z" transform="translate(-310.679 -367.179)" fill="#f9f9f9"/>
    <path id="Path_3505" data-name="Path 3505" d="M310.619,384.6a5.651,5.651,0,0,1-5.843-5.652,5.934,5.934,0,0,1,6.2-5.817,5.6,5.6,0,0,1,5.722,5.651A5.851,5.851,0,0,1,310.619,384.6Zm2.993-1.939a4.338,4.338,0,0,0,.719-2.659c0-2.108-1.006-6.13-3.975-6.13a3.337,3.337,0,0,0-2.155.815,3.623,3.623,0,0,0-1.1,2.922c0,2.369,1.173,6.27,4.071,6.27A3.061,3.061,0,0,0,313.612,382.665Z" transform="translate(-286.36 -367.179)" fill="#f9f9f9"/>
    <path id="Path_3506" data-name="Path 3506" d="M268.442,374.074l-3.443.794a25.516,25.516,0,0,1-3.972.408c-6.645,0-9.172-4.887-9.172-8.715,0-4.67,3.586-9,9.726-9a13.858,13.858,0,0,1,3.682.505,9.386,9.386,0,0,1,3.178,1.493l-2,1.9-.842.191.6-.963a6.88,6.88,0,0,0-5.151-2.262c-3.8,0-6.669,2.89-6.669,7.1a8.513,8.513,0,0,0,8.522,8.786,7.169,7.169,0,0,0,3.058-.6v-3.875l-3.634.192,1.925-1.036h5.1l-.625.6a.562.562,0,0,0-.242.384c-.025.217-.048.916-.048,1.156Z" transform="translate(-251.856 -357.024)" fill="#f9f9f9"/>
    <path id="Path_3507" data-name="Path 3507" d="M414.534,372.376c-.795-.072-.961-.216-.961-1.156V357.595c0-.052.008-.105.013-.155.1-.842.337-.987,1.085-1.42h-3.444l-1.806.867h1.841V371.75c0,.48-.095.553-.649,1.275h4.261l.891-.528C415.354,372.448,414.944,372.424,414.534,372.376Z" transform="translate(-354.59 -356.019)" fill="#f9f9f9"/>
    <path id="Path_3508" data-name="Path 3508" d="M435.916,383.771c-.262.144-.525.312-.787.43a5.568,5.568,0,0,1-2.321.454,5.109,5.109,0,0,1-3.18-.933,6.187,6.187,0,0,1-2.437-5.045,5.418,5.418,0,0,1,5.475-5.522,4.647,4.647,0,0,1,2.464.67,3.957,3.957,0,0,1,1.671,2.366l-5.617,2.272-1.841.143c.6,3.036,2.653,4.8,4.925,4.8a6.177,6.177,0,0,0,2.916-.835Zm-2.246-7.125c.453-.167.693-.311.693-.645a2.372,2.372,0,0,0-2.367-2.056c-.957,0-2.749.742-2.749,3.323,0,.406.048.837.073,1.268Z" transform="translate(-366.176 -367.193)" fill="#f9f9f9"/>
    <g id="Group_6701" data-name="Group 6701" transform="translate(71.334 5.963)">
      <path id="Path_3509" data-name="Path 3509" d="M457.559,373.32V374.9h-.191V373.32h-.522v-.164h1.235v.164Z" transform="translate(-456.846 -373.156)" fill="#f9f9f9"/>
      <path id="Path_3510" data-name="Path 3510" d="M462.613,374.9V373.3H462.6l-.486,1.592h-.15l-.49-1.592h-.006V374.9H461.3v-1.741h.3l.444,1.407h.006l.437-1.407h.3V374.9Z" transform="translate(-459.749 -373.156)" fill="#f9f9f9"/>
    </g>
  </g>
  <g id="Group_6815" data-name="Group 6815" transform="translate(40.703)">
    <path id="Path_3511" data-name="Path 3511" d="M256.714,334.97h-1.2a7.937,7.937,0,0,0-.34-1.4h-1.727a7.229,7.229,0,0,0-.351,1.4h-1.125q0-.146.873-2.392a18.806,18.806,0,0,0,.873-2.475h1.413a20.647,20.647,0,0,0,.791,2.439A21.36,21.36,0,0,1,256.714,334.97Zm-1.727-2.112a21.156,21.156,0,0,1-.639-2.086h-.06q0,.146-.661,2.086Z" transform="translate(-251.974 -329.991)" fill="#f7f8f8"/>
    <path id="Path_3512" data-name="Path 3512" d="M271.931,334.97h-.924a9.1,9.1,0,0,0-1.028-1.618,8.917,8.917,0,0,1-1.226-2.112h-.06a13.171,13.171,0,0,1,.094,1.48q0,.923.052,2.25h-.92q.056-1.159.056-2.546,0-1.365-.056-2.321h1.11a7.032,7.032,0,0,0,.923,1.581,9.31,9.31,0,0,1,1.129,1.993h.056a14.188,14.188,0,0,1-.089-1.5q0-1.013-.053-2.078h.935q-.053.927-.053,2.321T271.931,334.97Z" transform="translate(-262.371 -329.991)" fill="#f7f8f8"/>
    <path id="Path_3513" data-name="Path 3513" d="M287.312,332.326a2.757,2.757,0,0,1-.681,1.854,2.376,2.376,0,0,1-1.906.793q-.553,0-1.525-.045.049-1.129.049-2.546,0-1.36-.049-2.321h.654q.161,0,.478-.012c.212-.007.35-.011.415-.011a2.52,2.52,0,0,1,1.957.673A2.326,2.326,0,0,1,287.312,332.326Zm-1.021.161a1.8,1.8,0,0,0-.419-1.209,1.587,1.587,0,0,0-1.279-.491,3.955,3.955,0,0,0-.441.033q.038.748.038,1.562,0,.894.037,1.772a2.476,2.476,0,0,0,.486.049,1.412,1.412,0,0,0,1.19-.5A1.926,1.926,0,0,0,286.292,332.486Z" transform="translate(-272.334 -329.948)" fill="#f7f8f8"/>
    <path id="Path_3514" data-name="Path 3514" d="M301.991,334.928h-1.107a7.34,7.34,0,0,0-.665-1.633.871.871,0,0,0-.747-.31c-.145,0-.283,0-.415,0q0,.961.034,1.94h-1.039q.049-1.129.048-2.546,0-1.36-.048-2.321h.647q.112,0,.469-.012t.66-.011q1.716,0,1.716,1.174a1.317,1.317,0,0,1-.98,1.3v.056a1.168,1.168,0,0,1,.662.588A13.008,13.008,0,0,1,301.991,334.928Zm-1.4-3.439q0-.744-.957-.744a3.261,3.261,0,0,0-.621.053q.041.579.041,1.51.205.007.348.007Q300.589,332.314,300.589,331.488Z" transform="translate(-282.017 -329.948)" fill="#f7f8f8"/>
    <path id="Path_3515" data-name="Path 3515" d="M315.855,332.236a2.685,2.685,0,0,1-.7,1.9,2.281,2.281,0,0,1-1.738.755,2.2,2.2,0,0,1-1.652-.694,2.441,2.441,0,0,1-.665-1.762,2.683,2.683,0,0,1,.7-1.9,2.28,2.28,0,0,1,1.738-.755,2.2,2.2,0,0,1,1.652.692A2.44,2.44,0,0,1,315.855,332.236Zm-1.031.108a1.929,1.929,0,0,0-.4-1.267,1.231,1.231,0,0,0-.987-.486,1.14,1.14,0,0,0-.927.49,1.954,1.954,0,0,0-.381,1.237,1.925,1.925,0,0,0,.4,1.265,1.231,1.231,0,0,0,.985.488,1.138,1.138,0,0,0,.927-.492A1.956,1.956,0,0,0,314.824,332.344Z" transform="translate(-290.523 -329.78)" fill="#f7f8f8"/>
    <path id="Path_3516" data-name="Path 3516" d="M328.863,334.97H327.8q.049-1.159.049-2.546,0-1.365-.049-2.321h1.058q-.049.942-.048,2.321Q328.814,333.834,328.863,334.97Z" transform="translate(-301.417 -329.991)" fill="#f7f8f8"/>
    <path id="Path_3517" data-name="Path 3517" d="M338.711,332.326a2.756,2.756,0,0,1-.68,1.854,2.376,2.376,0,0,1-1.906.793q-.553,0-1.525-.045.049-1.129.049-2.546,0-1.36-.049-2.321h.654q.161,0,.478-.012t.415-.011a2.52,2.52,0,0,1,1.957.673A2.327,2.327,0,0,1,338.711,332.326Zm-1.02.161a1.8,1.8,0,0,0-.419-1.209,1.587,1.587,0,0,0-1.279-.491,3.949,3.949,0,0,0-.441.033q.038.748.038,1.562,0,.894.037,1.772a2.475,2.475,0,0,0,.486.049,1.413,1.413,0,0,0,1.19-.5A1.926,1.926,0,0,0,337.69,332.486Z" transform="translate(-305.846 -329.948)" fill="#f7f8f8"/>
    <path id="Path_3518" data-name="Path 3518" d="M358.19,334.97h-1.2a7.883,7.883,0,0,0-.341-1.4h-1.727a7.217,7.217,0,0,0-.351,1.4H353.45q0-.146.873-2.392a18.777,18.777,0,0,0,.873-2.475h1.413a20.62,20.62,0,0,0,.791,2.439A21.457,21.457,0,0,1,358.19,334.97Zm-1.727-2.112a21.226,21.226,0,0,1-.64-2.086h-.06a21.87,21.87,0,0,1-.661,2.086Z" transform="translate(-318.138 -329.991)" fill="#f7f8f8"/>
    <path id="Path_3519" data-name="Path 3519" d="M372.948,331.335a1.458,1.458,0,0,1-.664,1.32,2.951,2.951,0,0,1-1.628.426q-.176,0-.251-.007,0,.7.041,1.854H369.4q.049-1.08.049-2.546,0-1.346-.049-2.321h.651q.138,0,.531-.012t.68-.011a2.139,2.139,0,0,1,1.2.322A1.087,1.087,0,0,1,372.948,331.335Zm-.965.205q0-.8-1.062-.8a2.991,2.991,0,0,0-.561.056q.041.706.041,1.6.093.008.217.008Q371.983,332.4,371.983,331.541Z" transform="translate(-328.535 -329.948)" fill="#f7f8f8"/>
    <path id="Path_3520" data-name="Path 3520" d="M385.831,331.335a1.458,1.458,0,0,1-.663,1.32,2.954,2.954,0,0,1-1.628.426c-.117,0-.2,0-.25-.007q0,.7.041,1.854H382.28q.049-1.08.049-2.546,0-1.346-.049-2.321h.65q.138,0,.531-.012t.68-.011a2.139,2.139,0,0,1,1.2.322A1.087,1.087,0,0,1,385.831,331.335Zm-.964.205q0-.8-1.062-.8a2.991,2.991,0,0,0-.561.056q.041.706.041,1.6.093.008.217.008Q384.867,332.4,384.867,331.541Z" transform="translate(-336.935 -329.948)" fill="#f7f8f8"/>
    <path id="Path_3521" data-name="Path 3521" d="M404.634,332.236a2.684,2.684,0,0,1-.7,1.9,2.28,2.28,0,0,1-1.738.755,2.2,2.2,0,0,1-1.652-.694,2.443,2.443,0,0,1-.665-1.762,2.684,2.684,0,0,1,.7-1.9,2.281,2.281,0,0,1,1.739-.755,2.2,2.2,0,0,1,1.652.692A2.441,2.441,0,0,1,404.634,332.236Zm-1.032.108a1.928,1.928,0,0,0-.4-1.267,1.231,1.231,0,0,0-.987-.486,1.14,1.14,0,0,0-.927.49,1.954,1.954,0,0,0-.381,1.237,1.925,1.925,0,0,0,.4,1.265,1.231,1.231,0,0,0,.985.488,1.138,1.138,0,0,0,.927-.492A1.954,1.954,0,0,0,403.6,332.344Z" transform="translate(-348.407 -329.78)" fill="#f7f8f8"/>
    <path id="Path_3522" data-name="Path 3522" d="M420.595,334.97h-.923a9.1,9.1,0,0,0-1.028-1.618,8.922,8.922,0,0,1-1.226-2.112h-.06a13.245,13.245,0,0,1,.093,1.48q0,.923.053,2.25h-.92q.056-1.159.056-2.546,0-1.365-.056-2.321h1.11a7.043,7.043,0,0,0,.924,1.581,9.311,9.311,0,0,1,1.129,1.993h.056a14.107,14.107,0,0,1-.09-1.5q0-1.013-.052-2.078h.934q-.052.927-.052,2.321T420.595,334.97Z" transform="translate(-359.302 -329.991)" fill="#f7f8f8"/>
  </g>
</svg>
