<svg id="googleplay2" xmlns="http://www.w3.org/2000/svg" xmlns:xlink="http://www.w3.org/1999/xlink" width="152.776" height="37.425" viewBox="0 0 152.776 37.425">
  <defs>
    <clipPath id="clip-path">
      <path id="Path_3498" data-name="Path 3498" d="M159.552,343.483l-7.81-4.51-15.066-8.7c-.836-.483-1.67-.191-1.67.819v35.441c0,.757.6,1.083,1.322.663l15.413-8.9,7.81-4.509,7.508-4.334c.881-.509.8-1.207.053-1.607S159.552,343.483,159.552,343.483Z" transform="translate(-135.006 -330.047)" fill="none"/>
    </clipPath>
    <linearGradient id="linear-gradient" x1="0.5" x2="0.5" y2="1" gradientUnits="objectBoundingBox">
      <stop offset="0" stop-color="#006aa2"/>
      <stop offset="0.345" stop-color="#2f8da6"/>
      <stop offset="0.786" stop-color="#66b6ac"/>
      <stop offset="1" stop-color="#7cc6af"/>
    </linearGradient>
    <linearGradient id="linear-gradient-2" y1="0.5" x2="1" y2="0.5" gradientUnits="objectBoundingBox">
      <stop offset="0" stop-color="#4ab59d"/>
      <stop offset="1" stop-color="#dfe385"/>
    </linearGradient>
    <linearGradient id="linear-gradient-3" x1="0.5" x2="0.5" y2="1" gradientUnits="objectBoundingBox">
      <stop offset="0" stop-color="#e4282d"/>
      <stop offset="0.316" stop-color="#ba2d4e"/>
      <stop offset="0.777" stop-color="#83357b"/>
      <stop offset="1" stop-color="#6e388d"/>
    </linearGradient>
    <linearGradient id="linear-gradient-4" x1="0.5" x2="0.5" y2="1" gradientUnits="objectBoundingBox">
      <stop offset="0" stop-color="#f07165"/>
      <stop offset="0.659" stop-color="#faa460"/>
      <stop offset="1" stop-color="#ffba5e"/>
    </linearGradient>
  </defs>
  <g id="PLAY" transform="translate(0 0.09)">
    <g id="Group_6699" data-name="Group 6699" transform="translate(0 0)" clip-path="url(#clip-path)">
      <path id="Path_3494" data-name="Path 3494" d="M135.006,328.285v38.371l19.349-19.185Z" transform="translate(-135.006 -328.882)" fill="url(#linear-gradient)"/>
      <path id="Path_3495" data-name="Path 3495" d="M159.552,342.045l-7.81-4.509-16.735-9.663v.14L154.355,347.2Z" transform="translate(-135.006 -328.609)" fill="url(#linear-gradient-2)"/>
      <path id="Path_3496" data-name="Path 3496" d="M135.006,404.123v.14l16.735-9.663,7.81-4.509-5.2-5.153Z" transform="translate(-135.006 -366.349)" fill="url(#linear-gradient-3)"/>
      <path id="Path_3497" data-name="Path 3497" d="M197.337,369.721l-5.2,5.153,5.2,5.153,8.926-5.153Z" transform="translate(-172.791 -356.285)" fill="url(#linear-gradient-4)"/>
    </g>
  </g>
  <g id="Group_6700" data-name="Group 6700" transform="translate(116.621 10.134)">
    <path id="Path_3499" data-name="Path 3499" d="M484.56,384.5a4.824,4.824,0,0,1-1.99-.4,3.751,3.751,0,0,1-1.512-1.237h-.122a15,15,0,0,1,.122,1.853V389.3h-1.689V373.135h1.374l.234,1.527h.081a3.928,3.928,0,0,1,1.518-1.323,4.608,4.608,0,0,1,1.985-.407,4.124,4.124,0,0,1,3.426,1.517,8.08,8.08,0,0,1-.019,8.528A4.134,4.134,0,0,1,484.56,384.5Zm-.244-10.131a3,3,0,0,0-2.474.947,4.876,4.876,0,0,0-.785,3.014v.377a5.583,5.583,0,0,0,.785,3.365,2.982,2.982,0,0,0,2.515,1.013,2.616,2.616,0,0,0,2.266-1.17,5.555,5.555,0,0,0,.819-3.228,5.347,5.347,0,0,0-.819-3.2A2.7,2.7,0,0,0,484.315,374.368Z" transform="translate(-479.368 -368.452)"/>
    <path id="Path_3500" data-name="Path 3500" d="M516.634,375.545h-1.69V359.7h1.69Z" transform="translate(-502.896 -359.703)"/>
    <path id="Path_3501" data-name="Path 3501" d="M533.595,384.334l-.336-1.588h-.081a4.682,4.682,0,0,1-1.665,1.42,5.057,5.057,0,0,1-2.072.372,3.728,3.728,0,0,1-2.6-.855,3.118,3.118,0,0,1-.942-2.433q0-3.38,5.406-3.543l1.894-.061v-.692a2.826,2.826,0,0,0-.566-1.94,2.322,2.322,0,0,0-1.807-.626,7.359,7.359,0,0,0-3.156.855l-.52-1.293a7.939,7.939,0,0,1,1.808-.7,7.824,7.824,0,0,1,1.97-.255,4.251,4.251,0,0,1,2.958.886,3.7,3.7,0,0,1,.962,2.841v7.615Zm-3.818-1.191a3.433,3.433,0,0,0,2.479-.865,3.2,3.2,0,0,0,.9-2.424v-1.008l-1.691.071a6.148,6.148,0,0,0-2.907.627,1.888,1.888,0,0,0-.891,1.725,1.739,1.739,0,0,0,.555,1.395A2.3,2.3,0,0,0,529.777,383.143Z" transform="translate(-510.14 -368.492)"/>
    <path id="Path_3502" data-name="Path 3502" d="M555.222,373.533h1.811l2.444,6.364a24.316,24.316,0,0,1,1,3.146h.082q.132-.52.554-1.778t2.764-7.733h1.813l-4.8,12.707a6.338,6.338,0,0,1-1.665,2.673,3.541,3.541,0,0,1-2.336.788,6.836,6.836,0,0,1-1.528-.172v-1.354a5.9,5.9,0,0,0,1.253.122,2.582,2.582,0,0,0,2.484-1.955l.621-1.588Z" transform="translate(-529.534 -368.849)"/>
  </g>
  <g id="Group_6702" data-name="Group 6702" transform="translate(39.572 8.886)">
    <path id="Path_3503" data-name="Path 3503" d="M385.249,374.954a3.8,3.8,0,0,1-.3,6.465,1.642,1.642,0,0,0-.654,1.145,1.28,1.28,0,0,0,.608,1l.841.652c1.027.864,1.959,1.658,1.959,3.269,0,2.194-2.124,4.411-6.138,4.411-3.385,0-5.018-1.61-5.018-3.338a3.358,3.358,0,0,1,1.8-2.847,10.06,10.06,0,0,1,4.458-1.074,2.442,2.442,0,0,1-.7-1.585,2.106,2.106,0,0,1,.234-.912c-.258.024-.514.047-.748.047a3.69,3.69,0,0,1-3.874-3.664A4.2,4.2,0,0,1,379.2,375.4a6.365,6.365,0,0,1,4.179-1.284h4.807l-1.494.841Zm-1.658,10.364a3.616,3.616,0,0,0-.536-.024,9.339,9.339,0,0,0-2.451.375,2.622,2.622,0,0,0-2.008,2.4c0,1.656,1.611,2.848,4.109,2.848,2.24,0,3.431-1.076,3.431-2.522C386.136,387.206,385.366,386.578,383.591,385.317Zm.677-4.435a2.361,2.361,0,0,0,.582-1.7c0-1.68-1-4.294-2.94-4.294a2.18,2.18,0,0,0-1.634.77,2.7,2.7,0,0,0-.514,1.727c0,1.564.91,4.154,2.919,4.154A2.39,2.39,0,0,0,384.268,380.882Z" transform="translate(-334.317 -367.985)"/>
    <path id="Path_3504" data-name="Path 3504" d="M347.758,384.3a5.5,5.5,0,0,1-5.685-5.5,5.774,5.774,0,0,1,6.036-5.661,5.448,5.448,0,0,1,5.568,5.5A5.694,5.694,0,0,1,347.758,384.3Zm2.912-1.887a4.215,4.215,0,0,0,.7-2.587c0-2.051-.978-5.965-3.868-5.965a3.246,3.246,0,0,0-2.1.793,3.526,3.526,0,0,0-1.073,2.844c0,2.305,1.142,6.1,3.962,6.1A2.976,2.976,0,0,0,350.671,382.409Z" transform="translate(-311.52 -367.339)"/>
    <path id="Path_3505" data-name="Path 3505" d="M310.462,384.3a5.5,5.5,0,0,1-5.686-5.5,5.774,5.774,0,0,1,6.036-5.661,5.447,5.447,0,0,1,5.569,5.5A5.694,5.694,0,0,1,310.462,384.3Zm2.913-1.887a4.222,4.222,0,0,0,.7-2.587c0-2.051-.979-5.965-3.869-5.965a3.247,3.247,0,0,0-2.1.793,3.526,3.526,0,0,0-1.072,2.844c0,2.305,1.141,6.1,3.962,6.1A2.979,2.979,0,0,0,313.375,382.409Z" transform="translate(-286.854 -367.339)"/>
    <path id="Path_3506" data-name="Path 3506" d="M268,373.631l-3.35.773a24.829,24.829,0,0,1-3.865.4c-6.467,0-8.926-4.756-8.926-8.481,0-4.544,3.49-8.76,9.465-8.76a13.487,13.487,0,0,1,3.584.492A9.135,9.135,0,0,1,268,359.5l-1.945,1.851-.82.186.586-.937a6.7,6.7,0,0,0-5.013-2.2c-3.7,0-6.49,2.813-6.49,6.912a8.285,8.285,0,0,0,8.293,8.55,6.978,6.978,0,0,0,2.976-.586v-3.771l-3.537.187,1.873-1.009h4.967l-.608.586a.547.547,0,0,0-.235.374c-.024.211-.046.891-.046,1.125Z" transform="translate(-251.856 -357.038)"/>
    <path id="Path_3507" data-name="Path 3507" d="M414.4,371.937c-.773-.07-.935-.21-.935-1.125v-13.26c0-.05.008-.1.013-.151.095-.82.328-.96,1.056-1.382h-3.352l-1.758.844h1.791v14.466c0,.467-.092.539-.632,1.241h4.147l.867-.514C415.2,372.007,414.8,371.984,414.4,371.937Z" transform="translate(-356.06 -356.019)"/>
    <path id="Path_3508" data-name="Path 3508" d="M435.682,383.486c-.255.14-.511.3-.766.419a5.418,5.418,0,0,1-2.259.442,4.972,4.972,0,0,1-3.095-.908,6.021,6.021,0,0,1-2.372-4.91,5.273,5.273,0,0,1,5.328-5.374,4.523,4.523,0,0,1,2.4.652,3.851,3.851,0,0,1,1.627,2.3l-5.466,2.211-1.792.14c.581,2.955,2.582,4.675,4.793,4.675a6.011,6.011,0,0,0,2.838-.813Zm-2.186-6.934c.441-.163.674-.3.674-.628a2.309,2.309,0,0,0-2.3-2c-.932,0-2.675.722-2.675,3.234,0,.4.046.814.071,1.234Z" transform="translate(-367.812 -367.353)"/>
    <g id="Group_6701" data-name="Group 6701" transform="translate(69.421 5.804)">
      <path id="Path_3509" data-name="Path 3509" d="M457.54,373.315v1.535h-.186v-1.535h-.508v-.159h1.2v.159Z" transform="translate(-456.846 -373.156)"/>
      <path id="Path_3510" data-name="Path 3510" d="M462.577,374.85V373.3h-.008l-.473,1.549h-.146l-.477-1.549h-.006v1.549H461.3v-1.694h.29l.432,1.37h.006l.425-1.37h.294v1.694Z" transform="translate(-459.79 -373.156)"/>
    </g>
  </g>
  <g id="Group_6703" data-name="Group 6703" transform="translate(39.612 0)">
    <path id="Path_3511" data-name="Path 3511" d="M256.587,334.839h-1.164a7.724,7.724,0,0,0-.331-1.361h-1.681a7.034,7.034,0,0,0-.342,1.361h-1.095q0-.142.849-2.328a18.3,18.3,0,0,0,.85-2.408h1.375a20.1,20.1,0,0,0,.769,2.373A20.793,20.793,0,0,1,256.587,334.839Zm-1.681-2.055a20.592,20.592,0,0,1-.622-2.03h-.058q0,.142-.644,2.03Z" transform="translate(-251.974 -329.994)"/>
    <path id="Path_3512" data-name="Path 3512" d="M271.824,334.839h-.9a8.856,8.856,0,0,0-1-1.575,8.677,8.677,0,0,1-1.193-2.056h-.058a12.82,12.82,0,0,1,.091,1.441q0,.9.051,2.19h-.9q.055-1.128.055-2.478,0-1.328-.055-2.259H269a6.845,6.845,0,0,0,.9,1.539,9.059,9.059,0,0,1,1.1,1.939h.055a13.806,13.806,0,0,1-.087-1.455q0-.986-.051-2.022h.91q-.051.9-.051,2.259T271.824,334.839Z" transform="translate(-262.52 -329.994)"/>
    <path id="Path_3513" data-name="Path 3513" d="M287.2,332.264a2.683,2.683,0,0,1-.662,1.8,2.312,2.312,0,0,1-1.855.771q-.538,0-1.484-.044.047-1.1.047-2.478,0-1.324-.047-2.259h.637q.156,0,.466-.011t.4-.011a2.453,2.453,0,0,1,1.9.655A2.264,2.264,0,0,1,287.2,332.264Zm-.993.156a1.753,1.753,0,0,0-.407-1.177,1.544,1.544,0,0,0-1.244-.478,3.845,3.845,0,0,0-.429.033q.037.728.037,1.521,0,.87.036,1.724a2.411,2.411,0,0,0,.473.047,1.375,1.375,0,0,0,1.159-.486A1.875,1.875,0,0,0,286.209,332.421Z" transform="translate(-272.625 -329.951)"/>
    <path id="Path_3514" data-name="Path 3514" d="M301.885,334.8h-1.077a7.143,7.143,0,0,0-.647-1.59.848.848,0,0,0-.727-.3q-.211,0-.4,0,0,.935.033,1.888h-1.011q.047-1.1.047-2.478,0-1.324-.047-2.259h.629q.109,0,.457-.011t.642-.011q1.67,0,1.67,1.142a1.282,1.282,0,0,1-.953,1.263v.055a1.137,1.137,0,0,1,.644.573A12.659,12.659,0,0,1,301.885,334.8Zm-1.364-3.347q0-.724-.931-.724a3.175,3.175,0,0,0-.6.051q.04.564.04,1.47.2.007.338.007Q300.521,332.253,300.521,331.449Z" transform="translate(-282.447 -329.951)"/>
    <path id="Path_3515" data-name="Path 3515" d="M315.728,332.17a2.613,2.613,0,0,1-.684,1.852,2.22,2.22,0,0,1-1.692.735,2.137,2.137,0,0,1-1.608-.675,2.375,2.375,0,0,1-.648-1.715,2.611,2.611,0,0,1,.684-1.852,2.219,2.219,0,0,1,1.692-.735,2.14,2.14,0,0,1,1.608.673A2.374,2.374,0,0,1,315.728,332.17Zm-1,.105a1.878,1.878,0,0,0-.389-1.233,1.2,1.2,0,0,0-.96-.473,1.109,1.109,0,0,0-.9.477,1.9,1.9,0,0,0-.371,1.2,1.873,1.873,0,0,0,.391,1.231,1.2,1.2,0,0,0,.959.475,1.108,1.108,0,0,0,.9-.479A1.9,1.9,0,0,0,314.724,332.276Z" transform="translate(-291.075 -329.78)"/>
    <path id="Path_3516" data-name="Path 3516" d="M328.834,334.839H327.8q.047-1.128.047-2.478,0-1.328-.047-2.259h1.029q-.047.916-.047,2.259Q328.787,333.734,328.834,334.839Z" transform="translate(-302.124 -329.994)"/>
    <path id="Path_3517" data-name="Path 3517" d="M338.6,332.264a2.682,2.682,0,0,1-.662,1.8,2.312,2.312,0,0,1-1.855.771q-.539,0-1.484-.044.047-1.1.047-2.478,0-1.324-.047-2.259h.637q.156,0,.466-.011t.4-.011a2.452,2.452,0,0,1,1.9.655A2.265,2.265,0,0,1,338.6,332.264Zm-.993.156a1.755,1.755,0,0,0-.407-1.177,1.545,1.545,0,0,0-1.244-.478,3.839,3.839,0,0,0-.429.033q.036.728.037,1.521,0,.87.036,1.724a2.41,2.41,0,0,0,.473.047,1.375,1.375,0,0,0,1.159-.486A1.874,1.874,0,0,0,337.608,332.421Z" transform="translate(-306.617 -329.951)"/>
    <path id="Path_3518" data-name="Path 3518" d="M358.063,334.839H356.9a7.669,7.669,0,0,0-.332-1.361h-1.681a7.025,7.025,0,0,0-.342,1.361H353.45q0-.142.849-2.328a18.28,18.28,0,0,0,.849-2.408h1.375a20.058,20.058,0,0,0,.77,2.373A20.881,20.881,0,0,1,358.063,334.839Zm-1.681-2.055a20.658,20.658,0,0,1-.622-2.03H355.7a21.3,21.3,0,0,1-.644,2.03Z" transform="translate(-319.084 -329.994)"/>
    <path id="Path_3519" data-name="Path 3519" d="M372.852,331.3a1.418,1.418,0,0,1-.646,1.284,2.872,2.872,0,0,1-1.584.414q-.171,0-.244-.007,0,.684.04,1.8H369.4q.047-1.051.047-2.478,0-1.31-.047-2.259h.633q.134,0,.516-.011t.662-.011a2.082,2.082,0,0,1,1.168.313A1.058,1.058,0,0,1,372.852,331.3Zm-.939.2q0-.778-1.033-.778a2.912,2.912,0,0,0-.546.055q.04.687.04,1.557.091.008.211.007Q371.914,332.341,371.914,331.5Z" transform="translate(-329.63 -329.951)"/>
    <path id="Path_3520" data-name="Path 3520" d="M385.736,331.3a1.419,1.419,0,0,1-.645,1.284,2.874,2.874,0,0,1-1.585.414c-.114,0-.2,0-.243-.007q0,.684.04,1.8H382.28q.047-1.051.047-2.478,0-1.31-.047-2.259h.633q.135,0,.517-.011t.662-.011a2.081,2.081,0,0,1,1.168.313A1.058,1.058,0,0,1,385.736,331.3Zm-.938.2q0-.778-1.033-.778a2.911,2.911,0,0,0-.546.055q.04.687.04,1.557.091.008.211.007Q384.8,332.341,384.8,331.5Z" transform="translate(-338.151 -329.951)"/>
    <path id="Path_3521" data-name="Path 3521" d="M404.506,332.17a2.612,2.612,0,0,1-.684,1.852,2.219,2.219,0,0,1-1.692.735,2.138,2.138,0,0,1-1.608-.675,2.377,2.377,0,0,1-.647-1.715,2.612,2.612,0,0,1,.684-1.852,2.22,2.22,0,0,1,1.692-.735,2.14,2.14,0,0,1,1.608.673A2.376,2.376,0,0,1,404.506,332.17Zm-1,.105a1.876,1.876,0,0,0-.389-1.233,1.2,1.2,0,0,0-.96-.473,1.11,1.11,0,0,0-.9.477,1.9,1.9,0,0,0-.371,1.2,1.873,1.873,0,0,0,.391,1.231,1.2,1.2,0,0,0,.958.475,1.107,1.107,0,0,0,.9-.479A1.9,1.9,0,0,0,403.5,332.276Z" transform="translate(-349.787 -329.78)"/>
    <path id="Path_3522" data-name="Path 3522" d="M420.487,334.839h-.9a8.854,8.854,0,0,0-1-1.575,8.682,8.682,0,0,1-1.193-2.056h-.058a12.887,12.887,0,0,1,.091,1.441q0,.9.051,2.19h-.9q.054-1.128.055-2.478,0-1.328-.055-2.259h1.08a6.855,6.855,0,0,0,.9,1.539,9.059,9.059,0,0,1,1.1,1.939h.055a13.732,13.732,0,0,1-.087-1.455q0-.986-.051-2.022h.909q-.051.9-.051,2.259T420.487,334.839Z" transform="translate(-360.838 -329.994)"/>
  </g>
</svg>
