<svg xmlns="http://www.w3.org/2000/svg" width="59.235" height="60.884" viewBox="0 0 59.235 60.884">
  <g id="ico1" transform="translate(0 1.666)">
    <path id="Path_3466" data-name="Path 3466" d="M328.965,716.918l-4.555,8.247a.528.528,0,0,1-.364.3L315.7,728.2a.529.529,0,0,1-.608-.715l4.031-7.8a.529.529,0,0,1,.355-.312l8.869-3.178A.529.529,0,0,1,328.965,716.918Z" transform="translate(-312.604 -702.14)" fill="#001e3b"/>
    <path id="Path_3467" data-name="Path 3467" d="M328.367,720.45l-10.786-2.57a.623.623,0,0,1-.456-.319l-5.725-8.6a.622.622,0,0,1,.619-.914l10.116,2.116a.621.621,0,0,1,.466.3l6.4,9.058A.622.622,0,0,1,328.367,720.45Z" transform="translate(-311.324 -699.347)" fill="#001e3b"/>
    <path id="Path_3468" data-name="Path 3468" d="M367.842,707.2l.007-18.56c-12.042,7.281-24.893,5.525-36.062-.417l.024,21.03a24.331,24.331,0,0,0-4,13.429c0,13.112,10.2,23.741,22.772,23.741.561,0,1.115.042,1.665,0h8.438c.464.045.933,0,1.408,0h11.184V724.539c.046-.613.076-1.231.076-1.857A24.238,24.238,0,0,0,367.842,707.2Z" transform="translate(-319.179 -688.222)" fill="#fff" stroke="#001e3b" stroke-miterlimit="10" stroke-width="2"/>
    <path id="Rectangle_1921" data-name="Rectangle 1921" d="M4,0H42.744a4,4,0,0,1,4,4V20.894a9,9,0,0,1-9,9H9a9,9,0,0,1-9-9V4A4,4,0,0,1,4,0Z" transform="translate(8.13 15.162)" fill="#0b84c7" stroke="#001e3b" stroke-miterlimit="10" stroke-width="2"/>
    <path id="Path_2006" data-name="Path 2006" d="M439.584,776.34" transform="translate(-380.349 -734.028)" fill="#0a2e40" stroke="#001e3b" stroke-miterlimit="10" stroke-width="2"/>
    <circle id="Ellipse_88" data-name="Ellipse 88" cx="11.769" cy="11.769" r="11.769" transform="translate(7.691 9.15)" fill="#fff" stroke="#001e3b" stroke-miterlimit="10" stroke-width="2"/>
    <circle id="Ellipse_90" data-name="Ellipse 90" cx="11.769" cy="11.769" r="11.769" transform="translate(31.023 9.15)" fill="#fff" stroke="#001e3b" stroke-miterlimit="10" stroke-width="2"/>
    <path id="Path_3471" data-name="Path 3471" d="M364.143,727.87l-8.17-.725-7.038-9.049-6.218,9.049-8.533.725c-4.67,0-8.456-4.173-8.456-9.321V711.4c0-5.148,3.786-9.321,8.456-9.321h29.959c4.67,0,8.455,4.173,8.455,9.321v7.152C372.6,723.7,368.812,727.87,364.143,727.87Z" transform="translate(-318.037 -694.682)" fill="#001e3b"/>
    <path id="Path_2012" data-name="Path 2012" d="M347.683,721.179a3.146,3.146,0,0,0-1.685.489.95.95,0,0,1-1.266,1.405,3.771,3.771,0,0,0-.4,1.685,3.345,3.345,0,1,0,3.337-3.576Z" transform="translate(-328.221 -703.84)" fill="#fff" stroke="#001e3b" stroke-width="2"/>
    <path id="Path_2013" data-name="Path 2013" d="M399.217,721.179a3.145,3.145,0,0,0-1.685.489.95.95,0,0,1-1.266,1.405,3.766,3.766,0,0,0-.4,1.685,3.345,3.345,0,1,0,3.337-3.576Z" transform="translate(-356.425 -703.84)" fill="#fff" stroke="#001e3b" stroke-width="2"/>
    <path id="Path_3472" data-name="Path 3472" d="M428.414,713.614" transform="translate(-374.235 -699.699)" fill="none" stroke="#001e3b" stroke-miterlimit="10" stroke-width="2"/>
    <path id="Path_3473" data-name="Path 3473" d="M326.077,713.614" transform="translate(-318.228 -699.699)" fill="none" stroke="#001e3b" stroke-miterlimit="10" stroke-width="2"/>
    <path id="Path_3474" data-name="Path 3474" d="M430.261,744.417" transform="translate(-375.246 -716.557)" fill="none" stroke="#001e3b" stroke-miterlimit="10" stroke-width="2"/>
    <path id="Path_3475" data-name="Path 3475" d="M376.989,755.084" transform="translate(-346.091 -722.395)" fill="#63747d" stroke="#001e3b" stroke-miterlimit="10" stroke-width="2"/>
    <path id="Path_2011" data-name="Path 2011" d="M378.65,739.15,374,732.923a.419.419,0,0,0-.354-.28l-4.5,6.088a1.4,1.4,0,0,0,0,1.664l4.5,6.087A.424.424,0,0,0,374,746.2l4.653-6.226A1,1,0,0,0,378.65,739.15Z" transform="translate(-342.783 -709.571)" fill="#001e3b"/>
    <circle id="Ellipse_121" data-name="Ellipse 121" cx="3.522" cy="3.522" r="3.522" transform="translate(16.115 17.339)" fill="#fff"/>
    <circle id="Ellipse_122" data-name="Ellipse 122" cx="3.522" cy="3.522" r="3.522" transform="translate(39.27 17.339)" fill="#fff"/>
  </g>
</svg>
