<svg xmlns="http://www.w3.org/2000/svg" width="63" height="73.626" viewBox="0 0 63 73.626">
  <g id="ico2" transform="translate(0 2)">
    <g id="bookmarks" transform="translate(0.162 8.787)">
      <g id="Component_212_15" data-name="Component 212 – 15" opacity="0">
        <rect id="Rectangle_1922" data-name="Rectangle 1922" width="63" height="63" transform="translate(-0.162 -0.161)" fill="#fff"/>
      </g>
      <g id="Group_6663" data-name="Group 6663" transform="translate(9.461 2.365)">
        <path id="Path_166" data-name="Path 166" d="M122.035,386.33H95.079a5.89,5.89,0,0,0-5.89,5.89v46.1a5.89,5.89,0,0,0,5.89,5.89H127.3a5.892,5.892,0,0,0,5.892-5.89v-40.84Z" transform="translate(-89.189 -386.33)" fill="#001e3b" stroke="#fff" stroke-miterlimit="10" stroke-width="2"/>
        <path id="Path_168" data-name="Path 168" d="M109.5,392.042a5.892,5.892,0,0,0,5.89,5.892h5.265L109.5,386.779Z" transform="translate(-76.657 -386.053)" fill="#fff"/>
      </g>
    </g>
    <g id="Group_6828" data-name="Group 6828" transform="translate(-767.8 -2272.175)">
      <path id="Icon_awesome-globe-africa" data-name="Icon awesome-globe-africa" d="M13.706.563A13.706,13.706,0,1,0,27.412,14.268,13.706,13.706,0,0,0,13.706.563Zm8.842,11.91v.383a.856.856,0,0,1-.474.766l-.851.426a.856.856,0,0,1-.858-.054l-1.006-.671a.858.858,0,0,0-.746-.1l-.146.049a.856.856,0,0,0-.442,1.288l.732,1.1a.856.856,0,0,0,.712.381h.454a.857.857,0,0,1,.857.857v.627a.858.858,0,0,1-.171.514l-1.036,1.381a.861.861,0,0,0-.156.355l-.238,1.262a.858.858,0,0,1-.263.473,8.821,8.821,0,0,0-1.382,1.612l-.72,1.08a1.534,1.534,0,0,1-2.648-.165,4.361,4.361,0,0,1-.46-1.95V20.43a.857.857,0,0,0-.857-.857h-1.43A3.019,3.019,0,0,1,8.4,16.555v-.777a3.02,3.02,0,0,1,1.208-2.415l1.524-1.143a3.021,3.021,0,0,1,1.812-.6h.049a3.013,3.013,0,0,1,1.35.319l.814.407a.856.856,0,0,0,.654.046l2.615-.872a.856.856,0,0,0-.271-1.669H17.6A.856.856,0,0,1,16.99,9.6l-.382-.382A.856.856,0,0,0,16,8.962H11.025a.857.857,0,0,1-.857-.857V7.863a.857.857,0,0,1,.649-.831l.8-.2a.858.858,0,0,0,.505-.356l.447-.669a.856.856,0,0,1,.712-.381h1.338a.857.857,0,0,0,.857-.857v-1.2a11.068,11.068,0,0,1,8.949,8.246H23.4A.857.857,0,0,0,22.548,12.472Z" transform="translate(785.919 2298.532)" fill="#fff"/>
    </g>
    <g id="Icon_ionic-ios-lock" data-name="Icon ionic-ios-lock" transform="translate(30 -3.375)" fill="#0b84c7">
      <path d="M 26.4375 33.625 L 9.5625 33.625 C 7.460279941558838 33.625 5.75 31.91472053527832 5.75 29.81250190734863 L 5.75 16.31250190734863 C 5.75 14.21028137207031 7.460279941558838 12.50000095367432 9.5625 12.50000095367432 L 10.25 12.50000095367432 L 10.25 10.12500095367432 C 10.25 5.851311206817627 13.72756004333496 2.374411344528198 18.00205993652344 2.374411344528198 C 18.03613090515137 2.374411344528198 18.07036018371582 2.374641418457031 18.10452079772949 2.375091314315796 C 20.16105079650879 2.406301498413086 22.08658027648926 3.243121385574341 23.52846908569336 4.731431484222412 C 24.96105003356934 6.210111618041992 25.75 8.158051490783691 25.75 10.21640110015869 L 25.75 12.50000095367432 L 26.4375 12.50000095367432 C 28.53972053527832 12.50000095367432 30.25 14.21028137207031 30.25 16.31250190734863 L 30.25 29.81250190734863 C 30.25 31.91472053527832 28.53972053527832 33.625 26.4375 33.625 Z M 17.99894905090332 19.00143051147461 C 17.96878051757812 19.00143051147461 17.93804931640625 19.00251197814941 17.90763092041016 19.0046215057373 C 17.30438041687012 19.04743194580078 16.80736923217773 19.53388214111328 16.75297927856445 20.13605117797852 C 16.70788955688477 20.65847206115723 16.98269081115723 21.14670181274414 17.45343017578125 21.37593078613281 L 17.99946594238281 21.64182090759277 L 18.54727935791016 21.37559127807617 C 18.9807300567627 21.16493225097656 19.25 20.7336311340332 19.25 20.25000190734863 C 19.25 19.5615406036377 18.68877983093262 19.00143051147461 17.99894905090332 19.00143051147461 Z M 14.21875 12.50000095367432 L 21.78125 12.50000095367432 L 21.78125 10.12500095367432 C 21.78125 9.122541427612305 21.38585090637207 8.175071716308594 20.66789054870605 7.457111358642578 C 19.94993019104004 6.739151477813721 19.00246047973633 6.343751430511475 18 6.343751430511475 C 16.99753952026367 6.343751430511475 16.05006980895996 6.739151477813721 15.33211040496826 7.457111358642578 C 14.61415004730225 8.175071716308594 14.21875 9.122541427612305 14.21875 10.12500095367432 L 14.21875 12.50000095367432 Z" stroke="none"/>
      <path d="M 18.0020637512207 3.374416351318359 C 14.28783226013184 3.374362945556641 11.25 6.414051055908203 11.25 10.12500190734863 L 11.25 13.50000190734863 L 9.5625 13.50000190734863 C 8.015619277954102 13.50000190734863 6.75 14.76562118530273 6.75 16.31250190734863 L 6.75 29.81250190734863 C 6.75 31.35937118530273 8.015619277954102 32.625 9.5625 32.625 L 26.4375 32.625 C 27.98437118530273 32.625 29.25 31.35937118530273 29.25 29.81250190734863 L 29.25 16.31250190734863 C 29.25 14.76562118530273 27.98437118530273 13.50000190734863 26.4375 13.50000190734863 L 24.75 13.50000190734863 L 24.75 10.21640205383301 C 24.75 6.510931015014648 21.79687118530273 3.431251525878906 18.09140968322754 3.375 C 18.06161880493164 3.374610900878906 18.03176879882812 3.374416351318359 18.0020637512207 3.374416351318359 M 22.78125 13.50000190734863 L 13.21875 13.50000190734863 L 13.21875 10.12500190734863 C 13.21875 8.852340698242188 13.71796989440918 7.657032012939453 14.625 6.750001907348633 C 15.53203010559082 5.842971801757812 16.72734069824219 5.343751907348633 18 5.343751907348633 C 19.27265930175781 5.343751907348633 20.46796989440918 5.842971801757812 21.375 6.750001907348633 C 22.28203010559082 7.657032012939453 22.78125 8.852340698242188 22.78125 10.12500190734863 L 22.78125 13.50000190734863 M 17.99927711486816 28.12625122070312 C 17.4590950012207 28.12625122070312 17.0156192779541 27.6864013671875 17.0156192779541 27.14062118530273 L 17.0156192779541 22.27500152587891 C 16.20702934265137 21.88125228881836 15.67266082763672 21.02344131469727 15.75703048706055 20.04609107971191 C 15.85547065734863 18.95625114440918 16.74843978881836 18.08437156677246 17.83827972412109 18.00703048706055 C 17.89221000671387 18.00328254699707 17.9458179473877 18.00143623352051 17.99895286560059 18.00143623352051 C 19.24130821228027 18.00143623352051 20.25 19.00931549072266 20.25 20.25 C 20.25 21.14297103881836 19.73671913146973 21.90937042236328 18.9843692779541 22.27500152587891 L 18.9843692779541 27.11250114440918 C 18.9843692779541 27.63984107971191 18.57655906677246 28.09687042236328 18.04921913146973 28.12500190734863 C 18.03249931335449 28.1258373260498 18.01582527160645 28.12625122070312 17.99927711486816 28.12625122070312 M 18.0019702911377 1.374412536621094 L 18.00205993652344 1.374412536621094 C 18.04047966003418 1.374412536621094 18.07906913757324 1.374671936035156 18.11758995056152 1.375171661376953 C 20.44355010986328 1.410480499267578 22.61875915527344 2.355281829833984 24.24668121337891 4.035600662231445 C 25.86096954345703 5.701850891113281 26.75 7.896902084350586 26.75 10.21640205383301 L 26.75 11.51003456115723 C 29.25857925415039 11.67155075073242 31.25 13.76383399963379 31.25 16.31250190734863 L 31.25 29.81250190734863 C 31.25 32.46612167358398 29.09111976623535 34.625 26.4375 34.625 L 9.5625 34.625 C 6.908880233764648 34.625 4.75 32.46612167358398 4.75 29.81250190734863 L 4.75 16.31250190734863 C 4.75 13.76383399963379 6.741420745849609 11.67155075073242 9.25 11.51003456115723 L 9.25 10.12500190734863 C 9.25 5.299911499023438 13.17612075805664 1.374412536621094 18.0019702911377 1.374412536621094 Z M 20.78125 11.50000190734863 L 20.78125 10.12500190734863 C 20.78125 9.378992080688477 20.49753952026367 8.700971603393555 19.96079063415527 8.164211273193359 C 19.42403030395508 7.627460479736328 18.74600982666016 7.343751907348633 18 7.343751907348633 C 17.25399017333984 7.343751907348633 16.57596969604492 7.627460479736328 16.03920936584473 8.164211273193359 C 15.50246047973633 8.700971603393555 15.21875 9.378992080688477 15.21875 10.12500190734863 L 15.21875 11.50000190734863 L 20.78125 11.50000190734863 Z M 17.99988555908203 20.5297679901123 L 18.11017036437988 20.47617149353027 C 18.1522102355957 20.45574188232422 18.25 20.39280128479004 18.25 20.25 C 18.25 20.11294174194336 18.13738059997559 20.00143051147461 17.99894905090332 20.00143051147461 C 17.99185943603516 20.00143051147461 17.9844799041748 20.0016918182373 17.97701072692871 20.00221252441406 C 17.86802673339844 20.00995063781738 17.76119804382324 20.11255645751953 17.74926376342773 20.22257232666016 C 17.73739814758301 20.38380432128906 17.8443603515625 20.45404052734375 17.89123916625977 20.47686004638672 L 17.99988555908203 20.5297679901123 Z" stroke="none" fill="#fff"/>
    </g>
  </g>
</svg>
