<svg id="ico4" xmlns="http://www.w3.org/2000/svg" width="60.05" height="46.402" viewBox="0 0 60.05 46.402">
  <path id="Icon_material-chrome-reader-mode" data-name="Icon material-chrome-reader-mode" d="M34.254,27.836H53.361V31.93H34.254Zm0-6.824H53.361v4.094H34.254Zm0,13.648H53.361v4.094H34.254ZM56.091,6H6.959A5.475,5.475,0,0,0,1.5,11.459V46.943A5.475,5.475,0,0,0,6.959,52.4H56.091a5.475,5.475,0,0,0,5.459-5.459V11.459A5.475,5.475,0,0,0,56.091,6Zm0,40.943H31.525V11.459H56.091Z" transform="translate(-1.5 -6)" fill="#001e3b"/>
  <rect id="Rectangle_1926" data-name="Rectangle 1926" width="27" height="37" transform="translate(28.428 5.422)" fill="#fff"/>
  <rect id="Rectangle_1927" data-name="Rectangle 1927" width="19" height="4" rx="2" transform="translate(32.428 12.422)" fill="#0062af"/>
  <rect id="Rectangle_1928" data-name="Rectangle 1928" width="19" height="4" rx="2" transform="translate(32.428 20.422)" fill="#0062af"/>
  <rect id="Rectangle_1929" data-name="Rectangle 1929" width="19" height="4" rx="2" transform="translate(32.428 28.422)" fill="#0062af"/>
</svg>
