<svg xmlns="http://www.w3.org/2000/svg" width="49.469" height="60.314" viewBox="0 0 49.469 60.314">
  <g id="ico6" transform="translate(1 1)">
    <g id="Group_6671" data-name="Group 6671">
      <rect id="Rectangle_126" data-name="Rectangle 126" width="34.526" height="16.668" transform="translate(0.763 3.706)" fill="#001e3b"/>
      <path id="Path_4" data-name="Path 4" d="M1678.9,35.073c-.056,4.131,3.58,7.508,8.085,7.508h31.84l4.2.047a2.793,2.793,0,0,1,2.787,2.8V83.35a3.858,3.858,0,0,1-3.849,3.867h-36.347a7.288,7.288,0,0,1-7.273-7.3V37.2h0a8.283,8.283,0,0,1,8.264-8.3h33.877a5.121,5.121,0,0,1,5.328,4.888v10.8" transform="translate(-1678.343 -28.903)" fill="#001e3b" stroke="#fff" stroke-miterlimit="10" stroke-width="2"/>
      <path id="Path_155" data-name="Path 155" d="M0,0H30.953" transform="translate(11.579 8.2)" fill="none" stroke="#fff" stroke-width="2"/>
      <path id="Path_156" data-name="Path 156" d="M6.7-12.172h3.718L16.911,5.115h-3.6L11.889.986H5.226L3.8,5.115H.2ZM10.827-2.008,9.282-6.329l-.628-2.1H8.461l-.628,2.1L6.288-2.008Zm7.726-10.164h3.163v5.191l-.193,1.69h.193a3.589,3.589,0,0,1,1.352-1.28A4.467,4.467,0,0,1,25.337-7.1a5.122,5.122,0,0,1,2.161.471,5.777,5.777,0,0,1,1.811,1.3,6.192,6.192,0,0,1,1.243,1.992A6.828,6.828,0,0,1,31.011-.8a6.828,6.828,0,0,1-.459,2.535,6.192,6.192,0,0,1-1.243,1.992A5.777,5.777,0,0,1,27.5,5.03a5.122,5.122,0,0,1-2.161.471,4.467,4.467,0,0,1-2.269-.531,3.589,3.589,0,0,1-1.352-1.28h-.193V5.115h-2.97ZM24.685,2.58a3.021,3.021,0,0,0,1.2-.241,3.146,3.146,0,0,0,1-.676A3.3,3.3,0,0,0,27.583.6a3.56,3.56,0,0,0,.266-1.4,3.56,3.56,0,0,0-.266-1.4,3.3,3.3,0,0,0-.7-1.062,3.146,3.146,0,0,0-1-.676,3.021,3.021,0,0,0-1.2-.241,3.159,3.159,0,0,0-1.2.229,2.986,2.986,0,0,0-1,.664,3.3,3.3,0,0,0-.7,1.062A3.625,3.625,0,0,0,21.523-.8,3.625,3.625,0,0,0,21.788.624a3.3,3.3,0,0,0,.7,1.062,2.986,2.986,0,0,0,1,.664A3.159,3.159,0,0,0,24.685,2.58Z" transform="translate(8.577 37.167)" fill="#fff"/>
    </g>
  </g>
</svg>
