<svg xmlns="http://www.w3.org/2000/svg" width="68.828" height="65.767" viewBox="0 0 68.828 65.767">
  <g id="ico7" transform="translate(1.5 1.5)">
    <g id="Group_6670" data-name="Group 6670">
      <g id="Union_3" data-name="Union 3" transform="translate(27.6 17.312)">
        <path id="Path_1" data-name="Path 1" d="M299.177,176.787v-7.4H280.306a7.773,7.773,0,0,1-7.765-7.764V139.171a7.774,7.774,0,0,1,7.765-7.765H303a7.774,7.774,0,0,1,7.765,7.765v25.442A12.2,12.2,0,0,1,299.177,176.787Z" transform="translate(-272.541 -131.406)" fill="#001e3b" stroke="#fff" stroke-width="3"/>
      </g>
      <path id="Subtraction_1" data-name="Subtraction 1" d="M27.02,46.59H8.362A8.372,8.372,0,0,1,0,38.227V12.783A12.782,12.782,0,0,1,12.782,0V7.407H31.059a8.372,8.372,0,0,1,8.363,8.362v1.775H34.785a7.773,7.773,0,0,0-7.765,7.765v21.28Z" transform="translate(0 0)" fill="#0b84c7" stroke="#fff" stroke-miterlimit="10" stroke-width="3"/>
      <path id="Path_3477" data-name="Path 3477" d="M20.519,6.77A5.207,5.207,0,0,0,19.479,8.6q-.217.574-.444.574a2.321,2.321,0,0,1-.52-.108,24.975,24.975,0,0,1-7.918-4.4A25.076,25.076,0,0,1,2.68,9.023q-.487.13-.531.13-.206,0-.422-.552a4.663,4.663,0,0,0-1-1.646A24.76,24.76,0,0,0,8.854,3.023,20.674,20.674,0,0,1,4.543-5.025H4.12L1.3-4.982q-.173,0-.206-.043a.373.373,0,0,1-.032-.195V-7.029q0-.173.043-.206A.373.373,0,0,1,1.3-7.267l2.816.043h5.1V-8.286a14.585,14.585,0,0,0-.173-2.556,22.05,22.05,0,0,1,2.459.162q.357,0,.357.238a1.4,1.4,0,0,1-.13.444,5.486,5.486,0,0,0-.13,1.668v1.1h5.47l2.816-.043a.4.4,0,0,1,.238.043.373.373,0,0,1,.032.195V-5.22q0,.173-.043.206a.513.513,0,0,1-.227.032l-2.816-.043h-.509A19.115,19.115,0,0,1,12.4,3,23.434,23.434,0,0,0,20.519,6.77Zm-6.564-11.8h-7a15.8,15.8,0,0,0,3.661,6.477A14.471,14.471,0,0,0,13.955-5.025Z" transform="translate(6.546 27.826)" fill="#fff"/>
      <g id="A" transform="translate(39.034 27.913)" style="isolation: isolate">
        <path id="Path_3476" data-name="Path 3476" d="M6.123-9.308H9.539L15.507,6.575H12.2L10.893,2.782H4.77L3.461,6.575H.156ZM9.917.031,8.5-3.94,7.92-5.87H7.743L7.166-3.94,5.746.031Z" transform="translate(-0.156 9.308)" fill="#fff"/>
      </g>
    </g>
  </g>
</svg>
