<svg xmlns="http://www.w3.org/2000/svg" width="66.885" height="49.174" viewBox="0 0 66.885 49.174">
  <g id="ico8" transform="translate(2 2)">
    <g id="Icon_weather-cloud-refresh" data-name="Icon weather-cloud-refresh" transform="translate(-5.556 -8.88)" fill="#001e3b" stroke-linejoin="round">
      <path d="M 36.92306900024414 55.05343246459961 C 34.46699905395508 55.05343246459961 32.19638824462891 54.43558120727539 30.17428016662598 53.21708297729492 C 28.08817863464355 51.99074172973633 26.43085861206055 50.33188247680664 25.24842071533203 48.28657150268555 C 24.03425979614258 46.18642425537109 23.41863059997559 43.90938186645508 23.41863059997559 41.51871109008789 C 23.41863059997559 38.12496948242188 24.51982307434082 35.15385055541992 26.69150161743164 32.68793869018555 C 28.41762733459473 30.67593574523926 30.54625511169434 29.28404235839844 33.03688430786133 28.53481864929199 C 32.50070953369141 27.93327140808105 32.2292594909668 27.1691780090332 32.2292594909668 26.25905227661133 C 32.2292594909668 25.2827033996582 32.56518936157227 24.43072319030762 33.22771072387695 23.72679328918457 C 33.88748931884766 23.0257625579834 34.75701141357422 22.65522384643555 35.74225997924805 22.65522384643555 C 36.71440124511719 22.65522384643555 37.55339050292969 23.00236320495605 38.30717849731445 23.71648216247559 L 38.31798934936523 23.72671318054199 L 38.3284797668457 23.73726272583008 L 43.82830047607422 29.26730537414551 C 44.53066253662109 29.93480491638184 44.88679885864258 30.79695129394531 44.88679885864258 31.83004379272461 C 44.88679885864258 32.76575469970703 44.53517913818359 33.59287643432617 43.8416862487793 34.28850555419922 L 38.3360595703125 39.94538116455078 L 38.25563049316406 40.02802276611328 L 38.15850067138672 40.09019470214844 C 37.25783920288086 40.66662216186523 36.42475891113281 40.94683456420898 35.61167144775391 40.94683456420898 C 35.56708145141602 40.94683456420898 35.52206039428711 40.94595718383789 35.47751998901367 40.94423294067383 C 34.56539154052734 40.93870162963867 33.78717422485352 40.59761810302734 33.16429138183594 39.93023300170898 L 33.14688873291016 39.91158294677734 L 33.13045883178711 39.89206314086914 C 32.51237869262695 39.15812301635742 32.19898986816406 38.26908111572266 32.19898986816406 37.24964141845703 C 32.19898986816406 37.15902709960938 32.2021369934082 37.06937408447266 32.20840454101562 36.98073577880859 C 32.12732315063477 37.07544708251953 32.04734039306641 37.17422485351562 31.9682731628418 37.27727127075195 C 31.02450370788574 38.546875 30.56573104858398 39.93431854248047 30.56573104858398 41.51871109008789 C 30.56573104858398 43.29770278930664 31.18299102783203 44.77975463867188 32.45278930664062 46.04954147338867 C 33.72259140014648 47.31934356689453 35.18482971191406 47.93660354614258 36.92306900024414 47.93660354614258 C 38.70043182373047 47.93660354614258 40.18145751953125 47.32041168212891 41.45047378540039 46.0529670715332 C 42.72262954711914 44.75265121459961 43.34096145629883 43.26948165893555 43.34096145629883 41.51871109008789 C 43.34096145629883 40.57426452636719 43.71445846557617 39.70157241821289 44.42107009887695 38.99497222900391 C 45.11767959594727 38.29837417602539 45.97697067260742 37.94516372680664 46.97507095336914 37.94516372680664 C 47.97317886352539 37.94516372680664 48.83246994018555 38.29837417602539 49.52907943725586 38.99497222900391 C 50.22568893432617 39.69158172607422 50.57889938354492 40.54069137573242 50.57889938354492 41.51871109008789 C 50.57889938354492 45.1888427734375 49.22739028930664 48.40126419067383 46.56193161010742 51.06673431396484 L 46.55976104736328 51.06890106201172 L 46.55757904052734 51.07105255126953 C 43.88243865966797 53.71356201171875 40.64091873168945 55.05343246459961 36.92306900024414 55.05343246459961 Z M 54.021728515625 53.60013198852539 L 53.99935150146484 53.60013198852539 C 53.05403137207031 53.60013198852539 52.3938102722168 52.97726440429688 52.3938102722168 52.08542251586914 L 52.3938102722168 48.05856323242188 C 52.3938102722168 47.129638671875 53.0208854675293 46.50121688842773 53.95884323120117 46.48368072509766 C 56.29079055786133 46.31637191772461 58.29145050048828 45.37163162231445 59.90562057495117 43.67539215087891 C 61.51079177856445 41.98859405517578 62.32469177246094 39.96926116943359 62.32469177246094 37.67351150512695 C 62.32469177246094 35.27633285522461 61.43513107299805 33.17130279541016 59.68070983886719 31.41689300537109 C 57.90156936645508 29.63776206970215 55.83520126342773 28.77290344238281 53.36352920532227 28.77290344238281 L 48.48892211914062 28.77290344238281 C 47.5677490234375 28.77290344238281 46.94208908081055 28.17948341369629 46.91459655761719 27.28942680358887 L 46.73748016357422 25.60680389404297 C 46.42676162719727 22.55615234375 45.15974044799805 20.09481239318848 42.86367034912109 18.0787525177002 L 42.86138153076172 18.07674217224121 L 42.85910034179688 18.07472229003906 C 40.606689453125 16.07256317138672 37.91682052612305 15.05738258361816 34.86421966552734 15.05738258361816 C 32.84119033813477 15.05738258361816 30.95174980163574 15.51708316802979 29.24838066101074 16.42371368408203 C 27.52236938476562 17.34238624572754 26.0958080291748 18.627685546875 25.00838279724121 20.24375534057617 C 23.92507553100586 21.88374137878418 23.27714920043945 23.71640014648438 23.08246994018555 25.69108200073242 L 23.08072090148926 25.70876312255859 L 23.07835006713867 25.72637367248535 L 22.87353515625 27.24785995483398 C 22.83605003356934 28.07232284545898 22.22280502319336 28.64860916137695 21.34729385375977 28.68066215515137 L 19.82880973815918 28.88507270812988 L 19.8036994934082 28.88845252990723 L 19.77845001220703 28.89056205749512 C 17.51637077331543 29.07906341552734 15.65021991729736 30.00446319580078 14.07338047027588 31.71963310241699 C 12.51918029785156 33.41017150878906 11.7636604309082 35.35770416259766 11.7636604309082 37.67351150512695 C 11.7636604309082 39.96926116943359 12.57756042480469 41.98859405517578 14.18274021148682 43.6754035949707 C 15.79739570617676 45.37215042114258 17.79863548278809 46.31694030761719 20.13150024414062 46.48382568359375 C 20.98715019226074 46.50487899780273 21.60371971130371 47.16061019897461 21.60371971130371 48.05856323242188 L 21.60371971130371 52.08542251586914 C 21.60371971130371 52.97726440429688 20.9808406829834 53.60013198852539 20.0890007019043 53.60013198852539 L 20.06628036499023 53.60013198852539 L 20.0435905456543 53.59910202026367 C 17.939453125 53.50345230102539 15.91216945648193 53.01594161987305 14.01774978637695 52.15002822875977 C 12.18229675292969 51.34027099609375 10.52369117736816 50.20168304443359 9.087679862976074 48.76567459106445 L 9.083620071411133 48.76160430908203 L 9.07960033416748 48.75749206542969 C 7.662059307098389 47.30698013305664 6.584659099578857 45.67101669311523 5.786053657531738 43.75647354125977 C 4.958343505859375 41.84389495849609 4.556000232696533 39.85410308837891 4.556000232696533 37.67351150512695 C 4.556000232696533 33.97516632080078 5.729764461517334 30.64804267883301 8.044676780700684 27.78447723388672 C 10.19787311553955 25.0570182800293 12.96001434326172 23.22067451477051 16.26157760620117 22.31940269470215 C 17.30550003051758 18.27489852905273 19.51898765563965 14.8500919342041 22.84757995605469 12.13226318359375 C 26.30323028564453 9.310672760009766 30.33603096008301 7.880002975463867 34.83395004272461 7.880002975463867 C 37.01401138305664 7.880002975463867 39.11244964599609 8.221742630004883 41.07096099853516 8.895723342895508 C 43.03689193725586 9.572262763977051 44.92377853393555 10.60490322113037 46.6792106628418 11.96497249603271 L 46.68627166748047 11.97044277191162 L 46.69322204589844 11.97602272033691 C 49.91140365600586 14.56260776519775 52.10504531860352 17.8265438079834 53.22192001342773 21.68636322021484 L 53.42409133911133 21.68636322021484 C 56.25971984863281 21.68636322021484 58.9546012878418 22.41415214538574 61.4338493347168 23.84950256347656 C 63.85898208618164 25.25353240966797 65.82369995117188 27.2068920135498 67.27342987060547 29.65531349182129 C 68.71206665039062 32.08500289916992 69.44152069091797 34.78272247314453 69.44152069091797 37.67352294921875 C 69.44152069091797 41.98238372802734 67.93975830078125 45.70156478881836 64.97795104980469 48.72775268554688 C 62.0018310546875 51.76856231689453 58.32315063476562 53.40753173828125 54.0440788269043 53.5991325378418 L 54.021728515625 53.60013198852539 Z" stroke="none"/>
      <path d="M 36.92306900024414 54.05343246459961 C 40.40494155883789 54.05343246459961 43.37208938598633 52.81207275390625 45.85482025146484 50.35962295532227 C 48.33753967285156 47.87690353393555 49.57889938354492 44.94002151489258 49.57889938354492 41.51871109008789 C 49.57889938354492 40.82234191894531 49.3366813659668 40.21679306030273 48.82197189331055 39.70208358764648 C 48.30725860595703 39.18737411499023 47.70172119140625 38.94516372680664 46.97507095336914 38.94516372680664 C 46.24842071533203 38.94516372680664 45.64287948608398 39.18738174438477 45.12817001342773 39.70208358764648 C 44.61344909667969 40.21679306030273 44.34096145629883 40.82234191894531 44.34096145629883 41.51871109008789 C 44.34096145629883 43.54727172851562 43.61431121826172 45.2730712890625 42.1610107421875 46.75665283203125 C 40.70771026611328 48.20995330810547 38.98191070556641 48.93660354614258 36.92306900024414 48.93660354614258 C 34.92478179931641 48.93660354614258 33.19898986816406 48.20995330810547 31.74567985534668 46.75665283203125 C 30.29237937927246 45.30335235595703 29.56573104858398 43.54727172851562 29.56573104858398 41.51871109008789 C 29.56573104858398 39.70208358764648 30.11071968078613 38.09739303588867 31.17041969299316 36.67437362670898 C 32.26039123535156 35.2513542175293 33.56230926513672 34.46415328979492 35.13671112060547 34.34304428100586 L 33.89535903930664 35.52384185791016 C 33.44120025634766 35.97800445556641 33.19898986816406 36.55326461791992 33.19898986816406 37.24964141845703 C 33.19898986816406 38.00656127929688 33.41091918945312 38.67266464233398 33.89535903930664 39.2479248046875 C 34.31922912597656 39.70208358764648 34.83395004272461 39.94430160522461 35.50004196166992 39.94430160522461 C 35.53711700439453 39.94598770141602 35.57439804077148 39.94683074951172 35.61166763305664 39.94683074951172 C 36.24396133422852 39.94683074951172 36.90464401245117 39.70539855957031 37.61944198608398 39.2479248046875 L 43.1298713684082 33.58611297607422 C 43.64458084106445 33.07140350341797 43.88679885864258 32.49613189697266 43.88679885864258 31.83004379272461 C 43.88679885864258 31.07312202453613 43.64458084106445 30.46757316589355 43.1298713684082 29.9831428527832 L 37.61944198608398 24.44243240356445 C 37.04417037963867 23.8974437713623 36.43862915039062 23.65522384643555 35.74225997924805 23.65522384643555 C 35.04589080810547 23.65522384643555 34.44034194946289 23.8974437713623 33.95590972900391 24.41215324401855 C 33.47148132324219 24.9268627166748 33.2292594909668 25.53240203857422 33.2292594909668 26.25905227661133 C 33.2292594909668 26.98570251464844 33.44120025634766 27.56097221374512 33.92562866210938 28.01512336730957 L 34.98532867431641 29.1051025390625 C 31.95762062072754 29.61981201171875 29.44462013244629 31.01256370544434 27.44633102416992 33.34389114379883 C 25.41777038574219 35.64495468139648 24.41863059997559 38.36989212036133 24.41863059997559 41.51871109008789 C 24.41863059997559 43.75921249389648 24.9938907623291 45.84833145141602 26.11415100097656 47.78607177734375 C 27.23439979553223 49.72380447387695 28.77853012084961 51.23765182495117 30.68598937988281 52.35791397094727 C 32.59344100952148 53.50844192504883 34.68255996704102 54.05343246459961 36.92306900024414 54.05343246459961 M 53.99935150146484 52.60013198852539 C 58.05648040771484 52.41847229003906 61.47779083251953 50.87433242797852 64.26328277587891 48.02829360961914 C 67.04878234863281 45.18224334716797 68.44152069091797 41.70037460327148 68.44152069091797 37.67352294921875 C 68.44152069091797 34.97885131835938 67.77542877197266 32.46586227416992 66.4129638671875 30.16480255126953 C 65.05048370361328 27.86374282836914 63.23386001586914 26.04712295532227 60.93281173706055 24.71493339538574 C 58.63174057006836 23.38273239135742 56.11874008178711 22.68636322021484 53.42409133911133 22.68636322021484 L 52.45521926879883 22.68636322021484 C 51.45606994628906 18.65950202941895 49.30640029907227 15.35930252075195 46.06674957275391 12.75547313690186 C 42.70600128173828 10.15163326263428 38.98191833496094 8.880002975463867 34.83395004272461 8.880002975463867 C 30.56488037109375 8.880002975463867 26.78024101257324 10.21219253540039 23.48003959655762 12.90685272216797 C 20.17983055114746 15.60151290893555 18.03016090393066 18.9925537109375 17.0915699005127 23.14051246643066 C 13.73082065582275 23.92771339416504 10.97560024261475 25.68379211425781 8.825930595397949 28.40872383117676 C 6.645980358123779 31.1033935546875 5.556000232696533 34.19165420532227 5.556000232696533 37.67351150512695 C 5.556000232696533 39.67180252075195 5.91933012008667 41.54898452758789 6.706530094146729 43.3656120300293 C 7.463460445404053 45.18223190307617 8.492879867553711 46.72637176513672 9.794790267944336 48.05856323242188 C 11.09671020507812 49.36048126220703 12.64084053039551 50.45045471191406 14.42718982696533 51.23766326904297 C 16.21354103088379 52.05514144897461 18.09072113037109 52.50929260253906 20.0890007019043 52.60013198852539 C 20.42205047607422 52.60013198852539 20.60371971130371 52.41847229003906 20.60371971130371 52.08542251586914 L 20.60371971130371 48.05856323242188 C 20.60371971130371 47.69524383544922 20.42205047607422 47.48330307006836 20.0890007019043 47.48330307006836 C 17.45490074157715 47.30163192749023 15.24466991424561 46.2419319152832 13.45832061767578 44.36476135253906 C 11.67197036743164 42.48757171630859 10.7636604309082 40.24707412719727 10.7636604309082 37.67351150512695 C 10.7636604309082 35.13024139404297 11.61142063140869 32.92001342773438 13.3372106552124 31.04283332824707 C 15.06300067901611 29.16565322875977 17.15213012695312 28.10595321655273 19.69540023803711 27.89401245117188 L 21.26980972290039 27.68207359313965 C 21.66341018676758 27.68207359313965 21.87535095214844 27.50041389465332 21.87535095214844 27.16737365722656 L 22.08728981018066 25.59296226501465 C 22.29923057556152 23.44328308105469 22.9955997467041 21.47527313232422 24.17641067504883 19.68892288208008 C 25.35721969604492 17.93285369873047 26.9013500213623 16.54010200500488 28.77853012084961 15.5409631729126 C 30.65571022033691 14.541823387146 32.68428039550781 14.05738258361816 34.86421966552734 14.05738258361816 C 38.1644287109375 14.05738258361816 41.07104110717773 15.14736270904541 43.52347183227539 17.32731246948242 C 46.00619888305664 19.50726318359375 47.39894104003906 22.23220252990723 47.73199081420898 25.50212287902832 L 47.91365051269531 27.2279224395752 C 47.91365051269531 27.59124374389648 48.09532165527344 27.77290344238281 48.48892211914062 27.77290344238281 L 53.36352920532227 27.77290344238281 C 56.08847045898438 27.77290344238281 58.4197998046875 28.74177360534668 60.38782119750977 30.70978355407715 C 62.3255500793457 32.64751434326172 63.32469177246094 34.97885131835938 63.32469177246094 37.67351150512695 C 63.32469177246094 40.24707412719727 62.4163818359375 42.48757171630859 60.63003158569336 44.36476135253906 C 58.84368133544922 46.2419319152832 56.63344955444336 47.30163192749023 53.99935150146484 47.48330307006836 C 53.60573959350586 47.48330307006836 53.3938102722168 47.66496276855469 53.3938102722168 48.05856323242188 L 53.3938102722168 52.08542251586914 C 53.3938102722168 52.41847229003906 53.60573959350586 52.60013198852539 53.99935150146484 52.60013198852539 M 36.92306900024414 56.05343246459961 C 34.28461456298828 56.05343246459961 31.84206008911133 55.38831329345703 29.66326332092285 54.07667541503906 C 27.42841720581055 52.76198959350586 25.6518383026123 50.98237228393555 24.38268089294434 48.78708267211914 C 23.07942962646484 46.53282165527344 22.41863059997559 44.08739471435547 22.41863059997559 41.51871109008789 C 22.41863059997559 37.87665939331055 23.60224914550781 34.68495178222656 25.9366626739502 32.03199768066406 C 27.50545692443848 30.20486450195312 29.38276863098145 28.85471153259277 31.54241561889648 27.9962215423584 C 31.33409118652344 27.47226142883301 31.2292594909668 26.89212608337402 31.2292594909668 26.25905227661133 C 31.2292594909668 25.01955223083496 31.65662956237793 23.93698310852051 32.49951171875 23.04143333435059 C 33.35301971435547 22.13456344604492 34.47434997558594 21.65522384643555 35.74225997924805 21.65522384643555 C 36.96530151367188 21.65522384643555 38.05966186523438 22.10448265075684 38.99493026733398 22.99052238464355 C 39.00933074951172 23.00417327880859 39.02352905273438 23.01803207397461 39.03752136230469 23.03210258483887 L 44.52799987792969 28.5527515411377 C 45.41709899902344 29.40339279174805 45.88679885864258 30.5357608795166 45.88679885864258 31.83004379272461 C 45.88679885864258 33.020751953125 45.42625427246094 34.11297988891602 44.55480194091797 34.98957061767578 L 39.05268096923828 40.64284133911133 C 38.9457893371582 40.7526741027832 38.82662963867188 40.849853515625 38.69754028320312 40.93246459960938 C 37.63103103637695 41.61503219604492 36.62163925170898 41.94683456420898 35.61167144775391 41.94683456420898 C 35.55978012084961 41.94683456420898 35.50732803344727 41.9459114074707 35.45518112182617 41.94408416748047 C 34.28031539916992 41.93265914916992 33.23614501953125 41.47282791137695 32.43323135375977 40.61253356933594 C 32.41001892089844 40.58767318725586 32.38745880126953 40.56222152709961 32.36555099487305 40.53621292114258 C 32.15436172485352 40.28543472290039 31.97160911560059 40.02081680297852 31.81744956970215 39.74288558959961 C 31.64889907836914 40.30350494384766 31.56573104858398 40.89321517944336 31.56573104858398 41.51871109008789 C 31.56573104858398 43.01898193359375 32.08718872070312 44.26973342895508 33.15988922119141 45.34244155883789 C 34.23260879516602 46.41514205932617 35.46355056762695 46.93660354614258 36.92306900024414 46.93660354614258 C 38.44064331054688 46.93660354614258 39.65346908569336 46.43247222900391 40.7391471862793 45.35008239746094 C 41.83194351196289 44.23162460327148 42.34096145629883 43.01394271850586 42.34096145629883 41.51871109008789 C 42.34096145629883 40.30328369140625 42.81573867797852 39.18607330322266 43.71397018432617 38.2878532409668 C 44.60493087768555 37.39691162109375 45.70212936401367 36.94516372680664 46.97507095336914 36.94516372680664 C 48.24803161621094 36.94516372680664 49.34523010253906 37.39691162109375 50.23617935180664 38.28787231445312 C 51.11460113525391 39.16628265380859 51.57889938354492 40.28349304199219 51.57889938354492 41.51871109008789 C 51.57889938354492 45.46369171142578 50.12884902954102 48.91402435302734 47.2690315246582 51.77383422851562 C 47.26613998413086 51.7767333984375 47.26324081420898 51.77961349487305 47.26033020019531 51.7824821472168 C 44.39134979248047 54.61648178100586 40.91339111328125 56.05343246459961 36.92306900024414 56.05343246459961 Z M 53.99935150146484 54.60013198852539 C 53.14701080322266 54.60013198852539 52.57870101928711 54.2684211730957 52.25204086303711 53.99015426635742 C 51.69860076904297 53.51870346069336 51.3938102722168 52.84225463867188 51.3938102722168 52.08542251586914 L 51.3938102722168 48.05856323242188 C 51.3938102722168 46.59586334228516 52.44677352905273 45.52629470825195 53.91035461425781 45.48456573486328 C 56.00454711914062 45.32947158813477 57.72920227050781 44.51184844970703 59.18120193481445 42.98603439331055 C 60.62355041503906 41.47034454345703 61.32469177246094 39.73260116577148 61.32469177246094 37.67351150512695 C 61.32469177246094 35.52129364013672 60.55564117431641 33.70603179931641 58.97360992431641 32.12399291992188 C 57.39155960083008 30.54195213317871 55.55648040771484 29.77290344238281 53.36352920532227 29.77290344238281 L 48.48892211914062 29.77290344238281 C 47.04206848144531 29.77290344238281 45.97986602783203 28.76661491394043 45.91662979125977 27.3612060546875 L 45.74298095703125 25.71149253845215 C 45.74274063110352 25.70925331115723 45.74251174926758 25.70701217651367 45.74227905273438 25.70478248596191 C 45.45870208740234 22.92050361633301 44.30126953125 20.67181205749512 42.2038688659668 18.83019256591797 C 42.20082092285156 18.82751274108887 42.19776916503906 18.8248233795166 42.19474029541016 18.82212257385254 C 40.10181045532227 16.96174240112305 37.7039794921875 16.05738258361816 34.86421966552734 16.05738258361816 C 32.98062133789062 16.05738258361816 31.29734992980957 16.46596336364746 29.71822929382324 17.30646324157715 C 28.13992881774902 18.14651679992676 26.83540916442871 19.32119560241699 25.84081268310547 20.79790687561035 C 24.83536911010742 22.32099342346191 24.25859642028809 23.95376014709473 24.07764053344727 25.78919219970703 C 24.07531929016113 25.81277275085449 24.07257080078125 25.8363037109375 24.06941032409668 25.85978317260742 L 23.86986541748047 27.34210968017578 C 23.82652473449707 28.02798461914062 23.5275821685791 28.63726425170898 23.01709938049316 29.07211303710938 C 22.71207237243652 29.33194541931152 22.19631576538086 29.63837623596191 21.43538284301758 29.67782211303711 L 19.96222114562988 29.87613296508789 C 19.92873954772949 29.88064384460449 19.89516067504883 29.88430213928223 19.86149024963379 29.8871021270752 C 17.86113929748535 30.05380249023438 16.20864105224609 30.87461280822754 14.80955028533936 32.39643478393555 C 13.43288040161133 33.89386367797852 12.7636604309082 35.62001419067383 12.7636604309082 37.67351150512695 C 12.7636604309082 39.73260116577148 13.46479988098145 41.47034454345703 14.90715026855469 42.98604202270508 C 16.36013031005859 44.51287841796875 18.08598327636719 45.33056640625 20.18209075927734 45.48486709594727 C 21.56911468505859 45.53171920776367 22.60371971130371 46.62241363525391 22.60371971130371 48.05856323242188 L 22.60371971130371 52.08542251586914 C 22.60371971130371 53.51904296875 21.52263069152832 54.60013198852539 20.0890007019043 54.60013198852539 C 20.0587100982666 54.60013198852539 20.0284309387207 54.59944152832031 19.9981803894043 54.59807205200195 C 17.76745986938477 54.49666213989258 15.61727142333984 53.97980880737305 13.60733699798584 53.06195068359375 C 11.66099452972412 52.20228576660156 9.902605056762695 50.99480819702148 8.380579948425293 49.47277450561523 C 8.375160217285156 49.46735382080078 8.369770050048828 49.4619026184082 8.364410400390625 49.45642471313477 C 6.858212471008301 47.91518783569336 5.713689804077148 46.17858123779297 4.865697860717773 44.14760208129883 C 3.984387636184692 42.10897445678711 3.556000232696533 39.9911994934082 3.556000232696533 37.67351150512695 C 3.556000232696533 33.74242782592773 4.803500652313232 30.20512580871582 7.263533592224121 27.16010665893555 C 9.430850028991699 24.41669845581055 12.17862796783447 22.52176666259766 15.44419288635254 21.51548767089844 C 16.59639739990234 17.50152587890625 18.87002944946289 14.0889720916748 22.21511077880859 11.35767269134521 C 25.85395050048828 8.386512756347656 30.09954071044922 6.880002975463867 34.83395004272461 6.880002975463867 C 37.1249885559082 6.880002975463867 39.33290863037109 7.240053176879883 41.39635848999023 7.950142860412598 C 43.46604156494141 8.662383079528809 45.44950866699219 9.74720287322998 47.29167938232422 11.17447280883789 C 47.30107879638672 11.1817626953125 47.31042098999023 11.18913269042969 47.3196907043457 11.19658279418945 C 50.50228881835938 13.75456047058105 52.73175048828125 16.94428443908691 53.96238708496094 20.69462966918945 C 56.77919006347656 20.78133964538574 59.45858764648438 21.55043411254883 61.93487930297852 22.98408317565918 C 64.51013946533203 24.47502326965332 66.59578704833984 26.54813385009766 68.1339111328125 29.14581298828125 C 69.66513061523438 31.73187255859375 70.44152069091797 34.60101318359375 70.44152069091797 37.67352294921875 C 70.44152069091797 42.2530632019043 68.84375762939453 46.20758438110352 65.69261932373047 49.42722320556641 C 62.53343200683594 52.65508270263672 58.62934875488281 54.39482116699219 54.08880996704102 54.5981330871582 C 54.05900955200195 54.59946441650391 54.02917861938477 54.60013198852539 53.99935150146484 54.60013198852539 Z" stroke="none" fill="#fff"/>
    </g>
  </g>
</svg>
