<svg id="icontranslate" xmlns="http://www.w3.org/2000/svg" width="16.516" height="16.516" viewBox="0 0 16.516 16.516">
  <path id="Path_120" data-name="Path 120" d="M15,13H26.469a.918.918,0,0,1,.918.918V25.387a.918.918,0,0,1-.918.918H20.046Z" transform="translate(-10.871 -9.789)" fill="#cfd8dc"/>
  <path id="Path_121" data-name="Path 121" d="M26.336,28.233l-.42-.815.408-.211a10.707,10.707,0,0,0,4.149-4.177l.2-.411.821.41-.205.411a11.457,11.457,0,0,1-4.549,4.583Z" transform="translate(-16.779 -14.995)" fill="#546e7a"/>
  <path id="Path_122" data-name="Path 122" d="M31.514,27.505l-.4-.225a13.453,13.453,0,0,1-3.9-3.517l.746-.533a12.749,12.749,0,0,0,3.6,3.251l.4.226ZM26,22h6.423v.918H26Z" transform="translate(-16.825 -14.66)" fill="#546e7a"/>
  <path id="Path_123" data-name="Path 123" d="M32,20h.918v1.835H32Z" transform="translate(-20.072 -13.577)" fill="#546e7a"/>
  <path id="Path_124" data-name="Path 124" d="M18.387,19.3H6.918A.918.918,0,0,1,6,18.387V6.918A.918.918,0,0,1,6.918,6H13.34Z" transform="translate(-6 -6)" fill="#2196f3"/>
  <path id="Path_125" data-name="Path 125" d="M24.376,38.211,23,35h4.588Z" transform="translate(-15.201 -21.696)" fill="#3f51b5"/>
  <path id="Path_126" data-name="Path 126" d="M14.749,18.588h-2l-.462,1.376H11L13.186,14h1.121l2.2,5.964H15.218Zm-1.71-.918h1.423l-.715-2.163Z" transform="translate(-8.706 -10.33)" fill="#fff"/>
</svg>
