<?xml version="1.0" encoding="utf-8"?>
<!-- Generator: Adobe Illustrator 23.0.1, SVG Export Plug-In . SVG Version: 6.00 Build 0)  -->
<svg version="1.1" id="logo" xmlns="http://www.w3.org/2000/svg" xmlns:xlink="http://www.w3.org/1999/xlink" x="0px" y="0px"
	 viewBox="0 0 347 211" style="enable-background:new 0 0 347 211;" xml:space="preserve">
<style type="text/css">
	.st0{enable-background:new    ;}
	.st1{fill:#0052A0;}
	.st2{fill:#0B84C7;}
	.st3{fill:#FFFFFF;}
	.st4{fill:#001E3B;}
	.st5{fill:#204B63;}
	.st6{fill:none;}
	.st7{clip-path:url(#SVGID_2_);fill:#FFFFFF;}
	.st8{clip-path:url(#SVGID_4_);fill:#FFFFFF;}
</style>
<g id="Group_6691" transform="translate(-233 -12)">
	<g class="st0">
		<path class="st1" d="M235.9,211.7c-0.2-0.2-0.3-0.5-0.3-0.8v-20.7c0-0.3,0.1-0.6,0.3-0.8c0.2-0.2,0.5-0.3,0.8-0.3h4.8
			c0.3,0,0.6,0.1,0.8,0.3c0.2,0.2,0.3,0.5,0.3,0.8v1.5c0.7-0.9,1.6-1.6,2.7-2.2c1.1-0.6,2.4-0.9,3.8-0.9c3.2,0,5.5,1.3,6.7,3.8
			c0.7-1.1,1.7-2,2.9-2.7c1.3-0.7,2.6-1.1,4-1.1c2.4,0,4.4,0.8,5.9,2.4c1.5,1.6,2.3,4.1,2.3,7.3v12.5c0,0.3-0.1,0.5-0.3,0.8
			c-0.2,0.2-0.5,0.3-0.8,0.3h-5.1c-0.3,0-0.6-0.1-0.8-0.3c-0.2-0.2-0.3-0.5-0.3-0.8v-12.2c0-1.5-0.3-2.5-0.9-3.2
			c-0.6-0.6-1.4-1-2.4-1c-0.9,0-1.7,0.3-2.3,1c-0.6,0.7-0.9,1.7-0.9,3.1v12.2c0,0.3-0.1,0.5-0.3,0.8c-0.2,0.2-0.5,0.3-0.8,0.3h-5.1
			c-0.3,0-0.6-0.1-0.8-0.3c-0.2-0.2-0.3-0.5-0.3-0.8v-12.2c0-1.4-0.3-2.5-0.9-3.1c-0.6-0.7-1.4-1-2.4-1c-0.9,0-1.7,0.3-2.4,1
			c-0.6,0.7-0.9,1.7-0.9,3.1v12.2c0,0.3-0.1,0.5-0.3,0.8c-0.2,0.2-0.5,0.3-0.8,0.3h-5.2C236.4,212,236.1,211.9,235.9,211.7z"/>
		<path class="st1" d="M278.5,211.5c-1.3-0.6-2.3-1.4-3-2.5c-0.7-1-1.1-2.2-1.1-3.5c0-2,0.8-3.7,2.5-4.9c1.7-1.2,3.9-2.1,6.8-2.6
			l5.5-0.8v-0.6c0-1.1-0.2-1.9-0.7-2.5c-0.5-0.5-1.3-0.8-2.4-0.8c-0.7,0-1.2,0.1-1.7,0.4c-0.4,0.2-0.9,0.6-1.4,1
			c-0.4,0.4-0.7,0.6-0.9,0.7c-0.1,0.2-0.2,0.4-0.5,0.4H277c-0.3,0-0.5-0.1-0.7-0.3c-0.2-0.2-0.3-0.4-0.2-0.7c0-0.8,0.4-1.7,1.2-2.6
			s1.9-1.8,3.4-2.5c1.5-0.7,3.4-1.1,5.7-1.1c3.6,0,6.3,0.8,8,2.4c1.7,1.6,2.6,3.7,2.6,6.4v13.4c0,0.3-0.1,0.5-0.3,0.8
			c-0.2,0.2-0.5,0.3-0.8,0.3h-5.1c-0.3,0-0.5-0.1-0.8-0.3c-0.2-0.2-0.3-0.5-0.3-0.8v-1.5c-0.6,0.9-1.5,1.6-2.7,2.2
			c-1.2,0.6-2.5,0.9-4.1,0.9C281.2,212.4,279.8,212.1,278.5,211.5z M288.1,206.1c0.8-0.9,1.3-2.2,1.3-3.9v-0.6l-3.7,0.7
			c-2.6,0.5-4,1.4-4,2.8c0,0.7,0.3,1.3,0.9,1.7c0.6,0.4,1.4,0.6,2.2,0.6C286.2,207.4,287.3,207,288.1,206.1z"/>
		<path class="st1" d="M305.3,211.4c-1.6-0.7-2.8-1.5-3.5-2.4c-0.8-0.9-1.1-1.8-1.1-2.5c0-0.3,0.1-0.5,0.3-0.7
			c0.2-0.2,0.5-0.3,0.7-0.3h5c0.2,0,0.3,0.1,0.5,0.2c0.4,0.2,0.6,0.4,0.8,0.6c0.6,0.5,1.2,0.8,1.7,1c0.5,0.2,1.1,0.3,1.8,0.3
			c0.9,0,1.5-0.2,2.1-0.5c0.5-0.3,0.8-0.8,0.8-1.4c0-0.5-0.1-0.9-0.4-1.2c-0.3-0.3-0.8-0.6-1.6-0.9c-0.8-0.3-2-0.6-3.6-0.9
			c-2.4-0.5-4.3-1.3-5.6-2.4c-1.3-1.1-2-2.6-2-4.6c0-1.2,0.4-2.3,1.1-3.4c0.8-1.1,1.9-2,3.4-2.6s3.3-1,5.4-1c2.1,0,3.9,0.3,5.5,1
			c1.6,0.6,2.7,1.4,3.5,2.4c0.8,0.9,1.2,1.8,1.2,2.5c0,0.3-0.1,0.5-0.3,0.7c-0.2,0.2-0.4,0.3-0.7,0.3h-4.6c-0.2,0-0.5-0.1-0.7-0.2
			c-0.4-0.2-0.7-0.4-1-0.7c-0.5-0.4-1-0.7-1.4-0.9s-1-0.3-1.6-0.3c-0.8,0-1.4,0.2-1.8,0.5c-0.5,0.4-0.7,0.8-0.7,1.4
			c0,0.4,0.1,0.8,0.4,1.1c0.2,0.3,0.8,0.6,1.6,0.9c0.8,0.3,2,0.6,3.6,0.9c2.8,0.5,4.9,1.4,6.2,2.6c1.3,1.3,2,2.7,2,4.4
			c0,2.2-1,3.9-2.9,5.2c-1.9,1.3-4.6,2-8.1,2C308.9,212.4,306.9,212.1,305.3,211.4z"/>
		<path class="st1" d="M328.7,203.3v-8.4h-3.4c-0.3,0-0.6-0.1-0.8-0.3c-0.2-0.2-0.3-0.5-0.3-0.8v-3.6c0-0.3,0.1-0.6,0.3-0.8
			c0.2-0.2,0.5-0.3,0.8-0.3h3.4v-7.3c0-0.3,0.1-0.6,0.3-0.8s0.5-0.3,0.8-0.3h5.1c0.3,0,0.6,0.1,0.8,0.3c0.2,0.2,0.3,0.5,0.3,0.8v7.3
			h5.5c0.3,0,0.6,0.1,0.8,0.3c0.2,0.2,0.3,0.5,0.3,0.8v3.6c0,0.3-0.1,0.6-0.3,0.8c-0.2,0.2-0.5,0.3-0.8,0.3H336v7.8
			c0,2.2,0.8,3.3,2.5,3.3h3.4c0.3,0,0.6,0.1,0.8,0.3c0.2,0.2,0.3,0.5,0.3,0.8v3.8c0,0.3-0.1,0.5-0.3,0.8c-0.2,0.2-0.5,0.3-0.8,0.3
			h-4.1C331.7,212,328.7,209.1,328.7,203.3z"/>
		<path class="st1" d="M348.9,209.6c-2-1.9-3.1-4.7-3.2-8.3v-1.5c0.1-3.5,1.2-6.2,3.2-8.1c2-2,4.8-2.9,8.2-2.9
			c2.5,0,4.6,0.5,6.3,1.5c1.7,1,3,2.4,3.9,4.2c0.9,1.8,1.3,3.8,1.3,6.1v1.1c0,0.3-0.1,0.5-0.3,0.8c-0.2,0.2-0.5,0.3-0.8,0.3h-14.1
			v0.3c0.1,1.4,0.4,2.5,1,3.3c0.6,0.9,1.5,1.3,2.7,1.3c0.7,0,1.3-0.2,1.8-0.5c0.5-0.3,0.9-0.7,1.3-1.1c0.3-0.3,0.5-0.5,0.6-0.6
			c0.2-0.1,0.4-0.1,0.8-0.1h5.5c0.3,0,0.5,0.1,0.7,0.2c0.2,0.2,0.3,0.4,0.3,0.6c0,0.8-0.4,1.6-1.3,2.6c-0.9,1-2.1,1.9-3.8,2.6
			c-1.6,0.7-3.6,1.1-5.8,1.1C353.6,212.4,350.9,211.5,348.9,209.6z M360.9,198.2L360.9,198.2c0-1.5-0.3-2.7-1-3.5
			c-0.7-0.8-1.6-1.3-2.8-1.3c-1.1,0-2,0.4-2.7,1.3c-0.7,0.8-1,2-1,3.4v0.1H360.9z"/>
		<path class="st1" d="M373.1,211.7c-0.2-0.2-0.3-0.5-0.3-0.8v-20.7c0-0.3,0.1-0.6,0.3-0.8c0.2-0.2,0.5-0.3,0.8-0.3h5.1
			c0.3,0,0.6,0.1,0.8,0.3c0.2,0.2,0.3,0.5,0.3,0.8v1.8c1.6-1.9,3.8-2.9,6.5-2.9h1.9c0.3,0,0.6,0.1,0.8,0.3c0.2,0.2,0.3,0.5,0.3,0.8
			v4.5c0,0.3-0.1,0.5-0.3,0.8c-0.2,0.2-0.5,0.3-0.8,0.3h-4.3c-1.2,0-2.1,0.3-2.8,1c-0.7,0.7-1,1.6-1,2.8v11.3c0,0.3-0.1,0.6-0.3,0.8
			c-0.2,0.2-0.5,0.3-0.8,0.3h-5.5C373.5,212,373.3,211.9,373.1,211.7z"/>
	</g>
	<g class="st0">
		<path class="st2" d="M409.3,209.5v1.4c0,0.3-0.1,0.5-0.3,0.8c-0.2,0.2-0.5,0.3-0.8,0.3h-5c-0.3,0-0.5-0.1-0.8-0.3
			c-0.2-0.2-0.3-0.5-0.3-0.8v-29c0-0.3,0.1-0.6,0.3-0.8c0.2-0.2,0.5-0.3,0.8-0.3h5.4c0.3,0,0.6,0.1,0.8,0.3s0.3,0.5,0.3,0.8v9.4
			c1.6-1.7,3.8-2.6,6.4-2.6c2.8,0,5.1,0.9,6.7,2.8c1.6,1.8,2.5,4.4,2.6,7.5c0,0.4,0,0.9,0,1.6c0,0.6,0,1.2,0,1.5
			c-0.1,3.3-1,5.8-2.6,7.6c-1.6,1.8-3.9,2.7-6.7,2.7C413.1,212.4,410.9,211.5,409.3,209.5z M416.7,205.3c0.6-0.8,0.9-2,1-3.4
			c0.1-0.6,0.1-1,0.1-1.4c0-0.3,0-0.8-0.1-1.4c-0.1-1.4-0.4-2.6-1-3.4c-0.6-0.8-1.6-1.2-3-1.2c-1.3,0-2.3,0.4-2.9,1.2s-1,1.8-1.1,3
			l0,1.6l0,1.7c0.1,1.3,0.4,2.4,1.1,3.2c0.6,0.8,1.6,1.3,3,1.3C415.1,206.5,416.1,206.1,416.7,205.3z"/>
		<path class="st2" d="M430.2,211.7c-0.2-0.2-0.3-0.5-0.3-0.8v-20.7c0-0.3,0.1-0.6,0.3-0.8c0.2-0.2,0.5-0.3,0.8-0.3h5.1
			c0.3,0,0.6,0.1,0.8,0.3c0.2,0.2,0.3,0.5,0.3,0.8v1.8c1.6-1.9,3.8-2.9,6.5-2.9h1.9c0.3,0,0.6,0.1,0.8,0.3c0.2,0.2,0.3,0.5,0.3,0.8
			v4.5c0,0.3-0.1,0.5-0.3,0.8c-0.2,0.2-0.5,0.3-0.8,0.3h-4.3c-1.2,0-2.1,0.3-2.8,1c-0.7,0.7-1,1.6-1,2.8v11.3c0,0.3-0.1,0.6-0.3,0.8
			s-0.5,0.3-0.8,0.3H431C430.6,212,430.4,211.9,430.2,211.7z"/>
		<path class="st2" d="M452,209.8c-2-1.7-3-4.2-3.2-7.3c0-0.4,0-1,0-2c0-0.9,0-1.6,0-2c0.2-3.1,1.3-5.5,3.3-7.3
			c2-1.7,4.8-2.6,8.3-2.6c3.5,0,6.3,0.9,8.4,2.6c2,1.7,3.1,4.2,3.3,7.3c0,0.4,0,1,0,2c0,0.9,0,1.6,0,2c-0.2,3.1-1.2,5.6-3.2,7.3
			c-2,1.7-4.8,2.6-8.4,2.6C456.8,212.4,454,211.6,452,209.8z M463.3,205.9c0.6-0.8,1-2,1.1-3.6c0-0.3,0-0.9,0-1.8c0-0.9,0-1.5,0-1.8
			c-0.1-1.6-0.4-2.8-1.1-3.6s-1.6-1.2-2.8-1.2c-2.4,0-3.7,1.6-3.9,4.8l0,1.8l0,1.8c0.1,1.6,0.4,2.8,1,3.6s1.6,1.2,2.8,1.2
			C461.7,207.1,462.7,206.7,463.3,205.9z"/>
		<path class="st2" d="M481.2,211.7c-0.2-0.2-0.4-0.5-0.5-0.8l-6.3-20.4l-0.1-0.4c0-0.3,0.1-0.5,0.3-0.7c0.2-0.2,0.4-0.3,0.7-0.3
			h4.5c0.4,0,0.6,0.1,0.9,0.3s0.4,0.4,0.4,0.6l3.7,12.6l4-12.5c0.1-0.2,0.2-0.5,0.4-0.7c0.2-0.2,0.5-0.3,0.9-0.3h2.9
			c0.4,0,0.7,0.1,0.9,0.3c0.2,0.2,0.4,0.4,0.4,0.7l4,12.5l3.7-12.6c0.1-0.2,0.2-0.4,0.4-0.6c0.2-0.2,0.5-0.3,0.9-0.3h4.5
			c0.3,0,0.5,0.1,0.7,0.3c0.2,0.2,0.3,0.4,0.3,0.7l-0.1,0.4l-6.3,20.4c-0.1,0.4-0.3,0.6-0.5,0.8c-0.2,0.2-0.5,0.3-0.9,0.3h-4
			c-0.8,0-1.2-0.4-1.5-1.1l-4-12.1l-4,12.1c-0.2,0.7-0.7,1.1-1.5,1.1h-4C481.8,212,481.4,211.9,481.2,211.7z"/>
		<path class="st2" d="M515.5,211.4c-1.6-0.7-2.8-1.5-3.5-2.4c-0.8-0.9-1.1-1.8-1.1-2.5c0-0.3,0.1-0.5,0.3-0.7
			c0.2-0.2,0.5-0.3,0.7-0.3h5c0.2,0,0.3,0.1,0.5,0.2c0.4,0.2,0.6,0.4,0.8,0.6c0.6,0.5,1.2,0.8,1.7,1c0.5,0.2,1.1,0.3,1.8,0.3
			c0.9,0,1.5-0.2,2.1-0.5c0.5-0.3,0.8-0.8,0.8-1.4c0-0.5-0.1-0.9-0.4-1.2c-0.3-0.3-0.8-0.6-1.6-0.9c-0.8-0.3-2-0.6-3.6-0.9
			c-2.4-0.5-4.3-1.3-5.6-2.4c-1.3-1.1-2-2.6-2-4.6c0-1.2,0.4-2.3,1.1-3.4c0.8-1.1,1.9-2,3.4-2.6s3.3-1,5.4-1c2.1,0,3.9,0.3,5.5,1
			c1.6,0.6,2.7,1.4,3.5,2.4c0.8,0.9,1.2,1.8,1.2,2.5c0,0.3-0.1,0.5-0.3,0.7c-0.2,0.2-0.4,0.3-0.7,0.3H526c-0.2,0-0.5-0.1-0.7-0.2
			c-0.4-0.2-0.7-0.4-1-0.7c-0.5-0.4-1-0.7-1.4-0.9c-0.4-0.2-1-0.3-1.6-0.3c-0.8,0-1.4,0.2-1.8,0.5c-0.5,0.4-0.7,0.8-0.7,1.4
			c0,0.4,0.1,0.8,0.4,1.1c0.2,0.3,0.8,0.6,1.6,0.9c0.8,0.3,2,0.6,3.6,0.9c2.8,0.5,4.9,1.4,6.2,2.6c1.3,1.3,2,2.7,2,4.4
			c0,2.2-1,3.9-2.9,5.2c-1.9,1.3-4.6,2-8.1,2C519.1,212.4,517.1,212.1,515.5,211.4z"/>
		<path class="st2" d="M538.6,209.6c-2-1.9-3.1-4.7-3.2-8.3v-1.5c0.1-3.5,1.2-6.2,3.2-8.1c2-2,4.8-2.9,8.2-2.9
			c2.5,0,4.6,0.5,6.3,1.5c1.7,1,3,2.4,3.9,4.2c0.9,1.8,1.3,3.8,1.3,6.1v1.1c0,0.3-0.1,0.5-0.3,0.8c-0.2,0.2-0.5,0.3-0.8,0.3h-14.1
			v0.3c0.1,1.4,0.4,2.5,1,3.3s1.5,1.3,2.7,1.3c0.7,0,1.3-0.2,1.8-0.5c0.5-0.3,0.9-0.7,1.3-1.1c0.3-0.3,0.5-0.5,0.6-0.6
			c0.2-0.1,0.4-0.1,0.8-0.1h5.5c0.3,0,0.5,0.1,0.7,0.2c0.2,0.2,0.3,0.4,0.3,0.6c0,0.8-0.4,1.6-1.3,2.6s-2.1,1.9-3.8,2.6
			c-1.6,0.7-3.6,1.1-5.8,1.1C543.4,212.4,540.6,211.5,538.6,209.6z M550.6,198.2L550.6,198.2c0-1.5-0.3-2.7-1-3.5
			c-0.7-0.8-1.6-1.3-2.8-1.3c-1.1,0-2,0.4-2.7,1.3c-0.7,0.8-1,2-1,3.4v0.1H550.6z"/>
		<path class="st2" d="M562.8,211.7c-0.2-0.2-0.3-0.5-0.3-0.8v-20.7c0-0.3,0.1-0.6,0.3-0.8c0.2-0.2,0.5-0.3,0.8-0.3h5.1
			c0.3,0,0.6,0.1,0.8,0.3c0.2,0.2,0.3,0.5,0.3,0.8v1.8c1.6-1.9,3.8-2.9,6.5-2.9h1.9c0.3,0,0.6,0.1,0.8,0.3c0.2,0.2,0.3,0.5,0.3,0.8
			v4.5c0,0.3-0.1,0.5-0.3,0.8c-0.2,0.2-0.5,0.3-0.8,0.3H574c-1.2,0-2.1,0.3-2.8,1c-0.7,0.7-1,1.6-1,2.8v11.3c0,0.3-0.1,0.6-0.3,0.8
			s-0.5,0.3-0.8,0.3h-5.5C563.3,212,563,211.9,562.8,211.7z"/>
	</g>
</g>
<path class="st3" d="M231.5,132.4c0,4.3-0.5,8.5-1.5,12.5c-0.9,0.4-1.8,0.7-2.8,0.9c-1.5,0.4-3.1,0.6-4.8,0.6H122.3
	c-1.2-4.5-1.9-9.1-1.9-14v0c0-10,3.7-19.7,10.5-27.2c-0.8-4.1-1.4-8.2-1.5-12.3l2.4-52.7c13.7,7,26,10.9,41.3,10.8
	c14.9-0.2,30.5-4.3,45.5-13v64.9C226.9,110.5,231.5,121.2,231.5,132.4z"/>
<path class="st4" d="M221.2,101.7V33.5l-3.8,2.2c-14.3,8.3-29.1,12.5-44.3,12.7c-13.6,0.2-25.2-2.9-40.1-10.5l-3.5-1.8l-2.6,56.7V93
	c0.2,3.8,0.6,7.7,1.3,11.5c-6.7,7.8-10.3,17.7-10.3,27.9c0,4.8,0.6,9.5,1.8,14h5.2c-1.3-4.4-2-9.1-2-14c0-9.4,3.5-18.5,9.8-25.5
	l0.9-0.9l-0.3-1.2c-0.8-3.9-1.3-7.9-1.5-11.8l2.2-48.8c14.1,6.8,25.6,9.5,39,9.3c14.7-0.2,29.1-4,43-11.3v61.8l0.8,0.7
	c7.7,7.2,12.1,17.3,12.1,27.8c0,4.6-0.6,9.1-1.8,13.4c2-0.5,4-1.3,5.7-2.4c0.7-3.6,1.1-7.2,1.1-11
	C234,120.9,229.4,109.8,221.2,101.7z"/>
<g id="Path_3600">
	<path class="st5" d="M242.4,131.8L242.4,131.8z"/>
</g>
<g id="Ellipse_158">
	<path class="st6" d="M218.6,146.4c4-6.8,6.3-14.8,6.3-23.3c0-8.1-2.1-15.7-5.7-22.3c-4.7-8.4-11.9-15.2-20.6-19.3h0
		c-3.3-1.6-6.7-2.7-10.3-3.5c-3-0.6-6.2-0.9-9.4-0.9c-1.3,0-2.6,0.1-3.9,0.2c-0.4,0-0.7,0.1-1.1,0.1c-6.4,0.7-12.5,2.7-17.8,5.8
		c-7.1,4.1-13,9.9-17.1,17c-3.9,6.8-6.1,14.6-6.1,23c0,8.5,2.3,16.5,6.3,23.3h4.3"/>
	<line class="st6" x1="210.4" y1="146.4" x2="204.3" y2="146.4"/>
</g>
<g>
	<circle class="st6" cx="173.9" cy="122.8" r="41"/>
</g>
<g id="Group_6650">
	<g id="Group_6649" transform="translate(-1.134 -0.016)">
		<g id="Path_3465">
			<path class="st1" d="M158.8,146.4c-0.2-0.2-0.4-0.4-0.6-0.6c0,0.2,0,0.4,0,0.6H158.8z"/>
			<path class="st1" d="M169.1,94c-1.6-3.4-4.3-6.3-7.5-8.2c-0.4-0.3-1-0.5-1.5-0.2c-0.3,0.3-0.4,0.8-0.3,1.2
				c0.3,2.6,1.7,5.1,1.3,7.6c-0.1,0.7-0.6,1.5-1.3,1.3c-0.4-0.1-0.7-0.4-0.8-0.8c-1-1.7-1.6-3.6-1.8-5.6c-1.4,2.2-5,4.5-5.8,6.8
				c-0.9,2.5,1.2,5.4,1.2,8c0.2-3.5,2.4-9.2,7-7.6c2.2,1,3.9,2.9,4.8,5.2c0.6,2.4,0.7,1.5-1.4,2.8c-1.6,0.9-3.5,1.6-4.8,2.8
				c0.8,0,1.6-0.2,2.3-0.5c-0.3,0.1,0,0.6,0.5,1c-0.6,0.4-1.2,0.9-1.7,1.5c-5.7,3.6-7.3,14.6-8.5,20.2c-2-1.2-4-2.7-6.4-1.9
				c-2,0.6-3.3,3.1-2.2,4.8c1.6,2.5,8.4,2.1,10.5,4.5c5.1-1.4,5.5,4,5.7,9c-7.6-7.1-22.1-8.7-24.7-20.1
				c-4.5-19.7,13.9-38.9,31.8-43.7c0.5-0.2,1.1-0.3,1.7-0.2c0.1,0,0.3,0.1,0.4,0.1c1.2,0.4,1.8,1.8,2,3C170,88,169.9,91.1,169.1,94z
				"/>
		</g>
		<g id="Path_2010">
			<path class="st1" d="M179.1,81.8c2,1.6,16.8,9,16.6,12.3c0,0.6-5.9-4.2-6.8-2.7c-3.8,6.7,8.6,5.1,8.2,4.9c1.1,0.5,1.6,8.2,1.4,8
				c10.9,9.3,0.6-3.8,5.6-2.5c5.1,1.7,7.1,1,9,7.3c-0.6-1-1.5-1.8-2.6-2.2c-0.2,0.7-0.3-0.7,0,0c0.3-0.4-3.1-0.5-4.6,0.7
				c-3.2,2.7-3.3,8.7-3.7,12.6c-0.5,5.1,0.5,24.3,7.7,14.9c-1.6,1.2-5.5,14.1-6.8,17.3C232.9,134.7,210.9,80.7,179.1,81.8z"/>
		</g>
	</g>
</g>
<g id="Ellipse_86-2">
	<path class="st4" d="M173.9,82.6l-0.7-1c-0.5,0.9-1,1.9-1.5,2.8c0.7,0,1.5-0.1,2.2-0.1h0.3C174.1,83.7,174,83.2,173.9,82.6z
		 M137.3,146.4c-4.4-6.8-7-14.9-7-23.6c0-8.4,2.4-16.3,6.6-23c4.5-7.3,11.2-13.1,19.1-16.7c5.4-2.4,11.4-3.8,17.7-3.8h0.4
		c17.3,0.1,32.3,10.5,39.2,25.3c2.6,5.5,4,11.7,4,18.2c0,8.7-2.6,16.8-7,23.6h-6.1c5.1-6.5,8.1-14.7,8.1-23.6
		c0-5.9-1.3-11.4-3.7-16.4c-6-12.7-18.7-21.5-33.5-22.1c-0.4,0-0.7,0-1.1,0h-0.3c-0.7,0-1.5,0-2.2,0.1c-1.4,0.1-2.7,0.2-4,0.4
		c-10.3,1.7-19.2,7.4-25.1,15.6c-4.6,6.3-7.2,14.1-7.2,22.4c0,8.9,3,17.1,8.1,23.6h-4.3H137.3z"/>
</g>
<g id="Group_6835">
	<g id="Group_6842" transform="translate(2 -4)">
		<g id="Ellipse_161">
			<circle class="st4" cx="141.1" cy="70.8" r="33.6"/>
		</g>
		<g id="Ellipse_162">
			<g>
				<defs>
					<circle id="SVGID_1_" cx="140.9" cy="70.6" r="28.2"/>
				</defs>
				<use xlink:href="#SVGID_1_"  style="overflow:visible;fill:#FFFFFF;"/>
				<clipPath id="SVGID_2_">
					<use xlink:href="#SVGID_1_"  style="overflow:visible;"/>
				</clipPath>
				<path class="st7" d="M112.7,42.4v56.5V42.4z"/>
				<rect x="112.7" y="42.4" class="st7" width="4.2" height="56.5"/>
				<rect x="116.8" y="42.4" class="st7" width="4.2" height="56.5"/>
				<rect x="121" y="42.4" class="st7" width="4.2" height="56.5"/>
				<rect x="125.1" y="42.4" class="st7" width="4.2" height="56.5"/>
				<rect x="129.3" y="42.4" class="st7" width="4.2" height="56.5"/>
				<rect x="133.5" y="42.4" class="st7" width="4.2" height="56.5"/>
				<rect x="137.6" y="42.4" class="st7" width="4.2" height="56.5"/>
				<rect x="141.8" y="42.4" class="st7" width="4.2" height="56.5"/>
				<rect x="146" y="42.4" class="st7" width="4.2" height="56.5"/>
				<rect x="150.1" y="42.4" class="st7" width="4.2" height="56.5"/>
				<rect x="154.3" y="42.4" class="st7" width="4.2" height="56.5"/>
				<rect x="158.5" y="42.4" class="st7" width="4.2" height="56.5"/>
				<rect x="162.6" y="42.4" class="st7" width="6.5" height="56.5"/>
			</g>
		</g>
		<g id="Path_3606">
			<path class="st4" d="M132.4,52.2c-1.8,0-3.6,0.5-5.2,1.5c1.1,1.2,1,3.1-0.2,4.1c-1,0.9-2.6,1-3.7,0.2c-0.8,1.6-1.2,3.4-1.2,5.2
				c0,6.1,4.6,11,10.3,11c5.7,0,10.3-4.9,10.3-11S138.1,52.2,132.4,52.2z"/>
		</g>
	</g>
	<g id="Group_6834" transform="translate(-1)">
		<g id="Ellipse_163">
			<circle class="st4" cx="202.4" cy="79.8" r="27.6"/>
		</g>
		<g id="Ellipse_164">
			<g>
				<defs>
					<circle id="SVGID_3_" cx="202.4" cy="79.7" r="22.2"/>
				</defs>
				<use xlink:href="#SVGID_3_"  style="overflow:visible;fill:#FFFFFF;"/>
				<clipPath id="SVGID_4_">
					<use xlink:href="#SVGID_3_"  style="overflow:visible;"/>
				</clipPath>
				<path class="st8" d="M180.2,57.5V102V57.5z"/>
				<rect x="180.2" y="57.5" class="st8" width="3.3" height="44.5"/>
				<rect x="183.5" y="57.5" class="st8" width="3.3" height="44.5"/>
				<rect x="186.7" y="57.5" class="st8" width="3.3" height="44.5"/>
				<rect x="190" y="57.5" class="st8" width="3.3" height="44.5"/>
				<rect x="193.3" y="57.5" class="st8" width="3.3" height="44.5"/>
				<rect x="196.6" y="57.5" class="st8" width="3.3" height="44.5"/>
				<rect x="199.9" y="57.5" class="st8" width="3.3" height="44.5"/>
				<rect x="203.1" y="57.5" class="st8" width="3.3" height="44.5"/>
				<rect x="206.4" y="57.5" class="st8" width="3.3" height="44.5"/>
				<rect x="209.7" y="57.5" class="st8" width="3.3" height="44.5"/>
				<rect x="213" y="57.5" class="st8" width="3.3" height="44.5"/>
				<rect x="216.3" y="57.5" class="st8" width="3.3" height="44.5"/>
				<rect x="219.5" y="57.5" class="st8" width="5.1" height="44.5"/>
			</g>
		</g>
		<g id="Path_3607">
			<path class="st4" d="M196.3,64.9c-1.4,0-2.9,0.4-4.1,1.2c0.9,0.9,0.8,2.4-0.1,3.3c-0.8,0.7-2,0.8-2.9,0.2c-0.6,1.3-1,2.7-1,4.1
				c0,4.8,3.6,8.7,8.1,8.7s8.1-3.9,8.1-8.7S200.8,64.9,196.3,64.9z"/>
		</g>
	</g>
	<g id="Path_3605">
		<path class="st4" d="M182.1,93.5l-9.9-13.3c-0.1-0.3-0.4-0.6-0.8-0.6l-9.6,13c-0.8,1.1-0.8,2.5,0,3.5l9.6,13
			c0.3,0,0.6-0.3,0.8-0.6l9.9-13.3C182.4,94.7,182.4,94.1,182.1,93.5z"/>
	</g>
</g>
<g id="Path_3608">
	<path class="st4" d="M140.4,150.1c-0.4,0-0.8-0.1-1.2-0.3l-9.4-5.1l-6.4,3.5c-1.2,0.7-2.7,0.2-3.4-1c-0.7-1.2-0.2-2.7,1-3.4
		l8.8-4.7l11.8,6.4c1.2,0.7,1.7,2.2,1,3.4C142.1,149.6,141.3,150.1,140.4,150.1z"/>
</g>
<g id="Path_3609">
	<path class="st4" d="M207.6,150c-0.8,0-1.6-0.4-2.1-1.1c-0.8-1.2-0.4-2.7,0.7-3.5l14.5-9.5l7.5,5.2l1.3-0.6
		c1.3-0.5,2.7,0.1,3.3,1.3c0.5,1.3-0.1,2.7-1.3,3.3l-3.9,1.6l-7-4.8l-11.7,7.7C208.6,149.9,208.1,150,207.6,150z"/>
</g>
</svg>
