<svg id="logo2" xmlns="http://www.w3.org/2000/svg" xmlns:xlink="http://www.w3.org/1999/xlink" width="128" height="118" viewBox="0 0 128 118">
  <defs>
    <clipPath id="clip-path">
      <rect id="Rectangle_1937" data-name="Rectangle 1937" width="128" height="118" transform="translate(590 104)" fill="#fff" stroke="#707070" stroke-width="1"/>
    </clipPath>
    <clipPath id="clip-path-2">
      <rect id="Rectangle_1932" data-name="Rectangle 1932" width="146.407" height="146.407" rx="20" transform="translate(71.937 434.885)" fill="none"/>
    </clipPath>
    <clipPath id="clip-path-3">
      <circle id="Ellipse_86" data-name="Ellipse 86" cx="41.005" cy="41.005" r="41.005" fill="#0052a0" stroke="#001e3b" stroke-miterlimit="10" stroke-width="2.5"/>
    </clipPath>
    <linearGradient id="linear-gradient" y1="0.5" x2="1" y2="0.5" gradientUnits="objectBoundingBox">
      <stop offset="0" stop-color="#ebf3f6"/>
      <stop offset="0.885" stop-color="#f7fbff"/>
    </linearGradient>
  </defs>
  <g id="Mask_Group_5" data-name="Mask Group 5" transform="translate(-590 -104)" clip-path="url(#clip-path)">
    <g id="Group_6848" data-name="Group 6848">
      <g id="Group_6847" data-name="Group 6847">
        <g id="Group_6839" data-name="Group 6839" transform="translate(507.063 -361.885)">
          <g id="Group_6838" data-name="Group 6838" transform="translate(0 -2)" clip-path="url(#clip-path-2)">
            <g id="Group_6837" data-name="Group 6837">
              <path id="Union_12" data-name="Union 12" d="M-393.736,523.552a53.328,53.328,0,0,1-53.328-53.328,40.427,40.427,0,0,1,10.475-27.208,74.816,74.816,0,0,1-1.506-12.315l2.419-52.735c13.72,7,26.02,10.939,41.312,10.761,14.937-.173,30.454-4.333,45.489-13.047v64.913a40.461,40.461,0,0,1,12.857,29.63,53.328,53.328,0,0,1-53.328,53.328Z" transform="translate(543.475 97.075)" fill="#fff" stroke="#001e3b" stroke-width="5"/>
              <g id="Group_6836" data-name="Group 6836">
                <path id="Path_3600" data-name="Path 3600" d="M218.344,566.664" fill="#204b63"/>
                <circle id="Ellipse_158" data-name="Ellipse 158" cx="46.04" cy="46.04" r="46.04" transform="translate(108.808 511.951)" fill="none"/>
                <g id="Group_6841" data-name="Group 6841" transform="translate(108.808 516.693)">
                  <g id="Group_6650" data-name="Group 6650" clip-path="url(#clip-path-3)">
                    <g id="Group_6649" data-name="Group 6649" transform="translate(-1.134 -0.016)">
                      <path id="Path_3465" data-name="Path 3465" d="M239.513,791.082c-2.8-7.83-22.385,0-22.385,0s.437,2.425-2.1,1.178c-2.889-1.418,1.591-18.288-6.95-16-2.053-2.381-8.868-1.914-10.49-4.472-1.1-1.737.275-4.244,2.247-4.829,2.424-.72,4.446.788,6.408,1.935,1.139-5.632,2.713-16.563,8.445-20.193a7.286,7.286,0,0,1,1.672-1.476c-.487-.433-.771-.861-.474-1a5.1,5.1,0,0,1-2.334.517c1.369-1.227,3.234-1.873,4.827-2.8,2.118-1.234,2.057-.4,1.411-2.761a9.341,9.341,0,0,0-4.76-5.187c-4.578-1.614-6.839,4.224-6.95,7.755.083-2.637-2.118-5.563-1.231-8.127.792-2.288,4.343-4.609,5.752-6.794a13.767,13.767,0,0,0,1.852,5.562,1.451,1.451,0,0,0,.839.774c.682.144,1.18-.651,1.309-1.336.479-2.555-.968-5.052-1.256-7.635a1.317,1.317,0,0,1,.336-1.244c.42-.305,1.006-.063,1.451.2a19.222,19.222,0,0,1,7.508,8.219,19.385,19.385,0,0,0,.341-9.011c-.252-1.258-.8-2.671-2.026-3.048a2.128,2.128,0,0,0-.423-.083,4.738,4.738,0,0,0-1.659.224c-17.863,4.775-36.207,24.04-31.754,43.689,2.754,12.148,19.259,13.114,26.174,21.694,1.862,2.31-.469,4.7,1.164,7.179a18.473,18.473,0,0,0,8.136,6.89c3.474,1.462,7.637,1.654,10.911-.214S240.782,794.631,239.513,791.082Z" transform="translate(-188.439 -721.164)" fill="#0052a0"/>
                      <path id="Path_2010" data-name="Path 2010" d="M236.452,721.178c1.977,1.559,16.814,9.041,16.618,12.311-.038.649-5.945-4.17-6.806-2.667-3.825,6.671,8.645,5.134,8.213,4.918,1.084.542,1.551,8.151,1.426,8.044,10.924,9.337.616-3.812,5.614-2.489,5.077,1.692,7.085,1.03,9.031,7.281a5.522,5.522,0,0,0-2.633-2.2c-.236.743-.28-.707,0,0,.265-.428-3.148-.457-4.567.742-3.23,2.728-3.275,8.707-3.669,12.563-.517,5.054.472,24.3,7.671,14.949-1.641,1.176-5.458,14.064-6.758,17.33C290.283,774.042,268.238,720.072,236.452,721.178Z" transform="translate(-190.25 -721.162)" fill="#0052a0"/>
                    </g>
                  </g>
                  <circle id="Ellipse_86-2" data-name="Ellipse 86" cx="41.005" cy="41.005" r="41.005" fill="none" stroke="#001e3b" stroke-miterlimit="10" stroke-width="5"/>
                </g>
                <g id="Group_6835" data-name="Group 6835">
                  <g id="Group_6842" data-name="Group 6842" transform="translate(2 -4)">
                    <circle id="Ellipse_161" data-name="Ellipse 161" cx="33.591" cy="33.591" r="33.591" transform="translate(83.417 472.074)" fill="#001e3b"/>
                    <circle id="Ellipse_162" data-name="Ellipse 162" cx="28.238" cy="28.238" r="28.238" transform="translate(88.589 477.246)" fill="url(#linear-gradient)"/>
                    <path id="Path_3606" data-name="Path 3606" d="M108.305,487.051a9.724,9.724,0,0,0-5.189,1.512,2.934,2.934,0,0,1-3.908,4.341A11.629,11.629,0,0,0,98,498.093c0,6.1,4.614,11.043,10.307,11.043s10.306-4.944,10.306-11.043S114,487.051,108.305,487.051Z" fill="#001e3b"/>
                  </g>
                  <g id="Group_6834" data-name="Group 6834" transform="translate(-1)">
                    <circle id="Ellipse_163" data-name="Ellipse 163" cx="27.623" cy="27.623" r="27.623" transform="translate(150.73 487.014)" fill="#001e3b"/>
                    <circle id="Ellipse_164" data-name="Ellipse 164" cx="22.235" cy="22.235" r="22.235" transform="translate(156.117 492.383)" fill="url(#linear-gradient)"/>
                    <path id="Path_3607" data-name="Path 3607" d="M172.215,499.779a7.656,7.656,0,0,0-4.085,1.191,2.31,2.31,0,0,1-3.077,3.418,9.149,9.149,0,0,0-.953,4.086c0,4.8,3.633,8.7,8.115,8.7s8.116-3.893,8.116-8.7S176.7,499.779,172.215,499.779Z" fill="#001e3b"/>
                  </g>
                  <path id="Path_3605" data-name="Path 3605" d="M161.3,531.183l-9.9-13.253a.888.888,0,0,0-.753-.6l-9.568,12.956a2.981,2.981,0,0,0,0,3.541l9.568,12.956a.9.9,0,0,0,.753-.608l9.9-13.252A2.125,2.125,0,0,0,161.3,531.183Z" transform="translate(-3.257 -2.763)" fill="#001e3b"/>
                </g>
              </g>
            </g>
          </g>
        </g>
      </g>
      <path id="Path_3608" data-name="Path 3608" d="M512.162,184.994l7.629-4.11,10.581,5.711" transform="translate(93 32)" fill="none" stroke="#001e3b" stroke-linecap="round" stroke-width="5"/>
      <path id="Path_3609" data-name="Path 3609" d="M532.618,184.792l-2.6,1.1-7.273-5.009-13.137,8.611" transform="translate(181 29)" fill="none" stroke="#001e3b" stroke-linecap="round" stroke-width="5"/>
    </g>
  </g>
</svg>
