<?xml version="1.0" encoding="utf-8"?>
<!-- Generator: Adobe Illustrator 23.0.1, SVG Export Plug-In . SVG Version: 6.00 Build 0)  -->
<svg version="1.1" id="masterbrowser" xmlns="http://www.w3.org/2000/svg" xmlns:xlink="http://www.w3.org/1999/xlink" x="0px"
	 y="0px" viewBox="0 0 339 51" style="enable-background:new 0 0 339 51;" xml:space="preserve">
<style type="text/css">
	.st0{enable-background:new    ;}
	.st1{fill:#0052A0;}
	.st2{fill:#0B84C7;}
</style>
<g class="st0">
	<path class="st1" d="M2.8,39.7c-0.2-0.2-0.3-0.5-0.3-0.8V18.7c0-0.3,0.1-0.6,0.3-0.8c0.2-0.2,0.5-0.3,0.8-0.3h4.7
		c0.3,0,0.6,0.1,0.8,0.3c0.2,0.2,0.3,0.5,0.3,0.8v1.5c0.7-0.9,1.5-1.6,2.6-2.1c1.1-0.6,2.3-0.8,3.7-0.8c3.2,0,5.3,1.2,6.5,3.7
		c0.7-1.1,1.6-2,2.9-2.7c1.2-0.7,2.6-1,4-1c2.4,0,4.3,0.8,5.7,2.4c1.5,1.6,2.2,4,2.2,7.1v12.2c0,0.3-0.1,0.5-0.3,0.8
		C36.6,39.9,36.3,40,36,40h-5c-0.3,0-0.6-0.1-0.8-0.3s-0.3-0.5-0.3-0.8V27c0-1.4-0.3-2.5-0.9-3.1c-0.6-0.6-1.4-0.9-2.4-0.9
		c-0.9,0-1.7,0.3-2.3,1c-0.6,0.6-0.9,1.7-0.9,3.1v11.9c0,0.3-0.1,0.5-0.3,0.8c-0.2,0.2-0.5,0.3-0.8,0.3h-5c-0.3,0-0.6-0.1-0.8-0.3
		c-0.2-0.2-0.3-0.5-0.3-0.8V27c0-1.4-0.3-2.4-0.9-3.1c-0.6-0.6-1.4-1-2.3-1c-0.9,0-1.7,0.3-2.3,1c-0.6,0.6-0.9,1.7-0.9,3v12
		c0,0.3-0.1,0.5-0.3,0.8C9.3,39.9,9,40,8.7,40H3.6C3.3,40,3,39.9,2.8,39.7z"/>
	<path class="st1" d="M44.5,39.5c-1.2-0.6-2.2-1.4-2.9-2.4c-0.7-1-1.1-2.1-1.1-3.4c0-2,0.8-3.6,2.4-4.8c1.6-1.2,3.8-2,6.7-2.5
		l5.4-0.8v-0.6c0-1.1-0.2-1.9-0.7-2.4c-0.5-0.5-1.2-0.8-2.3-0.8c-0.7,0-1.2,0.1-1.6,0.3c-0.4,0.2-0.9,0.5-1.3,0.9
		c-0.4,0.3-0.7,0.6-0.9,0.7c-0.1,0.2-0.2,0.3-0.5,0.3H43c-0.3,0-0.5-0.1-0.7-0.3c-0.2-0.2-0.3-0.4-0.2-0.7c0-0.8,0.4-1.6,1.1-2.6
		c0.7-0.9,1.8-1.8,3.4-2.5c1.5-0.7,3.4-1,5.6-1c3.5,0,6.1,0.8,7.8,2.3c1.7,1.6,2.5,3.7,2.5,6.3v13.1c0,0.3-0.1,0.5-0.3,0.8
		c-0.2,0.2-0.5,0.3-0.8,0.3h-5c-0.3,0-0.5-0.1-0.8-0.3s-0.3-0.5-0.3-0.8v-1.5c-0.6,0.9-1.5,1.6-2.6,2.2c-1.1,0.6-2.5,0.8-4,0.8
		C47.1,40.4,45.7,40.1,44.5,39.5z M53.9,34.2c0.8-0.9,1.2-2.1,1.2-3.8v-0.6l-3.7,0.6c-2.6,0.5-3.9,1.4-3.9,2.7
		c0,0.7,0.3,1.3,0.9,1.7c0.6,0.4,1.3,0.6,2.2,0.6C52,35.5,53,35.1,53.9,34.2z"/>
	<path class="st1" d="M70.7,39.4c-1.6-0.7-2.7-1.4-3.5-2.4c-0.7-0.9-1.1-1.7-1.1-2.5c0-0.3,0.1-0.5,0.3-0.7c0.2-0.2,0.5-0.3,0.7-0.3
		H72c0.2,0,0.3,0.1,0.5,0.2c0.3,0.2,0.6,0.4,0.8,0.6c0.6,0.5,1.2,0.8,1.7,1c0.5,0.2,1.1,0.3,1.7,0.3c0.8,0,1.5-0.2,2-0.5
		c0.5-0.3,0.8-0.8,0.8-1.4c0-0.5-0.1-0.9-0.4-1.2c-0.3-0.3-0.8-0.6-1.6-0.8S75.6,31.3,74,31c-2.4-0.5-4.2-1.3-5.5-2.4
		c-1.3-1.1-1.9-2.6-1.9-4.5c0-1.2,0.4-2.3,1.1-3.4c0.7-1.1,1.9-1.9,3.3-2.6c1.5-0.7,3.2-1,5.3-1c2,0,3.8,0.3,5.3,0.9
		c1.5,0.6,2.7,1.4,3.5,2.3c0.8,0.9,1.2,1.7,1.2,2.5c0,0.3-0.1,0.5-0.3,0.7c-0.2,0.2-0.4,0.3-0.7,0.3h-4.5c-0.2,0-0.4-0.1-0.6-0.2
		c-0.4-0.2-0.7-0.4-1-0.6c-0.5-0.4-0.9-0.7-1.4-0.9c-0.4-0.2-1-0.3-1.6-0.3c-0.7,0-1.3,0.2-1.8,0.5s-0.7,0.8-0.7,1.3
		c0,0.4,0.1,0.8,0.4,1.1c0.2,0.3,0.8,0.6,1.5,0.8c0.8,0.3,2,0.6,3.5,0.8c2.8,0.5,4.8,1.3,6.1,2.6c1.3,1.2,1.9,2.7,1.9,4.3
		c0,2.1-0.9,3.8-2.8,5.1s-4.5,1.9-7.9,1.9C74.2,40.4,72.2,40.1,70.7,39.4z"/>
	<path class="st1" d="M93.5,31.5v-8.3h-3.4c-0.3,0-0.6-0.1-0.8-0.3c-0.2-0.2-0.3-0.5-0.3-0.8v-3.5c0-0.3,0.1-0.6,0.3-0.8
		c0.2-0.2,0.5-0.3,0.8-0.3h3.4v-7.1c0-0.3,0.1-0.6,0.3-0.8c0.2-0.2,0.5-0.3,0.8-0.3h5c0.3,0,0.6,0.1,0.8,0.3
		c0.2,0.2,0.3,0.5,0.3,0.8v7.1h5.4c0.3,0,0.6,0.1,0.8,0.3c0.2,0.2,0.3,0.5,0.3,0.8v3.5c0,0.3-0.1,0.6-0.3,0.8
		c-0.2,0.2-0.5,0.3-0.8,0.3h-5.4v7.7c0,2.1,0.8,3.2,2.5,3.2h3.3c0.3,0,0.6,0.1,0.8,0.3c0.2,0.2,0.3,0.5,0.3,0.8v3.7
		c0,0.3-0.1,0.5-0.3,0.8c-0.2,0.2-0.5,0.3-0.8,0.3h-4C96.4,40,93.5,37.2,93.5,31.5z"/>
	<path class="st1" d="M113.2,37.6c-2-1.9-3-4.6-3.1-8.1V28c0.1-3.4,1.2-6,3.2-7.9c2-1.9,4.7-2.9,8-2.9c2.4,0,4.5,0.5,6.2,1.5
		c1.7,1,2.9,2.3,3.8,4.1c0.8,1.7,1.3,3.7,1.3,5.9v1c0,0.3-0.1,0.5-0.3,0.8c-0.2,0.2-0.5,0.3-0.8,0.3h-13.8v0.3
		c0.1,1.3,0.4,2.4,1,3.3c0.6,0.8,1.5,1.2,2.6,1.2c0.7,0,1.3-0.2,1.8-0.5c0.5-0.3,0.9-0.7,1.2-1.1c0.3-0.3,0.5-0.5,0.6-0.6
		c0.2-0.1,0.4-0.1,0.8-0.1h5.3c0.3,0,0.5,0.1,0.7,0.2c0.2,0.2,0.3,0.4,0.3,0.6c0,0.7-0.4,1.6-1.3,2.6c-0.8,1-2.1,1.8-3.7,2.5
		c-1.6,0.7-3.5,1.1-5.7,1.1C117.9,40.4,115.2,39.5,113.2,37.6z M125,26.5L125,26.5c0-1.5-0.3-2.6-1-3.4c-0.6-0.8-1.5-1.2-2.7-1.2
		c-1.1,0-2,0.4-2.6,1.2c-0.6,0.8-1,1.9-1,3.3v0.1H125z"/>
	<path class="st1" d="M136.9,39.7c-0.2-0.2-0.3-0.5-0.3-0.8V18.7c0-0.3,0.1-0.6,0.3-0.8c0.2-0.2,0.5-0.3,0.8-0.3h4.9
		c0.3,0,0.6,0.1,0.8,0.3c0.2,0.2,0.3,0.5,0.3,0.8v1.7c1.6-1.9,3.7-2.8,6.4-2.8h1.9c0.3,0,0.6,0.1,0.8,0.3c0.2,0.2,0.3,0.5,0.3,0.8
		v4.4c0,0.3-0.1,0.5-0.3,0.8c-0.2,0.2-0.5,0.3-0.8,0.3h-4.2c-1.2,0-2.1,0.3-2.7,1c-0.6,0.6-1,1.6-1,2.7v11c0,0.3-0.1,0.6-0.3,0.8
		c-0.2,0.2-0.5,0.3-0.8,0.3h-5.3C137.3,40,137.1,39.9,136.9,39.7z"/>
</g>
<g class="st0">
	<path class="st2" d="M172.3,37.5v1.4c0,0.3-0.1,0.5-0.3,0.8c-0.2,0.2-0.5,0.3-0.8,0.3h-4.9c-0.3,0-0.5-0.1-0.8-0.3
		c-0.2-0.2-0.3-0.5-0.3-0.8V10.5c0-0.3,0.1-0.6,0.3-0.8c0.2-0.2,0.5-0.3,0.8-0.3h5.2c0.3,0,0.6,0.1,0.8,0.3c0.2,0.2,0.3,0.5,0.3,0.8
		v9.2c1.6-1.7,3.7-2.5,6.3-2.5c2.8,0,5,0.9,6.6,2.7s2.5,4.3,2.6,7.4c0,0.4,0,0.9,0,1.5c0,0.6,0,1.1,0,1.5c-0.1,3.2-1,5.7-2.6,7.5
		c-1.6,1.8-3.8,2.6-6.6,2.6C176.1,40.4,173.8,39.5,172.3,37.5z M179.5,33.5c0.6-0.8,0.9-1.9,1-3.3c0.1-0.6,0.1-1,0.1-1.3
		s0-0.8-0.1-1.3c-0.1-1.4-0.4-2.5-1-3.3c-0.6-0.8-1.6-1.2-2.9-1.2c-1.3,0-2.2,0.4-2.9,1.2c-0.7,0.8-1,1.7-1.1,2.9l0,1.6l0,1.6
		c0.1,1.3,0.4,2.3,1.1,3.2c0.6,0.8,1.6,1.2,2.9,1.2C177.9,34.7,178.9,34.3,179.5,33.5z"/>
	<path class="st2" d="M192.7,39.7c-0.2-0.2-0.3-0.5-0.3-0.8V18.7c0-0.3,0.1-0.6,0.3-0.8c0.2-0.2,0.5-0.3,0.8-0.3h4.9
		c0.3,0,0.6,0.1,0.8,0.3c0.2,0.2,0.3,0.5,0.3,0.8v1.7c1.6-1.9,3.7-2.8,6.4-2.8h1.9c0.3,0,0.6,0.1,0.8,0.3c0.2,0.2,0.3,0.5,0.3,0.8
		v4.4c0,0.3-0.1,0.5-0.3,0.8c-0.2,0.2-0.5,0.3-0.8,0.3h-4.2c-1.2,0-2.1,0.3-2.7,1c-0.6,0.6-1,1.6-1,2.7v11c0,0.3-0.1,0.6-0.3,0.8
		s-0.5,0.3-0.8,0.3h-5.3C193.1,40,192.9,39.9,192.7,39.7z"/>
	<path class="st2" d="M214.1,37.9c-1.9-1.7-3-4.1-3.1-7.1c0-0.4,0-1,0-1.9s0-1.6,0-1.9c0.2-3,1.2-5.4,3.2-7.1c2-1.7,4.7-2.6,8.1-2.6
		c3.5,0,6.2,0.9,8.2,2.6c2,1.7,3.1,4.1,3.2,7.1c0,0.4,0,1,0,1.9s0,1.6,0,1.9c-0.2,3.1-1.2,5.4-3.1,7.1c-1.9,1.7-4.7,2.5-8.3,2.5
		C218.7,40.4,216,39.6,214.1,37.9z M225.1,34c0.6-0.8,0.9-1.9,1-3.5c0-0.3,0-0.9,0-1.7c0-0.9,0-1.4,0-1.7c-0.1-1.5-0.4-2.7-1.1-3.5
		c-0.6-0.8-1.5-1.2-2.8-1.2c-2.4,0-3.6,1.5-3.8,4.6l0,1.7l0,1.7c0.1,1.6,0.4,2.7,1,3.5c0.6,0.8,1.5,1.1,2.8,1.1
		C223.5,35.2,224.5,34.8,225.1,34z"/>
	<path class="st2" d="M242.6,39.7c-0.2-0.2-0.4-0.5-0.5-0.8L235.9,19l-0.1-0.4c0-0.3,0.1-0.5,0.3-0.7s0.4-0.3,0.7-0.3h4.4
		c0.3,0,0.6,0.1,0.9,0.3c0.2,0.2,0.4,0.4,0.4,0.6l3.6,12.3l3.9-12.3c0.1-0.2,0.2-0.4,0.4-0.6s0.5-0.3,0.9-0.3h2.8
		c0.4,0,0.7,0.1,0.9,0.3s0.4,0.4,0.4,0.6l3.9,12.3l3.6-12.3c0.1-0.2,0.2-0.4,0.4-0.6c0.2-0.2,0.5-0.3,0.9-0.3h4.4
		c0.3,0,0.5,0.1,0.7,0.3c0.2,0.2,0.3,0.4,0.3,0.7l-0.1,0.4l-6.2,19.9c-0.1,0.3-0.3,0.6-0.5,0.8S262.4,40,262,40h-3.9
		c-0.7,0-1.2-0.4-1.4-1.1l-4-11.8l-4,11.8c-0.2,0.7-0.7,1.1-1.4,1.1h-3.9C243.1,40,242.8,39.9,242.6,39.7z"/>
	<path class="st2" d="M276.1,39.4c-1.6-0.7-2.7-1.4-3.5-2.4c-0.7-0.9-1.1-1.7-1.1-2.5c0-0.3,0.1-0.5,0.3-0.7
		c0.2-0.2,0.5-0.3,0.7-0.3h4.9c0.2,0,0.3,0.1,0.5,0.2c0.3,0.2,0.6,0.4,0.8,0.6c0.6,0.5,1.2,0.8,1.7,1c0.5,0.2,1.1,0.3,1.7,0.3
		c0.8,0,1.5-0.2,2-0.5c0.5-0.3,0.8-0.8,0.8-1.4c0-0.5-0.1-0.9-0.4-1.2c-0.3-0.3-0.8-0.6-1.6-0.8c-0.8-0.3-1.9-0.6-3.5-0.9
		c-2.4-0.5-4.2-1.3-5.5-2.4c-1.3-1.1-1.9-2.6-1.9-4.5c0-1.2,0.4-2.3,1.1-3.4c0.7-1.1,1.9-1.9,3.3-2.6s3.2-1,5.3-1s3.8,0.3,5.3,0.9
		s2.7,1.4,3.5,2.3c0.8,0.9,1.2,1.7,1.2,2.5c0,0.3-0.1,0.5-0.3,0.7c-0.2,0.2-0.4,0.3-0.7,0.3h-4.5c-0.2,0-0.4-0.1-0.6-0.2
		c-0.4-0.2-0.7-0.4-1-0.6c-0.5-0.4-0.9-0.7-1.4-0.9c-0.4-0.2-1-0.3-1.6-0.3c-0.7,0-1.3,0.2-1.8,0.5s-0.7,0.8-0.7,1.3
		c0,0.4,0.1,0.8,0.4,1.1c0.2,0.3,0.8,0.6,1.5,0.8c0.8,0.3,2,0.6,3.5,0.8c2.8,0.5,4.8,1.3,6.1,2.6s1.9,2.7,1.9,4.3
		c0,2.1-0.9,3.8-2.8,5.1c-1.9,1.3-4.5,1.9-7.9,1.9C279.6,40.4,277.6,40.1,276.1,39.4z"/>
	<path class="st2" d="M298.7,37.6c-2-1.9-3-4.6-3.1-8.1V28c0.1-3.4,1.2-6,3.2-7.9c2-1.9,4.7-2.9,8-2.9c2.4,0,4.5,0.5,6.2,1.5
		c1.7,1,2.9,2.3,3.8,4.1s1.3,3.7,1.3,5.9v1c0,0.3-0.1,0.5-0.3,0.8c-0.2,0.2-0.5,0.3-0.8,0.3h-13.8v0.3c0.1,1.3,0.4,2.4,1,3.3
		c0.6,0.8,1.5,1.2,2.6,1.2c0.7,0,1.3-0.2,1.8-0.5c0.5-0.3,0.9-0.7,1.2-1.1c0.3-0.3,0.5-0.5,0.6-0.6c0.2-0.1,0.4-0.1,0.8-0.1h5.3
		c0.3,0,0.5,0.1,0.7,0.2c0.2,0.2,0.3,0.4,0.3,0.6c0,0.7-0.4,1.6-1.3,2.6c-0.8,1-2.1,1.8-3.7,2.5c-1.6,0.7-3.5,1.1-5.7,1.1
		C303.4,40.4,300.7,39.5,298.7,37.6z M310.4,26.5L310.4,26.5c0-1.5-0.3-2.6-1-3.4c-0.6-0.8-1.5-1.2-2.7-1.2c-1.1,0-2,0.4-2.6,1.2
		c-0.6,0.8-1,1.9-1,3.3v0.1H310.4z"/>
	<path class="st2" d="M322.3,39.7c-0.2-0.2-0.3-0.5-0.3-0.8V18.7c0-0.3,0.1-0.6,0.3-0.8c0.2-0.2,0.5-0.3,0.8-0.3h4.9
		c0.3,0,0.6,0.1,0.8,0.3c0.2,0.2,0.3,0.5,0.3,0.8v1.7c1.6-1.9,3.7-2.8,6.4-2.8h1.9c0.3,0,0.6,0.1,0.8,0.3c0.2,0.2,0.3,0.5,0.3,0.8
		v4.4c0,0.3-0.1,0.5-0.3,0.8c-0.2,0.2-0.5,0.3-0.8,0.3h-4.2c-1.2,0-2.1,0.3-2.7,1c-0.6,0.6-1,1.6-1,2.7v11c0,0.3-0.1,0.6-0.3,0.8
		s-0.5,0.3-0.8,0.3h-5.3C322.8,40,322.5,39.9,322.3,39.7z"/>
</g>
</svg>
