<?xml version="1.0" encoding="utf-8"?>
<!-- Generator: Adobe Illustrator 23.0.1, SVG Export Plug-In . SVG Version: 6.00 Build 0)  -->
<svg version="1.1" id="owl_branch" xmlns="http://www.w3.org/2000/svg" xmlns:xlink="http://www.w3.org/1999/xlink" x="0px" y="0px"
	 viewBox="0 0 540.8 321.4" style="enable-background:new 0 0 540.8 321.4;" xml:space="preserve">
<style type="text/css">
	.st0{fill:#0066AE;}
	.st1{fill:#011523;}
	.st2{fill:#012331;}
	.st3{fill:#D6F0FD;}
	.st4{fill:none;}
	.st5{fill:url(#Ellipse_89_1_);}
	.st6{fill:url(#Ellipse_91_1_);}
	.st7{clip-path:url(#SVGID_2_);}
	.st8{fill:#0062AF;}
	.st9{opacity:0.2;}
	.st10{fill:#00438F;}
	.st11{opacity:0.2;fill:#00438F;enable-background:new    ;}
	.st12{fill:#0096CE;}
	.st13{fill:#1D293A;}
	.st14{fill:#35465D;}
	.st15{fill:#0088CD;}
	.st16{fill:#0073BC;}
</style>
<g id="Layer_117" transform="translate(199.939)">
	<g id="Component_133_1" transform="translate(0 0)">
		<g id="Group_449" transform="translate(0 72.618)">
			<g id="Group_5902">
				<path id="Path_2003" class="st0" d="M87.8,1.7"/>
				<g id="Group_5901" transform="translate(0 5.101)">
					<path id="Path_2005" class="st1" d="M136.3,119.3l17.2,0.1c16.5,0.6,30.5-13.4,31.2-31.3l0-27.3c-13,6.6-28,8.6-42,0.5
						L136.3,119.3z"/>
					<path id="Path_2005-2" class="st1" d="M49.2,49.5l-15.3,7.9c-15,7.1-20.9,26-13.2,42.2l12.6,24.3c8.5-11.9,20.8-20.6,37-19.8
						L49.2,49.5z"/>
					<rect id="Rectangle_1597" x="55.2" y="136.7" class="st1" width="30" height="8.4"/>
					<ellipse id="Ellipse_85" class="st1" cx="88.2" cy="86.7" rx="58.6" ry="58.6"/>
					<path id="Path_2004" class="st1" d="M29.9,145.3h28.8c21.7,0,39.3-17.6,39.3-39.3c0,0,0,0,0,0l0,0V60.8L29.9,87.4L29.9,145.3z"
						/>
					<path id="Path_2005-3" class="st1" d="M43.9,131l23.7,0.2c36.5,1.4,67.4-29.5,68.9-69.1l0.1-60.4c-28.7,14.7-61.8,19-92.7,1
						L43.9,131z"/>
					<path id="Path_2006" class="st2" d="M19.2,102.4"/>
					<path id="Path_2039" class="st3" d="M47.1,79.2c1.5-4.1,3.4-8.1,5.7-11.9c3.2-4.4,7-8.3,11.4-11.5c3.5-2.5,7.4-4.4,11.6-5.6
						c2.6-1,5.4-1.5,8.2-1.4c0,0.1,0,0.1,0,0.2c0.2,0,0.4,0,0.6,0c0.3,0,0.7-0.1,1-0.1c0.3,0,0.7,0,1.1,0c0.2,0,0.4,0,0.6,0v0
						c1.6,0,3.2,0,4.8,0.2l0,0c1.6,0.1,3.1,0.4,4.6,0.7c0-0.1-0.4-0.1-0.7-0.2c-0.5-0.1-1.2-0.2-0.9-0.7s1.3-0.2,1.3-0.2
						c2.7,0.6,5.4,1.4,8,2.5c1.2,0.7,4.1,2.1,5.3,2.8s3.8,2.7,5.3,3.3c1.8,1.2,3.4,2.7,4.6,4.5c1,1.3,3.8,5,4.7,5.9
						c1.2,1.6,2.1,3.3,2.7,5.2c0.5,1.7,2.1,6.2,2.8,7.9c0.7,2.6,1,5.3,0.8,8c-0.1,1.6-0.1,3.3,0,4.9c0,1.7-0.2,3.3-0.7,4.9
						c-0.1,0.4-0.4,0.7-0.7,0.9c0,0.2-0.1,0.3-0.1,0.5l0,0.1c-2.9,12.5-11.2,22.9-22.8,28.5l0,0c-0.1,0-0.1,0-0.2,0.1
						c-0.4,0.2-0.8,0.4-1.2,0.5l-0.7,0.3c-0.4,0.2-0.8,0.3-1.2,0.5c-0.2,0.1-0.4,0.2-0.6,0.2c-0.4,0.1-0.8,0.3-1.2,0.4
						c-0.2,0.1-0.5,0.2-0.7,0.2c-0.4,0.1-0.8,0.2-1.2,0.3c-0.3,0.1-0.5,0.1-0.8,0.2c-0.4,0.1-0.7,0.2-1.1,0.3
						c-0.3,0.1-0.6,0.1-0.9,0.2c-0.3,0.1-0.6,0.1-1,0.2c-0.3,0.1-0.7,0.1-1,0.2c-0.3,0-0.6,0.1-0.9,0.1c-0.4,0.1-0.8,0.1-1.2,0.1
						c-0.2,0-0.5,0-0.7,0.1c-0.3,0-0.6,0.1-0.9,0.1c-0.2,0-0.4,0-0.6,0h0c-0.1,0-0.2,0-0.4,0c-0.5,0-0.9,0-1.4,0h-0.6
						c-0.5,0-1,0-1.5,0l-0.5,0c-0.5,0-1-0.1-1.5-0.1c-0.2,0-0.3,0-0.5,0c-0.5-0.1-1-0.1-1.5-0.2c-0.2,0-0.3,0-0.5-0.1
						c-0.5-0.1-1-0.2-1.5-0.3l-0.5-0.1c-0.5-0.1-1-0.2-1.5-0.3c-0.1,0-0.3-0.1-0.4-0.1c-0.5-0.1-1-0.3-1.5-0.4
						c-0.1,0-0.3-0.1-0.4-0.1c-0.2-0.1-0.5-0.1-0.7-0.2l0,0c-4.5-1.5-8.8-3.7-12.6-6.6l-0.2-0.1c-0.6-0.4-1.1-0.9-1.7-1.4
						c-0.1-0.1-0.3-0.2-0.4-0.3c-0.4-0.4-0.8-0.7-1.2-1.1v0c-2-1.2-3.7-2.9-5-4.9c-2.8-3.7-5.1-7.7-6.7-12.1
						c-1.1-4.3-1.8-8.8-2.1-13.2C45.6,87.1,46.1,83.1,47.1,79.2z"/>
					<ellipse id="Ellipse_87" class="st4" cx="85.1" cy="93.4" rx="47.8" ry="47.8"/>
					<g id="Group_5900" transform="translate(13.672 17.004)">
						<path id="Path_2011" class="st1" d="M67.4,46.9l9-12.1c0.1-0.3,0.4-0.5,0.7-0.5l8.7,11.8c0.7,1,0.7,2.3,0,3.2l-8.7,11.8
							c-0.3,0-0.6-0.3-0.7-0.6l-9.1-12.1C67.1,48,67.1,47.4,67.4,46.9z"/>
						<g id="Group_5897" transform="translate(58.925)">
							<ellipse id="Ellipse_88" class="st1" cx="47.1" cy="31.4" rx="29.7" ry="29.7"/>
							<g id="Group_5896" transform="translate(6.633 6.612)">
								
									<linearGradient id="Ellipse_89_1_" gradientUnits="userSpaceOnUse" x1="-414.939" y1="354.1833" x2="-414.94" y2="354.1833" gradientTransform="matrix(46.178 0 0 -46.178 19668.166 16380.2549)">
									<stop  offset="0" style="stop-color:#D9E8ED"/>
									<stop  offset="0.885" style="stop-color:#F1FAFE"/>
								</linearGradient>
								<ellipse id="Ellipse_89" class="st5" cx="40.4" cy="24.8" rx="23.1" ry="23.1"/>
								<path id="Path_2012" class="st1" d="M40.4,15.8c1.5,0,3,0.4,4.3,1.2c-0.9,1-0.8,2.5,0.1,3.4c0.8,0.8,2.1,0.8,3.1,0.2
									c0.7,1.3,1,2.8,1,4.3c-0.3,4.7-4.4,8.2-9,7.8c-4.7-0.3-8.2-4.4-7.8-9C32.3,19.2,36,15.8,40.4,15.8L40.4,15.8z"/>
							</g>
						</g>
						<g id="Group_5899" transform="translate(0)">
							<ellipse id="Ellipse_90" class="st1" cx="47.1" cy="31.4" rx="29.7" ry="29.7"/>
							<g id="Group_5898" transform="translate(6.633 6.612)">
								
									<linearGradient id="Ellipse_91_1_" gradientUnits="userSpaceOnUse" x1="-354.712" y1="354.1833" x2="-354.713" y2="354.1833" gradientTransform="matrix(46.178 0 0 -46.178 16947.127 16380.2549)">
									<stop  offset="0" style="stop-color:#D9E8ED"/>
									<stop  offset="0.885" style="stop-color:#F1FAFE"/>
								</linearGradient>
								<ellipse id="Ellipse_91" class="st6" cx="40.4" cy="24.8" rx="23.1" ry="23.1"/>
								<path id="Path_2013" class="st1" d="M40.4,15.8c1.5,0,3,0.4,4.3,1.2c-0.9,1-0.8,2.5,0.1,3.4c0.8,0.8,2.1,0.8,3.1,0.2
									c0.7,1.3,1,2.8,1,4.3c-0.3,4.7-4.4,8.2-9,7.8c-4.7-0.3-8.2-4.4-7.8-9C32.3,19.2,36,15.8,40.4,15.8L40.4,15.8z"/>
							</g>
						</g>
					</g>
					<path id="Path_2014" class="st3" d="M55.3,139.4c-9-3.2-16.2-10.3-19.5-19.2v19.2H55.3z"/>
					<path id="Path_2040" class="st1" d="M145.1,44.9c2.4-9-5.8-19-18.4-22.4S102,23.7,99.5,32.7"/>
					<path id="Path_2041" class="st1" d="M83.8,46.7c-0.1-12.8-10.5-23-23.2-22.9C48,23.8,37.7,34.1,37.7,46.7"/>
				</g>
			</g>
		</g>
		<path id="Rectangle_1610" class="st1" d="M182.5,128.9h-2.2c-1.2,0-2.2,1-2.2,2.2v0l0,0v14.6h6.6v-14.6
			C184.8,129.9,183.8,128.9,182.5,128.9L182.5,128.9L182.5,128.9z"/>
		<path id="Rectangle_1611" class="st1" d="M178.2,139.6h-7.6c-1.8,0-3.2,1.5-3.2,3.2v15.9h10.8V139.6z"/>
		<g id="Group_6697" transform="translate(148.679) rotate(14)">
			<g>
				<defs>
					<circle id="SVGID_1_" cx="76.8" cy="57" r="59.6"/>
				</defs>
				<clipPath id="SVGID_2_">
					<use xlink:href="#SVGID_1_"  style="overflow:visible;"/>
				</clipPath>
				<g id="Group_6696" class="st7">
					<g id="Mask_Group_21" transform="translate(-1.472 -0.811)">
						<g id="Group_5895">
							
								<ellipse id="Ellipse_86" transform="matrix(-0.9703 0.2419 -0.2419 -0.9703 167.1304 94.4179)" class="st8" cx="77.8" cy="57.5" rx="59.6" ry="59.6"/>
							<g id="Group_5894" transform="translate(0.885 0.393)" class="st9">
								<path id="Path_2007" class="st10" d="M17.2,57.1c0-32.5,25.9-58.9,58.4-59.6c-1,2.7-2.5,5.2-4.4,7.4
									c-2.6,2.4-4.7,5.4-5.9,8.7c-0.5,2.3-0.1,4.8-0.8,7.1c-1.5,3.6-4.9,6.1-8.8,6.5c-1.5,0-2.9,0.6-4,1.6c-1.4,1.7-0.3,4.2-1,6.2
									c-1.2,3.7-7.2,4.2-8,8c-0.9,4.3,6,7.5,4.8,11.8c-0.4,1.3-1.5,2.4-1.4,3.7c0,2,2.4,3,3.4,4.7c1.6,2.6-0.2,6-2,8.5l-5.5,7.8
									c-1.9,2.8-4,6.3-2.4,9.3c1.2,2.2,3.9,3.3,5.2,5.5c0.9,2.2,0.9,4.7,0.1,7l-1.3,5.5C27.1,95.5,17.2,76.9,17.2,57.1z"/>
							</g>
							<path id="Path_2008" class="st11" d="M58.7,108.1c0.2-2,0.6-4.5-1-5.7c-0.5-0.4-1.3-0.6-1.7-1.2c-0.7-1,0.2-2.5,1.2-3.2
								c1.1-0.7,2.4-1.2,2.9-2.4c0.3-1.2,0.4-2.5,0.2-3.8c0.2-3.9,4.7-6,8.6-6.5c3.9-0.5,8.2-0.4,11.1-3.1c0.9-1,1.8-2,2.8-3
								c4.2-3.1,10.4,1.3,15.2-0.8c1.3-0.4,2.1-1.6,2-2.9c-0.1-0.7-0.6-1.2-0.6-1.9c0-1.4,1.7-1.9,3-2.5c2.3-1.5,3.3-4.2,2.7-6.8
								c-0.7-2.5-2.2-4.8-4.4-6.3c-2.5-2-5.8-4.2-5.4-7.4c0.1-1,0.6-1.9,0.7-2.9c0.6-4.8-7.2-6.8-8-11.6c-0.1-1.7,0.2-3.3,0.7-4.9
								c0.5-1.6,0.1-3.4-1.2-4.6c-0.8-0.6-2-0.7-2.7-1.4c-0.4-0.7-0.7-1.4-0.8-2.2c-1.3-4.9-7.5-7.5-8.2-12.5
								c-0.1-3.2,1.2-6.2,3.6-8.3c1.3-1.3,2.6-2.7,3.8-4.1c32.8,3.1,56.9,32.2,53.8,65c-1,10.4-4.7,20.4-10.7,28.9
								c-2.9,0-5.8,0.6-8.5,1.6c-2,1.2-3.8,2.7-5.2,4.6c-3.4,4.1-6.5,8.5-9.2,13.1c-13.7,6.6-29.5,7.6-44,3
								C58.8,112.3,58.6,110.2,58.7,108.1z"/>
							<path id="Path_2009" class="st12" d="M89.4-2.4c0,0-1.4-0.4-1.8,0.3s0.6,0.8,1.3,1c0.7,0.1,1.6,0.1,0.5,0.9
								c-1.2,0.8-3.2,1.1-4.3,3c-1.1,2-2.4,2-1,4c1.3,2,2.9,4.6,2.7,6.1s-1,5.2,2.1,3.1c2.3-1.5,3.9-4,4.3-6.7
								c0.5-1.9,1.4-3.6,2.6-5.2c0.7-1.2,1.1-2.3,1.8-2.1c0.9,0.4,1.8,1,2.5,1.7c0.2,0.4,0,0.7-0.8,1.7S97.5,6,98.4,7.5
								s0.7,0.9-0.1,1.9c-0.9,0.9-2.1,1.5-1,3c1.1,1.5,1.8,2.3,1.4,3.4c-0.4,1.2-0.6,2.4,1.4,1.4c1.7-0.8,3.2-2.1,4.3-3.7
								c0.2-0.8-0.4-0.5-1.1-1.1c-0.7-0.8-1-1.9-0.8-2.9c0.1-1,0.9-1.2,1.4-1.3s0.7,0.3,0.9,1.8c0.1,1.2,1,2.1,2.2,2.2
								c0,0-1,2.5,0,3.1c1.1,0.6,2.3,0.7,3.5,0.4c0.8,0.7,1.6,1.5,2.4,2.3c0.8,1,1.4,1.6,1.7,1.9s0.8,0.5,0.6,2.1
								c-0.2,1.5-0.2,2-1.6,2.5c-1.3,0.4-2.3,1.5-2.6,2.8c-0.3,1.2-0.4,2.4-0.4,3.6c0,0.4-0.9,0.8-1-0.6c0-1.4-0.4-2.8-1.2-4
								c-0.8-1.3-1-2.9-0.6-4.4c0.2-1.2-0.1-2.3-0.6-3.4c-0.4-0.6-1.6-2.1-2.7-1.2s-2.5,1.5-2.8,2.4s-0.4,1.7-0.4,1.7
								s-0.8-1.8-1.8-1.7c-0.9,0.1-1.6,0.8-1.7,1.7c-0.4,1.1-1.1,2-2,2.8c-0.8,1-1.5,2.1-2.1,3.3c-0.5,0.7-1,1.5-1.3,2.3
								c-0.1,0.3,1.1,0.1,2.4,0.5c1.3,0.4,1.5,1.3,3.1,1.6s3.3,0.4,4.2,1.7c0.9,1.3,1.8,1.5,1,2.1s-0.9-0.1-1.5-0.7
								c-0.8-0.6-1.8-1-2.8-1.1c-0.8-0.1-0.9-0.5-0.3,0.8s0.7,1.8,0.1,2.1s-0.7,1.3-1.5,0.6s-1.5-1.4-1.7-0.8
								c-0.3,0.7-0.1,1.4,0.5,1.8c1.2,0.7,2.2,1.6,3.2,2.5c0.7,0.9,0.7,0,1.2-0.3s1.5,0.7,2.5,1.3s1.5,0.6,1.3,1.6
								c-0.1,1-1,2.7,0,2.8c0.9,0,1.7,0.1,2.6,0.4c0.5,0.3-0.1,0.6,0.3,1.7c0.2,1,0.9,2,1.7,2.6c0,0-0.5,3.3,0.3,4.5
								s1.6,3.3,2.2,4.1c0.6,0.7,2.1,2.1,1.6,3c-0.8,1.2-1.6,2.4-2.2,3.7c-0.2,0.8-0.7,2.5,0.2,2.5c1,0,2.1-2,3.1-4
								c1.1-2,2.9-3.4,4-2.9c1.1,0.5,1.2,1.3,2.1,1.4c1-0.1,1.9,0,2.9,0c0.6,0.2,0.9,0.9,1.1,1.9s2.4,8.2,0.4,10.1
								c-1.4,1.2-3.2,1.7-5.1,1.5c0,0-1.4-3.6-2.8-2.7s-0.4,2.3-0.5,3.6c-0.2,1.2-0.5,2.4-1,3.5c-1.2,0-2.3,0.1-3.4,0.3
								c-0.7,0.3-0.9,0.4-1,2.1c-0.1,1.7,0,2.1-1.3,3.1c-1.4,0.9-1.6,1.7-2.4,1.7c-0.8,0-2.2-0.1-2.6,0.5c-0.3,0.4-0.7,0.6-1.2,0.6
								c0,0-1.2-0.1-1.4-0.5c-0.2-0.3,1.1-0.8,0.4-1.7s-0.9-1-1.7-2.1c-0.8-1-0.9-1.8-1.3-1.6c-0.4,0.2-0.8,0.5-0.1,1.5
								c0.7,0.9,0.1,2-0.6,1.8c-0.6-0.1-0.9-0.7-0.8-1.3c0,0,0,0,0,0l0,0c0-0.1,0.1-0.3,0.2-0.4c0.4-0.4-0.5-0.9-1.2-0.1
								s-1,2-2.8,1.2c-1.8-0.8-3.4-1.6-4.2-1.3c-0.8,0.3-2.1,0.6-2.3,2.4c-0.2,1.7-2.4,2.9-4.7,3.1s-3.3-0.6-4.3,0
								c-1,0.6-2.1,1-2.2,2.6s-0.6,2.3-2.6,2.3S70.6,95.8,69,96c-1.6,0.1-5.1-0.5-6.6,1.7c-1.5,2.2,1.2,5.5,2.8,6.7
								c0,0,0.3,4.6,2.2,6.2c1.3,1,2.5,2.2,3.6,3.4c0.8,1.9,2.9,3.1,5,2.9c4,0.2,7.4,1,9.8-2.2c2.3-3.2,3.2-4.2,6-5.1
								c4.3-1.6,7.7-4.9,9.6-9.1c1.6-4.6-0.4-6.4,1.4-7.9s2.5-1.6,3.1-1.3c0.6,0.3,3.5-1.4,5.2-3c2.6-2.2,5.3-4.2,8.2-5.9
								c0.9-0.4,1.9-0.7,2.8-0.9c1.9-0.5,3.6-1.4,5-2.8c0.9-1.2,2.1-2.2,3.5-2.8c1.1-0.8,2-1.9,2.5-3.2c0.4-0.9,1.1-1.7,1.9-2.3
								c0.9-0.1,1.7-0.7,2-1.6c0.7-2.3,1-4.6,1-7c-0.2-2.3-0.2-4.7,0-7c0.2-3.8-0.2-7.7-1.2-11.4c-1-2.5-3.3-8.9-4-11.3
								c-0.8-2.7-2.1-5.2-3.9-7.5c-1.3-1.3-5.2-6.4-6.6-8.3c-1.8-2.5-4-4.7-6.5-6.4c-2.1-0.9-5.7-3.6-7.5-4.7s-5.9-3.1-7.6-4
								C97.1-0.5,93.3-1.7,89.4-2.4z"/>
							<path id="Path_2010" class="st12" d="M71.9-2.2c0,0,0.2,2-1.3,2.6c-1.5,0.6-2.6,0.1-4.1,1.3C65,3,65.3,3.5,63.9,3.4
								c-1.4-0.1-2-0.2-2.5,1.3s-1.1,3.2-3.4,3c-2.4-0.2-2.4,0.7-3.1,1.5c-0.8,0.8-1,2.2-1.7,1.3c-0.7-0.9-1-1.6-1.4-0.2
								c-0.2,1-0.9,1.9-1.8,2.3c-1.1,0.8-2.2,1.9-2.2,3.1s3-0.9,4.7-2.1s4.2-3,4.5-2.6s1.7,0.9,0.1,2.3c-1.6,1.4-2,1.6-2.5,3.3
								s-1,4.6-2.5,4.5s-2.5-1.7-2.7-0.6s-0.5,1.3-1.3,0.6c-0.8-0.8-1.7-2.5-2.4-2.2s-0.8,0.6-0.4,1.7s0.6,1.7,0.8,2.3
								s0.1,0.4-1.5,0.6c-1.6,0.1-1.3,0.6-1.5,1.7c0,0.8-0.4,1.6-1.1,2c-0.7,0.5-0.2,0.9,0.8,1.1s2,0.8,0.9,2.2
								c-1,1.5-2,3.1-2.8,4.8c-1,1.7-0.5,2.7-1.8,2.6s-2.6,1.1-3.1-1.5c-0.5-2.6-0.8-3.8,0-5.6c0.8-1.7,0.8-4.4-0.5-4
								c-1.3,0.4-2.5,1.3-3.4,2.4c-1.3,1.3-1.7,1.2-2.9,0.4c-0.6-0.4-1.2-0.9-1.7-1.5c-0.4-0.3-0.9,0.1-2.1,2.7s-2.9,6.6-2.9,6.6
								s2.9-3.8,3.8-3.2c0.9,0.6,1,1.4,0.2,2s-0.4,2.5,1.1,0.7s2-1.9,2.3-2.9c0.3-1,1.7-0.8,2.6,0.1c0.8,1-0.1,1.4,1.3,2.6
								s2.8,2.1,2.8,3.5c-0.2,2.5-0.1,5.1,0.3,7.6c0.6,0,1.2,0.6,1.3,2.7s0.2,4.7,0.4,6.1c0.3,1.4,0.3,2.8-0.1,4.2
								c-0.3,0.7-0.6,1.3-0.9,2c0,0-0.1,6.5-0.2,8.8c-0.2,2.7-1.4,5.3-3.4,7.2c-1.8,1.3-1.3,2.4-3.1,0.8c-1.3-1.4-2.5-2.8-3.7-4.3
								c-0.5-0.3-0.4,1.1,0.2,3.3c0.7,3.6,1.8,7,3.3,10.4c1.3,2,1.3,2.6,2.6,3.6c1.1,0.7,1.9,1.7,2.4,2.9c0.3,1.2,1,2.5,1.1,2.8
								s0.2,2.2,0.2,2.2c-2.9-1.7-5.3-4.1-7.1-7c-4-5.2-7.2-11-9.5-17.2c-1.6-6.2-2.6-12.5-2.9-18.8c0-5.7,0.8-11.3,2.2-16.8
								c2.1-5.9,4.8-11.5,8.1-16.9c4.5-6.3,10-11.8,16.2-16.3c5-3.5,10.6-6.2,16.4-8C63.9-1.7,67.9-2.3,71.9-2.2z"/>
						</g>
					</g>
				</g>
			</g>
		</g>
	</g>
</g>
<g id="Layer_103" transform="translate(0 89.27)">
	<g id="Group_5939">
		<path id="Path_2043" class="st13" d="M0,115.4c18.1,0,94.1,0.6,99-1.1s0.8-17.4-2.4-28.7s25.9-47.9,31-60.6
			c-5.8,20-24.8,49.3-17.7,64.6s14.5,27.3,24.2,31.3s285.4-9.1,371.4,39.2c-55.6-18.9-232.3-24.7-304-4.9c-14.2,8.7,35,56.2,35,56.2
			c-29.1-24-48.8-45.8-66.9-49.1S0.9,162.4,0.9,162.4"/>
		<path id="Path_2044" class="st13" d="M433.7,138.8c21.6,4.1,31.7,33.8,34.3,51.6c-5.2-17.3-29.6-43-47.1-51"/>
		<path id="Path_2045" class="st14" d="M180.2,124.2c-21.7-1.1-48,6.6,0,7.2C281.4,132.5,269.5,128.8,180.2,124.2z"/>
		<g id="Group_5940" transform="translate(88.451)">
			<path id="Path_2046" class="st15" d="M39,25.5L39,25.5C32.6,13.5,38.2,2.1,51.7,0l0,0C58.2,12,52.5,23.4,39,25.5z"/>
			<path id="Path_2047" class="st15" d="M20.5,55.5L20.5,55.5C7.1,57.8-1.9,48.8,0.4,35.4l0,0C13.8,33.1,22.8,42.1,20.5,55.5z"/>
			<path id="Path_2048" class="st15" d="M168,231.7L168,231.7c-13.4,2.3-22.4-6.7-20.1-20.1l0,0C161.3,209.3,170.4,218.3,168,231.7z
				"/>
			<path id="Path_2049" class="st16" d="M134.4,222.4L134.4,222.4c-1.1-8.4,4.7-13.7,13-11.9l0,0
				C148.5,218.8,142.7,224.2,134.4,222.4z"/>
			<path id="Path_2050" class="st15" d="M38.9,25.2L38.9,25.2c7.6-3.7,14.5,0,15.5,8.4l0,0C46.8,37.3,39.9,33.5,38.9,25.2z"/>
			<path id="Path_2051" class="st16" d="M18,11.8L18,11.8c11.2-4.4,20.6,1.8,21,13.8l0,0C27.7,30,18.3,23.8,18,11.8z"/>
			<path id="Path_2052" class="st16" d="M414.5,160.1L414.5,160.1c17.9-9.6,34.8-1.1,37.9,19l0,0
				C434.5,188.6,417.5,180.2,414.5,160.1z"/>
			<path id="Path_2053" class="st15" d="M414.9,159.9L414.9,159.9c5.5,11.3-0.1,21.6-12.5,23l0,0
				C396.9,171.7,402.5,161.4,414.9,159.9z"/>
			<path id="Path_2054" class="st15" d="M434.9,128.8L434.9,128.8c6.5,16.7-2.8,30.6-20.7,31.1l0,0
				C407.8,143.3,417,129.3,434.9,128.8z"/>
		</g>
	</g>
</g>
</svg>
