<svg xmlns="http://www.w3.org/2000/svg" xmlns:xlink="http://www.w3.org/1999/xlink" width="34.516" height="40.873" viewBox="0 0 34.516 40.873">
  <defs>
    <linearGradient id="linear-gradient" y1="0.5" x2="1" y2="0.5" gradientUnits="objectBoundingBox">
      <stop offset="0" stop-color="#e7f0f4"/>
      <stop offset="0.885" stop-color="#f6fcff"/>
    </linearGradient>
  </defs>
  <g id="owl_bordered" transform="translate(0 0)">
    <circle id="Ellipse_92" data-name="Ellipse 92" cx="8" cy="8" r="8" transform="translate(0.807 5.188)" fill="#fff"/>
    <path id="Path_2015" data-name="Path 2015" d="M7.836,0a7.836,7.836,0,0,1,7.836,7.836A8.229,8.229,0,0,1,15.4,9.885,7.837,7.837,0,1,1,7.836,0Z" transform="translate(16.926 5.01)" fill="#fff"/>
    <g id="Group_463" data-name="Group 463" transform="translate(0)">
      <g id="Group_449" data-name="Group 449" transform="translate(0)">
        <g id="Group_5902" data-name="Group 5902" transform="translate(0)">
          <path id="Path_2003" data-name="Path 2003" d="M236.658,125.752" transform="translate(-219.319 -125.752)" fill="#1388c6"/>
          <g id="Group_5901" data-name="Group 5901" transform="translate(0 1.279)">
            <rect id="Rectangle_1597" data-name="Rectangle 1597" width="7.509" height="2.095" transform="translate(17.986 33.82)" fill="#00233f"/>
            <path id="Union_10" data-name="Union 10" d="M0,21.29a14.6,14.6,0,0,1,2.574-8.3L2.559,0C9.752,3.67,18.031,4.757,25.788.257l0,11.462A14.7,14.7,0,0,1,29,24.437V35.959H21.652a10.215,10.215,0,0,1-3.169-.5A14.68,14.68,0,0,1,0,21.29Z" transform="translate(2.556)" fill="#00233f" stroke="#fff" stroke-miterlimit="10" stroke-width="1"/>
            <path id="Path_2006" data-name="Path 2006" d="M335,277.579" transform="translate(-300.488 -252.346)" fill="#133c51"/>
            <g id="Group_5895" data-name="Group 5895" transform="translate(0 5.079)">
              <circle id="Ellipse_86" data-name="Ellipse 86" cx="12.203" cy="12.203" r="12.203" transform="translate(0 17.258) rotate(-45)" fill="#0b84c7"/>
              <g id="Group_5894" data-name="Group 5894" transform="translate(17.515 5.058)" opacity="0.2" style="mix-blend-mode: multiply;isolation: isolate">
                <path id="Path_2007" data-name="Path 2007" d="M249.612,203.324a12.2,12.2,0,0,0-11.946-12.2,4.771,4.771,0,0,0,.9,1.515,4.5,4.5,0,0,1,1.2,1.785c.108.477.013.987.157,1.454a2.2,2.2,0,0,0,1.8,1.334,1.288,1.288,0,0,1,.819.319c.278.339.071.861.208,1.277.249.753,1.475.857,1.638,1.633.186.883-1.228,1.537-.987,2.407.073.265.3.487.294.762-.007.405-.483.618-.7.963-.332.538.042,1.221.407,1.738l1.119,1.586c.4.563.81,1.284.495,1.9-.236.459-.805.665-1.056,1.116a2.011,2.011,0,0,0-.021,1.429l.262,1.117A12.191,12.191,0,0,0,249.612,203.324Z" transform="translate(-237.666 -191.124)" fill="#0c62ae"/>
              </g>
              <path id="Path_2008" data-name="Path 2008" d="M182.4,213.918c-.032-.413-.113-.913.215-1.165.111-.085.258-.128.338-.242.151-.214-.034-.511-.25-.658s-.487-.253-.6-.489a2.013,2.013,0,0,1-.042-.776c-.043-.8-.964-1.228-1.756-1.328a3.865,3.865,0,0,1-2.264-.63,7.308,7.308,0,0,0-.577-.611c-.853-.635-2.13.263-3.109-.153a.6.6,0,0,1-.418-.6c.027-.135.126-.253.128-.39,0-.282-.356-.386-.6-.521a1.278,1.278,0,0,1-.547-1.388,2.392,2.392,0,0,1,.894-1.291c.51-.411,1.188-.859,1.1-1.508-.026-.2-.127-.385-.153-.585-.126-.988,1.481-1.383,1.637-2.367a2.906,2.906,0,0,0-.149-1.01.912.912,0,0,1,.242-.939c.17-.119.405-.138.543-.292a1.055,1.055,0,0,0,.171-.452c.268-1,1.533-1.535,1.67-2.56a2.231,2.231,0,0,0-.736-1.7,10.326,10.326,0,0,1-.771-.848,12.2,12.2,0,0,0-8.81,19.209,5.207,5.207,0,0,1,1.746.33,3.448,3.448,0,0,1,1.055.938,20.426,20.426,0,0,1,1.887,2.683,12.24,12.24,0,0,0,9,.61A3.261,3.261,0,0,0,182.4,213.918Z" transform="translate(-161.254 -186.305)" fill="#0c62ae" opacity="0.2" style="mix-blend-mode: multiply;isolation: isolate"/>
              <path id="Path_2009" data-name="Path 2009" d="M175.373,190.677s.287-.082.371.054-.127.168-.275.2-.337.021-.1.192.652.221.883.622.482.4.211.813-.6.943-.546,1.254.2,1.074-.428.632a1.963,1.963,0,0,1-.873-1.375,3.421,3.421,0,0,0-.522-1.054c-.141-.251-.231-.472-.361-.422a1.684,1.684,0,0,0-.522.341c-.05.09,0,.151.171.351s.331.13.15.442-.15.191.03.381.421.311.2.612-.371.461-.281.7.123.5-.29.281a2.239,2.239,0,0,1-.885-.753c-.04-.161.08-.1.231-.231a.76.76,0,0,0,.171-.592c-.01-.2-.181-.241-.281-.261s-.14.06-.191.361a.477.477,0,0,1-.452.452s.211.512,0,.642a1,1,0,0,1-.712.08,5.782,5.782,0,0,0-.482.471c-.171.2-.281.321-.341.381s-.171.11-.13.421.05.411.321.5a.756.756,0,0,1,.522.582,3.286,3.286,0,0,1,.09.743c-.01.09.181.161.2-.12a1.42,1.42,0,0,1,.251-.813,1.24,1.24,0,0,0,.13-.9,1.058,1.058,0,0,1,.13-.692c.08-.13.321-.421.552-.251s.522.311.572.492.08.351.08.351.159-.361.376-.341a.4.4,0,0,1,.357.341,1.458,1.458,0,0,0,.4.572,4.874,4.874,0,0,1,.432.672,1.917,1.917,0,0,1,.271.472c.01.06-.221.02-.492.1s-.311.261-.632.331-.672.08-.863.341-.361.311-.211.442.181-.02.311-.141a1.183,1.183,0,0,1,.562-.221c.16-.02.191-.1.06.16s-.15.371-.02.442.141.261.311.12.311-.281.341-.171a.285.285,0,0,1-.11.371,3.168,3.168,0,0,0-.652.522c-.151.191-.151,0-.251-.06s-.311.15-.5.271-.3.12-.271.321.2.552-.01.562a1.383,1.383,0,0,0-.522.08c-.1.06.01.12-.06.341a.928.928,0,0,1-.351.532s.1.682-.06.913-.321.682-.452.833-.441.421-.321.612a4.8,4.8,0,0,1,.452.753c.04.16.151.5-.05.512s-.421-.411-.642-.813-.592-.693-.823-.592-.241.271-.442.291a3.734,3.734,0,0,0-.592.01c-.131.05-.191.191-.231.381s-.482,1.676-.09,2.057a1.423,1.423,0,0,0,1.034.311s.291-.743.572-.542.09.462.1.743a2.548,2.548,0,0,0,.2.713,2.837,2.837,0,0,1,.7.06c.15.07.181.09.211.442s-.01.442.271.632.321.341.482.341.449-.01.54.11a.329.329,0,0,0,.242.12s.241-.03.291-.1-.221-.171-.08-.341.181-.211.351-.421.181-.371.261-.331.171.11.03.3-.03.4.13.371a.221.221,0,0,0,.131-.341c-.09-.09.1-.181.251-.02s.2.4.572.241.692-.331.853-.271.441.131.471.482.492.6.953.632.677-.12.88,0,.424.211.444.532.12.462.522.472.6.08.923.11,1.034-.1,1.345.341-.251,1.124-.582,1.375c0,0-.07.943-.452,1.264a5.049,5.049,0,0,0-.733.7.983.983,0,0,1-1.013.582c-.813.04-1.515.2-2-.452s-.662-.863-1.224-1.034a3.523,3.523,0,0,1-1.967-1.856c-.331-.933.09-1.315-.281-1.626s-.512-.321-.632-.261-.712-.291-1.074-.612a11.138,11.138,0,0,0-1.686-1.214,6.044,6.044,0,0,0-.582-.191,2.449,2.449,0,0,1-1.024-.562,2.144,2.144,0,0,0-.712-.582,1.468,1.468,0,0,1-.512-.662.976.976,0,0,0-.391-.461.477.477,0,0,1-.411-.321,4.414,4.414,0,0,1-.2-1.435,11.049,11.049,0,0,0,0-1.435,7.791,7.791,0,0,1,.242-2.338c.211-.5.672-1.816.823-2.308a4.834,4.834,0,0,1,.793-1.525c.261-.261,1.064-1.315,1.355-1.706a5.027,5.027,0,0,1,1.335-1.314c.421-.191,1.174-.743,1.535-.963s1.2-.632,1.545-.823A12.006,12.006,0,0,1,175.373,190.677Z" transform="translate(-160.499 -185.677)" fill="#2ab3de"/>
              <path id="Path_2010" data-name="Path 2010" d="M243.1,190.944s-.043.414.257.543.542.029.841.271.242.356.527.328.4-.043.52.271.221.656.705.613.485.142.641.313.214.456.356.271.2-.328.285-.043a.661.661,0,0,0,.371.47c.228.157.456.385.442.627s-.613-.185-.955-.428-.855-.613-.912-.527-.356.185-.029.47.4.328.5.684.2.941.5.912.5-.342.556-.114.1.273.271.115.342-.514.485-.443.157.114.085.356-.114.356-.157.47-.014.085.314.114.271.128.314.356a.52.52,0,0,0,.228.413c.143.1.043.185-.171.228s-.413.157-.185.456a8.1,8.1,0,0,1,.57.983c.2.356.1.556.371.542s.527.228.627-.3.171-.784,0-1.14-.164-.9.1-.827a1.5,1.5,0,0,1,.695.485c.271.271.356.242.6.071a1.949,1.949,0,0,0,.356-.3c.071-.071.185.028.442.556s.6,1.354.6,1.354-.6-.784-.784-.656-.214.285-.043.4.071.5-.228.143-.4-.385-.47-.6-.356-.171-.527.029.014.285-.257.542-.57.428-.57.713a6.38,6.38,0,0,1-.057,1.553c-.114,0-.242.128-.257.556s-.043.96-.086,1.25a1.924,1.924,0,0,0,.014.86,2.874,2.874,0,0,0,.185.4s.014,1.326.043,1.8a2.341,2.341,0,0,0,.7,1.482c.371.271.271.485.627.171a11.417,11.417,0,0,0,.755-.884c.1-.071.085.228-.043.67a11.133,11.133,0,0,1-.67,2.124c-.271.4-.271.527-.542.741a1.164,1.164,0,0,0-.485.6c-.071.242-.214.5-.228.57s-.044.454-.044.454a4.438,4.438,0,0,0,1.455-1.423,12.856,12.856,0,0,0,1.938-3.52,18.873,18.873,0,0,0,.6-3.848,14.13,14.13,0,0,0-.456-3.449,17.681,17.681,0,0,0-1.653-3.449,14.374,14.374,0,0,0-3.321-3.335,12.016,12.016,0,0,0-3.364-1.639A6.054,6.054,0,0,0,243.1,190.944Z" transform="translate(-224.638 -185.89)" fill="#2ab3de"/>
            </g>
            <circle id="Ellipse_87" data-name="Ellipse 87" cx="11.974" cy="11.974" r="11.974" transform="translate(6.023 11.004)" fill="none"/>
            <path id="Path_2011" data-name="Path 2011" d="M223.806,207.274l-2.267-3.034a.2.2,0,0,0-.173-.137l-2.19,2.966a.682.682,0,0,0,0,.811l2.19,2.966a.207.207,0,0,0,.173-.139l2.267-3.034A.487.487,0,0,0,223.806,207.274Z" transform="translate(-204.779 -191.7)" fill="#00233f"/>
            <circle id="Ellipse_88" data-name="Ellipse 88" cx="7.444" cy="7.444" r="7.444" transform="translate(1.908 4.258)" fill="#00233f"/>
            <g id="Group_5896" data-name="Group 5896" transform="translate(3.569 5.914)">
              <circle id="Ellipse_89" data-name="Ellipse 89" cx="5.783" cy="5.783" r="5.783" fill="url(#linear-gradient)"/>
              <path id="Path_2012" data-name="Path 2012" d="M180.942,187.124a1.991,1.991,0,0,0-1.063.31.6.6,0,0,1-.8.889,2.379,2.379,0,0,0-.248,1.063,2.116,2.116,0,1,0,2.111-2.262Z" transform="translate(-175.159 -183.6)" fill="#00233f"/>
            </g>
            <circle id="Ellipse_90" data-name="Ellipse 90" cx="7.444" cy="7.444" r="7.444" transform="translate(16.666 4.258)" fill="#00233f"/>
            <g id="Group_5898" data-name="Group 5898" transform="translate(18.327 5.914)">
              <circle id="Ellipse_91" data-name="Ellipse 91" cx="5.783" cy="5.783" r="5.783" fill="url(#linear-gradient)"/>
              <path id="Path_2013" data-name="Path 2013" d="M265.458,187.124a1.992,1.992,0,0,0-1.063.31.6.6,0,0,1-.8.889,2.38,2.38,0,0,0-.248,1.063,2.116,2.116,0,1,0,2.111-2.262Z" transform="translate(-259.675 -183.6)" fill="#00233f"/>
            </g>
            <path id="Path_2014" data-name="Path 2014" d="M283.307,307.787a8.075,8.075,0,0,0,4.874-4.818v4.818Z" transform="translate(-257.822 -273.302)" fill="#2ab3de"/>
          </g>
        </g>
      </g>
    </g>
  </g>
</svg>
