<?xml version="1.0" encoding="utf-8"?>
<!-- Generator: Adobe Illustrator 23.0.1, SVG Export Plug-In . SVG Version: 6.00 Build 0)  -->
<svg version="1.1" id="Layer_1" xmlns="http://www.w3.org/2000/svg" xmlns:xlink="http://www.w3.org/1999/xlink" x="0px" y="0px"
	 viewBox="0 0 393 715" style="enable-background:new 0 0 393 715;" xml:space="preserve">
<style type="text/css">
	.st0{fill:#B4D2EC;}
	.st1{fill:#F6FCFF;}
	.st2{fill:#FFFFFF;}
	.st3{enable-background:new    ;}
	.st4{fill:#00233F;}
	.st5{fill:none;}
	.st6{clip-path:url(#SVGID_2_);fill:#FFFFFF;}
	.st7{clip-path:url(#SVGID_2_);fill:#FEFFFF;}
	.st8{clip-path:url(#SVGID_2_);fill:#FDFEFF;}
	.st9{clip-path:url(#SVGID_2_);fill:#FCFEFF;}
	.st10{clip-path:url(#SVGID_2_);fill:#FBFEFF;}
	.st11{clip-path:url(#SVGID_2_);fill:#F9FDFF;}
	.st12{clip-path:url(#SVGID_2_);fill:#F8FDFF;}
	.st13{clip-path:url(#SVGID_2_);fill:#F7FCFF;}
	.st14{clip-path:url(#SVGID_2_);fill:#F6FCFF;}
	.st15{clip-path:url(#SVGID_4_);fill:#FFFFFF;}
	.st16{clip-path:url(#SVGID_4_);fill:#FEFFFF;}
	.st17{clip-path:url(#SVGID_4_);fill:#FDFEFF;}
	.st18{clip-path:url(#SVGID_4_);fill:#FCFEFF;}
	.st19{clip-path:url(#SVGID_4_);fill:#FBFEFF;}
	.st20{clip-path:url(#SVGID_4_);fill:#F9FDFF;}
	.st21{clip-path:url(#SVGID_4_);fill:#F8FDFF;}
	.st22{clip-path:url(#SVGID_4_);fill:#F7FCFF;}
	.st23{clip-path:url(#SVGID_4_);fill:#F6FCFF;}
	.st24{fill:#DEEDFA;}
	.st25{fill-rule:evenodd;clip-rule:evenodd;fill:#FFFFFF;}
</style>
<g id="phone1" transform="translate(34.5 25.5)">
	<g id="Ellipse_95">
		<circle class="st0" cx="162" cy="366" r="137"/>
	</g>
	<g transform="matrix(1, 0, 0, 1, -34.5, -25.5)">
		
			<image style="overflow:visible;enable-background:new    ;" width="324" height="646" id="Asset_1-2" xlink:href="BC253E04.png"  transform="matrix(1 0 0 1 34.5 25.5)">
		</image>
	</g>
	<g id="Group_6653" transform="translate(-1011.417 52)">
		<g id="Rectangle_1598">
			<path class="st1" d="M1058.5-36h230.8c18.3,0,33.1,14.8,33.1,33.1v546.8c0,18.3-14.8,33.1-33.1,33.1h-230.8
				c-18.3,0-33.1-14.8-33.1-33.1V-2.9C1025.4-21.2,1040.2-36,1058.5-36z"/>
		</g>
		<g id="Path_3466">
			<path class="st2" d="M1269.4-45h-191v9h3.2c3.8,0,6.8,3.1,6.8,6.8v2.6c0,8.6,7,15.6,15.6,15.6h139.8c8.6,0,15.6-7,15.6-15.6v-2.6
				c0-3.8,3.1-6.8,6.8-6.8h3.2V-45z"/>
		</g>
	</g>
	<g id="Group_6694" transform="translate(-1058 -236)">
		<g transform="matrix(1, 0, 0, 1, 1023.5, 210.5)">
			<g id="Path_14-2">
				<path class="st2" d="M77.6,73.9h239.7c10.6,0,19.1,8.3,19.1,18.6s-8.6,18.6-19.1,18.6H77.6c-10.6,0-19.1-8.3-19.1-18.6
					S67.1,73.9,77.6,73.9z"/>
			</g>
		</g>
		<g class="st3">
			<path class="st4" d="M1123.6,300.1h1v2.5l0,0.7h0c0.2-0.3,0.4-0.5,0.7-0.7c0.3-0.2,0.7-0.3,1-0.3c0.7,0,1.2,0.2,1.5,0.6
				c0.4,0.4,0.5,0.9,0.5,1.6v3.4h-1v-3.2c0-1-0.4-1.5-1.3-1.5c-0.4,0-0.8,0.2-1,0.5c-0.3,0.3-0.4,0.7-0.4,1.2v2.9h-1V300.1z"/>
			<path class="st4" d="M1135.2,308.1c-0.4,0-0.8-0.1-1.1-0.4c-0.3-0.3-0.4-0.6-0.4-1.1v-3h-2.5v2.7c0,0.3,0.1,0.5,0.2,0.7
				c0.1,0.1,0.3,0.2,0.5,0.2c0.2,0,0.3,0,0.5-0.1l0.3,0.9c-0.3,0.1-0.6,0.1-0.9,0.1c-0.4,0-0.8-0.1-1.1-0.4
				c-0.3-0.3-0.4-0.6-0.4-1.1v-3h-0.9v-0.9h0.9V301h1v1.7h2.5V301h1v1.7h1.3v0.9h-1.3v2.7c0,0.4,0.1,0.6,0.2,0.7
				c0.1,0.1,0.3,0.2,0.5,0.2c0.1,0,0.2,0,0.2,0c0.1,0,0.1,0,0.2-0.1l0.3,0.9C1135.8,308,1135.5,308.1,1135.2,308.1z"/>
			<path class="st4" d="M1140,308.2c-0.4,0-0.8-0.1-1.1-0.3s-0.6-0.4-0.8-0.7h0l0,0.7v2.4h-1v-7.8h1v0.7h0c0.2-0.3,0.4-0.5,0.8-0.7
				c0.3-0.2,0.7-0.3,1.1-0.3c0.7,0,1.3,0.3,1.8,0.8c0.5,0.6,0.8,1.2,0.8,2c0,0.8-0.3,1.5-0.8,2
				C1141.3,307.9,1140.7,308.2,1140,308.2z M1139.9,307.3c0.5,0,0.9-0.2,1.2-0.5c0.3-0.4,0.5-0.8,0.5-1.4c0-0.6-0.2-1-0.5-1.4
				c-0.3-0.4-0.7-0.5-1.2-0.5c-0.5,0-0.9,0.2-1.2,0.5c-0.3,0.4-0.5,0.8-0.5,1.4c0,0.6,0.2,1,0.5,1.4
				C1138.9,307.1,1139.4,307.3,1139.9,307.3z"/>
			<path class="st4" d="M1145.1,303.3c0,0.2-0.1,0.4-0.2,0.5s-0.3,0.2-0.5,0.2c-0.2,0-0.4-0.1-0.5-0.2c-0.1-0.1-0.2-0.3-0.2-0.5
				c0-0.2,0.1-0.4,0.2-0.5c0.1-0.1,0.3-0.2,0.5-0.2c0.2,0,0.4,0.1,0.5,0.2C1145.1,302.9,1145.1,303.1,1145.1,303.3z M1145.1,307.3
				c0,0.2-0.1,0.4-0.2,0.5c-0.1,0.1-0.3,0.2-0.5,0.2c-0.2,0-0.4-0.1-0.5-0.2c-0.1-0.1-0.2-0.3-0.2-0.5c0-0.2,0.1-0.4,0.2-0.5
				c0.1-0.1,0.3-0.2,0.5-0.2c0.2,0,0.4,0.1,0.5,0.2C1145.1,306.9,1145.1,307.1,1145.1,307.3z"/>
			<path class="st4" d="M1150.4,300.1l-3.3,7.9h-0.9l3.3-7.9H1150.4z"/>
			<path class="st4" d="M1153.3,300.1l-3.3,7.9h-0.9l3.3-7.9H1153.3z"/>
			<path class="st4" d="M1161.8,302.6l-1.7,5.4h-1l-1.3-4.1l-1.3,4.1h-1l-1.7-5.4h1.1l1.2,4.1h0l1.3-4.1h1l1.3,4.1h0l1.2-4.1H1161.8
				z"/>
			<path class="st4" d="M1170.3,302.6l-1.7,5.4h-1l-1.3-4.1l-1.3,4.1h-1l-1.7-5.4h1.1l1.2,4.1h0l1.3-4.1h1l1.3,4.1h0l1.2-4.1H1170.3
				z"/>
			<path class="st4" d="M1178.8,302.6l-1.7,5.4h-1l-1.3-4.1l-1.3,4.1h-1l-1.7-5.4h1.1l1.2,4.1h0l1.3-4.1h1l1.3,4.1h0l1.2-4.1H1178.8
				z"/>
			<path class="st4" d="M1180.7,307.3c0,0.2-0.1,0.4-0.2,0.5c-0.1,0.1-0.3,0.2-0.5,0.2c-0.2,0-0.4-0.1-0.5-0.2
				c-0.1-0.1-0.2-0.3-0.2-0.5c0-0.2,0.1-0.4,0.2-0.5c0.1-0.1,0.3-0.2,0.5-0.2c0.2,0,0.4,0.1,0.5,0.2
				C1180.7,306.9,1180.7,307.1,1180.7,307.3z"/>
			<path class="st4" d="M1183.1,308h-1v-5.4h1v0.7h0c0.2-0.3,0.4-0.5,0.7-0.7c0.3-0.2,0.6-0.3,1-0.3c0.4,0,0.7,0.1,1,0.3
				s0.5,0.4,0.7,0.8c0.4-0.7,1.1-1,1.9-1c0.6,0,1.1,0.2,1.4,0.6c0.3,0.4,0.5,0.9,0.5,1.6v3.4h-1v-3.2c0-0.5-0.1-0.9-0.3-1.1
				c-0.2-0.2-0.5-0.3-0.9-0.3c-0.4,0-0.7,0.2-1,0.5c-0.3,0.3-0.4,0.7-0.4,1.2v3h-1v-3.2c0-0.5-0.1-0.9-0.3-1.1
				c-0.2-0.2-0.5-0.3-0.9-0.3c-0.4,0-0.7,0.2-1,0.5c-0.3,0.3-0.4,0.7-0.4,1.2V308z"/>
			<path class="st4" d="M1193.7,302.4c0.7,0,1.3,0.2,1.8,0.6c0.4,0.4,0.6,0.9,0.6,1.6v3.3h-1v-0.7h0c-0.4,0.6-1,0.9-1.7,0.9
				c-0.6,0-1.1-0.2-1.5-0.5c-0.4-0.4-0.6-0.8-0.6-1.3c0-0.6,0.2-1,0.6-1.3s1-0.5,1.7-0.5c0.6,0,1.1,0.1,1.5,0.3v-0.2
				c0-0.4-0.1-0.7-0.4-0.9c-0.3-0.2-0.6-0.4-1-0.4c-0.6,0-1,0.2-1.3,0.7l-0.9-0.6C1192,302.8,1192.7,302.4,1193.7,302.4z
				 M1192.4,306.3c0,0.3,0.1,0.5,0.3,0.7s0.5,0.3,0.8,0.3c0.4,0,0.8-0.2,1.1-0.5c0.3-0.3,0.5-0.7,0.5-1.1c-0.3-0.3-0.8-0.4-1.3-0.4
				c-0.4,0-0.8,0.1-1,0.3C1192.5,305.8,1192.4,306.1,1192.4,306.3z"/>
			<path class="st4" d="M1201.6,306.5c0,0.5-0.2,0.9-0.6,1.2c-0.4,0.3-0.9,0.5-1.6,0.5c-0.5,0-1-0.1-1.4-0.4s-0.7-0.7-0.9-1.1
				l0.9-0.4c0.1,0.3,0.3,0.6,0.6,0.8s0.5,0.3,0.8,0.3c0.3,0,0.6-0.1,0.8-0.2c0.2-0.1,0.3-0.3,0.3-0.5c0-0.3-0.3-0.6-0.8-0.8
				l-0.9-0.2c-1-0.3-1.6-0.8-1.6-1.5c0-0.5,0.2-0.9,0.6-1.2c0.4-0.3,0.9-0.4,1.5-0.4c0.5,0,0.9,0.1,1.3,0.3c0.4,0.2,0.7,0.5,0.8,0.9
				l-0.9,0.4c-0.1-0.2-0.3-0.4-0.5-0.5c-0.2-0.1-0.5-0.2-0.8-0.2c-0.3,0-0.5,0.1-0.7,0.2s-0.3,0.3-0.3,0.5c0,0.3,0.3,0.5,0.9,0.7
				l0.8,0.2C1201,305.2,1201.6,305.7,1201.6,306.5z"/>
			<path class="st4" d="M1204.7,308.1c-0.4,0-0.8-0.1-1.1-0.4c-0.3-0.3-0.4-0.6-0.4-1.1v-3h-0.9v-0.9h0.9V301h1v1.7h1.3v0.9h-1.3
				v2.7c0,0.4,0.1,0.6,0.2,0.7c0.1,0.1,0.3,0.2,0.5,0.2c0.1,0,0.2,0,0.2,0c0.1,0,0.1,0,0.2-0.1l0.3,0.9
				C1205.4,308,1205.1,308.1,1204.7,308.1z"/>
			<path class="st4" d="M1209.1,308.2c-0.8,0-1.4-0.3-2-0.8c-0.5-0.5-0.8-1.2-0.8-2.1c0-0.8,0.2-1.5,0.7-2.1
				c0.5-0.5,1.1-0.8,1.9-0.8c0.8,0,1.4,0.3,1.9,0.8c0.5,0.5,0.7,1.2,0.7,2.2l0,0.1h-4.2c0,0.5,0.2,1,0.5,1.3
				c0.3,0.3,0.7,0.5,1.2,0.5c0.6,0,1.2-0.3,1.5-1l0.9,0.4c-0.2,0.5-0.6,0.8-1,1.1C1210.1,308,1209.6,308.2,1209.1,308.2z
				 M1207.5,304.7h3.1c0-0.4-0.2-0.7-0.5-0.9c-0.3-0.2-0.6-0.4-1.1-0.4c-0.4,0-0.7,0.1-1,0.4S1207.5,304.3,1207.5,304.7z"/>
			<path class="st4" d="M1213.8,308h-1v-5.4h1v0.9h0c0.1-0.3,0.3-0.5,0.6-0.7c0.3-0.2,0.6-0.3,0.9-0.3c0.3,0,0.5,0,0.7,0.1l-0.3,1
				c-0.1-0.1-0.3-0.1-0.6-0.1c-0.4,0-0.7,0.2-1,0.5c-0.3,0.3-0.4,0.7-0.4,1.1V308z"/>
			<path class="st4" d="M1219.9,308.2c-0.4,0-0.8-0.1-1.1-0.3s-0.6-0.4-0.8-0.7h0v0.7h-1v-7.9h1v2.5l0,0.7h0
				c0.2-0.3,0.4-0.5,0.8-0.7c0.3-0.2,0.7-0.3,1.1-0.3c0.7,0,1.3,0.3,1.8,0.8c0.5,0.6,0.8,1.2,0.8,2c0,0.8-0.3,1.5-0.8,2
				C1221.2,307.9,1220.6,308.2,1219.9,308.2z M1219.7,307.3c0.5,0,0.9-0.2,1.2-0.5c0.3-0.4,0.5-0.8,0.5-1.4c0-0.6-0.2-1-0.5-1.4
				c-0.3-0.4-0.7-0.5-1.2-0.5c-0.5,0-0.9,0.2-1.2,0.5c-0.3,0.4-0.5,0.8-0.5,1.4c0,0.6,0.2,1,0.5,1.4
				C1218.8,307.1,1219.2,307.3,1219.7,307.3z"/>
			<path class="st4" d="M1224.5,308h-1v-5.4h1v0.9h0c0.1-0.3,0.3-0.5,0.6-0.7c0.3-0.2,0.6-0.3,0.9-0.3c0.3,0,0.5,0,0.7,0.1l-0.3,1
				c-0.1-0.1-0.3-0.1-0.6-0.1c-0.4,0-0.7,0.2-1,0.5c-0.3,0.3-0.4,0.7-0.4,1.1V308z"/>
			<path class="st4" d="M1227.1,305.3c0-0.8,0.3-1.5,0.8-2.1c0.5-0.5,1.2-0.8,2-0.8c0.8,0,1.5,0.3,2,0.8c0.5,0.5,0.8,1.2,0.8,2.1
				c0,0.8-0.3,1.5-0.8,2.1c-0.5,0.5-1.2,0.8-2,0.8c-0.8,0-1.5-0.3-2-0.8C1227.3,306.8,1227.1,306.1,1227.1,305.3z M1228.1,305.3
				c0,0.6,0.2,1,0.5,1.4c0.3,0.4,0.8,0.5,1.3,0.5c0.5,0,0.9-0.2,1.3-0.5c0.3-0.4,0.5-0.8,0.5-1.4c0-0.6-0.2-1-0.5-1.4
				c-0.3-0.4-0.8-0.5-1.3-0.5c-0.5,0-0.9,0.2-1.3,0.5C1228.2,304.3,1228.1,304.7,1228.1,305.3z"/>
			<path class="st4" d="M1241.3,302.6l-1.7,5.4h-1l-1.3-4.1l-1.3,4.1h-1l-1.7-5.4h1.1l1.2,4.1h0l1.3-4.1h1l1.3,4.1h0l1.2-4.1H1241.3
				z"/>
			<path class="st4" d="M1246.3,306.5c0,0.5-0.2,0.9-0.6,1.2c-0.4,0.3-0.9,0.5-1.6,0.5c-0.5,0-1-0.1-1.4-0.4
				c-0.4-0.3-0.7-0.7-0.9-1.1l0.9-0.4c0.1,0.3,0.3,0.6,0.6,0.8c0.3,0.2,0.5,0.3,0.8,0.3c0.3,0,0.6-0.1,0.8-0.2
				c0.2-0.1,0.3-0.3,0.3-0.5c0-0.3-0.3-0.6-0.8-0.8l-0.9-0.2c-1-0.3-1.6-0.8-1.6-1.5c0-0.5,0.2-0.9,0.6-1.2c0.4-0.3,0.9-0.4,1.5-0.4
				c0.5,0,0.9,0.1,1.3,0.3c0.4,0.2,0.7,0.5,0.8,0.9l-0.9,0.4c-0.1-0.2-0.3-0.4-0.5-0.5c-0.2-0.1-0.5-0.2-0.8-0.2
				c-0.3,0-0.5,0.1-0.7,0.2s-0.3,0.3-0.3,0.5c0,0.3,0.3,0.5,0.9,0.7l0.8,0.2C1245.7,305.2,1246.3,305.7,1246.3,306.5z"/>
			<path class="st4" d="M1249.9,308.2c-0.8,0-1.4-0.3-2-0.8c-0.5-0.5-0.8-1.2-0.8-2.1c0-0.8,0.2-1.5,0.7-2.1
				c0.5-0.5,1.1-0.8,1.9-0.8c0.8,0,1.4,0.3,1.9,0.8c0.5,0.5,0.7,1.2,0.7,2.2l0,0.1h-4.2c0,0.5,0.2,1,0.5,1.3
				c0.3,0.3,0.7,0.5,1.2,0.5c0.6,0,1.2-0.3,1.5-1l0.9,0.4c-0.2,0.5-0.6,0.8-1,1.1C1250.9,308,1250.4,308.2,1249.9,308.2z
				 M1248.2,304.7h3.1c0-0.4-0.2-0.7-0.5-0.9c-0.3-0.2-0.6-0.4-1.1-0.4c-0.4,0-0.7,0.1-1,0.4S1248.3,304.3,1248.2,304.7z"/>
			<path class="st4" d="M1254.6,308h-1v-5.4h1v0.9h0c0.1-0.3,0.3-0.5,0.6-0.7c0.3-0.2,0.6-0.3,0.9-0.3c0.3,0,0.5,0,0.7,0.1l-0.3,1
				c-0.1-0.1-0.3-0.1-0.6-0.1c-0.4,0-0.7,0.2-1,0.5c-0.3,0.3-0.4,0.7-0.4,1.1V308z"/>
			<path class="st4" d="M1258.2,307.3c0,0.2-0.1,0.4-0.2,0.5c-0.1,0.1-0.3,0.2-0.5,0.2c-0.2,0-0.4-0.1-0.5-0.2
				c-0.1-0.1-0.2-0.3-0.2-0.5c0-0.2,0.1-0.4,0.2-0.5c0.1-0.1,0.3-0.2,0.5-0.2c0.2,0,0.4,0.1,0.5,0.2
				C1258.1,306.9,1258.2,307.1,1258.2,307.3z"/>
			<path class="st4" d="M1262,308.2c-0.8,0-1.5-0.3-2-0.8c-0.5-0.6-0.8-1.2-0.8-2.1c0-0.8,0.3-1.5,0.8-2.1c0.5-0.5,1.2-0.8,2-0.8
				c0.5,0,1,0.1,1.4,0.4c0.4,0.3,0.7,0.7,0.9,1.1l-0.9,0.4c-0.3-0.7-0.8-1-1.5-1c-0.5,0-0.9,0.2-1.2,0.6c-0.3,0.4-0.5,0.8-0.5,1.4
				c0,0.6,0.2,1,0.5,1.4c0.3,0.4,0.7,0.6,1.2,0.6c0.7,0,1.3-0.3,1.6-1l0.9,0.4c-0.2,0.5-0.5,0.9-0.9,1.1
				C1263.1,308,1262.6,308.2,1262,308.2z"/>
			<path class="st4" d="M1265.1,305.3c0-0.8,0.3-1.5,0.8-2.1c0.5-0.5,1.2-0.8,2-0.8s1.5,0.3,2,0.8c0.5,0.5,0.8,1.2,0.8,2.1
				c0,0.8-0.3,1.5-0.8,2.1c-0.5,0.5-1.2,0.8-2,0.8s-1.5-0.3-2-0.8C1265.4,306.8,1265.1,306.1,1265.1,305.3z M1266.2,305.3
				c0,0.6,0.2,1,0.5,1.4s0.8,0.5,1.3,0.5s0.9-0.2,1.3-0.5s0.5-0.8,0.5-1.4c0-0.6-0.2-1-0.5-1.4c-0.3-0.4-0.8-0.5-1.3-0.5
				s-0.9,0.2-1.3,0.5C1266.3,304.3,1266.2,304.7,1266.2,305.3z"/>
			<path class="st4" d="M1272.7,308h-1v-5.4h1v0.7h0c0.2-0.3,0.4-0.5,0.7-0.7s0.6-0.3,1-0.3c0.4,0,0.7,0.1,1,0.3s0.5,0.4,0.7,0.8
				c0.4-0.7,1.1-1,1.9-1c0.6,0,1.1,0.2,1.4,0.6c0.3,0.4,0.5,0.9,0.5,1.6v3.4h-1v-3.2c0-0.5-0.1-0.9-0.3-1.1
				c-0.2-0.2-0.5-0.3-0.9-0.3c-0.4,0-0.7,0.2-1,0.5c-0.3,0.3-0.4,0.7-0.4,1.2v3h-1v-3.2c0-0.5-0.1-0.9-0.3-1.1
				c-0.2-0.2-0.5-0.3-0.9-0.3c-0.4,0-0.7,0.2-1,0.5c-0.3,0.3-0.4,0.7-0.4,1.2V308z"/>
		</g>
		<g id="star_empty" transform="translate(1334 295.799)">
			<g id="Path_158" transform="translate(-203.865 -454.766)">
				<g>
					<path class="st5" d="M211.5,454.9l2.2,4.4c0,0.1,0.1,0.1,0.1,0.1l4.8,0.7c0.1,0,0.2,0.1,0.1,0.2c0,0,0,0.1,0,0.1l-3.5,3.4
						c0,0-0.1,0.1-0.1,0.2l0.8,4.8c0,0.1,0,0.2-0.1,0.2c0,0-0.1,0-0.1,0l-4.3-2.3c-0.1,0-0.1,0-0.2,0l-4.3,2.3c-0.1,0-0.2,0-0.2-0.1
						c0,0,0-0.1,0-0.1l0.8-4.8c0-0.1,0-0.1-0.1-0.2l-3.5-3.4c-0.1-0.1-0.1-0.2,0-0.3c0,0,0.1,0,0.1,0l4.8-0.7c0.1,0,0.1,0,0.1-0.1
						l2.2-4.4C211.2,454.8,211.3,454.7,211.5,454.9C211.4,454.8,211.4,454.8,211.5,454.9z"/>
				</g>
				<g>
					<path class="st4" d="M211.3,456.8l-1.4,2.9c-0.2,0.3-0.5,0.6-0.9,0.6l-3.2,0.5l2.3,2.2c0.3,0.3,0.4,0.7,0.3,1l-0.5,3.2l2.8-1.5
						c0.2-0.1,0.4-0.1,0.6-0.1c0.2,0,0.4,0,0.5,0.1l2.8,1.5l-0.5-3.2c-0.1-0.4,0.1-0.8,0.3-1l2.3-2.2l-3.2-0.5
						c-0.4-0.1-0.7-0.3-0.9-0.6L211.3,456.8 M211.3,454.8c0.1,0,0.1,0,0.2,0.1l2.2,4.4c0,0.1,0.1,0.1,0.1,0.1l4.8,0.7
						c0.1,0,0.2,0.2,0.1,0.3l-3.5,3.4c0,0-0.1,0.1-0.1,0.2l0.8,4.8c0,0.1-0.1,0.2-0.2,0.2c0,0-0.1,0-0.1,0l-4.3-2.3c0,0-0.1,0-0.1,0
						c0,0-0.1,0-0.1,0l-4.3,2.3c0,0-0.1,0-0.1,0c-0.1,0-0.2-0.1-0.2-0.2l0.8-4.8c0-0.1,0-0.1-0.1-0.2l-3.5-3.4
						c-0.1-0.1,0-0.3,0.1-0.3l4.8-0.7c0.1,0,0.1,0,0.1-0.1l2.2-4.4C211.2,454.8,211.2,454.8,211.3,454.8z"/>
				</g>
			</g>
		</g>
		<g id="inputicon1" transform="translate(1091.689 296)">
			<g id="Path_3485">
				<path class="st4" d="M20.1,0.1V12H2.4l0-12C7.9,1.9,14.2,2.5,20.1,0.1z"/>
			</g>
			<g id="Path_3486">
				<path class="st4" d="M13,11.8l-1.7-2.3c0-0.1-0.1-0.1-0.1-0.1l-1.7,2.3c-0.1,0.2-0.1,0.4,0,0.6l1.7,2.3c0.1,0,0.1,0,0.1-0.1
					l1.7-2.3C13,12,13,11.9,13,11.8z"/>
			</g>
			<g id="Ellipse_124">
				<circle class="st4" cx="5.7" cy="8.9" r="5.7"/>
			</g>
			<g id="Ellipse_125">
				<g>
					<defs>
						<circle id="SVGID_1_" cx="5.7" cy="8.9" r="4.4"/>
					</defs>
					<clipPath id="SVGID_2_">
						<use xlink:href="#SVGID_1_"  style="overflow:visible;"/>
					</clipPath>
					<path class="st6" d="M1.3,4.5v8.8V4.5z"/>
					<rect x="1.3" y="4.5" class="st6" width="0.9" height="8.8"/>
					<rect x="2.1" y="4.5" class="st7" width="0.9" height="8.8"/>
					<rect x="3" y="4.5" class="st8" width="0.9" height="8.8"/>
					<rect x="3.9" y="4.5" class="st9" width="0.9" height="8.8"/>
					<rect x="4.7" y="4.5" class="st10" width="0.9" height="8.8"/>
					<rect x="5.6" y="4.5" class="st11" width="0.9" height="8.8"/>
					<rect x="6.4" y="4.5" class="st12" width="0.9" height="8.8"/>
					<rect x="7.3" y="4.5" class="st13" width="0.9" height="8.8"/>
					<rect x="8.2" y="4.5" class="st14" width="0.9" height="8.8"/>
					<rect x="9" y="4.5" class="st14" width="1" height="8.8"/>
					<path class="st14" d="M10,13.3V4.5V13.3z"/>
				</g>
			</g>
			<g id="Path_3487">
				<path class="st4" d="M5.7,7.2c-0.3,0-0.6,0.1-0.8,0.2C5,7.6,5,7.9,4.8,8c-0.2,0.1-0.4,0.2-0.6,0C4.1,8.3,4,8.6,4,8.9
					c0.1,0.9,0.8,1.6,1.7,1.5c0.9-0.1,1.6-0.8,1.5-1.7C7.2,7.8,6.5,7.2,5.7,7.2L5.7,7.2z"/>
			</g>
			<g id="Ellipse_126">
				<circle class="st4" cx="16.9" cy="8.9" r="5.7"/>
			</g>
			<g id="Ellipse_127">
				<g>
					<defs>
						<circle id="SVGID_3_" cx="16.9" cy="8.9" r="4.4"/>
					</defs>
					<clipPath id="SVGID_4_">
						<use xlink:href="#SVGID_3_"  style="overflow:visible;"/>
					</clipPath>
					<path class="st15" d="M12.5,4.5v8.8V4.5z"/>
					<rect x="12.5" y="4.5" class="st15" width="0.9" height="8.8"/>
					<rect x="13.3" y="4.5" class="st16" width="0.9" height="8.8"/>
					<rect x="14.2" y="4.5" class="st17" width="0.9" height="8.8"/>
					<rect x="15.1" y="4.5" class="st18" width="0.9" height="8.8"/>
					<rect x="15.9" y="4.5" class="st19" width="0.9" height="8.8"/>
					<rect x="16.8" y="4.5" class="st20" width="0.9" height="8.8"/>
					<rect x="17.6" y="4.5" class="st21" width="0.9" height="8.8"/>
					<rect x="18.5" y="4.5" class="st22" width="0.9" height="8.8"/>
					<rect x="19.4" y="4.5" class="st23" width="0.9" height="8.8"/>
					<rect x="20.2" y="4.5" class="st23" width="1" height="8.8"/>
					<path class="st23" d="M21.2,13.3V4.5V13.3z"/>
				</g>
			</g>
			<g id="Path_3488">
				<path class="st4" d="M16.9,7.2c-0.3,0-0.6,0.1-0.8,0.2c0.2,0.2,0.2,0.5,0,0.6c-0.2,0.1-0.4,0.2-0.6,0c-0.1,0.3-0.2,0.5-0.2,0.8
					c0.1,0.9,0.8,1.6,1.7,1.5c0.9-0.1,1.6-0.8,1.5-1.7C18.4,7.8,17.7,7.2,16.9,7.2L16.9,7.2z"/>
			</g>
		</g>
	</g>
	<g id="Group_6695" transform="translate(-136.555 -1060.435)">
		<g id="Layer_68" transform="translate(160.555 1173.435)">
			<g id="_YOUR_IMAGE_HERE_">
				<g id="Mask">
					<rect class="st24" width="278" height="104.5"/>
				</g>
				<g id="Icon">
					<path class="st25" d="M135.1,36.2c-2.8,0-5,2.2-5,5c0,2.8,2.2,5,5,5c2.8,0,5-2.2,5-5C140.2,38.4,137.9,36.2,135.1,36.2
						 M135.1,44.7c-1.9,0-3.5-1.6-3.5-3.5s1.6-3.5,3.5-3.5c1.9,0,3.5,1.6,3.5,3.5C138.6,43.1,137.1,44.7,135.1,44.7 M164.5,29h-51
						c-3,0-5.4,2.4-5.4,5.4v32.4c0,3,2.4,5.4,5.4,5.4c0,0,0,0,0,0h51c3,0,5.4-2.4,5.4-5.4l0,0V34.4C169.9,31.4,167.5,29,164.5,29
						C164.5,29,164.5,29,164.5,29L164.5,29z M113.3,70.7l12.6-17.9l9.8,12.5l13.5-19.1l16.3,24.4c-0.3,0.1-0.6,0.1-0.9,0.1
						L113.3,70.7L113.3,70.7z M168.3,66.8c0,1.2-0.6,2.3-1.5,3.1l-17.6-26.4l-13.6,19.3l-9.8-12.5l-14.1,20c-1.3-0.7-2.1-2-2.1-3.4
						V34.4c0-2.1,1.7-3.9,3.9-3.9h51c2.1,0,3.9,1.7,3.9,3.9c0,0,0,0,0,0V66.8z"/>
				</g>
			</g>
		</g>
		<g id="Layer_67" transform="translate(163.649 1421.445)">
			<g id="_YOUR_IMAGE_HERE_2">
				<g id="Mask-2">
					<rect x="0" y="0" class="st24" width="133.1" height="104.5"/>
				</g>
				<g id="Icon-2">
					<path class="st25" d="M62.7,37.8c-2.8,0-5,2.2-5,5c0,2.8,2.2,5,5,5c2.8,0,5-2.2,5-5C67.7,40.1,65.5,37.8,62.7,37.8 M62.7,46.3
						c-1.9,0-3.5-1.6-3.5-3.5s1.6-3.5,3.5-3.5c1.9,0,3.5,1.6,3.5,3.5C66.2,44.8,64.6,46.3,62.7,46.3 M92.1,30.6h-51
						c-3,0-5.4,2.4-5.4,5.4v32.4c0,3,2.4,5.4,5.4,5.4c0,0,0,0,0,0h51c3,0,5.4-2.4,5.4-5.4l0,0V36C97.5,33,95,30.6,92.1,30.6
						C92.1,30.6,92.1,30.6,92.1,30.6L92.1,30.6z M40.9,72.3l12.6-17.9l9.8,12.5l13.5-19.1L93,72.2c-0.3,0.1-0.6,0.1-0.9,0.1
						L40.9,72.3L40.9,72.3z M95.9,68.5c0,1.2-0.6,2.3-1.5,3.1L76.7,45.1L63.2,64.3l-9.8-12.5l-14.1,20c-1.3-0.7-2.1-2-2.1-3.4V36
						c0-2.1,1.7-3.9,3.9-3.9c0,0,0,0,0,0h51c2.1,0,3.9,1.7,3.9,3.9l0,0L95.9,68.5z"/>
				</g>
			</g>
		</g>
		<g id="Layer_65" transform="translate(162.06 1305.098)">
			<g id="Rectangle_1605">
				<path class="st24" d="M4.8,0h118.4c2.6,0,4.8,2.1,4.8,4.8v10c0,2.6-2.1,4.8-4.8,4.8H4.8c-2.6,0-4.8-2.1-4.8-4.8v-10
					C0,2.1,2.1,0,4.8,0z"/>
			</g>
		</g>
		<g id="Layer_65-2" transform="translate(162.06 1550.098)">
			<g id="Rectangle_1605-2">
				<path class="st24" d="M4.8,0h118.4c2.6,0,4.8,2.1,4.8,4.8v10c0,2.6-2.1,4.8-4.8,4.8H4.8c-2.6,0-4.8-2.1-4.8-4.8v-10
					C0,2.1,2.1,0,4.8,0z"/>
			</g>
		</g>
		<g id="Layer_64" transform="translate(163.928 1331.425)">
			<g id="Rectangle_1606">
				<path class="st24" d="M3.5,0h23.8c1.9,0,3.5,1.6,3.5,3.5v7.4c0,1.9-1.6,3.5-3.5,3.5H3.5c-1.9,0-3.5-1.6-3.5-3.5V3.5
					C0,1.6,1.6,0,3.5,0z"/>
			</g>
		</g>
		<g id="Layer_64-2" transform="translate(163.928 1576.425)">
			<g id="Rectangle_1606-2">
				<path class="st24" d="M3.5,0h23.8c1.9,0,3.5,1.6,3.5,3.5v7.4c0,1.9-1.6,3.5-3.5,3.5H3.5c-1.9,0-3.5-1.6-3.5-3.5V3.5
					C0,1.6,1.6,0,3.5,0z"/>
			</g>
		</g>
		<g id="Layer_63" transform="translate(163.928 1355.204)">
			<g id="Rectangle_1607">
				<path class="st24" d="M2.7,0h248.6c1.5,0,2.7,1.2,2.7,2.7v5.7c0,1.5-1.2,2.7-2.7,2.7H2.7C1.2,11,0,9.8,0,8.4V2.7
					C0,1.2,1.2,0,2.7,0z"/>
			</g>
		</g>
		<g id="Layer_63-2" transform="translate(163.928 1600.204)">
			<g id="Rectangle_1607-2">
				<path class="st24" d="M2.7,0h248.6c1.5,0,2.7,1.2,2.7,2.7v5.7c0,1.5-1.2,2.7-2.7,2.7H2.7C1.2,11,0,9.8,0,8.4V2.7
					C0,1.2,1.2,0,2.7,0z"/>
			</g>
		</g>
		<g id="Layer_62" transform="translate(163.928 1385.777)">
			<g id="Rectangle_1608">
				<path class="st24" d="M2.7,0h170.2c1.5,0,2.7,1.2,2.7,2.7v5.7c0,1.5-1.2,2.7-2.7,2.7H2.7C1.2,11,0,9.8,0,8.4V2.7
					C0,1.2,1.2,0,2.7,0z"/>
			</g>
		</g>
		<g id="Layer_61" transform="translate(163.928 1370.491)">
			<g id="Rectangle_1609">
				<path class="st24" d="M2.7,0h269.2c1.5,0,2.7,1.2,2.7,2.7v5.7c0,1.5-1.2,2.7-2.7,2.7H2.7C1.2,11,0,9.8,0,8.4V2.7
					C0,1.2,1.2,0,2.7,0z"/>
			</g>
		</g>
		<g id="Layer_61-2" transform="translate(163.928 1615.491)">
			<g id="Rectangle_1609-2">
				<path class="st24" d="M2.7,0h269.2c1.5,0,2.7,1.2,2.7,2.7v5.7c0,1.5-1.2,2.7-2.7,2.7H2.7C1.2,11,0,9.8,0,8.4V2.7
					C0,1.2,1.2,0,2.7,0z"/>
			</g>
		</g>
	</g>
</g>
</svg>
