<svg id="premiumowl" xmlns="http://www.w3.org/2000/svg" xmlns:xlink="http://www.w3.org/1999/xlink" width="187.873" height="245.5" viewBox="0 0 187.873 245.5">
  <defs>
    <linearGradient id="linear-gradient" x1="-1.51" y1="2.654" x2="-1.51" y2="2.645" gradientUnits="objectBoundingBox">
      <stop offset="0.006" stop-color="#f8ae58"/>
      <stop offset="0.411" stop-color="#f18944"/>
      <stop offset="1" stop-color="#e74e26"/>
    </linearGradient>
    <linearGradient id="linear-gradient-2" x1="-2.551" y1="8.076" x2="-2.551" y2="8.076" gradientUnits="objectBoundingBox">
      <stop offset="0" stop-color="#e1edf1"/>
      <stop offset="0.885" stop-color="#f4fbfe"/>
    </linearGradient>
    <linearGradient id="linear-gradient-3" x1="-3.802" y1="8.422" x2="-3.801" y2="8.422" xlink:href="#linear-gradient-2"/>
    <linearGradient id="linear-gradient-4" x1="0.5" y1="0" x2="0.5" y2="1" xlink:href="#linear-gradient"/>
  </defs>
  <path id="Path_2056" data-name="Path 2056" d="M187.021,124.057c15.979,11.167-29.429,3.007-31.977,31.312-1.984,22.049-28.671,47.653-39.278,34.441-18.975-23.639-66.972-55.122-66.457-87.12C50.045,57.05,166.293,109.57,187.021,124.057Z" transform="translate(-10.178 -7.926)" fill="#6c111b"/>
  <path id="Path_2057" data-name="Path 2057" d="M77.035,71.017c75.7,41.289,147.951-23.4,119.819,68.162-30.968-61.245-66.145-5.544-123.261-64.723Z" transform="translate(-15.192 -5.157)" fill="#aa1827"/>
  <g id="Group_5944" data-name="Group 5944" transform="translate(63.437 144.161)">
    <g id="Group_5943" data-name="Group 5943" transform="translate(0 11.958)">
      <path id="Path_2058" data-name="Path 2058" d="M133.115,184.755l-47.456,13s-11.1,20.566-2.381,43.972A68.733,68.733,0,0,1,89.1,232a.912.912,0,0,1,1.623.47c.645,5.648,5.82,21.709,41.368,41.663,20.412-35.287,16.679-51.741,14.353-56.932a.911.911,0,0,1,1.157-1.231,68.478,68.478,0,0,1,9.968,5.4C153.142,196.8,133.115,184.755,133.115,184.755Z" transform="translate(-79.939 -184.755)" fill="url(#linear-gradient)"/>
    </g>
    <path id="Path_2059" data-name="Path 2059" d="M108.739,169.686l0,.015s-23.78,32.443,17.989,65.658l0-.013C145.734,185.478,108.739,169.686,108.739,169.686Z" transform="translate(-84.493 -169.686)" fill="#ffde81"/>
    <path id="Path_2060" data-name="Path 2060" d="M114.766,189.114v.008s-14.21,19.389,10.754,39.242v-.008C136.876,198.552,114.766,189.114,114.766,189.114Z" transform="translate(-86.297 -173.696)" fill="#fff"/>
  </g>
  <path id="Path_2005" data-name="Path 2005" d="M35.139,90.8,19.686,96.071C4.673,100.623-3.5,117.506,1.439,133.78l8.452,24.5c9.6-9.98,22.395-16.381,37.483-13.443Z" transform="translate(0 -9.24)" fill="#001b30"/>
  <path id="Path_2005-2" data-name="Path 2005-2" d="M137.606,86.758l14.5-7.507c14.172-6.727,19.747-24.634,12.454-40L152.57,16.277C144.561,27.57,132.852,35.8,117.494,35.129Z" transform="translate(-24.254 6.143)" fill="#001b30"/>
  <path id="Path_3589" data-name="Path 3589" d="M124.984,78.226,97.244-8.131a5.452,5.452,0,0,0-6.67-3.632,5.12,5.12,0,0,0-2.2,1.3c-21.185,21.5-48.9,26.159-76.93,20.905a5.162,5.162,0,0,0-6.121,4.219,5.367,5.367,0,0,0,.181,2.5l32.667,102.66,7.148,22.961A26.751,26.751,0,0,0,67.077,161.3l25.054,3.491a23.493,23.493,0,0,0,18.643-5.433l18.413-15.911a25.413,25.413,0,0,0,7.485-26.875L124.815,78.482l.086-.153Z" transform="translate(-1.085 11.974)" fill="#001b30"/>
  <path id="Path_2006" data-name="Path 2006" d="M166.086,102.637" transform="translate(-34.284 -11.685)" fill="#0a2e40"/>
  <path id="Path_2062" data-name="Path 2062" d="M111.391,94.378a49.423,49.423,0,0,0-7.056-8.026,40.149,40.149,0,0,0-11.461-6.458,33.565,33.565,0,0,0-10.3-1.877,16.915,16.915,0,0,0-6.7.729,1.689,1.689,0,0,0,.041.164c-.159.029-.324.063-.486.094-.277.053-.555.11-.831.171s-.56.125-.839.194c-.148.037-.3.066-.443.1l.007.008a34.4,34.4,0,0,0-3.735,1.19l-.01-.006A34.225,34.225,0,0,0,66.1,82.24c.01-.115.286-.206.517-.317.38-.189.921-.434.59-.736s-1.04.136-1.04.136a33.448,33.448,0,0,0-5.72,3.7c-.773.771-2.73,2.516-3.535,3.383s-2.41,2.929-3.4,3.754a14.054,14.054,0,0,0-2.6,4.551c-.482,1.27-1.85,4.715-2.354,5.614a13.533,13.533,0,0,0-.978,4.7c-.036,1.428-.282,5.321-.469,6.83a21.755,21.755,0,0,0,1.121,6.474,30.977,30.977,0,0,1,1.085,3.859,12.382,12.382,0,0,0,1.626,3.709,1.32,1.32,0,0,0,.755.517c.064.123.129.244.2.367l.026.048A34.1,34.1,0,0,0,76.018,146.1l.008.008c.049.008.1.014.148.022.341.057.683.1,1.025.152.193.026.385.056.578.079q.539.065,1.079.108c.182.017.363.034.545.048.352.025.706.041,1.06.055.194.008.388.017.582.023.332.007.663.007.994,0,.218,0,.439,0,.659-.007.3-.007.6-.021.9-.038.252-.012.5-.026.753-.044.267-.021.532-.045.8-.072.287-.027.572-.056.856-.091.233-.029.462-.061.693-.094.317-.047.635-.094.952-.149.2-.034.4-.072.593-.11.243-.047.486-.089.729-.14.168-.029.34-.071.511-.115l.027-.006c.093-.025.186-.045.28-.072q.551-.131,1.1-.28c.146-.041.292-.079.439-.125q.574-.165,1.141-.351c.13-.042.26-.086.39-.131q.582-.2,1.157-.417c.12-.045.238-.093.362-.14q.58-.227,1.153-.476.174-.076.346-.155.574-.256,1.136-.537c.113-.055.225-.112.336-.168q.563-.287,1.116-.594c.108-.06.216-.121.322-.182q.556-.318,1.105-.659.145-.09.288-.182c.171-.108.346-.21.513-.322a.076.076,0,0,0,0-.019,33.8,33.8,0,0,0,8.4-7.924c.036-.049.072-.1.11-.149q.52-.7,1.007-1.428c.079-.116.159-.233.233-.35.238-.362.462-.732.685-1.107l0,.025a12.412,12.412,0,0,0,2.839-4.929,35.969,35.969,0,0,0,2.552-10.936,52.816,52.816,0,0,0-1.3-10.807A39.54,39.54,0,0,0,111.391,94.378Z" transform="translate(-9.727 -6.587)" fill="#0052a0"/>
  <path id="Path_2014" data-name="Path 2014" d="M95.759,180.986a39.635,39.635,0,0,0,31.542-8.412l-11.215,19.333Z" transform="translate(-19.767 -26.121)" fill="#0052a0"/>
  <g id="Group_6642" data-name="Group 6642" transform="translate(35.457 68.38)">
    <circle id="Ellipse_105" data-name="Ellipse 105" cx="36.47" cy="36.47" r="36.47" transform="translate(0.457 0.237)" fill="#0052a0"/>
    <g id="Group_6641" data-name="Group 6641" transform="translate(37.696 0.247)" opacity="0.2">
      <path id="Path_3441" data-name="Path 3441" d="M127.883,110.964a36.469,36.469,0,0,0-35.7-36.46,14.266,14.266,0,0,0,2.7,4.523c1.415,1.645,3.12,3.22,3.6,5.336.317,1.428.037,2.951.468,4.346.694,2.248,3.074,3.579,5.39,3.986a3.871,3.871,0,0,1,2.447.952c.832,1.014.211,2.571.622,3.816.743,2.25,4.407,2.562,4.9,4.88.556,2.638-3.669,4.595-2.951,7.193.219.794.894,1.455.879,2.277-.021,1.21-1.443,1.847-2.079,2.878-.992,1.609.127,3.65,1.216,5.193l3.344,4.741c1.19,1.683,2.42,3.838,1.478,5.669-.7,1.371-2.406,1.989-3.157,3.333-.714,1.274-.4,2.851-.064,4.272l.782,3.338A36.434,36.434,0,0,0,127.883,110.964Z" transform="translate(-92.182 -74.504)" fill="#3f6078"/>
    </g>
    <path id="Path_3442" data-name="Path 3442" d="M93.357,141.953c-.1-1.233-.339-2.73.642-3.484.332-.254.771-.382,1.012-.723.452-.64-.1-1.526-.748-1.967s-1.456-.755-1.8-1.461a6.072,6.072,0,0,1-.125-2.32c-.129-2.381-2.88-3.669-5.249-3.968s-5.03-.247-6.767-1.884a21.8,21.8,0,0,0-1.725-1.825c-2.548-1.9-6.366.786-9.29-.458a1.786,1.786,0,0,1-1.248-1.779c.079-.4.378-.755.382-1.167.008-.844-1.065-1.154-1.806-1.557A3.819,3.819,0,0,1,65,115.212a7.158,7.158,0,0,1,2.673-3.858c1.523-1.228,3.55-2.566,3.3-4.507-.079-.6-.382-1.151-.458-1.746-.377-2.954,4.425-4.134,4.892-7.075a8.688,8.688,0,0,0-.447-3.016,2.722,2.722,0,0,1,.723-2.807c.507-.355,1.211-.413,1.624-.873a3.16,3.16,0,0,0,.509-1.349C78.62,87,82.4,85.394,82.81,82.33c.253-1.894-.909-3.682-2.2-5.092A31.112,31.112,0,0,1,78.3,74.705a36.474,36.474,0,0,0-26.331,57.408c1.784.209,3.623.192,5.219.986a10.275,10.275,0,0,1,3.154,2.8,61.163,61.163,0,0,1,5.64,8.019,36.579,36.579,0,0,0,26.9,1.825A9.756,9.756,0,0,0,93.357,141.953Z" transform="translate(-44.798 -74.299)" fill="#3f6078" opacity="0.2" style="isolation: isolate"/>
    <path id="Path_3443" data-name="Path 3443" d="M74.747,74.268s.864-.248,1.119.159-.384.506-.828.59-1.017.064-.29.579,1.966.665,2.662,1.876,1.452,1.21.635,2.451S76.237,82.766,76.4,83.7s.616,3.237-1.29,1.9a5.918,5.918,0,0,1-2.632-4.145A10.318,10.318,0,0,0,70.9,78.289c-.424-.756-.7-1.422-1.089-1.27a5.079,5.079,0,0,0-1.574,1.032c-.152.273,0,.454.514,1.059s1,.4.453,1.331-.453.575.091,1.15,1.27.938.6,1.846-1.12,1.392-.848,2.118.372,1.513-.873.848a6.732,6.732,0,0,1-2.667-2.27c-.121-.485.238-.3.7-.7a2.291,2.291,0,0,0,.514-1.785c-.03-.6-.544-.726-.848-.787s-.424.182-.575,1.09a1.438,1.438,0,0,1-1.362,1.362s.635,1.543,0,1.936a3,3,0,0,1-2.148.242,17.177,17.177,0,0,0-1.452,1.422c-.514.6-.848.967-1.032,1.15s-.514.333-.4,1.27.151,1.241.967,1.513A2.279,2.279,0,0,1,61.455,92.6a9.95,9.95,0,0,1,.273,2.239c-.03.272.544.484.6-.363a4.289,4.289,0,0,1,.756-2.451,3.752,3.752,0,0,0,.4-2.723,3.192,3.192,0,0,1,.4-2.088c.242-.4.968-1.27,1.667-.756s1.573.938,1.724,1.482S67.516,89,67.516,89s.476-1.09,1.132-1.032A1.19,1.19,0,0,1,69.724,89a4.4,4.4,0,0,0,1.21,1.724,14.676,14.676,0,0,1,1.3,2.028,5.781,5.781,0,0,1,.817,1.421c.03.182-.666.061-1.482.3s-.938.787-1.9,1-2.028.242-2.6,1.032-1.09.938-.635,1.331.544-.06.938-.424a3.569,3.569,0,0,1,1.694-.665c.484-.061.575-.3.182.484s-.454,1.119-.06,1.331.424.787.938.363.938-.848,1.032-.514a.859.859,0,0,1-.333,1.119,9.573,9.573,0,0,0-1.966,1.574c-.454.575-.454,0-.756-.182s-.938.454-1.513.817-.907.363-.817.968.605,1.667-.029,1.694a4.181,4.181,0,0,0-1.574.238c-.3.182.029.363-.182,1.032a2.8,2.8,0,0,1-1.059,1.6s.3,2.058-.182,2.754-.968,2.057-1.362,2.511-1.331,1.27-.968,1.846a14.345,14.345,0,0,1,1.362,2.269c.121.484.454,1.513-.151,1.543s-1.27-1.24-1.936-2.451-1.785-2.088-2.481-1.785-.726.817-1.331.877a11.261,11.261,0,0,0-1.785.03c-.4.151-.575.575-.7,1.15s-1.452,5.053-.272,6.2a4.293,4.293,0,0,0,3.116.938s.878-2.239,1.725-1.634.272,1.392.3,2.239a7.69,7.69,0,0,0,.6,2.148,8.552,8.552,0,0,1,2.118.182c.454.212.544.272.635,1.331s-.03,1.331.817,1.9.968,1.032,1.452,1.032,1.353-.03,1.629.333a.993.993,0,0,0,.731.363s.726-.09.877-.3-.665-.514-.238-1.032.544-.635,1.059-1.27.544-1.119.787-1,.514.333.09.907-.09,1.21.4,1.119a.668.668,0,0,0,.4-1.032c-.273-.272.3-.544.755-.06s.605,1.21,1.724.726,2.088-1,2.571-.817,1.332.4,1.422,1.452,1.482,1.816,2.874,1.9,2.043-.363,2.655,0,1.278.635,1.339,1.6.363,1.392,1.573,1.422a28,28,0,0,1,2.784.333c.968.1,3.116-.3,4.054,1.032s-.756,3.388-1.755,4.145c0,0-.212,2.844-1.362,3.809a15.192,15.192,0,0,0-2.209,2.118c-.575.7-.6,1.633-3.056,1.755s-4.568.6-6.021-1.362-2-2.6-3.69-3.116a10.624,10.624,0,0,1-5.93-5.6c-1-2.813.273-3.963-.848-4.9s-1.543-.968-1.9-.787-2.148-.877-3.238-1.845a33.571,33.571,0,0,0-5.079-3.661,18.128,18.128,0,0,0-1.755-.575,7.381,7.381,0,0,1-3.086-1.693,6.478,6.478,0,0,0-2.147-1.755,4.42,4.42,0,0,1-1.544-2,2.939,2.939,0,0,0-1.179-1.391,1.44,1.44,0,0,1-1.241-.968,13.343,13.343,0,0,1-.6-4.327,33.353,33.353,0,0,0,0-4.327,23.482,23.482,0,0,1,.728-7.049c.636-1.512,2.028-5.476,2.482-6.959a14.548,14.548,0,0,1,2.39-4.6c.786-.787,3.207-3.963,4.085-5.143s2.754-3.389,4.023-3.963,3.54-2.239,4.629-2.9,3.631-1.9,4.66-2.482A36.273,36.273,0,0,1,74.747,74.268Z" transform="translate(-44.68 -74.193)" fill="#2ab3de"/>
    <path id="Path_3444" data-name="Path 3444" d="M95.763,74.465s-.128,1.237.766,1.621,1.619.085,2.513.809.724,1.065,1.576.98,1.19-.128,1.555.809.66,1.959,2.109,1.832,1.449.426,1.917.937.639,1.363,1.064.809.6-.979.852-.128a1.973,1.973,0,0,0,1.111,1.405c.682.468,1.363,1.15,1.321,1.874s-1.832-.556-2.857-1.278-2.556-1.832-2.727-1.576-1.064.556-.085,1.405,1.19.979,1.491,2.044.6,2.811,1.491,2.726,1.491-1.022,1.661-.34.3.815.809.344,1.022-1.536,1.448-1.324.468.34.256,1.064-.341,1.065-.468,1.405-.043.256.937.34.809.383.936,1.065a1.557,1.557,0,0,0,.682,1.235c.425.3.128.556-.511.682s-1.236.468-.556,1.363a24.25,24.25,0,0,1,1.7,2.936c.6,1.064.3,1.661,1.111,1.618s1.576.682,1.874-.894.511-2.343,0-3.408-.49-2.683.309-2.471A4.467,4.467,0,0,1,120.13,93.8c.809.809,1.065.724,1.79.213a5.768,5.768,0,0,0,1.064-.894c.213-.213.556.085,1.321,1.661s1.79,4.047,1.79,4.047-1.79-2.343-2.343-1.959-.639.852-.128,1.19.213,1.49-.681.425-1.19-1.151-1.405-1.79-1.065-.511-1.576.085.043.852-.767,1.619-1.7,1.278-1.7,2.13.171,4.643-.171,4.643-.725.383-.767,1.661-.128,2.869-.256,3.735a5.745,5.745,0,0,0,.042,2.57,8.675,8.675,0,0,0,.555,1.19s.043,3.962.128,5.367a7,7,0,0,0,2.087,4.43c1.108.809.809,1.448,1.874.511a34.386,34.386,0,0,0,2.258-2.64c.3-.213.256.681-.128,2s-1.19,5.153-2,6.349-.809,1.575-1.619,2.215a3.474,3.474,0,0,0-1.448,1.789c-.213.724-.639,1.491-.682,1.7s-.132,1.356-.132,1.356,1.751-.761,4.348-4.254,5.158-8.007,5.793-10.52,1.916-8.69,1.79-11.5-.468-8.22-1.363-10.307-2.769-7.454-4.941-10.309-5.793-7.326-9.924-9.967a35.908,35.908,0,0,0-10.052-4.9C99.519,74.673,96.658,74.122,95.763,74.465Z" transform="translate(-55.224 -74.228)" fill="#2ab3de"/>
  </g>
  <path id="Path_2011" data-name="Path 2011" d="M87.236,68.643,75.864,59.913a.773.773,0,0,0-.769-.322L70.153,72.646a2.58,2.58,0,0,0,.831,2.954l11.021,8.566a.783.783,0,0,0,.486-.684L87.645,70.1A1.846,1.846,0,0,0,87.236,68.643Z" transform="translate(-14.447 -2.796)" fill="#001b30"/>
  <circle id="Ellipse_88" data-name="Ellipse 88" cx="28.181" cy="28.181" r="28.181" transform="translate(4.717 31.494)" fill="#001b30"/>
  <circle id="Ellipse_89" data-name="Ellipse 89" cx="21.892" cy="21.892" r="21.892" transform="translate(11 37.765)" fill="url(#linear-gradient-2)"/>
  <path id="Path_2012" data-name="Path 2012" d="M30.878,43.221a7.537,7.537,0,0,0-3.567,2.222A2.273,2.273,0,0,1,25.305,49.5a9.01,9.01,0,0,0,.178,4.141,8.01,8.01,0,1,0,5.375-10.4Z" transform="translate(-5.191 0.639)" fill="#001b30"/>
  <circle id="Ellipse_90" data-name="Ellipse 90" cx="28.181" cy="28.181" r="28.181" transform="translate(58.501 16.37)" fill="#001b30"/>
  <circle id="Ellipse_91" data-name="Ellipse 91" cx="21.892" cy="21.892" r="21.892" transform="translate(64.784 22.641)" fill="url(#linear-gradient-3)"/>
  <path id="Path_2013" data-name="Path 2013" d="M98.646,24.165a7.56,7.56,0,0,0-3.566,2.222,2.274,2.274,0,0,1-2.008,4.058,9.032,9.032,0,0,0,.179,4.141,8.01,8.01,0,1,0,5.375-10.4Z" transform="translate(-19.18 4.573)" fill="#001b30"/>
  <g id="Group_6785" data-name="Group 6785" transform="translate(55.183 88.275)">
    <path id="Path_2063" data-name="Path 2063" d="M333.894,138l8.253,9.013,12.1-1.689-6.022,10.634,5.346,10.989L341.6,164.505l-8.8,8.481-1.379-12.143L320.638,155.1l11.122-5.064Z" transform="translate(-320.638 -137.999)" fill="url(#linear-gradient-4)"/>
  </g>
</svg>
