<?xml version="1.0" encoding="utf-8"?>
<!-- Generator: Adobe Illustrator 23.0.1, SVG Export Plug-In . SVG Version: 6.00 Build 0)  -->
<svg version="1.1" id="premiumowl" xmlns="http://www.w3.org/2000/svg" xmlns:xlink="http://www.w3.org/1999/xlink" x="0px" y="0px"
	 viewBox="0 0 187.9 245.5" style="enable-background:new 0 0 187.9 245.5;" xml:space="preserve">
<style type="text/css">
	.st0{fill:#6C111B;}
	.st1{fill:#AA1827;}
	.st2{clip-path:url(#SVGID_2_);fill:#E74E26;}
	.st3{fill:#FFDE81;}
	.st4{fill:#FFFFFF;}
	.st5{fill:#001B30;}
	.st6{fill:#0A2E40;}
	.st7{fill:#0052A0;}
	.st8{opacity:0.2;}
	.st9{fill:#3F6078;}
	.st10{opacity:0.2;enable-background:new    ;}
	.st11{fill:#2AB3DE;}
	.st12{clip-path:url(#SVGID_4_);fill:#F8AE58;}
	.st13{clip-path:url(#SVGID_4_);fill:#F8AD57;}
	.st14{clip-path:url(#SVGID_4_);fill:#F8AC57;}
	.st15{clip-path:url(#SVGID_4_);fill:#F7AB56;}
	.st16{clip-path:url(#SVGID_4_);fill:#F7AA56;}
	.st17{clip-path:url(#SVGID_4_);fill:#F7A955;}
	.st18{clip-path:url(#SVGID_4_);fill:#F7A855;}
	.st19{clip-path:url(#SVGID_4_);fill:#F7A754;}
	.st20{clip-path:url(#SVGID_4_);fill:#F6A654;}
	.st21{clip-path:url(#SVGID_4_);fill:#F6A553;}
	.st22{clip-path:url(#SVGID_4_);fill:#F6A452;}
	.st23{clip-path:url(#SVGID_4_);fill:#F6A352;}
	.st24{clip-path:url(#SVGID_4_);fill:#F6A251;}
	.st25{clip-path:url(#SVGID_4_);fill:#F5A151;}
	.st26{clip-path:url(#SVGID_4_);fill:#F5A050;}
	.st27{clip-path:url(#SVGID_4_);fill:#F59F50;}
	.st28{clip-path:url(#SVGID_4_);fill:#F59E4F;}
	.st29{clip-path:url(#SVGID_4_);fill:#F59D4F;}
	.st30{clip-path:url(#SVGID_4_);fill:#F59C4E;}
	.st31{clip-path:url(#SVGID_4_);fill:#F49A4D;}
	.st32{clip-path:url(#SVGID_4_);fill:#F4994D;}
	.st33{clip-path:url(#SVGID_4_);fill:#F4984C;}
	.st34{clip-path:url(#SVGID_4_);fill:#F4974C;}
	.st35{clip-path:url(#SVGID_4_);fill:#F4964B;}
	.st36{clip-path:url(#SVGID_4_);fill:#F3954B;}
	.st37{clip-path:url(#SVGID_4_);fill:#F3944A;}
	.st38{clip-path:url(#SVGID_4_);fill:#F3934A;}
	.st39{clip-path:url(#SVGID_4_);fill:#F39249;}
	.st40{clip-path:url(#SVGID_4_);fill:#F39148;}
	.st41{clip-path:url(#SVGID_4_);fill:#F29048;}
	.st42{clip-path:url(#SVGID_4_);fill:#F28F47;}
	.st43{clip-path:url(#SVGID_4_);fill:#F28E47;}
	.st44{clip-path:url(#SVGID_4_);fill:#F28D46;}
	.st45{clip-path:url(#SVGID_4_);fill:#F28C46;}
	.st46{clip-path:url(#SVGID_4_);fill:#F18B45;}
	.st47{clip-path:url(#SVGID_4_);fill:#F18A45;}
	.st48{clip-path:url(#SVGID_4_);fill:#F18944;}
	.st49{clip-path:url(#SVGID_4_);fill:#F18843;}
	.st50{clip-path:url(#SVGID_4_);fill:#F18743;}
	.st51{clip-path:url(#SVGID_4_);fill:#F08642;}
	.st52{clip-path:url(#SVGID_4_);fill:#F08542;}
	.st53{clip-path:url(#SVGID_4_);fill:#F08441;}
	.st54{clip-path:url(#SVGID_4_);fill:#F08341;}
	.st55{clip-path:url(#SVGID_4_);fill:#F08240;}
	.st56{clip-path:url(#SVGID_4_);fill:#F08140;}
	.st57{clip-path:url(#SVGID_4_);fill:#EF803F;}
	.st58{clip-path:url(#SVGID_4_);fill:#EF7F3F;}
	.st59{clip-path:url(#SVGID_4_);fill:#EF7E3E;}
	.st60{clip-path:url(#SVGID_4_);fill:#EF7D3E;}
	.st61{clip-path:url(#SVGID_4_);fill:#EF7C3D;}
	.st62{clip-path:url(#SVGID_4_);fill:#EF7B3D;}
	.st63{clip-path:url(#SVGID_4_);fill:#EE7A3C;}
	.st64{clip-path:url(#SVGID_4_);fill:#EE793C;}
	.st65{clip-path:url(#SVGID_4_);fill:#EE783B;}
	.st66{clip-path:url(#SVGID_4_);fill:#EE773B;}
	.st67{clip-path:url(#SVGID_4_);fill:#EE763A;}
	.st68{clip-path:url(#SVGID_4_);fill:#EE753A;}
	.st69{clip-path:url(#SVGID_4_);fill:#ED7439;}
	.st70{clip-path:url(#SVGID_4_);fill:#ED7339;}
	.st71{clip-path:url(#SVGID_4_);fill:#ED7238;}
	.st72{clip-path:url(#SVGID_4_);fill:#ED7138;}
	.st73{clip-path:url(#SVGID_4_);fill:#ED7037;}
	.st74{clip-path:url(#SVGID_4_);fill:#ED6F37;}
	.st75{clip-path:url(#SVGID_4_);fill:#EC6E36;}
	.st76{clip-path:url(#SVGID_4_);fill:#EC6D36;}
	.st77{clip-path:url(#SVGID_4_);fill:#EC6C35;}
	.st78{clip-path:url(#SVGID_4_);fill:#EC6A34;}
	.st79{clip-path:url(#SVGID_4_);fill:#EC6934;}
	.st80{clip-path:url(#SVGID_4_);fill:#EB6833;}
	.st81{clip-path:url(#SVGID_4_);fill:#EB6733;}
	.st82{clip-path:url(#SVGID_4_);fill:#EB6632;}
	.st83{clip-path:url(#SVGID_4_);fill:#EB6532;}
	.st84{clip-path:url(#SVGID_4_);fill:#EB6431;}
	.st85{clip-path:url(#SVGID_4_);fill:#EB6331;}
	.st86{clip-path:url(#SVGID_4_);fill:#EA6230;}
	.st87{clip-path:url(#SVGID_4_);fill:#EA6130;}
	.st88{clip-path:url(#SVGID_4_);fill:#EA602F;}
	.st89{clip-path:url(#SVGID_4_);fill:#EA5F2F;}
	.st90{clip-path:url(#SVGID_4_);fill:#EA5E2E;}
	.st91{clip-path:url(#SVGID_4_);fill:#EA5D2E;}
	.st92{clip-path:url(#SVGID_4_);fill:#E95C2D;}
	.st93{clip-path:url(#SVGID_4_);fill:#E95B2D;}
	.st94{clip-path:url(#SVGID_4_);fill:#E95A2C;}
	.st95{clip-path:url(#SVGID_4_);fill:#E9592C;}
	.st96{clip-path:url(#SVGID_4_);fill:#E9582B;}
	.st97{clip-path:url(#SVGID_4_);fill:#E9572B;}
	.st98{clip-path:url(#SVGID_4_);fill:#E8562A;}
	.st99{clip-path:url(#SVGID_4_);fill:#E8552A;}
	.st100{clip-path:url(#SVGID_4_);fill:#E85429;}
	.st101{clip-path:url(#SVGID_4_);fill:#E85329;}
	.st102{clip-path:url(#SVGID_4_);fill:#E85228;}
	.st103{clip-path:url(#SVGID_4_);fill:#E85128;}
	.st104{clip-path:url(#SVGID_4_);fill:#E75027;}
	.st105{clip-path:url(#SVGID_4_);fill:#E74F27;}
	.st106{clip-path:url(#SVGID_4_);fill:#E74E26;}
</style>
<g id="Path_2056">
	<path class="st0" d="M176.8,116.1c16,11.2-29.4,3-32,31.3c-2,22-28.7,47.7-39.3,34.4c-19-23.6-67-55.1-66.5-87.1
		C39.9,49.1,156.1,101.6,176.8,116.1z"/>
</g>
<g id="Path_2057">
	<path class="st1" d="M61.8,65.9c75.7,41.3,148-23.4,119.8,68.2c-31-61.2-66.1-5.5-123.3-64.7L61.8,65.9z"/>
</g>
<g id="Group_5944" transform="translate(63.437 144.161)">
	<g id="Group_5943" transform="translate(0 11.958)">
		<g id="Path_2058">
			<g>
				<defs>
					<path id="SVGID_1_" d="M53.2,0L5.7,13c0,0-11.1,20.6-2.4,44C5,53.6,7,50.3,9.2,47.2c0.3-0.4,0.9-0.5,1.3-0.2
						c0.2,0.2,0.3,0.4,0.3,0.6c0.6,5.6,5.8,21.7,41.4,41.7c20.4-35.3,16.7-51.7,14.4-56.9c-0.2-0.5,0-1,0.4-1.2
						c0.2-0.1,0.5-0.1,0.7,0c3.5,1.5,6.8,3.3,10,5.4C73.2,12,53.2,0,53.2,0z"/>
				</defs>
				<clipPath id="SVGID_2_">
					<use xlink:href="#SVGID_1_"  style="overflow:visible;"/>
				</clipPath>
				<rect x="-5.4" y="0" class="st2" width="83" height="89.4"/>
			</g>
		</g>
	</g>
	<g id="Path_2059">
		<path class="st3" d="M24.2,0L24.2,0c0,0-23.8,32.5,18,65.7v0C61.2,15.8,24.2,0,24.2,0z"/>
	</g>
	<g id="Path_2060">
		<path class="st4" d="M28.5,15.4L28.5,15.4c0,0-14.2,19.4,10.8,39.3v0C50.6,24.9,28.5,15.4,28.5,15.4z"/>
	</g>
</g>
<g id="Path_2005">
	<path class="st5" d="M35.1,81.6l-15.5,5.3c-15,4.6-23.2,21.4-18.2,37.7L9.9,149c9.6-10,22.4-16.4,37.5-13.4L35.1,81.6z"/>
</g>
<g id="Path_2005-2">
	<path class="st5" d="M113.4,92.9l14.5-7.5c14.2-6.7,19.7-24.6,12.5-40l-12-23c-8,11.3-19.7,19.5-35.1,18.9L113.4,92.9z"/>
</g>
<g id="Path_3589">
	<path class="st5" d="M123.9,90.2L96.2,3.8c-0.9-2.8-3.8-4.4-6.7-3.6c-0.8,0.2-1.6,0.7-2.2,1.3C66.1,23,38.4,27.7,10.4,22.4
		c-2.8-0.6-5.5,1.2-6.1,4c0,0.1,0,0.1,0,0.2c-0.1,0.8-0.1,1.7,0.2,2.5l32.7,102.7l7.1,23c3.1,9.9,11.5,17.1,21.8,18.5l25.1,3.5
		c6.7,1,13.5-1,18.6-5.4l18.4-15.9c7.6-6.7,10.6-17.2,7.5-26.9l-11.9-38.1l0.1-0.2L123.9,90.2z"/>
</g>
<g id="Path_2006">
	<path class="st6" d="M131.8,91"/>
</g>
<g id="Path_2062">
	<path class="st7" d="M101.7,87.8c-2.1-2.9-4.4-5.6-7.1-8c-3.4-2.8-7.3-5-11.5-6.5c-3.3-1.2-6.8-1.8-10.3-1.9
		c-2.3-0.2-4.5,0-6.7,0.7c0,0.1,0,0.1,0,0.2c-0.2,0-0.3,0.1-0.5,0.1c-0.3,0.1-0.6,0.1-0.8,0.2s-0.6,0.1-0.8,0.2
		c-0.1,0-0.3,0.1-0.4,0.1l0,0c-1.3,0.3-2.5,0.7-3.7,1.2l0,0c-1.2,0.5-2.3,1-3.5,1.6c0-0.1,0.3-0.2,0.5-0.3c0.4-0.2,0.9-0.4,0.6-0.7
		s-1,0.1-1,0.1c-2,1-3.9,2.3-5.7,3.7c-0.8,0.8-2.7,2.5-3.5,3.4s-2.4,2.9-3.4,3.8c-1.1,1.3-2,2.9-2.6,4.6c-0.5,1.3-1.8,4.7-2.4,5.6
		c-0.6,1.5-0.9,3.1-1,4.7c0,1.4-0.3,5.3-0.5,6.8c0,2.2,0.4,4.4,1.1,6.5c0.4,1.3,0.8,2.6,1.1,3.9c0.3,1.3,0.9,2.6,1.6,3.7
		c0.2,0.3,0.4,0.4,0.8,0.5c0.1,0.1,0.1,0.2,0.2,0.4l0,0c5,9.1,13.8,15.5,24.1,17.3l0,0c0,0,0.1,0,0.1,0c0.3,0.1,0.7,0.1,1,0.2
		c0.2,0,0.4,0.1,0.6,0.1c0.4,0,0.7,0.1,1.1,0.1c0.2,0,0.4,0,0.5,0c0.4,0,0.7,0,1.1,0.1c0.2,0,0.4,0,0.6,0c0.3,0,0.7,0,1,0
		c0.2,0,0.4,0,0.7,0c0.3,0,0.6,0,0.9,0c0.3,0,0.5,0,0.8,0c0.3,0,0.5,0,0.8-0.1c0.3,0,0.6-0.1,0.9-0.1c0.2,0,0.5-0.1,0.7-0.1
		c0.3,0,0.6-0.1,1-0.1c0.2,0,0.4-0.1,0.6-0.1c0.2,0,0.5-0.1,0.7-0.1c0.2,0,0.3-0.1,0.5-0.1l0,0c0.1,0,0.2,0,0.3-0.1
		c0.4-0.1,0.7-0.2,1.1-0.3c0.1,0,0.3-0.1,0.4-0.1c0.4-0.1,0.8-0.2,1.1-0.4c0.1,0,0.3-0.1,0.4-0.1c0.4-0.1,0.8-0.3,1.2-0.4
		c0.1,0,0.2-0.1,0.4-0.1c0.4-0.2,0.8-0.3,1.2-0.5c0.1-0.1,0.2-0.1,0.3-0.2c0.4-0.2,0.8-0.3,1.1-0.5c0.1-0.1,0.2-0.1,0.3-0.2
		c0.4-0.2,0.7-0.4,1.1-0.6c0.1-0.1,0.2-0.1,0.3-0.2c0.4-0.2,0.7-0.4,1.1-0.7c0.1-0.1,0.2-0.1,0.3-0.2c0.2-0.1,0.3-0.2,0.5-0.3
		c0,0,0,0,0,0c3.2-2.1,6.1-4.8,8.4-7.9c0,0,0.1-0.1,0.1-0.1c0.3-0.5,0.7-0.9,1-1.4c0.1-0.1,0.2-0.2,0.2-0.4c0.2-0.4,0.5-0.7,0.7-1.1
		v0c1.3-1.4,2.3-3.1,2.8-4.9c1.4-3.5,2.3-7.2,2.6-10.9c-0.1-3.6-0.5-7.3-1.3-10.8C104.6,93.6,103.3,90.6,101.7,87.8z"/>
</g>
<g id="Path_2014">
	<path class="st7" d="M76,154.9c11.2,1.9,22.7-1.2,31.5-8.4l-11.2,19.3L76,154.9z"/>
</g>
<g id="Group_6642" transform="translate(35.457 68.38)">
	<g id="Ellipse_105">
		<circle class="st7" cx="36.9" cy="36.7" r="36.5"/>
	</g>
	<g id="Group_6641" transform="translate(37.696 0.247)" class="st8">
		<g id="Path_3441">
			<path class="st9" d="M35.7,36.5C35.7,16.6,19.8,0.4,0,0c0.6,1.7,1.5,3.2,2.7,4.5c1.4,1.6,3.1,3.2,3.6,5.3c0.3,1.4,0,3,0.5,4.3
				c0.7,2.2,3.1,3.6,5.4,4c0.9,0,1.8,0.4,2.4,1c0.8,1,0.2,2.6,0.6,3.8c0.7,2.3,4.4,2.6,4.9,4.9c0.6,2.6-3.7,4.6-3,7.2
				c0.2,0.8,0.9,1.5,0.9,2.3c0,1.2-1.4,1.8-2.1,2.9c-1,1.6,0.1,3.7,1.2,5.2l3.3,4.7c1.2,1.7,2.4,3.8,1.5,5.7c-0.7,1.4-2.4,2-3.2,3.3
				c-0.7,1.3-0.4,2.9-0.1,4.3l0.8,3.3C29.7,60,35.7,48.6,35.7,36.5z"/>
		</g>
	</g>
	<g id="Path_3442" class="st10">
		<path class="st9" d="M48.6,67.7c-0.1-1.2-0.3-2.7,0.6-3.5c0.3-0.3,0.8-0.4,1-0.7c0.5-0.6-0.1-1.5-0.7-2S48,60.7,47.7,60
			c-0.2-0.8-0.2-1.5-0.1-2.3c-0.1-2.4-2.9-3.7-5.2-4s-5-0.2-6.8-1.9c-0.5-0.6-1.1-1.3-1.7-1.8c-2.5-1.9-6.4,0.8-9.3-0.5
			c-0.8-0.2-1.3-1-1.2-1.8c0.1-0.4,0.4-0.8,0.4-1.2c0-0.8-1.1-1.2-1.8-1.6c-1.4-0.9-2-2.6-1.6-4.1c0.4-1.5,1.4-2.9,2.7-3.9
			c1.5-1.2,3.6-2.6,3.3-4.5c-0.1-0.6-0.4-1.2-0.5-1.7c-0.4-3,4.4-4.1,4.9-7.1c0-1-0.1-2-0.4-3c-0.3-1,0-2.1,0.7-2.8
			c0.5-0.4,1.2-0.4,1.6-0.9c0.3-0.4,0.4-0.9,0.5-1.3c0.8-3,4.6-4.6,5-7.7c0.3-1.9-0.9-3.7-2.2-5.1c-0.8-0.8-1.6-1.6-2.3-2.5
			C13.4,2.3-1.3,20.1,0.6,40.1c0.6,6.4,2.9,12.5,6.6,17.7c1.8,0.2,3.6,0.2,5.2,1c1.2,0.7,2.3,1.7,3.2,2.8c2.1,2.5,4,5.2,5.6,8
			c8.4,4,18,4.7,26.9,1.8C48.5,70.2,48.7,68.9,48.6,67.7z"/>
	</g>
	<g id="Path_3443">
		<path class="st11" d="M30.1,0.1c0,0,0.9-0.2,1.1,0.2s-0.4,0.5-0.8,0.6s-1,0.1-0.3,0.6s2,0.7,2.7,1.9s1.5,1.2,0.6,2.5
			s-1.8,2.8-1.6,3.8s0.6,3.2-1.3,1.9C29,10.5,28,9,27.8,7.3c-0.3-1.1-0.9-2.2-1.6-3.2c-0.4-0.8-0.7-1.4-1.1-1.3
			c-0.6,0.2-1.1,0.6-1.6,1c-0.2,0.3,0,0.5,0.5,1.1s1,0.4,0.5,1.3s-0.5,0.6,0.1,1.2s1.3,0.9,0.6,1.8s-1.1,1.4-0.8,2.1
			s0.4,1.5-0.9,0.8c-1.1-0.5-2-1.3-2.7-2.3c-0.1-0.5,0.2-0.3,0.7-0.7c0.4-0.5,0.6-1.1,0.5-1.8c0-0.6-0.5-0.7-0.8-0.8
			s-0.4,0.2-0.6,1.1c0,0.7-0.6,1.3-1.4,1.4c0,0,0.6,1.5,0,1.9c-0.7,0.3-1.4,0.4-2.1,0.2c-0.5,0.4-1,0.9-1.5,1.4
			c-0.5,0.6-0.8,1-1,1.2s-0.5,0.3-0.4,1.3s0.2,1.2,1,1.5c0.8,0.2,1.4,0.9,1.6,1.8c0.2,0.7,0.3,1.5,0.3,2.2c0,0.3,0.5,0.5,0.6-0.4
			c0-0.9,0.3-1.7,0.8-2.5c0.5-0.8,0.6-1.8,0.4-2.7c-0.1-0.7,0-1.5,0.4-2.1c0.2-0.4,1-1.3,1.7-0.8s1.6,0.9,1.7,1.5s0.2,1.1,0.2,1.1
			s0.5-1.1,1.1-1c0.6,0,1,0.5,1.1,1c0.3,0.7,0.7,1.3,1.2,1.7c0.5,0.6,0.9,1.3,1.3,2c0.3,0.4,0.6,0.9,0.8,1.4c0,0.2-0.7,0.1-1.5,0.3
			s-0.9,0.8-1.9,1s-2,0.2-2.6,1s-1.1,0.9-0.6,1.3s0.5-0.1,0.9-0.4c0.5-0.4,1.1-0.6,1.7-0.7c0.5-0.1,0.6-0.3,0.2,0.5
			s-0.5,1.1-0.1,1.3s0.4,0.8,0.9,0.4s0.9-0.8,1-0.5c0.2,0.4,0.1,0.9-0.3,1.1c-0.7,0.4-1.4,1-2,1.6c-0.5,0.6-0.5,0-0.8-0.2
			s-0.9,0.5-1.5,0.8s-0.9,0.4-0.8,1s0.6,1.7,0,1.7c-0.5,0-1.1,0.1-1.6,0.2c-0.3,0.2,0,0.4-0.2,1c-0.2,0.6-0.5,1.2-1.1,1.6
			c0,0,0.3,2.1-0.2,2.8s-1,2.1-1.4,2.5s-1.3,1.3-1,1.8c0.5,0.7,1,1.5,1.4,2.3c0.1,0.5,0.5,1.5-0.2,1.5s-1.3-1.2-1.9-2.5
			s-1.8-2.1-2.5-1.8s-0.7,0.8-1.3,0.9c-0.6,0-1.2,0-1.8,0c-0.4,0.2-0.6,0.6-0.7,1.2S7.3,46.9,8.4,48c0.9,0.7,2,1,3.1,0.9
			c0,0,0.9-2.2,1.7-1.6s0.3,1.4,0.3,2.2c0.1,0.7,0.3,1.5,0.6,2.1c0.7,0,1.4,0,2.1,0.2c0.5,0.2,0.5,0.3,0.6,1.3
			c0.1,1.1,0,1.3,0.8,1.9s1,1,1.5,1c0.5,0,1.4,0,1.6,0.3c0.2,0.2,0.4,0.4,0.7,0.4c0,0,0.7-0.1,0.9-0.3s-0.7-0.5-0.2-1
			s0.5-0.6,1.1-1.3s0.5-1.1,0.8-1s0.5,0.3,0.1,0.9c-0.4,0.6-0.1,1.2,0.4,1.1c0.4-0.1,0.6-0.4,0.5-0.8c0-0.1-0.1-0.2-0.1-0.2
			c-0.3-0.3,0.3-0.5,0.8-0.1c0.5,0.5,0.6,1.2,1.7,0.7s2.1-1,2.6-0.8s1.3,0.4,1.4,1.5s1.5,1.8,2.9,1.9s2-0.4,2.7,0s1.3,0.6,1.3,1.6
			s0.4,1.4,1.6,1.4c0.9,0.1,1.9,0.2,2.8,0.3c1,0.1,3.1-0.3,4.1,1s-0.8,3.4-1.8,4.1c0,0-0.2,2.8-1.4,3.8c-0.8,0.6-1.5,1.3-2.2,2.1
			c-0.6,0.7-0.6,1.6-3.1,1.8s-4.6,0.6-6-1.4s-2-2.6-3.7-3.1c-2.6-1-4.8-3-5.9-5.6c-1-2.8,0.3-4-0.8-4.9s-1.5-1-1.9-0.8
			s-2.1-0.9-3.2-1.8c-1.6-1.4-3.3-2.6-5.1-3.7c-0.6-0.2-1.2-0.4-1.8-0.6c-1.2-0.3-2.2-0.9-3.1-1.7c-0.6-0.7-1.3-1.3-2.1-1.8
			c-0.7-0.5-1.2-1.2-1.5-2c-0.2-0.6-0.6-1.1-1.2-1.4c-0.6,0-1.1-0.4-1.2-1c-0.4-1.4-0.6-2.9-0.6-4.3c0.1-1.4,0.1-2.9,0-4.3
			c-0.1-2.4,0.1-4.7,0.7-7c0.6-1.5,2-5.5,2.5-7c0.5-1.7,1.3-3.2,2.4-4.6c0.8-0.8,3.2-4,4.1-5.1s2.8-3.4,4-4s3.5-2.2,4.6-2.9
			C19.5,4.1,22,2.8,23,2.3C25.3,1.3,27.7,0.6,30.1,0.1z"/>
	</g>
	<g id="Path_3444">
		<path class="st11" d="M40.5,0.2c0,0-0.1,1.2,0.8,1.6s1.6,0.1,2.5,0.8s0.7,1.1,1.6,1s1.2-0.1,1.6,0.8s0.7,2,2.1,1.8
			s1.4,0.4,1.9,0.9S51.6,8.6,52,8s0.6-1,0.9-0.1C53,8.5,53.4,9,54,9.3c0.7,0.5,1.4,1.2,1.3,1.9s-1.8-0.6-2.9-1.3s-2.6-1.8-2.7-1.6
			s-1.1,0.6-0.1,1.4s1.2,1,1.5,2s0.6,2.8,1.5,2.7s1.5-1,1.7-0.3s0.3,0.8,0.8,0.3s1-1.5,1.4-1.3s0.5,0.3,0.3,1.1s-0.3,1.1-0.5,1.4
			s0,0.3,0.9,0.3s0.8,0.4,0.9,1.1c0,0.5,0.3,1,0.7,1.2c0.4,0.3,0.1,0.6-0.5,0.7s-1.2,0.5-0.6,1.4c0.6,0.9,1.2,1.9,1.7,2.9
			c0.6,1.1,0.3,1.7,1.1,1.6s1.6,0.7,1.9-0.9s0.5-2.3,0-3.4s-0.5-2.7,0.3-2.5c0.8,0.3,1.5,0.8,2.1,1.5c0.8,0.8,1.1,0.7,1.8,0.2
			c0.4-0.3,0.7-0.6,1.1-0.9c0.2-0.2,0.6,0.1,1.3,1.7s1.8,4,1.8,4s-1.8-2.3-2.3-2s-0.6,0.9-0.1,1.2s0.2,1.5-0.7,0.4s-1.2-1.2-1.4-1.8
			s-1.1-0.5-1.6,0.1s0,0.9-0.8,1.6s-1.7,1.3-1.7,2.1s0.2,4.6-0.2,4.6s-0.7,0.4-0.8,1.7s-0.1,2.9-0.3,3.7c-0.2,0.8-0.2,1.7,0,2.6
			c0.2,0.4,0.3,0.8,0.6,1.2c0,0,0,4,0.1,5.4c0.1,1.7,0.9,3.3,2.1,4.4c1.1,0.8,0.8,1.4,1.9,0.5c0.8-0.8,1.6-1.7,2.3-2.6
			c0.3-0.2,0.3,0.7-0.1,2s-1.2,5.2-2,6.3s-0.8,1.6-1.6,2.2c-0.7,0.4-1.2,1-1.4,1.8c-0.2,0.7-0.6,1.5-0.7,1.7S62,63.2,62,63.2
			s1.8-0.8,4.3-4.3s5.2-8,5.8-10.5c0.6-2.5,1.9-8.7,1.8-11.5s-0.5-8.2-1.4-10.3s-2.8-7.5-4.9-10.3s-5.8-7.3-9.9-10
			c-3.1-2.1-6.5-3.8-10.1-4.9C44.3,0.4,41.4-0.1,40.5,0.2z"/>
	</g>
</g>
<g id="Path_2011">
	<path class="st5" d="M72.8,65.8l-11.4-8.7c-0.2-0.2-0.5-0.4-0.8-0.3l-4.9,13.1c-0.4,1.1-0.1,2.3,0.8,3l11,8.6
		c0.3-0.1,0.5-0.4,0.5-0.7l5.2-13.4C73.3,66.8,73.1,66.3,72.8,65.8z"/>
</g>
<g id="Ellipse_88">
	<circle class="st5" cx="32.9" cy="59.7" r="28.2"/>
</g>
<g id="Ellipse_89">
	<circle class="st4" cx="32.9" cy="59.7" r="21.9"/>
</g>
<g id="Path_2012">
	<path class="st5" d="M25.7,43.9c-1.4,0.4-2.6,1.2-3.6,2.2c1.1,0.7,1.4,2.1,0.7,3.1c-0.6,0.9-1.7,1.3-2.7,0.9
		c-0.3,1.4-0.2,2.8,0.2,4.1c1.5,4.2,6.1,6.3,10.2,4.9c4.2-1.5,6.3-6.1,4.9-10.2C34,44.9,29.7,42.7,25.7,43.9L25.7,43.9z"/>
</g>
<g id="Ellipse_90">
	<circle class="st5" cx="86.7" cy="44.6" r="28.2"/>
</g>
<g id="Ellipse_91">
	<circle class="st4" cx="86.7" cy="44.5" r="21.9"/>
</g>
<g id="Path_2013">
	<path class="st5" d="M79.5,28.7c-1.4,0.4-2.6,1.2-3.6,2.2c1.1,0.7,1.4,2.1,0.7,3.1c-0.6,0.9-1.7,1.3-2.7,0.9
		c-0.3,1.4-0.2,2.8,0.2,4.1c1.5,4.2,6.1,6.3,10.2,4.9c4.2-1.5,6.3-6.1,4.9-10.2C87.7,29.8,83.5,27.6,79.5,28.7L79.5,28.7z"/>
</g>
<g id="Group_6785" transform="translate(55.183 88.275)">
	<g id="Path_2063">
		<g>
			<defs>
				<path id="SVGID_3_" d="M13.3,0l8.3,9l12.1-1.7l-6,10.6l5.3,11l-12-2.4L12.2,35l-1.4-12.1L0,17.1L11.1,12L13.3,0z"/>
			</defs>
			<clipPath id="SVGID_4_">
				<use xlink:href="#SVGID_3_"  style="overflow:visible;"/>
			</clipPath>
			<rect x="0" y="0" class="st12" width="33.6" height="0.2"/>
			<rect x="0" y="0.2" class="st12" width="33.6" height="0.4"/>
			<rect x="0" y="0.6" class="st13" width="33.6" height="0.4"/>
			<rect x="0" y="1" class="st14" width="33.6" height="0.4"/>
			<rect x="0" y="1.4" class="st15" width="33.6" height="0.4"/>
			<rect x="0" y="1.7" class="st16" width="33.6" height="0.4"/>
			<rect x="0" y="2.1" class="st17" width="33.6" height="0.4"/>
			<rect x="0" y="2.5" class="st18" width="33.6" height="0.4"/>
			<rect x="0" y="2.9" class="st19" width="33.6" height="0.4"/>
			<rect x="0" y="3.3" class="st20" width="33.6" height="0.4"/>
			<rect x="0" y="3.7" class="st21" width="33.6" height="0.4"/>
			<rect x="0" y="4" class="st22" width="33.6" height="0.4"/>
			<rect x="0" y="4.4" class="st23" width="33.6" height="0.4"/>
			<rect x="0" y="4.8" class="st24" width="33.6" height="0.4"/>
			<rect x="0" y="5.2" class="st25" width="33.6" height="0.4"/>
			<rect x="0" y="5.6" class="st26" width="33.6" height="0.4"/>
			<rect x="0" y="6" class="st27" width="33.6" height="0.4"/>
			<rect x="0" y="6.3" class="st28" width="33.6" height="0.4"/>
			<rect x="0" y="6.7" class="st29" width="33.6" height="0.4"/>
			<rect x="0" y="7.1" class="st30" width="33.6" height="0.4"/>
			<rect x="0" y="7.5" class="st31" width="33.6" height="0.4"/>
			<rect x="0" y="7.9" class="st32" width="33.6" height="0.4"/>
			<rect x="0" y="8.3" class="st33" width="33.6" height="0.4"/>
			<rect x="0" y="8.6" class="st34" width="33.6" height="0.4"/>
			<rect x="0" y="9" class="st35" width="33.6" height="0.4"/>
			<rect x="0" y="9.4" class="st36" width="33.6" height="0.4"/>
			<rect x="0" y="9.8" class="st37" width="33.6" height="0.4"/>
			<rect x="0" y="10.2" class="st38" width="33.6" height="0.4"/>
			<rect x="0" y="10.6" class="st39" width="33.6" height="0.4"/>
			<rect x="0" y="10.9" class="st40" width="33.6" height="0.4"/>
			<rect x="0" y="11.3" class="st41" width="33.6" height="0.4"/>
			<rect x="0" y="11.7" class="st42" width="33.6" height="0.4"/>
			<rect x="0" y="12.1" class="st43" width="33.6" height="0.4"/>
			<rect x="0" y="12.5" class="st44" width="33.6" height="0.4"/>
			<rect x="0" y="12.8" class="st45" width="33.6" height="0.4"/>
			<rect x="0" y="13.2" class="st46" width="33.6" height="0.4"/>
			<rect x="0" y="13.6" class="st47" width="33.6" height="0.4"/>
			<rect x="0" y="14" class="st48" width="33.6" height="0.4"/>
			<rect x="0" y="14.4" class="st48" width="33.6" height="0.3"/>
			<rect x="0" y="14.7" class="st49" width="33.6" height="0.3"/>
			<rect x="0" y="15.1" class="st50" width="33.6" height="0.3"/>
			<rect x="0" y="15.4" class="st51" width="33.6" height="0.3"/>
			<rect x="0" y="15.8" class="st52" width="33.6" height="0.3"/>
			<rect x="0" y="16.1" class="st53" width="33.6" height="0.3"/>
			<rect x="0" y="16.5" class="st54" width="33.6" height="0.3"/>
			<rect x="0" y="16.8" class="st55" width="33.6" height="0.3"/>
			<rect x="0" y="17.2" class="st56" width="33.6" height="0.3"/>
			<rect x="0" y="17.5" class="st57" width="33.6" height="0.3"/>
			<rect x="0" y="17.9" class="st58" width="33.6" height="0.3"/>
			<rect x="0" y="18.2" class="st59" width="33.6" height="0.3"/>
			<rect x="0" y="18.6" class="st60" width="33.6" height="0.3"/>
			<rect x="0" y="18.9" class="st61" width="33.6" height="0.3"/>
			<rect x="0" y="19.3" class="st62" width="33.6" height="0.3"/>
			<rect x="0" y="19.6" class="st63" width="33.6" height="0.3"/>
			<rect x="0" y="20" class="st64" width="33.6" height="0.3"/>
			<rect x="0" y="20.3" class="st65" width="33.6" height="0.3"/>
			<rect x="0" y="20.7" class="st66" width="33.6" height="0.3"/>
			<rect x="0" y="21" class="st67" width="33.6" height="0.3"/>
			<rect x="0" y="21.4" class="st68" width="33.6" height="0.3"/>
			<rect x="0" y="21.7" class="st69" width="33.6" height="0.3"/>
			<rect x="0" y="22.1" class="st70" width="33.6" height="0.3"/>
			<rect x="0" y="22.4" class="st71" width="33.6" height="0.3"/>
			<rect x="0" y="22.8" class="st72" width="33.6" height="0.3"/>
			<rect x="0" y="23.1" class="st73" width="33.6" height="0.3"/>
			<rect x="0" y="23.5" class="st74" width="33.6" height="0.3"/>
			<rect x="0" y="23.8" class="st75" width="33.6" height="0.3"/>
			<rect x="0" y="24.2" class="st76" width="33.6" height="0.3"/>
			<rect x="0" y="24.5" class="st77" width="33.6" height="0.3"/>
			<rect x="0" y="24.9" class="st78" width="33.6" height="0.3"/>
			<rect x="0" y="25.2" class="st79" width="33.6" height="0.3"/>
			<rect x="0" y="25.6" class="st80" width="33.6" height="0.3"/>
			<rect x="0" y="25.9" class="st81" width="33.6" height="0.3"/>
			<rect x="0" y="26.3" class="st82" width="33.6" height="0.3"/>
			<rect x="0" y="26.6" class="st83" width="33.6" height="0.3"/>
			<rect x="0" y="27" class="st84" width="33.6" height="0.3"/>
			<rect x="0" y="27.3" class="st85" width="33.6" height="0.3"/>
			<rect x="0" y="27.7" class="st86" width="33.6" height="0.3"/>
			<rect x="0" y="28" class="st87" width="33.6" height="0.3"/>
			<rect x="0" y="28.4" class="st88" width="33.6" height="0.3"/>
			<rect x="0" y="28.7" class="st89" width="33.6" height="0.3"/>
			<rect x="0" y="29" class="st90" width="33.6" height="0.3"/>
			<rect x="0" y="29.4" class="st91" width="33.6" height="0.3"/>
			<rect x="0" y="29.7" class="st92" width="33.6" height="0.3"/>
			<rect x="0" y="30.1" class="st93" width="33.6" height="0.3"/>
			<rect x="0" y="30.4" class="st94" width="33.6" height="0.3"/>
			<rect x="0" y="30.8" class="st95" width="33.6" height="0.3"/>
			<rect x="0" y="31.1" class="st96" width="33.6" height="0.3"/>
			<rect x="0" y="31.5" class="st97" width="33.6" height="0.3"/>
			<rect x="0" y="31.8" class="st98" width="33.6" height="0.3"/>
			<rect x="0" y="32.2" class="st99" width="33.6" height="0.3"/>
			<rect x="0" y="32.5" class="st100" width="33.6" height="0.3"/>
			<rect x="0" y="32.9" class="st101" width="33.6" height="0.3"/>
			<rect x="0" y="33.2" class="st102" width="33.6" height="0.3"/>
			<rect x="0" y="33.6" class="st103" width="33.6" height="0.3"/>
			<rect x="0" y="33.9" class="st104" width="33.6" height="0.3"/>
			<rect x="0" y="34.3" class="st105" width="33.6" height="0.3"/>
			<rect x="0" y="34.6" class="st106" width="33.6" height="0.3"/>
			<path class="st106" d="M0,35h33.6H0z"/>
		</g>
	</g>
</g>
</svg>
