<?xml version="1.0" encoding="utf-8"?>
<!-- Generator: Adobe Illustrator 23.0.1, SVG Export Plug-In . SVG Version: 6.00 Build 0)  -->
<svg version="1.1" id="Layer_1" xmlns="http://www.w3.org/2000/svg" xmlns:xlink="http://www.w3.org/1999/xlink" x="0px" y="0px"
	 viewBox="0 0 393 715" style="enable-background:new 0 0 393 715;" xml:space="preserve">
<style type="text/css">
	.st0{fill:#0062AF;}
	.st1{fill:#FFFFFF;}
	.st2{enable-background:new    ;}
	.st3{fill:#FFF8F8;}
	.st4{clip-path:url(#SVGID_2_);fill:#0062AF;}
	.st5{clip-path:url(#SVGID_4_);fill:#0062AF;}
	.st6{fill:#001E3B;}
	.st7{fill:#0B84C7;}
	.st8{fill:#1F87BE;}
	.st9{fill:#59C9E8;}
	.st10{fill:#F9FBFC;}
	.st11{fill:none;}
	.st12{fill:#F5FCFF;}
	.st13{fill:#2A364A;}
	.st14{fill:#0052A0;}
	.st15{fill:#00233F;}
	.st16{clip-path:url(#SVGID_6_);fill:#E7F0F4;}
	.st17{clip-path:url(#SVGID_6_);fill:#E8F1F5;}
	.st18{clip-path:url(#SVGID_6_);fill:#E9F2F6;}
	.st19{clip-path:url(#SVGID_6_);fill:#EAF3F6;}
	.st20{clip-path:url(#SVGID_6_);fill:#EBF3F7;}
	.st21{clip-path:url(#SVGID_6_);fill:#ECF4F8;}
	.st22{clip-path:url(#SVGID_6_);fill:#EDF5F9;}
	.st23{clip-path:url(#SVGID_6_);fill:#EFF6FA;}
	.st24{clip-path:url(#SVGID_6_);fill:#F0F7FA;}
	.st25{clip-path:url(#SVGID_6_);fill:#F1F8FB;}
	.st26{clip-path:url(#SVGID_6_);fill:#F2F9FC;}
	.st27{clip-path:url(#SVGID_6_);fill:#F3F9FD;}
	.st28{clip-path:url(#SVGID_6_);fill:#F4FAFD;}
	.st29{clip-path:url(#SVGID_6_);fill:#F5FBFE;}
	.st30{clip-path:url(#SVGID_6_);fill:#F6FCFF;}
	.st31{clip-path:url(#SVGID_8_);fill:#E7F0F4;}
	.st32{clip-path:url(#SVGID_8_);fill:#E8F1F5;}
	.st33{clip-path:url(#SVGID_8_);fill:#E9F2F6;}
	.st34{clip-path:url(#SVGID_8_);fill:#EAF3F6;}
	.st35{clip-path:url(#SVGID_8_);fill:#EBF3F7;}
	.st36{clip-path:url(#SVGID_8_);fill:#ECF4F8;}
	.st37{clip-path:url(#SVGID_8_);fill:#EDF5F9;}
	.st38{clip-path:url(#SVGID_8_);fill:#EFF6FA;}
	.st39{clip-path:url(#SVGID_8_);fill:#F0F7FA;}
	.st40{clip-path:url(#SVGID_8_);fill:#F1F8FB;}
	.st41{clip-path:url(#SVGID_8_);fill:#F2F9FC;}
	.st42{clip-path:url(#SVGID_8_);fill:#F3F9FD;}
	.st43{clip-path:url(#SVGID_8_);fill:#F4FAFD;}
	.st44{clip-path:url(#SVGID_8_);fill:#F5FBFE;}
	.st45{clip-path:url(#SVGID_8_);fill:#F6FCFF;}
	.st46{fill:#169ADF;}
	.st47{clip-path:url(#SVGID_10_);fill:#E7F0F4;}
	.st48{clip-path:url(#SVGID_10_);fill:#E8F1F5;}
	.st49{clip-path:url(#SVGID_10_);fill:#E9F2F6;}
	.st50{clip-path:url(#SVGID_10_);fill:#EAF3F6;}
	.st51{clip-path:url(#SVGID_10_);fill:#EBF3F7;}
	.st52{clip-path:url(#SVGID_10_);fill:#ECF4F8;}
	.st53{clip-path:url(#SVGID_10_);fill:#EDF5F9;}
	.st54{clip-path:url(#SVGID_10_);fill:#EFF6FA;}
	.st55{clip-path:url(#SVGID_10_);fill:#F0F7FA;}
	.st56{clip-path:url(#SVGID_10_);fill:#F1F8FB;}
	.st57{clip-path:url(#SVGID_10_);fill:#F2F9FC;}
	.st58{clip-path:url(#SVGID_10_);fill:#F3F9FD;}
	.st59{clip-path:url(#SVGID_10_);fill:#F4FAFD;}
	.st60{clip-path:url(#SVGID_10_);fill:#F5FBFE;}
	.st61{clip-path:url(#SVGID_10_);fill:#F6FCFF;}
	.st62{clip-path:url(#SVGID_12_);fill:#E7F0F4;}
	.st63{clip-path:url(#SVGID_12_);fill:#E8F1F5;}
	.st64{clip-path:url(#SVGID_12_);fill:#E9F2F6;}
	.st65{clip-path:url(#SVGID_12_);fill:#EAF3F6;}
	.st66{clip-path:url(#SVGID_12_);fill:#EBF3F7;}
	.st67{clip-path:url(#SVGID_12_);fill:#ECF4F8;}
	.st68{clip-path:url(#SVGID_12_);fill:#EDF5F9;}
	.st69{clip-path:url(#SVGID_12_);fill:#EFF6FA;}
	.st70{clip-path:url(#SVGID_12_);fill:#F0F7FA;}
	.st71{clip-path:url(#SVGID_12_);fill:#F1F8FB;}
	.st72{clip-path:url(#SVGID_12_);fill:#F2F9FC;}
	.st73{clip-path:url(#SVGID_12_);fill:#F3F9FD;}
	.st74{clip-path:url(#SVGID_12_);fill:#F4FAFD;}
	.st75{clip-path:url(#SVGID_12_);fill:#F5FBFE;}
	.st76{clip-path:url(#SVGID_12_);fill:#F6FCFF;}
	.st77{fill:#BB5FBB;}
	.st78{fill:#1388C6;}
	.st79{fill:#133C51;}
	.st80{opacity:0.2;}
	.st81{fill:#0C62AE;}
	.st82{opacity:0.2;enable-background:new    ;}
	.st83{fill:#2AB3DE;}
	.st84{clip-path:url(#SVGID_14_);fill:#E7F0F4;}
	.st85{clip-path:url(#SVGID_14_);fill:#E8F1F5;}
	.st86{clip-path:url(#SVGID_14_);fill:#E9F2F6;}
	.st87{clip-path:url(#SVGID_14_);fill:#EAF3F6;}
	.st88{clip-path:url(#SVGID_14_);fill:#EBF3F7;}
	.st89{clip-path:url(#SVGID_14_);fill:#ECF4F8;}
	.st90{clip-path:url(#SVGID_14_);fill:#EDF5F9;}
	.st91{clip-path:url(#SVGID_14_);fill:#EFF6FA;}
	.st92{clip-path:url(#SVGID_14_);fill:#F0F7FA;}
	.st93{clip-path:url(#SVGID_14_);fill:#F1F8FB;}
	.st94{clip-path:url(#SVGID_14_);fill:#F2F9FC;}
	.st95{clip-path:url(#SVGID_14_);fill:#F3F9FD;}
	.st96{clip-path:url(#SVGID_14_);fill:#F4FAFD;}
	.st97{clip-path:url(#SVGID_14_);fill:#F5FBFE;}
	.st98{clip-path:url(#SVGID_14_);fill:#F6FCFF;}
	.st99{clip-path:url(#SVGID_16_);fill:#E7F0F4;}
	.st100{clip-path:url(#SVGID_16_);fill:#E8F1F5;}
	.st101{clip-path:url(#SVGID_16_);fill:#E9F2F6;}
	.st102{clip-path:url(#SVGID_16_);fill:#EAF3F6;}
	.st103{clip-path:url(#SVGID_16_);fill:#EBF3F7;}
	.st104{clip-path:url(#SVGID_16_);fill:#ECF4F8;}
	.st105{clip-path:url(#SVGID_16_);fill:#EDF5F9;}
	.st106{clip-path:url(#SVGID_16_);fill:#EFF6FA;}
	.st107{clip-path:url(#SVGID_16_);fill:#F0F7FA;}
	.st108{clip-path:url(#SVGID_16_);fill:#F1F8FB;}
	.st109{clip-path:url(#SVGID_16_);fill:#F2F9FC;}
	.st110{clip-path:url(#SVGID_16_);fill:#F3F9FD;}
	.st111{clip-path:url(#SVGID_16_);fill:#F4FAFD;}
	.st112{clip-path:url(#SVGID_16_);fill:#F5FBFE;}
	.st113{clip-path:url(#SVGID_16_);fill:#F6FCFF;}
</style>
<g id="screenshot2" transform="translate(34.5 25.5)">
	<g transform="matrix(1, 0, 0, 1, -34.5, -25.5)">
		
			<image style="overflow:visible;enable-background:new    ;" width="324" height="646" id="Asset_1-2" xlink:href="693DAEAF.png"  transform="matrix(1 0 0 1 34.5 25.5)">
		</image>
	</g>
	<g id="Group_6779" transform="translate(-1011.417 52)">
		<g id="Rectangle_1598">
			<path class="st0" d="M1058.5-36h230.8c18.3,0,33.1,14.8,33.1,33.1v546.8c0,18.3-14.8,33.1-33.1,33.1h-230.8
				c-18.3,0-33.1-14.8-33.1-33.1V-2.9C1025.4-21.2,1040.2-36,1058.5-36z"/>
		</g>
		<g id="Path_3466">
			<path class="st1" d="M1269.4-45h-191v9h3.2c3.8,0,6.8,3.1,6.8,6.8v2.6c0,8.6,7,15.6,15.6,15.6h139.8c8.6,0,15.6-7,15.6-15.6v-2.6
				c0-3.8,3.1-6.8,6.8-6.8h3.2V-45z"/>
		</g>
	</g>
	<g class="st2">
		<path class="st1" d="M60,370h-1.8l4.9-12.9h1.9l4.9,12.9h-1.8l-1.2-3.5h-5.4L60,370z M63.9,359.1l-2.1,5.8h4.3L63.9,359.1
			L63.9,359.1z"/>
		<path class="st1" d="M78.2,370h-1.6v-1.2h-0.1c-0.3,0.4-0.6,0.8-1.2,1.1c-0.5,0.3-1.1,0.4-1.6,0.4c-1.1,0-1.9-0.3-2.5-0.9
			s-0.9-1.5-0.9-2.6v-5.5h1.7v5.4c0,1.4,0.8,2.2,2.2,2.2c0.7,0,1.2-0.3,1.7-0.8c0.4-0.5,0.7-1.2,0.7-1.9v-4.9h1.7V370z"/>
		<path class="st1" d="M83.8,370.1c-0.7,0-1.3-0.2-1.8-0.7c-0.5-0.4-0.7-1.1-0.7-1.9v-4.9h-1.5v-1.5h1.5v-2.7H83v2.7h2.2v1.5H83v4.4
			c0,0.6,0.1,1,0.3,1.2s0.5,0.3,0.8,0.3c0.1,0,0.3,0,0.4,0c0.1,0,0.2-0.1,0.4-0.1l0.5,1.5C84.9,370.1,84.4,370.1,83.8,370.1z"/>
		<path class="st1" d="M86.1,365.6c0-1.4,0.4-2.5,1.3-3.4c0.9-0.9,1.9-1.3,3.3-1.3c1.3,0,2.4,0.4,3.2,1.3c0.9,0.9,1.3,2,1.3,3.4
			c0,1.4-0.4,2.5-1.3,3.4c-0.9,0.9-1.9,1.3-3.2,1.3c-1.3,0-2.4-0.4-3.3-1.3C86.5,368.1,86.1,366.9,86.1,365.6z M87.8,365.6
			c0,0.9,0.3,1.7,0.8,2.3c0.6,0.6,1.2,0.9,2.1,0.9c0.8,0,1.5-0.3,2.1-0.9c0.6-0.6,0.8-1.4,0.8-2.3c0-0.9-0.3-1.7-0.8-2.3
			c-0.6-0.6-1.2-0.9-2.1-0.9c-0.8,0-1.5,0.3-2.1,0.9C88.1,363.9,87.8,364.7,87.8,365.6z"/>
		<path class="st1" d="M98.6,364.8v5.2H97v-12.9h4.4c1.1,0,2.1,0.4,2.8,1.1c0.8,0.7,1.2,1.7,1.2,2.7c0,1.1-0.4,2-1.2,2.7
			c-0.8,0.7-1.7,1.1-2.8,1.1H98.6z M98.6,358.7v4.5h2.8c0.7,0,1.2-0.2,1.6-0.7c0.4-0.4,0.7-1,0.7-1.6c0-0.6-0.2-1.1-0.7-1.6
			c-0.4-0.5-1-0.7-1.6-0.7H98.6z"/>
		<path class="st1" d="M108.6,357.1V370h-1.7v-12.9H108.6z"/>
		<path class="st1" d="M113.9,360.9c1.2,0,2.2,0.3,2.9,1s1.1,1.6,1.1,2.7v5.4h-1.6v-1.2h-0.1c-0.7,1-1.6,1.5-2.7,1.5
			c-1,0-1.8-0.3-2.4-0.9s-1-1.3-1-2.2c0-0.9,0.3-1.6,1-2.2c0.7-0.5,1.6-0.8,2.8-0.8c1,0,1.8,0.2,2.4,0.5v-0.4c0-0.6-0.2-1.1-0.7-1.5
			c-0.5-0.4-1-0.6-1.6-0.6c-0.9,0-1.7,0.4-2.2,1.2l-1.5-0.9C111.1,361.5,112.3,360.9,113.9,360.9z M111.7,367.3
			c0,0.4,0.2,0.8,0.5,1.1c0.4,0.3,0.8,0.4,1.3,0.4c0.7,0,1.3-0.3,1.9-0.8c0.5-0.5,0.8-1.1,0.8-1.8c-0.5-0.4-1.2-0.6-2.2-0.6
			c-0.7,0-1.2,0.2-1.7,0.5C112,366.4,111.7,366.8,111.7,367.3z"/>
		<path class="st1" d="M127.4,361.2l-5.5,12.7h-1.7l2.1-4.4l-3.6-8.3h1.8l2.6,6.3h0l2.6-6.3H127.4z"/>
		<path class="st1" d="M134.4,364.5v5.5h-1.7v-12.9h7.5v1.6h-5.9v4.2h5.3v1.5H134.4z"/>
		<path class="st1" d="M143.5,357.1V370h-1.7v-12.9H143.5z"/>
		<path class="st1" d="M148.8,360.9c1.2,0,2.2,0.3,2.9,1s1.1,1.6,1.1,2.7v5.4h-1.6v-1.2h-0.1c-0.7,1-1.6,1.5-2.7,1.5
			c-1,0-1.8-0.3-2.4-0.9s-1-1.3-1-2.2c0-0.9,0.3-1.6,1-2.2c0.7-0.5,1.6-0.8,2.8-0.8c1,0,1.8,0.2,2.4,0.5v-0.4c0-0.6-0.2-1.1-0.7-1.5
			c-0.5-0.4-1-0.6-1.6-0.6c-0.9,0-1.7,0.4-2.2,1.2l-1.5-0.9C146,361.5,147.2,360.9,148.8,360.9z M146.6,367.3c0,0.4,0.2,0.8,0.5,1.1
			c0.4,0.3,0.8,0.4,1.3,0.4c0.7,0,1.3-0.3,1.9-0.8c0.5-0.5,0.8-1.1,0.8-1.8c-0.5-0.4-1.2-0.6-2.2-0.6c-0.7,0-1.2,0.2-1.7,0.5
			C146.9,366.4,146.6,366.8,146.6,367.3z"/>
		<path class="st1" d="M161.3,367.6c0,0.8-0.3,1.4-1,1.9c-0.7,0.5-1.5,0.8-2.5,0.8c-0.9,0-1.7-0.2-2.3-0.7c-0.7-0.5-1.2-1.1-1.4-1.8
			l1.5-0.6c0.2,0.5,0.5,0.9,0.9,1.2s0.9,0.4,1.4,0.4c0.5,0,1-0.1,1.3-0.3c0.4-0.2,0.5-0.5,0.5-0.8c0-0.6-0.4-1-1.3-1.2l-1.5-0.4
			c-1.7-0.4-2.6-1.3-2.6-2.5c0-0.8,0.3-1.4,1-1.9c0.7-0.5,1.5-0.7,2.5-0.7c0.8,0,1.5,0.2,2.1,0.6s1.1,0.9,1.3,1.5l-1.5,0.6
			c-0.2-0.4-0.4-0.7-0.8-0.9c-0.4-0.2-0.8-0.3-1.3-0.3c-0.4,0-0.8,0.1-1.2,0.3c-0.3,0.2-0.5,0.5-0.5,0.8c0,0.5,0.5,0.9,1.4,1.1
			l1.3,0.3C160.4,365.3,161.3,366.2,161.3,367.6z"/>
		<path class="st1" d="M162.7,357.1h1.7v4.1l-0.1,1.2h0.1c0.3-0.4,0.6-0.8,1.2-1.1c0.5-0.3,1.1-0.4,1.6-0.4c1.1,0,1.9,0.3,2.5,0.9
			s0.9,1.5,0.9,2.6v5.5h-1.7v-5.2c0-1.6-0.7-2.4-2.1-2.4c-0.7,0-1.2,0.3-1.7,0.8c-0.5,0.6-0.7,1.2-0.7,2v4.8h-1.7V357.1z"/>
		<path class="st1" d="M182.4,370.3c-1.9,0-3.5-0.6-4.8-1.9c-1.3-1.3-1.9-2.9-1.9-4.8c0-1.9,0.6-3.5,1.9-4.8
			c1.3-1.3,2.9-1.9,4.8-1.9c1.9,0,3.5,0.7,4.7,2.1l-1.2,1.2c-0.9-1.1-2.1-1.7-3.5-1.7c-1.4,0-2.6,0.5-3.6,1.4
			c-0.9,0.9-1.4,2.2-1.4,3.7c0,1.5,0.5,2.8,1.4,3.7c1,1,2.2,1.4,3.6,1.4c1.5,0,2.8-0.6,3.9-1.9l1.2,1.2c-0.6,0.7-1.4,1.3-2.3,1.7
			C184.4,370.1,183.4,370.3,182.4,370.3z"/>
		<path class="st1" d="M192.2,360.9c1.2,0,2.2,0.3,2.9,1s1.1,1.6,1.1,2.7v5.4h-1.6v-1.2h-0.1c-0.7,1-1.6,1.5-2.7,1.5
			c-1,0-1.8-0.3-2.4-0.9c-0.7-0.6-1-1.3-1-2.2c0-0.9,0.3-1.6,1-2.2c0.7-0.5,1.6-0.8,2.8-0.8c1,0,1.8,0.2,2.4,0.5v-0.4
			c0-0.6-0.2-1.1-0.7-1.5c-0.5-0.4-1-0.6-1.6-0.6c-0.9,0-1.7,0.4-2.2,1.2l-1.5-0.9C189.4,361.5,190.6,360.9,192.2,360.9z M190,367.3
			c0,0.4,0.2,0.8,0.5,1.1c0.4,0.3,0.8,0.4,1.3,0.4c0.7,0,1.3-0.3,1.9-0.8s0.8-1.1,0.8-1.8c-0.5-0.4-1.2-0.6-2.2-0.6
			c-0.7,0-1.2,0.2-1.7,0.5C190.3,366.4,190,366.8,190,367.3z"/>
		<path class="st1" d="M199.7,370H198v-8.8h1.6v1.4h0.1c0.2-0.5,0.5-0.9,1-1.2c0.5-0.3,1-0.5,1.5-0.5c0.5,0,0.9,0.1,1.2,0.2
			l-0.5,1.6c-0.2-0.1-0.5-0.1-1-0.1c-0.6,0-1.2,0.3-1.6,0.8s-0.7,1.1-0.7,1.8V370z"/>
		<path class="st1" d="M207.7,370.3c-1.2,0-2.1-0.5-3-1.4c-0.8-0.9-1.2-2-1.2-3.3s0.4-2.4,1.2-3.3c0.8-0.9,1.8-1.4,3-1.4
			c0.6,0,1.2,0.1,1.8,0.4c0.5,0.3,0.9,0.6,1.2,1.1h0.1l-0.1-1.2v-4.1h1.7V370h-1.6v-1.2h-0.1c-0.3,0.5-0.7,0.8-1.2,1.1
			C208.9,370.2,208.3,370.3,207.7,370.3z M208,368.8c0.8,0,1.5-0.3,2-0.9c0.5-0.6,0.8-1.4,0.8-2.3c0-0.9-0.3-1.7-0.8-2.3
			c-0.5-0.6-1.2-0.9-2-0.9c-0.8,0-1.5,0.3-2,0.9c-0.5,0.6-0.8,1.4-0.8,2.3c0,0.9,0.3,1.7,0.8,2.3C206.5,368.5,207.2,368.8,208,368.8
			z"/>
		<path class="st1" d="M221,367.6c0,0.8-0.3,1.4-1,1.9c-0.7,0.5-1.5,0.8-2.5,0.8c-0.9,0-1.7-0.2-2.3-0.7s-1.2-1.1-1.4-1.8l1.5-0.6
			c0.2,0.5,0.5,0.9,0.9,1.2s0.9,0.4,1.4,0.4c0.5,0,1-0.1,1.3-0.3c0.4-0.2,0.5-0.5,0.5-0.8c0-0.6-0.4-1-1.3-1.2l-1.5-0.4
			c-1.7-0.4-2.6-1.3-2.6-2.5c0-0.8,0.3-1.4,1-1.9s1.5-0.7,2.5-0.7c0.8,0,1.5,0.2,2.1,0.6s1.1,0.9,1.3,1.5l-1.5,0.6
			c-0.2-0.4-0.4-0.7-0.8-0.9c-0.4-0.2-0.8-0.3-1.3-0.3c-0.4,0-0.8,0.1-1.2,0.3c-0.3,0.2-0.5,0.5-0.5,0.8c0,0.5,0.5,0.9,1.4,1.1
			l1.3,0.3C220.2,365.3,221,366.2,221,367.6z"/>
		<path class="st1" d="M238.9,361.2l-2.8,8.8h-1.7l-2.2-6.8L230,370h-1.7l-2.8-8.8h1.7l2,6.7h0l2.2-6.7h1.7l2.2,6.7h0l1.9-6.7H238.9
			z"/>
		<path class="st1" d="M242.1,358.1c0,0.3-0.1,0.6-0.3,0.8c-0.2,0.2-0.5,0.3-0.8,0.3s-0.6-0.1-0.8-0.3c-0.2-0.2-0.3-0.5-0.3-0.8
			c0-0.3,0.1-0.6,0.3-0.8c0.2-0.2,0.5-0.3,0.8-0.3s0.6,0.1,0.8,0.3C242,357.5,242.1,357.8,242.1,358.1z M241.8,361.2v8.8h-1.7v-8.8
			H241.8z"/>
		<path class="st1" d="M247.4,370.1c-0.7,0-1.3-0.2-1.8-0.7c-0.5-0.4-0.7-1.1-0.7-1.9v-4.9h-1.5v-1.5h1.5v-2.7h1.7v2.7h2.2v1.5h-2.2
			v4.4c0,0.6,0.1,1,0.3,1.2s0.5,0.3,0.8,0.3c0.1,0,0.3,0,0.4,0c0.1,0,0.2-0.1,0.4-0.1l0.5,1.5C248.4,370.1,247.9,370.1,247.4,370.1z
			"/>
		<path class="st1" d="M250.3,357.1h1.7v4.1l-0.1,1.2h0.1c0.3-0.4,0.6-0.8,1.2-1.1s1.1-0.4,1.6-0.4c1.1,0,1.9,0.3,2.5,0.9
			s0.9,1.5,0.9,2.6v5.5h-1.7v-5.2c0-1.6-0.7-2.4-2.1-2.4c-0.7,0-1.2,0.3-1.7,0.8c-0.5,0.6-0.7,1.2-0.7,2v4.8h-1.7V357.1z"/>
	</g>
	<g class="st2">
		<path class="st1" d="M70.3,388.8v5.2h-1.7v-12.9H73c1.1,0,2.1,0.4,2.8,1.1c0.8,0.7,1.2,1.7,1.2,2.7c0,1.1-0.4,2-1.2,2.7
			c-0.8,0.7-1.7,1.1-2.8,1.1H70.3z M70.3,382.7v4.5H73c0.7,0,1.2-0.2,1.6-0.7c0.4-0.4,0.7-1,0.7-1.6c0-0.6-0.2-1.1-0.7-1.6
			c-0.4-0.5-1-0.7-1.6-0.7H70.3z"/>
		<path class="st1" d="M80.1,394h-1.7v-8.8H80v1.4h0.1c0.2-0.5,0.5-0.9,1-1.2c0.5-0.3,1-0.5,1.5-0.5c0.5,0,0.9,0.1,1.2,0.2l-0.5,1.6
			c-0.2-0.1-0.5-0.1-1-0.1c-0.6,0-1.2,0.3-1.6,0.8s-0.7,1.1-0.7,1.8V394z"/>
		<path class="st1" d="M84,389.6c0-1.4,0.4-2.5,1.3-3.4c0.9-0.9,1.9-1.3,3.3-1.3c1.3,0,2.4,0.4,3.2,1.3c0.9,0.9,1.3,2,1.3,3.4
			c0,1.4-0.4,2.5-1.3,3.4c-0.9,0.9-1.9,1.3-3.2,1.3c-1.3,0-2.4-0.4-3.3-1.3C84.4,392.1,84,390.9,84,389.6z M85.6,389.6
			c0,0.9,0.3,1.7,0.8,2.3c0.6,0.6,1.2,0.9,2.1,0.9c0.8,0,1.5-0.3,2.1-0.9c0.6-0.6,0.8-1.4,0.8-2.3c0-0.9-0.3-1.7-0.8-2.3
			c-0.6-0.6-1.2-0.9-2.1-0.9c-0.8,0-1.5,0.3-2.1,0.9C85.9,387.9,85.6,388.7,85.6,389.6z"/>
		<path class="st1" d="M94.4,385.2h1.6v1.2H96c0.3-0.4,0.6-0.8,1.2-1.1s1.1-0.4,1.6-0.4c1.1,0,1.9,0.3,2.5,0.9s0.9,1.5,0.9,2.6v5.5
			h-1.7v-5.4c0-1.4-0.8-2.2-2.2-2.2c-0.7,0-1.2,0.3-1.7,0.8c-0.4,0.5-0.7,1.2-0.7,1.9v4.9h-1.7V385.2z"/>
		<path class="st1" d="M103.6,389.6c0-1.4,0.4-2.5,1.3-3.4c0.9-0.9,1.9-1.3,3.3-1.3c1.3,0,2.4,0.4,3.2,1.3c0.9,0.9,1.3,2,1.3,3.4
			c0,1.4-0.4,2.5-1.3,3.4c-0.9,0.9-1.9,1.3-3.2,1.3c-1.3,0-2.4-0.4-3.3-1.3C104,392.1,103.6,390.9,103.6,389.6z M105.3,389.6
			c0,0.9,0.3,1.7,0.8,2.3c0.6,0.6,1.2,0.9,2.1,0.9c0.8,0,1.5-0.3,2.1-0.9c0.6-0.6,0.8-1.4,0.8-2.3c0-0.9-0.3-1.7-0.8-2.3
			c-0.6-0.6-1.2-0.9-2.1-0.9c-0.8,0-1.5,0.3-2.1,0.9C105.5,387.9,105.3,388.7,105.3,389.6z"/>
		<path class="st1" d="M121.8,394h-1.6v-1.2h-0.1c-0.3,0.4-0.6,0.8-1.2,1.1c-0.5,0.3-1.1,0.4-1.6,0.4c-1.1,0-1.9-0.3-2.5-0.9
			s-0.9-1.5-0.9-2.6v-5.5h1.7v5.4c0,1.4,0.8,2.2,2.2,2.2c0.7,0,1.2-0.3,1.7-0.8c0.4-0.5,0.7-1.2,0.7-1.9v-4.9h1.7V394z"/>
		<path class="st1" d="M127.8,394.3c-1.3,0-2.4-0.4-3.3-1.3c-0.9-0.9-1.3-2-1.3-3.4c0-1.4,0.4-2.5,1.3-3.4c0.9-0.9,1.9-1.3,3.3-1.3
			c0.9,0,1.7,0.2,2.4,0.7c0.7,0.4,1.2,1.1,1.5,1.9l-1.5,0.6c-0.5-1.1-1.3-1.7-2.5-1.7c-0.8,0-1.4,0.3-2,0.9
			c-0.5,0.6-0.8,1.4-0.8,2.3c0,0.9,0.3,1.7,0.8,2.3c0.6,0.6,1.2,0.9,2,0.9c1.2,0,2.1-0.6,2.6-1.7l1.5,0.6c-0.3,0.8-0.8,1.4-1.5,1.9
			S128.7,394.3,127.8,394.3z"/>
		<path class="st1" d="M136.4,384.9c1.2,0,2.2,0.3,2.9,1s1.1,1.6,1.1,2.7v5.4h-1.6v-1.2h-0.1c-0.7,1-1.6,1.5-2.7,1.5
			c-1,0-1.8-0.3-2.4-0.9s-1-1.3-1-2.2c0-0.9,0.3-1.6,1-2.2c0.7-0.5,1.6-0.8,2.8-0.8c1,0,1.8,0.2,2.4,0.5v-0.4c0-0.6-0.2-1.1-0.7-1.5
			c-0.5-0.4-1-0.6-1.6-0.6c-0.9,0-1.7,0.4-2.2,1.2l-1.5-0.9C133.7,385.5,134.9,384.9,136.4,384.9z M134.3,391.3
			c0,0.4,0.2,0.8,0.5,1.1c0.4,0.3,0.8,0.4,1.3,0.4c0.7,0,1.3-0.3,1.9-0.8c0.5-0.5,0.8-1.1,0.8-1.8c-0.5-0.4-1.2-0.6-2.2-0.6
			c-0.7,0-1.2,0.2-1.7,0.5C134.5,390.4,134.3,390.8,134.3,391.3z"/>
		<path class="st1" d="M145.6,394.1c-0.7,0-1.3-0.2-1.8-0.7c-0.5-0.4-0.7-1.1-0.7-1.9v-4.9h-1.5v-1.5h1.5v-2.7h1.7v2.7h2.2v1.5h-2.2
			v4.4c0,0.6,0.1,1,0.3,1.2s0.5,0.3,0.8,0.3c0.1,0,0.3,0,0.4,0c0.1,0,0.2-0.1,0.4-0.1l0.5,1.5C146.6,394.1,146.1,394.1,145.6,394.1z
			"/>
		<path class="st1" d="M150.7,382.1c0,0.3-0.1,0.6-0.3,0.8c-0.2,0.2-0.5,0.3-0.8,0.3s-0.6-0.1-0.8-0.3c-0.2-0.2-0.3-0.5-0.3-0.8
			c0-0.3,0.1-0.6,0.3-0.8c0.2-0.2,0.5-0.3,0.8-0.3s0.6,0.1,0.8,0.3C150.6,381.5,150.7,381.8,150.7,382.1z M150.3,385.2v8.8h-1.7
			v-8.8H150.3z"/>
		<path class="st1" d="M151.9,389.6c0-1.4,0.4-2.5,1.3-3.4c0.9-0.9,1.9-1.3,3.3-1.3c1.3,0,2.4,0.4,3.2,1.3c0.9,0.9,1.3,2,1.3,3.4
			c0,1.4-0.4,2.5-1.3,3.4c-0.9,0.9-1.9,1.3-3.2,1.3c-1.3,0-2.4-0.4-3.3-1.3C152.3,392.1,151.9,390.9,151.9,389.6z M153.6,389.6
			c0,0.9,0.3,1.7,0.8,2.3c0.6,0.6,1.2,0.9,2.1,0.9c0.8,0,1.5-0.3,2.1-0.9c0.6-0.6,0.8-1.4,0.8-2.3c0-0.9-0.3-1.7-0.8-2.3
			c-0.6-0.6-1.2-0.9-2.1-0.9c-0.8,0-1.5,0.3-2.1,0.9C153.8,387.9,153.6,388.7,153.6,389.6z"/>
		<path class="st1" d="M162.3,385.2h1.6v1.2h0.1c0.3-0.4,0.6-0.8,1.2-1.1c0.5-0.3,1.1-0.4,1.6-0.4c1.1,0,1.9,0.3,2.5,0.9
			s0.9,1.5,0.9,2.6v5.5h-1.7v-5.4c0-1.4-0.8-2.2-2.2-2.2c-0.7,0-1.2,0.3-1.7,0.8c-0.4,0.5-0.7,1.2-0.7,1.9v4.9h-1.7V385.2z"/>
		<path class="st1" d="M179.4,384.9c1.2,0,2.2,0.3,2.9,1s1.1,1.6,1.1,2.7v5.4h-1.6v-1.2h-0.1c-0.7,1-1.6,1.5-2.7,1.5
			c-1,0-1.8-0.3-2.4-0.9c-0.7-0.6-1-1.3-1-2.2c0-0.9,0.3-1.6,1-2.2s1.6-0.8,2.8-0.8c1,0,1.8,0.2,2.4,0.5v-0.4c0-0.6-0.2-1.1-0.7-1.5
			c-0.5-0.4-1-0.6-1.6-0.6c-0.9,0-1.7,0.4-2.2,1.2l-1.5-0.9C176.6,385.5,177.8,384.9,179.4,384.9z M177.2,391.3
			c0,0.4,0.2,0.8,0.5,1.1c0.4,0.3,0.8,0.4,1.3,0.4c0.7,0,1.3-0.3,1.9-0.8s0.8-1.1,0.8-1.8c-0.5-0.4-1.2-0.6-2.2-0.6
			c-0.7,0-1.2,0.2-1.7,0.5C177.5,390.4,177.2,390.8,177.2,391.3z"/>
		<path class="st1" d="M185.2,385.2h1.6v1.2h0.1c0.3-0.4,0.6-0.8,1.2-1.1c0.5-0.3,1.1-0.4,1.6-0.4c1.1,0,1.9,0.3,2.5,0.9
			s0.9,1.5,0.9,2.6v5.5h-1.7v-5.4c0-1.4-0.8-2.2-2.2-2.2c-0.7,0-1.2,0.3-1.7,0.8c-0.4,0.5-0.7,1.2-0.7,1.9v4.9h-1.7V385.2z"/>
		<path class="st1" d="M198.6,394.3c-1.2,0-2.1-0.5-3-1.4c-0.8-0.9-1.2-2-1.2-3.3s0.4-2.4,1.2-3.3c0.8-0.9,1.8-1.4,3-1.4
			c0.6,0,1.2,0.1,1.8,0.4c0.5,0.3,0.9,0.6,1.2,1.1h0.1l-0.1-1.2v-4.1h1.7V394h-1.6v-1.2h-0.1c-0.3,0.5-0.7,0.8-1.2,1.1
			S199.3,394.3,198.6,394.3z M198.9,392.8c0.8,0,1.5-0.3,2-0.9c0.5-0.6,0.8-1.4,0.8-2.3c0-0.9-0.3-1.7-0.8-2.3
			c-0.5-0.6-1.2-0.9-2-0.9c-0.8,0-1.5,0.3-2,0.9c-0.5,0.6-0.8,1.4-0.8,2.3c0,0.9,0.3,1.7,0.8,2.3
			C197.5,392.5,198.1,392.8,198.9,392.8z"/>
		<path class="st1" d="M213.6,394h-1.7l-3.6-8.8h1.8l2.6,6.8h0l2.6-6.8h1.8L213.6,394z"/>
		<path class="st1" d="M217.5,389.6c0-1.4,0.4-2.5,1.3-3.4c0.9-0.9,2-1.3,3.3-1.3s2.4,0.4,3.2,1.3c0.9,0.9,1.3,2,1.3,3.4
			c0,1.4-0.4,2.5-1.3,3.4c-0.9,0.9-1.9,1.3-3.2,1.3s-2.4-0.4-3.3-1.3C217.9,392.1,217.5,390.9,217.5,389.6z M219.1,389.6
			c0,0.9,0.3,1.7,0.8,2.3c0.6,0.6,1.2,0.9,2.1,0.9s1.5-0.3,2.1-0.9c0.6-0.6,0.8-1.4,0.8-2.3c0-0.9-0.3-1.7-0.8-2.3
			c-0.6-0.6-1.2-0.9-2.1-0.9s-1.5,0.3-2.1,0.9C219.4,387.9,219.1,388.7,219.1,389.6z"/>
		<path class="st1" d="M230,382.1c0,0.3-0.1,0.6-0.3,0.8c-0.2,0.2-0.5,0.3-0.8,0.3s-0.6-0.1-0.8-0.3c-0.2-0.2-0.3-0.5-0.3-0.8
			c0-0.3,0.1-0.6,0.3-0.8c0.2-0.2,0.5-0.3,0.8-0.3s0.6,0.1,0.8,0.3C229.9,381.5,230,381.8,230,382.1z M229.7,385.2v8.8H228v-8.8
			H229.7z"/>
		<path class="st1" d="M235.8,394.3c-1.3,0-2.4-0.4-3.3-1.3c-0.9-0.9-1.3-2-1.3-3.4c0-1.4,0.4-2.5,1.3-3.4c0.9-0.9,1.9-1.3,3.3-1.3
			c0.9,0,1.7,0.2,2.4,0.7c0.7,0.4,1.2,1.1,1.5,1.9l-1.5,0.6c-0.5-1.1-1.3-1.7-2.5-1.7c-0.8,0-1.4,0.3-2,0.9
			c-0.5,0.6-0.8,1.4-0.8,2.3c0,0.9,0.3,1.7,0.8,2.3c0.6,0.6,1.2,0.9,2,0.9c1.2,0,2.1-0.6,2.6-1.7l1.5,0.6c-0.3,0.8-0.8,1.4-1.5,1.9
			C237.5,394.1,236.7,394.3,235.8,394.3z"/>
		<path class="st1" d="M245,394.3c-1.3,0-2.4-0.4-3.2-1.3c-0.8-0.9-1.3-2-1.3-3.4c0-1.3,0.4-2.5,1.2-3.4c0.8-0.9,1.9-1.3,3.1-1.3
			c1.3,0,2.3,0.4,3.1,1.3c0.8,0.8,1.2,2,1.2,3.6l0,0.2h-6.9c0,0.9,0.3,1.6,0.9,2.1c0.6,0.5,1.2,0.8,2,0.8c1.1,0,1.9-0.5,2.5-1.6
			l1.5,0.7c-0.4,0.7-0.9,1.3-1.6,1.7S245.9,394.3,245,394.3z M242.4,388.5h5.1c0-0.6-0.3-1.1-0.7-1.5c-0.4-0.4-1.1-0.6-1.8-0.6
			c-0.6,0-1.2,0.2-1.6,0.6C242.8,387.4,242.5,387.9,242.4,388.5z"/>
	</g>
	<g class="st2">
		<path class="st1" d="M92.7,418.3c-1.3,0-2.4-0.4-3.3-1.3c-0.9-0.9-1.3-2-1.3-3.4c0-1.4,0.4-2.5,1.3-3.4c0.9-0.9,1.9-1.3,3.3-1.3
			c0.9,0,1.7,0.2,2.4,0.7c0.7,0.4,1.2,1.1,1.5,1.9l-1.5,0.6c-0.5-1.1-1.3-1.7-2.5-1.7c-0.8,0-1.4,0.3-2,0.9
			c-0.5,0.6-0.8,1.4-0.8,2.3c0,0.9,0.3,1.7,0.8,2.3c0.6,0.6,1.2,0.9,2,0.9c1.2,0,2.1-0.6,2.6-1.7l1.5,0.6c-0.3,0.8-0.8,1.4-1.5,1.9
			S93.6,418.3,92.7,418.3z"/>
		<path class="st1" d="M97.4,413.6c0-1.4,0.4-2.5,1.3-3.4c0.9-0.9,1.9-1.3,3.3-1.3c1.3,0,2.4,0.4,3.2,1.3c0.9,0.9,1.3,2,1.3,3.4
			c0,1.4-0.4,2.5-1.3,3.4c-0.9,0.9-1.9,1.3-3.2,1.3c-1.3,0-2.4-0.4-3.3-1.3C97.9,416.1,97.4,414.9,97.4,413.6z M99.1,413.6
			c0,0.9,0.3,1.7,0.8,2.3c0.6,0.6,1.2,0.9,2.1,0.9c0.8,0,1.5-0.3,2.1-0.9c0.6-0.6,0.8-1.4,0.8-2.3c0-0.9-0.3-1.7-0.8-2.3
			c-0.6-0.6-1.2-0.9-2.1-0.9c-0.8,0-1.5,0.3-2.1,0.9C99.4,411.9,99.1,412.7,99.1,413.6z"/>
		<path class="st1" d="M109.5,418h-1.7v-8.8h1.6v1.2h0.1c0.3-0.4,0.6-0.8,1.2-1.1s1-0.4,1.6-0.4c0.6,0,1.2,0.2,1.7,0.5
			c0.5,0.3,0.9,0.7,1.1,1.2c0.7-1.1,1.7-1.7,3-1.7c1,0,1.8,0.3,2.4,0.9c0.6,0.6,0.8,1.5,0.8,2.7v5.5h-1.7v-5.3
			c0-0.8-0.2-1.4-0.5-1.8s-0.8-0.5-1.5-0.5c-0.6,0-1.2,0.3-1.6,0.8c-0.4,0.5-0.6,1.2-0.6,1.9v4.9h-1.7v-5.3c0-0.8-0.2-1.4-0.5-1.8
			s-0.8-0.5-1.5-0.5c-0.6,0-1.2,0.3-1.6,0.8s-0.6,1.2-0.6,1.9V418z"/>
		<path class="st1" d="M124.8,418h-1.7v-8.8h1.6v1.2h0.1c0.3-0.4,0.6-0.8,1.2-1.1s1-0.4,1.6-0.4c0.6,0,1.2,0.2,1.7,0.5
			c0.5,0.3,0.9,0.7,1.1,1.2c0.7-1.1,1.7-1.7,3-1.7c1,0,1.8,0.3,2.4,0.9c0.6,0.6,0.8,1.5,0.8,2.7v5.5h-1.7v-5.3
			c0-0.8-0.2-1.4-0.5-1.8s-0.8-0.5-1.5-0.5c-0.6,0-1.2,0.3-1.6,0.8c-0.4,0.5-0.6,1.2-0.6,1.9v4.9H129v-5.3c0-0.8-0.2-1.4-0.5-1.8
			s-0.8-0.5-1.5-0.5c-0.6,0-1.2,0.3-1.6,0.8s-0.6,1.2-0.6,1.9V418z"/>
		<path class="st1" d="M141.8,408.9c1.2,0,2.2,0.3,2.9,1s1.1,1.6,1.1,2.7v5.4h-1.6v-1.2h-0.1c-0.7,1-1.6,1.5-2.7,1.5
			c-1,0-1.8-0.3-2.4-0.9s-1-1.3-1-2.2c0-0.9,0.3-1.6,1-2.2c0.7-0.5,1.6-0.8,2.8-0.8c1,0,1.8,0.2,2.4,0.5v-0.4c0-0.6-0.2-1.1-0.7-1.5
			c-0.5-0.4-1-0.6-1.6-0.6c-0.9,0-1.7,0.4-2.2,1.2l-1.5-0.9C139,409.5,140.2,408.9,141.8,408.9z M139.6,415.3c0,0.4,0.2,0.8,0.5,1.1
			c0.4,0.3,0.8,0.4,1.3,0.4c0.7,0,1.3-0.3,1.9-0.8c0.5-0.5,0.8-1.1,0.8-1.8c-0.5-0.4-1.2-0.6-2.2-0.6c-0.7,0-1.2,0.2-1.7,0.5
			C139.8,414.4,139.6,414.8,139.6,415.3z"/>
		<path class="st1" d="M147.6,409.2h1.6v1.2h0.1c0.3-0.4,0.6-0.8,1.2-1.1s1.1-0.4,1.6-0.4c1.1,0,1.9,0.3,2.5,0.9s0.9,1.5,0.9,2.6
			v5.5h-1.7v-5.4c0-1.4-0.8-2.2-2.2-2.2c-0.7,0-1.2,0.3-1.7,0.8c-0.4,0.5-0.7,1.2-0.7,1.9v4.9h-1.7V409.2z"/>
		<path class="st1" d="M161,418.3c-1.2,0-2.1-0.5-3-1.4c-0.8-0.9-1.2-2-1.2-3.3s0.4-2.4,1.2-3.3c0.8-0.9,1.8-1.4,3-1.4
			c0.6,0,1.2,0.1,1.8,0.4c0.5,0.3,0.9,0.6,1.2,1.1h0.1l-0.1-1.2v-4.1h1.7V418h-1.6v-1.2H164c-0.3,0.5-0.7,0.8-1.2,1.1
			C162.3,418.2,161.7,418.3,161,418.3z M161.3,416.8c0.8,0,1.5-0.3,2-0.9c0.5-0.6,0.8-1.4,0.8-2.3c0-0.9-0.3-1.7-0.8-2.3
			c-0.5-0.6-1.2-0.9-2-0.9c-0.8,0-1.5,0.3-2,0.9c-0.5,0.6-0.8,1.4-0.8,2.3c0,0.9,0.3,1.7,0.8,2.3
			C159.8,416.5,160.5,416.8,161.3,416.8z"/>
		<path class="st1" d="M175.7,418.3c-1.3,0-2.4-0.4-3.3-1.3c-0.9-0.9-1.3-2-1.3-3.4c0-1.4,0.4-2.5,1.3-3.4c0.9-0.9,2-1.3,3.3-1.3
			c0.9,0,1.7,0.2,2.4,0.7c0.7,0.4,1.2,1.1,1.5,1.9l-1.5,0.6c-0.5-1.1-1.3-1.7-2.5-1.7c-0.8,0-1.4,0.3-2,0.9
			c-0.5,0.6-0.8,1.4-0.8,2.3c0,0.9,0.3,1.7,0.8,2.3c0.6,0.6,1.2,0.9,2,0.9c1.2,0,2.1-0.6,2.6-1.7l1.5,0.6c-0.3,0.8-0.8,1.4-1.5,1.9
			C177.4,418.1,176.6,418.3,175.7,418.3z"/>
		<path class="st1" d="M180.5,413.6c0-1.4,0.4-2.5,1.3-3.4c0.9-0.9,2-1.3,3.3-1.3s2.4,0.4,3.2,1.3c0.9,0.9,1.3,2,1.3,3.4
			c0,1.4-0.4,2.5-1.3,3.4c-0.9,0.9-1.9,1.3-3.2,1.3s-2.4-0.4-3.3-1.3C180.9,416.1,180.5,414.9,180.5,413.6z M182.1,413.6
			c0,0.9,0.3,1.7,0.8,2.3c0.6,0.6,1.2,0.9,2.1,0.9s1.5-0.3,2.1-0.9c0.6-0.6,0.8-1.4,0.8-2.3c0-0.9-0.3-1.7-0.8-2.3
			c-0.6-0.6-1.2-0.9-2.1-0.9s-1.5,0.3-2.1,0.9C182.4,411.9,182.1,412.7,182.1,413.6z"/>
		<path class="st1" d="M190.9,409.2h1.6v1.2h0.1c0.3-0.4,0.6-0.8,1.2-1.1c0.5-0.3,1.1-0.4,1.6-0.4c1.1,0,1.9,0.3,2.5,0.9
			s0.9,1.5,0.9,2.6v5.5H197v-5.4c0-1.4-0.8-2.2-2.2-2.2c-0.7,0-1.2,0.3-1.7,0.8s-0.7,1.2-0.7,1.9v4.9h-1.7V409.2z"/>
		<path class="st1" d="M203.7,418.1c-0.7,0-1.3-0.2-1.8-0.7c-0.5-0.4-0.7-1.1-0.7-1.9v-4.9h-1.5v-1.5h1.5v-2.7h1.7v2.7h2.2v1.5h-2.2
			v4.4c0,0.6,0.1,1,0.3,1.2c0.2,0.2,0.5,0.3,0.8,0.3c0.1,0,0.3,0,0.4,0c0.1,0,0.2-0.1,0.4-0.1l0.5,1.5
			C204.8,418.1,204.3,418.1,203.7,418.1z"/>
		<path class="st1" d="M208.2,418h-1.7v-8.8h1.6v1.4h0.1c0.2-0.5,0.5-0.9,1-1.2s1-0.5,1.5-0.5c0.5,0,0.9,0.1,1.2,0.2l-0.5,1.6
			c-0.2-0.1-0.5-0.1-1-0.1c-0.6,0-1.2,0.3-1.6,0.8s-0.7,1.1-0.7,1.8V418z"/>
		<path class="st1" d="M212,413.6c0-1.4,0.4-2.5,1.3-3.4c0.9-0.9,1.9-1.3,3.3-1.3c1.3,0,2.4,0.4,3.2,1.3c0.9,0.9,1.3,2,1.3,3.4
			c0,1.4-0.4,2.5-1.3,3.4c-0.9,0.9-1.9,1.3-3.2,1.3c-1.3,0-2.4-0.4-3.3-1.3C212.5,416.1,212,414.9,212,413.6z M213.7,413.6
			c0,0.9,0.3,1.7,0.8,2.3c0.6,0.6,1.2,0.9,2.1,0.9c0.8,0,1.5-0.3,2.1-0.9c0.6-0.6,0.8-1.4,0.8-2.3c0-0.9-0.3-1.7-0.8-2.3
			c-0.6-0.6-1.2-0.9-2.1-0.9c-0.8,0-1.5,0.3-2.1,0.9C214,411.9,213.7,412.7,213.7,413.6z"/>
		<path class="st1" d="M224.2,405.1V418h-1.7v-12.9H224.2z"/>
		<path class="st1" d="M228.5,416.9c0,0.3-0.1,0.6-0.4,0.9c-0.2,0.2-0.5,0.4-0.9,0.4c-0.3,0-0.6-0.1-0.9-0.4s-0.4-0.5-0.4-0.9
			c0-0.3,0.1-0.6,0.4-0.9c0.2-0.2,0.5-0.4,0.9-0.4c0.3,0,0.6,0.1,0.9,0.4C228.4,416.2,228.5,416.5,228.5,416.9z"/>
	</g>
	<g id="Line_2">
		<path class="st3" d="M161.5,612.5c0-0.5,0.4-1,1-1l0,0c0.5,0,1,0.5,1,1l0,0c0,0.5-0.5,1-1,1l0,0
			C161.9,613.5,161.5,613,161.5,612.5z M161.5,606.5c0-0.5,0.4-1,1-1l0,0c0.5,0,1,0.5,1,1l0,0c0,0.5-0.5,1-1,1l0,0
			C161.9,607.5,161.5,607,161.5,606.5z M161.5,600.5c0-0.5,0.4-1,1-1l0,0c0.5,0,1,0.5,1,1l0,0c0,0.5-0.5,1-1,1l0,0
			C161.9,601.5,161.5,601,161.5,600.5z M161.5,594.5c0-0.5,0.4-1,1-1l0,0c0.5,0,1,0.5,1,1l0,0c0,0.5-0.5,1-1,1l0,0
			C161.9,595.5,161.5,595,161.5,594.5z M161.5,588.5c0-0.5,0.4-1,1-1l0,0c0.5,0,1,0.5,1,1l0,0c0,0.5-0.5,1-1,1l0,0
			C161.9,589.5,161.5,589,161.5,588.5z M161.5,582.5c0-0.5,0.4-1,1-1l0,0c0.5,0,1,0.5,1,1l0,0c0,0.5-0.5,1-1,1l0,0
			C161.9,583.5,161.5,583,161.5,582.5z M161.5,576.5c0-0.5,0.4-1,1-1l0,0c0.5,0,1,0.5,1,1l0,0c0,0.5-0.5,1-1,1l0,0
			C161.9,577.5,161.5,577,161.5,576.5z M161.5,570.5c0-0.5,0.4-1,1-1l0,0c0.5,0,1,0.5,1,1l0,0c0,0.5-0.5,1-1,1l0,0
			C161.9,571.5,161.5,571,161.5,570.5z M161.5,564.5c0-0.6,0.4-1,1-1l0,0c0.5,0,1,0.4,1,1l0,0c0,0.5-0.5,1-1,1l0,0
			C161.9,565.5,161.5,565,161.5,564.5z M161.5,558.5c0-0.5,0.4-1,1-1l0,0c0.5,0,1,0.5,1,1l0,0c0,0.5-0.5,1-1,1l0,0
			C161.9,559.5,161.5,559,161.5,558.5z M161.5,552.5c0-0.5,0.4-1,1-1l0,0c0.5,0,1,0.5,1,1l0,0c0,0.5-0.5,1-1,1l0,0
			C161.9,553.5,161.5,553,161.5,552.5z M161.5,546.5c0-0.5,0.4-1,1-1l0,0c0.5,0,1,0.5,1,1l0,0c0,0.5-0.5,1-1,1l0,0
			C161.9,547.5,161.5,547,161.5,546.5z M161.5,540.5c0-0.5,0.4-1,1-1l0,0c0.5,0,1,0.5,1,1l0,0c0,0.5-0.5,1-1,1l0,0
			C161.9,541.5,161.5,541,161.5,540.5z M161.5,534.5c0-0.5,0.4-1,1-1l0,0c0.5,0,1,0.5,1,1l0,0c0,0.5-0.5,1-1,1l0,0
			C161.9,535.5,161.5,535,161.5,534.5z M161.5,528.5c0-0.5,0.4-1,1-1l0,0c0.5,0,1,0.5,1,1l0,0c0,0.5-0.5,1-1,1l0,0
			C161.9,529.5,161.5,529,161.5,528.5z M161.5,522.5c0-0.5,0.4-1,1-1l0,0c0.5,0,1,0.5,1,1l0,0c0,0.5-0.5,1-1,1l0,0
			C161.9,523.5,161.5,523,161.5,522.5z M161.5,516.5c0-0.5,0.4-1,1-1l0,0c0.5,0,1,0.5,1,1l0,0c0,0.5-0.5,1-1,1l0,0
			C161.9,517.5,161.5,517,161.5,516.5z M161.5,510.5c0-0.5,0.4-1,1-1l0,0c0.5,0,1,0.5,1,1l0,0c0,0.5-0.5,1-1,1l0,0
			C161.9,511.5,161.5,511,161.5,510.5z M161.5,504.5c0-0.5,0.4-1,1-1l0,0c0.5,0,1,0.5,1,1l0,0c0,0.5-0.5,1-1,1l0,0
			C161.9,505.5,161.5,505,161.5,504.5z M161.5,498.5c0-0.5,0.4-1,1-1l0,0c0.5,0,1,0.5,1,1l0,0c0,0.5-0.5,1-1,1l0,0
			C161.9,499.5,161.5,499,161.5,498.5z M161.5,492.5c0-0.5,0.4-1,1-1l0,0c0.5,0,1,0.5,1,1l0,0c0,0.5-0.5,1-1,1l0,0
			C161.9,493.5,161.5,493,161.5,492.5z M161.5,486.5c0-0.5,0.4-1,1-1l0,0c0.5,0,1,0.5,1,1l0,0c0,0.5-0.5,1-1,1l0,0
			C161.9,487.5,161.5,487,161.5,486.5z M161.5,480.5c0-0.5,0.4-1,1-1l0,0c0.5,0,1,0.5,1,1l0,0c0,0.5-0.5,1-1,1l0,0
			C161.9,481.5,161.5,481,161.5,480.5z M161.5,474.5c0-0.5,0.4-1,1-1l0,0c0.5,0,1,0.5,1,1l0,0c0,0.5-0.5,1-1,1l0,0
			C161.9,475.5,161.5,475,161.5,474.5z M161.5,468.5c0-0.5,0.4-1,1-1l0,0c0.5,0,1,0.5,1,1l0,0c0,0.5-0.5,1-1,1l0,0
			C161.9,469.5,161.5,469,161.5,468.5z M161.5,462.5c0-0.5,0.4-1,1-1l0,0c0.5,0,1,0.5,1,1l0,0c0,0.5-0.5,1-1,1l0,0
			C161.9,463.5,161.5,463,161.5,462.5z M161.5,456.5c0-0.5,0.4-1,1-1l0,0c0.5,0,1,0.5,1,1l0,0c0,0.5-0.5,1-1,1l0,0
			C161.9,457.5,161.5,457,161.5,456.5z M161.5,450.5c0-0.5,0.4-1,1-1l0,0c0.5,0,1,0.5,1,1l0,0c0,0.5-0.5,1-1,1l0,0
			C161.9,451.5,161.5,451,161.5,450.5z"/>
	</g>
	<g id="Rectangle_1677">
		<g>
			<defs>
				<rect id="SVGID_1_" x="29" y="515" width="263" height="101"/>
			</defs>
			<clipPath id="SVGID_2_">
				<use xlink:href="#SVGID_1_"  style="overflow:visible;"/>
			</clipPath>
			<path class="st4" d="M292,515H29H292z"/>
			<rect x="29" y="515" class="st4" width="263" height="71.7"/>
			<rect x="29" y="586.7" class="st4" width="263" height="29.3"/>
		</g>
	</g>
	<g id="Rectangle_1678">
		<g>
			<defs>
				<rect id="SVGID_3_" x="29" y="83" width="263" height="101"/>
			</defs>
			<clipPath id="SVGID_4_">
				<use xlink:href="#SVGID_3_"  style="overflow:visible;"/>
			</clipPath>
			<path class="st5" d="M29,184h263H29z"/>
			<rect x="29" y="112.3" class="st5" width="263" height="71.7"/>
			<rect x="29" y="83" class="st5" width="263" height="29.3"/>
		</g>
	</g>
	<g id="Ellipse_149">
		<circle class="st1" cx="162.5" cy="451.5" r="6.5"/>
	</g>
	<g id="Group_6791" transform="translate(-474 -2695)">
		<g id="Group_6787" transform="translate(6 31)">
			<g id="Group_202" transform="translate(500 2779.957)">
				<g transform="matrix(1, 0, 0, 1, -66.5, -141.46)">
					<g id="Path_116-2">
						<path class="st6" d="M74.4,165.9h244.9c1.6-0.1,2.9,1.1,3,2.6v178.9c-0.1,1.6-1.5,2.7-3,2.6H74.4c-1.6,0.1-2.9-1.1-3-2.6
							V168.5C71.5,166.9,72.9,165.8,74.4,165.9z"/>
					</g>
				</g>
				<g id="Component_18_1" transform="translate(0 0)">
					<g transform="matrix(1, 0, 0, 1, -66.5, -141.46)">
						<g id="Path_108-2">
							<path class="st7" d="M69.6,141.5H324c1.7,0,3.1,1,3.1,2.2v149.8c0,1.2-1.4,2.2-3.1,2.2H69.6c-1.7,0-3.1-1-3.1-2.2V143.7
								C66.5,142.4,67.9,141.5,69.6,141.5z"/>
						</g>
					</g>
					<g id="Component_17_2" transform="translate(247.516 30.759)">
						<g id="Path_119">
							<path class="st8" d="M1.2,0c0.6,0,1.2,0.5,1.2,1.2l0,0v111.2c0,0.6-0.5,1.2-1.2,1.2S0,113,0,112.3V1.2C0,0.5,0.5,0,1.2,0
								C1.2,0,1.2,0,1.2,0z"/>
						</g>
						<g id="Rectangle_65">
							<path class="st9" d="M1.2,0L1.2,0c0.6,0,1.2,0.5,1.2,1.2v25.2c0,0.6-0.5,1.2-1.2,1.2l0,0C0.5,27.5,0,27,0,26.3V1.2
								C0,0.5,0.5,0,1.2,0z"/>
						</g>
					</g>
					<g id="Group_201" transform="translate(27.171 15.585)">
						<g id="Group_160" transform="translate(0)">
							<g class="st2">
								<path class="st10" d="M3.5,5.9c0.5,0,0.9,0.1,1.3,0.2s0.7,0.4,1,0.6c0.3,0.3,0.5,0.6,0.6,1c0.2,0.4,0.2,0.8,0.2,1.3
									s-0.1,0.9-0.2,1.3c-0.2,0.4-0.4,0.7-0.6,1c-0.3,0.3-0.6,0.5-1,0.6s-0.8,0.2-1.3,0.2S2.6,12.1,2.2,12c-0.4-0.2-0.7-0.4-1-0.6
									c-0.3-0.3-0.5-0.6-0.6-1C0.4,9.9,0.3,9.5,0.3,9.1s0.1-0.9,0.2-1.3c0.2-0.4,0.4-0.7,0.6-1c0.3-0.3,0.6-0.5,1-0.6
									C2.6,6,3,5.9,3.5,5.9z M3.5,10.7c0.2,0,0.4,0,0.6-0.1s0.4-0.2,0.5-0.3c0.1-0.1,0.3-0.3,0.3-0.5C5,9.6,5,9.3,5,9.1
									c0-0.3,0-0.5-0.1-0.7C4.8,8.1,4.7,8,4.5,7.8C4.4,7.7,4.2,7.6,4,7.5S3.7,7.4,3.5,7.4c-0.2,0-0.4,0-0.6,0.1
									C2.7,7.6,2.5,7.7,2.4,7.8C2.2,8,2.1,8.1,2,8.4C2,8.6,1.9,8.8,1.9,9.1c0,0.3,0,0.5,0.1,0.7c0.1,0.2,0.2,0.4,0.3,0.5
									c0.1,0.1,0.3,0.3,0.5,0.3C3.1,10.7,3.2,10.7,3.5,10.7z"/>
								<path class="st10" d="M7.7,6.1h1.5v0.7h0.1C9.4,6.6,9.7,6.4,10,6.2c0.3-0.2,0.7-0.3,1.1-0.3c0.4,0,0.7,0.1,1.1,0.2
									c0.3,0.2,0.6,0.4,0.9,0.6c0.3,0.3,0.5,0.6,0.6,1c0.2,0.4,0.2,0.8,0.2,1.3s-0.1,0.9-0.2,1.3c-0.2,0.4-0.4,0.7-0.6,1
									c-0.3,0.3-0.6,0.5-0.9,0.6c-0.3,0.2-0.7,0.2-1.1,0.2c-0.4,0-0.8-0.1-1.1-0.3c-0.3-0.2-0.5-0.4-0.7-0.6H9.2l0.1,0.8v2.5H7.7
									V6.1z M10.8,10.7c0.2,0,0.4,0,0.6-0.1s0.4-0.2,0.5-0.3c0.1-0.1,0.3-0.3,0.3-0.5s0.1-0.4,0.1-0.7c0-0.3,0-0.5-0.1-0.7
									S12,8,11.9,7.8c-0.1-0.1-0.3-0.3-0.5-0.3S11,7.4,10.8,7.4s-0.4,0-0.6,0.1S9.8,7.7,9.7,7.8C9.5,8,9.4,8.1,9.3,8.4
									C9.2,8.6,9.2,8.8,9.2,9.1c0,0.3,0,0.5,0.1,0.7c0.1,0.2,0.2,0.4,0.3,0.5c0.1,0.1,0.3,0.3,0.5,0.3S10.6,10.7,10.8,10.7z"/>
								<path class="st10" d="M18.8,11.4L18.8,11.4c-0.3,0.2-0.5,0.4-0.8,0.6c-0.3,0.2-0.6,0.2-1,0.2c-0.3,0-0.6-0.1-0.9-0.2
									s-0.5-0.2-0.7-0.4c-0.2-0.2-0.4-0.4-0.5-0.6s-0.2-0.5-0.2-0.8c0-0.3,0.1-0.6,0.2-0.8c0.1-0.2,0.3-0.5,0.5-0.6
									c0.2-0.2,0.5-0.3,0.8-0.4c0.3-0.1,0.6-0.1,1-0.1c0.4,0,0.7,0,0.9,0.1c0.2,0.1,0.5,0.1,0.6,0.2V8.3c0-0.3-0.1-0.6-0.4-0.8
									s-0.6-0.3-0.9-0.3c-0.5,0-1,0.2-1.4,0.7L15,7.1c0.6-0.8,1.5-1.2,2.6-1.2c0.9,0,1.6,0.2,2.1,0.6s0.7,1.1,0.7,1.9V12h-1.5
									V11.4z M18.8,9.6c-0.2-0.1-0.4-0.2-0.6-0.2c-0.2-0.1-0.4-0.1-0.6-0.1c-0.4,0-0.7,0.1-0.9,0.2s-0.3,0.4-0.3,0.6
									s0.1,0.4,0.3,0.6c0.2,0.1,0.4,0.2,0.7,0.2c0.2,0,0.4,0,0.6-0.1c0.2-0.1,0.3-0.2,0.4-0.3s0.2-0.3,0.3-0.4S18.8,9.8,18.8,9.6z
									"/>
								<path class="st10" d="M26,12.1l0.1-0.8H26c-0.1,0.2-0.4,0.5-0.7,0.6c-0.3,0.2-0.7,0.3-1.1,0.3c-0.4,0-0.7-0.1-1.1-0.2
									c-0.3-0.2-0.6-0.4-0.9-0.6c-0.3-0.3-0.5-0.6-0.6-1c-0.2-0.4-0.2-0.8-0.2-1.3s0.1-0.9,0.2-1.3c0.2-0.4,0.4-0.7,0.6-1
									c0.3-0.3,0.6-0.5,0.9-0.6c0.3-0.2,0.7-0.2,1.1-0.2c0.4,0,0.8,0.1,1.1,0.3c0.3,0.2,0.5,0.4,0.7,0.6h0.1V6.1h1.5v8.5H26V12.1z
									 M24.6,10.7c0.2,0,0.4,0,0.6-0.1c0.2-0.1,0.4-0.2,0.5-0.3c0.1-0.1,0.3-0.3,0.3-0.5c0.1-0.2,0.1-0.4,0.1-0.7
									c0-0.3,0-0.5-0.1-0.7c-0.1-0.2-0.2-0.4-0.3-0.5c-0.1-0.1-0.3-0.3-0.5-0.3c-0.2-0.1-0.4-0.1-0.6-0.1s-0.4,0-0.6,0.1
									c-0.2,0.1-0.4,0.2-0.5,0.3c-0.1,0.1-0.3,0.3-0.3,0.5C23,8.6,23,8.8,23,9.1c0,0.3,0,0.5,0.1,0.7c0.1,0.2,0.2,0.4,0.3,0.5
									c0.1,0.1,0.3,0.3,0.5,0.3C24.2,10.7,24.4,10.7,24.6,10.7z"/>
								<path class="st10" d="M33.2,11.2L33.2,11.2c-0.3,0.3-0.5,0.5-0.8,0.7s-0.7,0.3-1.1,0.3c-0.7,0-1.3-0.2-1.7-0.7
									s-0.5-1.1-0.5-1.8V6.1h1.6v3.4c0,0.4,0.1,0.7,0.3,0.9c0.2,0.2,0.5,0.3,0.8,0.3c0.2,0,0.4,0,0.6-0.1c0.2-0.1,0.3-0.2,0.4-0.4
									c0.1-0.2,0.2-0.3,0.3-0.6c0.1-0.2,0.1-0.4,0.1-0.7V6.1h1.6V12h-1.5V11.2z"/>
								<path class="st10" d="M41.8,10.6c-0.3,0.5-0.6,0.9-1.1,1.2c-0.5,0.3-1,0.4-1.7,0.4c-0.4,0-0.9-0.1-1.2-0.2s-0.7-0.4-1-0.7
									c-0.3-0.3-0.5-0.6-0.7-1c-0.2-0.4-0.2-0.8-0.2-1.3c0-0.4,0.1-0.8,0.2-1.2c0.2-0.4,0.4-0.7,0.6-1c0.3-0.3,0.6-0.5,1-0.7
									s0.8-0.3,1.2-0.3c0.5,0,0.9,0.1,1.3,0.2c0.4,0.2,0.7,0.4,0.9,0.6c0.2,0.3,0.4,0.6,0.6,1c0.1,0.4,0.2,0.8,0.2,1.2
									c0,0.1,0,0.1,0,0.1c0,0,0,0.1,0,0.1c0,0,0,0.1,0,0.1h-4.4c0,0.2,0.1,0.4,0.2,0.6s0.2,0.3,0.4,0.4c0.1,0.1,0.3,0.2,0.5,0.3
									c0.2,0.1,0.4,0.1,0.5,0.1c0.4,0,0.7-0.1,0.9-0.2c0.2-0.2,0.4-0.4,0.6-0.6L41.8,10.6z M40.4,8.3c0-0.1,0-0.2-0.1-0.3
									c-0.1-0.1-0.1-0.2-0.3-0.4c-0.1-0.1-0.3-0.2-0.4-0.3c-0.2-0.1-0.4-0.1-0.6-0.1c-0.3,0-0.6,0.1-0.9,0.3
									c-0.3,0.2-0.4,0.5-0.5,0.8H40.4z"/>
							</g>
						</g>
					</g>
					<g id="Group_102" transform="translate(81.377 17.91)">
						<g id="Path_66">
							<path class="st10" d="M12.6,3.5c-0.2-0.2-0.6-0.2-0.8,0c-0.2,0.2-0.2,0.6,0,0.8c1.4,1.5,1.4,3.8,0,5.3
								c-0.2,0.2-0.2,0.6,0,0.8c0.2,0.2,0.6,0.2,0.8,0C14.4,8.5,14.4,5.5,12.6,3.5L12.6,3.5z"/>
						</g>
						<g id="Path_67">
							<path class="st10" d="M10.8,4.8c-0.2-0.2-0.6-0.2-0.8,0c-0.2,0.2-0.2,0.6,0,0.8c0.7,0.8,0.7,1.9,0,2.7C9.7,8.6,9.7,9,9.9,9.2
								c0.2,0.2,0.6,0.2,0.8,0C11.9,8,11.9,6.1,10.8,4.8L10.8,4.8z"/>
						</g>
						<g id="Path_68">
							<path class="st10" d="M7.2,0.2l-4,3.7H0.6C0.3,3.9,0,4.2,0,4.5c0,0,0,0,0,0v5.1c0,0.3,0.3,0.6,0.6,0.6c0,0,0,0,0,0h2.7l4,3.7
								c0.2,0.2,0.6,0.2,0.8,0c0.1-0.1,0.2-0.3,0.2-0.4V0.6C8.2,0.3,8,0,7.6,0C7.5,0,7.3,0.1,7.2,0.2z M2.9,9H1.2V5.1h1.7L2.9,9
								L2.9,9z M7.1,12.1L4,9.2V4.8l3-2.8V12.1z"/>
						</g>
					</g>
				</g>
				<g id="Group_199" transform="translate(154.102 14.068)">
					<g id="Group_227">
						<g id="Group_228">
							<g id="Group_189" transform="translate(7.643 4.796)">
								<g id="Path_64">
									<path class="st10" d="M4.5,14.5l1.4-2C6,12.3,6.1,12.1,6.2,12c-3.9-0.2-7-3-7-6.4c0-3.5,3.4-6.4,7.6-6.4
										c3.5,0,6.6,2.1,7.4,4.9h0L14.3,5c0,0.1,0,0.4,0,0.6v0c0,3.6-2.5,6.3-7.5,8.1L4.5,14.5z M8.6,10.3l-0.4,1.1
										c3-1.4,4.5-3.3,4.5-5.7l0,0l0-0.1c0-0.1,0-0.3,0-0.4l0-0.1c-0.3-2.4-2.9-4.3-5.9-4.3c-3.3,0-6,2.2-6,4.8s2.7,4.8,6,4.8
										c0.2,0,0.4,0,0.6,0L8.6,10.3z"/>
								</g>
								<g id="Group_98" transform="translate(3.153 4.896)">
									<g id="Ellipse_21">
										<ellipse class="st10" cx="0.9" cy="0.9" rx="0.9" ry="0.9"/>
									</g>
									<g id="Ellipse_22">
										<ellipse class="st10" cx="3.7" cy="0.9" rx="0.9" ry="0.9"/>
									</g>
									<g id="Ellipse_23">
										<ellipse class="st10" cx="6.4" cy="0.9" rx="0.9" ry="0.9"/>
									</g>
								</g>
							</g>
							<g class="st2">
								<path class="st10" d="M30.9,13.8c-0.3,0-0.6-0.1-0.9-0.2s-0.5-0.3-0.7-0.5s-0.3-0.5-0.4-0.8c-0.1-0.3-0.2-0.6-0.2-1V7.9h1.1
									v3.5c0,0.2,0,0.4,0.1,0.5c0,0.2,0.1,0.3,0.2,0.4c0.1,0.1,0.2,0.2,0.4,0.3s0.3,0.1,0.5,0.1c0.2,0,0.4,0,0.5-0.1
									s0.3-0.2,0.4-0.3c0.1-0.1,0.2-0.3,0.2-0.4c0-0.2,0.1-0.3,0.1-0.5V7.9h1.1v3.4c0,0.4-0.1,0.7-0.2,1c-0.1,0.3-0.3,0.5-0.4,0.8
									s-0.4,0.4-0.7,0.5S31.2,13.8,30.9,13.8z"/>
								<path class="st10" d="M36,13.8c-0.2,0-0.5,0-0.7-0.1c-0.2-0.1-0.4-0.2-0.6-0.3s-0.3-0.3-0.5-0.5s-0.2-0.4-0.3-0.7l1-0.4
									c0.1,0.3,0.2,0.5,0.4,0.7s0.4,0.3,0.7,0.3c0.1,0,0.2,0,0.3,0c0.1,0,0.2-0.1,0.3-0.1c0.1-0.1,0.1-0.1,0.2-0.2
									c0-0.1,0.1-0.2,0.1-0.3c0-0.1,0-0.2-0.1-0.3c0-0.1-0.1-0.2-0.2-0.2c-0.1-0.1-0.2-0.1-0.3-0.2c-0.1-0.1-0.3-0.1-0.5-0.2
									L35.4,11c-0.2-0.1-0.3-0.1-0.5-0.2s-0.3-0.2-0.4-0.3s-0.2-0.3-0.3-0.5c-0.1-0.2-0.1-0.4-0.1-0.6c0-0.2,0-0.4,0.1-0.6
									s0.2-0.4,0.4-0.5C34.8,8.1,35,8,35.2,7.9c0.2-0.1,0.5-0.1,0.8-0.1c0.3,0,0.5,0,0.7,0.1s0.4,0.2,0.5,0.3
									c0.1,0.1,0.3,0.3,0.4,0.4c0.1,0.1,0.2,0.3,0.2,0.4l-1,0.4c-0.1-0.2-0.2-0.3-0.3-0.4S36.2,8.8,36,8.8c-0.2,0-0.4,0.1-0.6,0.2
									c-0.2,0.1-0.2,0.3-0.2,0.4c0,0.2,0.1,0.3,0.2,0.4s0.4,0.2,0.7,0.3l0.4,0.1c0.2,0.1,0.4,0.2,0.6,0.3c0.2,0.1,0.4,0.2,0.5,0.4
									c0.1,0.1,0.2,0.3,0.3,0.5c0.1,0.2,0.1,0.4,0.1,0.6c0,0.3-0.1,0.6-0.2,0.8c-0.1,0.2-0.3,0.4-0.5,0.5s-0.4,0.2-0.6,0.3
									C36.5,13.7,36.3,13.8,36,13.8z"/>
								<path class="st10" d="M40.6,7.9h1.2l2.2,5.7h-1.2l-0.5-1.4h-2.2l-0.5,1.4h-1.2L40.6,7.9z M42,11.3l-0.5-1.4l-0.2-0.7h-0.1
									L41,9.9l-0.5,1.4H42z"/>
								<path class="st10" d="M47.4,10.5h2.8c0,0.1,0,0.1,0,0.2s0,0.2,0,0.3c0,0.4-0.1,0.7-0.2,1c-0.1,0.3-0.3,0.6-0.5,0.9
									c-0.3,0.3-0.6,0.5-0.9,0.6s-0.8,0.2-1.2,0.2c-0.4,0-0.8-0.1-1.2-0.2s-0.7-0.4-1-0.6c-0.3-0.3-0.5-0.6-0.6-0.9
									c-0.2-0.4-0.2-0.8-0.2-1.2c0-0.4,0.1-0.8,0.2-1.2c0.2-0.4,0.4-0.7,0.6-0.9c0.3-0.3,0.6-0.5,1-0.6s0.8-0.2,1.2-0.2
									c0.5,0,0.9,0.1,1.2,0.2s0.7,0.4,0.9,0.7l-0.7,0.7c-0.2-0.2-0.4-0.3-0.6-0.5c-0.2-0.1-0.5-0.2-0.8-0.2c-0.3,0-0.5,0-0.7,0.1
									c-0.2,0.1-0.4,0.2-0.6,0.4c-0.2,0.2-0.3,0.4-0.4,0.6c-0.1,0.2-0.2,0.5-0.2,0.8s0.1,0.6,0.2,0.8c0.1,0.2,0.2,0.4,0.4,0.6
									c0.2,0.2,0.4,0.3,0.6,0.4c0.2,0.1,0.5,0.1,0.8,0.1c0.3,0,0.6,0,0.8-0.1s0.4-0.2,0.5-0.3c0.1-0.1,0.2-0.2,0.3-0.4
									c0.1-0.1,0.1-0.3,0.2-0.5h-1.8V10.5z"/>
								<path class="st10" d="M52.4,8.9v1.3h2.3v1h-2.3v1.3H55v1h-3.6V7.9H55v1H52.4z"/>
							</g>
							<g id="Rectangle_68">
								<g>
									<path class="st11" d="M4,0h63.9c2.2,0,4,1.8,4,4v15.1c0,2.2-1.8,4-4,4H4c-2.2,0-4-1.8-4-4V4C0,1.8,1.8,0,4,0z"/>
								</g>
								<g>
									<path class="st10" d="M67.9,23.1H4c-2.2,0-4-1.8-4-4V4c0-2.2,1.8-4,4-4h63.9c2.2,0,4,1.8,4,4v15.1
										C71.9,21.3,70.1,23.1,67.9,23.1z M4,1C2.3,1,1,2.3,1,4v15.1c0,1.7,1.3,3,3,3h63.9c1.7,0,3-1.3,3-3V4c0-1.7-1.3-3-3-3H4z"/>
								</g>
							</g>
						</g>
					</g>
				</g>
				<g id="Group_191" transform="translate(14.087 42.747)">
					<g class="st2">
						<path class="st12" d="M3.7,3.6L1,10H0.2l2.7-6.4H3.7z"/>
					</g>
					<g class="st2">
						<path class="st12" d="M4.5,7.6h3.2c0-0.5-0.1-0.9-0.4-1.2C7,6.1,6.6,6,6.2,6c-0.5,0-1,0.2-1.4,0.5V5.8
							c0.4-0.3,0.9-0.4,1.6-0.4C7,5.4,7.5,5.6,7.9,6s0.5,1,0.5,1.7c0,0.7-0.2,1.3-0.6,1.7c-0.4,0.4-0.9,0.7-1.5,0.7
							c-0.6,0-1.1-0.2-1.4-0.6C4.6,9.1,4.5,8.6,4.5,7.9V7.6z M7.6,8.2H5.2c0,0.4,0.1,0.7,0.3,1C5.7,9.4,6,9.5,6.3,9.5
							c0.3,0,0.6-0.1,0.9-0.4C7.4,8.9,7.6,8.6,7.6,8.2z"/>
					</g>
					<g class="st2">
						<path class="st12" d="M11.8,3.4c-0.4,0.5-0.8,1.1-1,1.7c-0.3,0.7-0.4,1.3-0.4,1.9c0,0.6,0.1,1.3,0.4,1.9
							c0.3,0.7,0.6,1.3,1,1.7l-0.6,0.4c-0.5-0.6-0.9-1.2-1.2-1.9C9.7,8.5,9.6,7.8,9.6,7.1c0-0.7,0.1-1.4,0.4-2.2
							c0.3-0.7,0.7-1.4,1.2-2L11.8,3.4z"/>
					</g>
					<g class="st2">
						<path class="st12" d="M13.4,6.1h-0.8V5.5h1.7v0.6c-0.6,0.3-1,0.9-1,1.7c0,0.5,0.1,0.9,0.4,1.2c0.3,0.3,0.7,0.5,1.1,0.5
							c0.5,0,0.9-0.1,1.1-0.4s0.4-0.7,0.4-1.2c0-0.8-0.3-1.4-1-1.7V5.5h1.7v0.6h-0.8c0.5,0.4,0.8,1,0.8,1.7c0,0.7-0.2,1.2-0.6,1.6
							c-0.4,0.4-1,0.6-1.7,0.6c-0.7,0-1.2-0.2-1.6-0.6c-0.4-0.4-0.6-0.9-0.6-1.6C12.6,7.1,12.8,6.5,13.4,6.1z"/>
					</g>
					<g class="st2">
						<path class="st12" d="M18.5,3c0.3,0.3,0.5,0.6,0.7,0.9c0.2,0.3,0.4,0.7,0.5,1c0.3,0.7,0.4,1.4,0.4,2.2c0,0.7-0.1,1.5-0.4,2.2
							c-0.3,0.7-0.7,1.4-1.2,1.9l-0.6-0.4c0.4-0.5,0.8-1.1,1-1.7c0.3-0.7,0.4-1.3,0.4-1.9c0-0.6-0.1-1.3-0.4-1.9
							c-0.3-0.7-0.6-1.3-1-1.7L18.5,3z"/>
					</g>
					<g class="st2">
						<path class="st12" d="M22.6,4.8h-0.5V3.3h0.5V4.8z"/>
					</g>
					<g class="st2">
						<path class="st12" d="M26.8,10.1c-0.3,0-0.6-0.1-0.9-0.2c-0.3-0.1-0.5-0.3-0.6-0.5h0l0,0.6v1.9h-0.8V5.6h0.8v0.6h0
							c0.1-0.2,0.3-0.4,0.6-0.5c0.3-0.1,0.6-0.2,0.9-0.2c0.6,0,1.1,0.2,1.5,0.7c0.4,0.5,0.6,1,0.6,1.7c0,0.7-0.2,1.2-0.6,1.7
							C27.9,9.9,27.4,10.1,26.8,10.1z M26.7,9.4c0.4,0,0.7-0.1,1-0.4c0.3-0.3,0.4-0.7,0.4-1.1c0-0.5-0.1-0.8-0.4-1.1
							c-0.3-0.3-0.6-0.5-1-0.5c-0.4,0-0.7,0.1-1,0.5c-0.3,0.3-0.4,0.7-0.4,1.1c0,0.5,0.1,0.9,0.4,1.2C25.9,9.2,26.3,9.4,26.7,9.4z"
							/>
						<path class="st12" d="M31.8,10.1c-0.6,0-1.2-0.2-1.6-0.7c-0.4-0.4-0.6-1-0.6-1.7c0-0.7,0.2-1.2,0.6-1.7
							c0.4-0.4,0.9-0.7,1.6-0.7c0.7,0,1.2,0.2,1.6,0.6c0.4,0.4,0.6,1,0.6,1.8l0,0.1h-3.5c0,0.4,0.2,0.8,0.4,1s0.6,0.4,1,0.4
							c0.5,0,0.9-0.3,1.2-0.8L33.8,9c-0.2,0.4-0.5,0.7-0.8,0.9C32.7,10,32.3,10.1,31.8,10.1z M30.5,7.3H33c0-0.3-0.1-0.6-0.4-0.8
							s-0.5-0.3-0.9-0.3c-0.3,0-0.6,0.1-0.8,0.3C30.7,6.7,30.6,6.9,30.5,7.3z"/>
					</g>
					<g class="st2">
						<path class="st12" d="M36.9,10h-2.2V9.4h0.7V6.1h-0.7V5.5h2.2v0.6h-0.7v3.3h0.7V10z"/>
					</g>
					<g class="st2">
						<path class="st12" d="M41.8,10h-1l-1.4-2.1l-0.7,0.7V10h-0.8V3.6h0.8v4l1.9-1.9h1.1v0L40,7.3L41.8,10L41.8,10z"/>
						<path class="st12" d="M45.6,3.6L42.9,10h-0.8l2.7-6.4H45.6z"/>
					</g>
					<g class="st2">
						<path class="st12" d="M3.4,26c0.8,0,1.3,0.2,1.7,0.5c0.4,0.4,0.6,0.8,0.6,1.4c0,0.1,0,0.2,0,0.3c0,0.1,0,0.2,0,0.3l-0.6,3.5H4
							l0.1-0.8h0c-0.2,0.3-0.5,0.5-0.8,0.7c-0.3,0.2-0.7,0.3-1.1,0.3c-0.3,0-0.6,0-0.8-0.1s-0.5-0.2-0.6-0.4
							c-0.2-0.2-0.3-0.3-0.4-0.6c-0.1-0.2-0.2-0.5-0.2-0.8c0-0.3,0.1-0.6,0.2-0.9C0.5,29.2,0.7,29,1,28.8c0.3-0.2,0.6-0.3,0.9-0.4
							c0.3-0.1,0.7-0.2,1.1-0.2c0.3,0,0.6,0,0.9,0.1s0.5,0.2,0.7,0.3l0-0.3c0-0.1,0-0.1,0-0.2c0-0.3-0.1-0.6-0.4-0.8S3.7,27,3.3,27
							C3,27,2.7,27,2.5,27.1S2,27.5,1.8,27.7l-0.9-0.6c0.3-0.4,0.6-0.7,1.1-0.9C2.4,26.1,2.9,26,3.4,26z M2.4,31.3
							c0.2,0,0.5,0,0.7-0.1s0.4-0.2,0.6-0.4c0.2-0.2,0.3-0.3,0.5-0.6c0.1-0.2,0.2-0.4,0.3-0.7c-0.1-0.1-0.2-0.1-0.4-0.2
							c-0.1,0-0.3-0.1-0.5-0.1c-0.2,0-0.4-0.1-0.7-0.1c-0.2,0-0.4,0-0.6,0.1c-0.2,0-0.4,0.1-0.5,0.2c-0.2,0.1-0.3,0.2-0.4,0.4
							c-0.1,0.2-0.1,0.3-0.1,0.5c0,0.2,0,0.3,0.1,0.4C1.5,30.9,1.5,31,1.6,31c0.1,0.1,0.2,0.1,0.3,0.2S2.3,31.3,2.4,31.3z"/>
						<path class="st12" d="M8.8,32.2c-0.3,0-0.7-0.1-1-0.2c-0.3-0.1-0.6-0.3-0.8-0.5c-0.2-0.2-0.4-0.5-0.5-0.9s-0.2-0.7-0.2-1.1
							c0-0.5,0.1-0.9,0.3-1.3s0.4-0.8,0.7-1.1c0.3-0.3,0.7-0.6,1.1-0.8C8.8,26.1,9.3,26,9.8,26c0.4,0,0.8,0.1,1.1,0.3
							c0.3,0.2,0.6,0.4,0.7,0.7h0l0.1-0.8l0.5-2.7h1.1l-1.5,8.6h-1.1l0.1-0.8h0c-0.2,0.3-0.5,0.5-0.8,0.7
							C9.7,32.1,9.3,32.2,8.8,32.2z M9.7,27c-0.3,0-0.6,0.1-0.9,0.2s-0.5,0.3-0.7,0.5c-0.2,0.2-0.4,0.5-0.5,0.8
							c-0.1,0.3-0.2,0.6-0.2,1c0,0.6,0.1,1,0.4,1.3s0.7,0.5,1.2,0.5c0.3,0,0.6-0.1,0.9-0.2c0.3-0.1,0.5-0.3,0.7-0.6
							c0.2-0.2,0.3-0.5,0.5-0.8c0.1-0.3,0.2-0.6,0.2-0.9c0-0.6-0.2-1-0.5-1.3S10.1,27,9.7,27z"/>
						<path class="st12" d="M12.4,34.8c-0.3,0-0.5,0-0.7-0.1l0.4-1c0.1,0,0.2,0.1,0.4,0.1c0.4,0,0.7-0.3,0.8-0.8l1.2-6.9h1.1
							L14.4,33c-0.1,0.3-0.1,0.6-0.3,0.8s-0.3,0.4-0.4,0.6c-0.2,0.1-0.4,0.2-0.6,0.3C12.9,34.8,12.7,34.8,12.4,34.8z M15.4,24.9
							c-0.2,0-0.4-0.1-0.6-0.2c-0.2-0.2-0.2-0.3-0.2-0.6s0.1-0.4,0.2-0.6c0.2-0.2,0.3-0.2,0.6-0.2c0.2,0,0.4,0.1,0.6,0.2
							c0.2,0.2,0.2,0.3,0.2,0.6s-0.1,0.4-0.2,0.6C15.8,24.8,15.6,24.9,15.4,24.9z"/>
						<path class="st12" d="M21.8,30.7c-0.3,0.5-0.7,0.9-1.2,1.2c-0.5,0.3-1,0.4-1.6,0.4c-0.4,0-0.8-0.1-1.1-0.2
							c-0.3-0.1-0.6-0.3-0.8-0.6c-0.2-0.2-0.4-0.5-0.5-0.9c-0.1-0.3-0.2-0.7-0.2-1c0-0.5,0.1-0.9,0.2-1.3c0.2-0.4,0.4-0.8,0.7-1.1
							c0.3-0.3,0.7-0.6,1.1-0.8c0.4-0.2,0.9-0.3,1.4-0.3c0.4,0,0.8,0.1,1.1,0.2s0.6,0.3,0.8,0.5c0.2,0.2,0.4,0.5,0.5,0.8
							c0.1,0.3,0.2,0.6,0.2,1c0,0.1,0,0.3,0,0.5s0,0.3-0.1,0.4h-4.6c0,0.1,0,0.1,0,0.2s0,0.1,0,0.2c0,0.3,0,0.5,0.1,0.7
							c0.1,0.2,0.2,0.4,0.4,0.5s0.3,0.2,0.5,0.3c0.2,0.1,0.4,0.1,0.6,0.1c0.4,0,0.8-0.1,1.1-0.3c0.3-0.2,0.6-0.4,0.8-0.8L21.8,30.7z
							 M21.1,28.4v-0.1c0-0.2,0-0.3-0.1-0.5c-0.1-0.2-0.2-0.3-0.3-0.4s-0.3-0.2-0.5-0.3S19.9,27,19.6,27c-0.5,0-0.9,0.1-1.2,0.4
							c-0.3,0.3-0.6,0.6-0.7,1H21.1z"/>
						<path class="st12" d="M25.6,32.2c-0.4,0-0.7-0.1-1.1-0.2c-0.3-0.1-0.6-0.3-0.8-0.6c-0.2-0.2-0.4-0.5-0.5-0.9s-0.2-0.7-0.2-1.1
							c0-0.5,0.1-1,0.3-1.4c0.2-0.4,0.4-0.8,0.8-1.1c0.3-0.3,0.7-0.6,1.1-0.7c0.4-0.2,0.9-0.3,1.4-0.3c0.4,0,0.7,0.1,0.9,0.2
							s0.5,0.2,0.7,0.4c0.2,0.2,0.4,0.3,0.5,0.5c0.1,0.2,0.2,0.4,0.3,0.6l-1,0.4c-0.1-0.3-0.3-0.6-0.5-0.8c-0.2-0.2-0.6-0.3-1-0.3
							c-0.3,0-0.6,0.1-0.9,0.2c-0.3,0.1-0.5,0.3-0.7,0.5c-0.2,0.2-0.4,0.5-0.5,0.8c-0.1,0.3-0.2,0.6-0.2,1c0,0.2,0,0.5,0.1,0.7
							c0.1,0.2,0.2,0.4,0.3,0.6s0.3,0.3,0.5,0.4s0.4,0.1,0.7,0.1c0.4,0,0.7-0.1,1-0.3c0.3-0.2,0.6-0.5,0.8-0.8l0.9,0.4
							c-0.2,0.3-0.4,0.5-0.6,0.8s-0.4,0.4-0.6,0.5c-0.2,0.1-0.5,0.2-0.8,0.3S26,32.2,25.6,32.2z"/>
						<path class="st12" d="M31.7,32.2c-0.2,0-0.4,0-0.6-0.1c-0.2-0.1-0.3-0.2-0.5-0.3s-0.2-0.3-0.3-0.4s-0.1-0.4-0.1-0.6
							c0-0.1,0-0.2,0-0.3c0-0.1,0-0.2,0-0.4l0.5-3.1h-1l0.2-1h1l0.3-1.8h1.1l-0.3,1.8h1.4l-0.2,1H32l-0.5,2.9c0,0.1,0,0.2,0,0.3
							c0,0.1,0,0.2,0,0.2c0,0.2,0,0.3,0.1,0.4c0.1,0.1,0.2,0.2,0.4,0.2c0.1,0,0.2,0,0.3,0c0.1,0,0.1,0,0.2-0.1l0.2,1
							c-0.2,0.1-0.3,0.1-0.5,0.1C32.1,32.2,31.9,32.2,31.7,32.2z"/>
						<path class="st12" d="M34,32.1l1-5.9h1.1l-1,5.9H34z M35.9,24.9c-0.2,0-0.4-0.1-0.6-0.2c-0.2-0.2-0.2-0.3-0.2-0.6
							s0.1-0.4,0.2-0.6c0.2-0.2,0.3-0.2,0.6-0.2c0.2,0,0.4,0.1,0.6,0.2c0.2,0.2,0.2,0.3,0.2,0.6s-0.1,0.4-0.2,0.6
							C36.3,24.8,36.2,24.9,35.9,24.9z"/>
						<path class="st12" d="M37.2,26.2h1.2l0.9,4.6h0l2.6-4.6h1.2l-3.4,5.9h-1.1L37.2,26.2z"/>
						<path class="st12" d="M48.4,30.7c-0.3,0.5-0.7,0.9-1.2,1.2c-0.5,0.3-1,0.4-1.6,0.4c-0.4,0-0.8-0.1-1.1-0.2
							c-0.3-0.1-0.6-0.3-0.8-0.6c-0.2-0.2-0.4-0.5-0.5-0.9c-0.1-0.3-0.2-0.7-0.2-1c0-0.5,0.1-0.9,0.2-1.3c0.2-0.4,0.4-0.8,0.7-1.1
							c0.3-0.3,0.7-0.6,1.1-0.8c0.4-0.2,0.9-0.3,1.4-0.3c0.4,0,0.8,0.1,1.1,0.2s0.6,0.3,0.8,0.5c0.2,0.2,0.4,0.5,0.5,0.8
							c0.1,0.3,0.2,0.6,0.2,1c0,0.1,0,0.3,0,0.5s0,0.3-0.1,0.4h-4.6c0,0.1,0,0.1,0,0.2s0,0.1,0,0.2c0,0.3,0,0.5,0.1,0.7
							c0.1,0.2,0.2,0.4,0.4,0.5s0.3,0.2,0.5,0.3c0.2,0.1,0.4,0.1,0.6,0.1c0.4,0,0.8-0.1,1.1-0.3c0.3-0.2,0.6-0.4,0.8-0.8L48.4,30.7z
							 M47.7,28.4v-0.1c0-0.2,0-0.3-0.1-0.5c-0.1-0.2-0.2-0.3-0.3-0.4s-0.3-0.2-0.5-0.3S46.5,27,46.3,27c-0.5,0-0.9,0.1-1.2,0.4
							c-0.3,0.3-0.6,0.6-0.7,1H47.7z"/>
					</g>
					<g class="st2">
						<path class="st12" d="M0.7,42.2h1.1V43h0c0.2-0.3,0.4-0.5,0.8-0.7C2.9,42.1,3.3,42,3.6,42c0.7,0,1.3,0.2,1.7,0.6
							s0.6,1,0.6,1.8v3.7H4.8v-3.6c0-1-0.5-1.4-1.5-1.4c-0.4,0-0.8,0.2-1.1,0.5c-0.3,0.4-0.4,0.8-0.4,1.3v3.3H0.7V42.2z"/>
						<path class="st12" d="M7.1,45.1c0-0.9,0.3-1.7,0.9-2.2c0.6-0.6,1.3-0.9,2.2-0.9s1.6,0.3,2.2,0.9c0.6,0.6,0.9,1.3,0.9,2.2
							c0,0.9-0.3,1.7-0.9,2.2c-0.6,0.6-1.3,0.9-2.2,0.9s-1.6-0.3-2.2-0.9C7.4,46.8,7.1,46,7.1,45.1z M8.2,45.1
							c0,0.6,0.2,1.1,0.6,1.5c0.4,0.4,0.8,0.6,1.4,0.6s1-0.2,1.4-0.6c0.4-0.4,0.6-0.9,0.6-1.5c0-0.6-0.2-1.1-0.6-1.5
							c-0.4-0.4-0.8-0.6-1.4-0.6s-1,0.2-1.4,0.6C8.4,44,8.2,44.5,8.2,45.1z"/>
						<path class="st12" d="M16.5,48.1c-0.5,0-0.9-0.1-1.2-0.4c-0.3-0.3-0.5-0.7-0.5-1.2v-3.3h-1v-1h1v-1.8h1.1v1.8h1.4v1h-1.4v2.9
							c0,0.4,0.1,0.7,0.2,0.8c0.2,0.1,0.3,0.2,0.5,0.2c0.1,0,0.2,0,0.3,0c0.1,0,0.2,0,0.2-0.1l0.3,1C17.2,48.1,16.9,48.1,16.5,48.1z
							"/>
						<path class="st12" d="M23.8,42c0.8,0,1.5,0.2,1.9,0.7c0.5,0.4,0.7,1,0.7,1.8v3.6h-1.1v-0.8h0c-0.5,0.7-1.1,1-1.8,1
							c-0.6,0-1.2-0.2-1.6-0.6c-0.4-0.4-0.7-0.9-0.7-1.4c0-0.6,0.2-1.1,0.7-1.5c0.5-0.4,1.1-0.5,1.8-0.5c0.7,0,1.2,0.1,1.6,0.4v-0.3
							c0-0.4-0.2-0.7-0.5-1c-0.3-0.3-0.7-0.4-1.1-0.4c-0.6,0-1.1,0.3-1.5,0.8l-1-0.6C22,42.4,22.7,42,23.8,42z M22.4,46.3
							c0,0.3,0.1,0.5,0.4,0.7s0.5,0.3,0.9,0.3c0.5,0,0.9-0.2,1.2-0.5c0.4-0.3,0.5-0.7,0.5-1.2c-0.3-0.3-0.8-0.4-1.4-0.4
							c-0.4,0-0.8,0.1-1.1,0.3C22.5,45.7,22.4,45.9,22.4,46.3z"/>
						<path class="st12" d="M31,48.2c-0.4,0-0.8-0.1-1.2-0.3c-0.4-0.2-0.6-0.4-0.8-0.7h0v0.8h-1.1v-8.6H29v2.7l0,0.8h0
							c0.2-0.3,0.5-0.5,0.8-0.7c0.4-0.2,0.8-0.3,1.2-0.3c0.8,0,1.4,0.3,2,0.9c0.6,0.6,0.8,1.4,0.8,2.2c0,0.9-0.3,1.6-0.8,2.2
							C32.5,47.9,31.8,48.2,31,48.2z M30.9,47.2c0.5,0,1-0.2,1.3-0.6c0.4-0.4,0.5-0.9,0.5-1.5c0-0.6-0.2-1.1-0.5-1.5
							c-0.4-0.4-0.8-0.6-1.3-0.6c-0.5,0-1,0.2-1.3,0.6C29.2,44,29,44.5,29,45.1c0,0.6,0.2,1.1,0.5,1.5C29.9,47,30.3,47.2,30.9,47.2z
							"/>
						<path class="st12" d="M36.1,39.5v8.6H35v-8.6H36.1z"/>
						<path class="st12" d="M40.3,48.2c-0.9,0-1.6-0.3-2.1-0.9c-0.6-0.6-0.8-1.3-0.8-2.2c0-0.9,0.3-1.6,0.8-2.2s1.2-0.9,2.1-0.9
							c0.9,0,1.6,0.3,2.1,0.8c0.5,0.6,0.8,1.4,0.8,2.4l0,0.1h-4.6c0,0.6,0.2,1,0.6,1.4c0.4,0.4,0.8,0.5,1.3,0.5
							c0.7,0,1.3-0.4,1.7-1.1l1,0.5c-0.3,0.5-0.6,0.9-1.1,1.2C41.4,48.1,40.9,48.2,40.3,48.2z M38.5,44.4h3.4c0-0.4-0.2-0.7-0.5-1
							c-0.3-0.3-0.7-0.4-1.2-0.4c-0.4,0-0.8,0.1-1.1,0.4C38.8,43.6,38.6,44,38.5,44.4z"/>
						<path class="st12" d="M49.5,48.1c-0.5,0-0.9-0.1-1.2-0.4c-0.3-0.3-0.5-0.7-0.5-1.2v-3.3h-1v-1h1v-1.8h1.1v1.8h1.4v1h-1.4v2.9
							c0,0.4,0.1,0.7,0.2,0.8c0.2,0.1,0.3,0.2,0.5,0.2c0.1,0,0.2,0,0.3,0c0.1,0,0.2,0,0.2-0.1l0.3,1C50.2,48.1,49.9,48.1,49.5,48.1z
							"/>
						<path class="st12" d="M51.3,45.1c0-0.9,0.3-1.7,0.9-2.2c0.6-0.6,1.3-0.9,2.2-0.9s1.6,0.3,2.2,0.9c0.6,0.6,0.9,1.3,0.9,2.2
							c0,0.9-0.3,1.7-0.9,2.2c-0.6,0.6-1.3,0.9-2.2,0.9s-1.6-0.3-2.2-0.9C51.6,46.8,51.3,46,51.3,45.1z M52.4,45.1
							c0,0.6,0.2,1.1,0.6,1.5c0.4,0.4,0.8,0.6,1.4,0.6s1-0.2,1.4-0.6c0.4-0.4,0.6-0.9,0.6-1.5c0-0.6-0.2-1.1-0.6-1.5
							c-0.4-0.4-0.8-0.6-1.4-0.6s-1,0.2-1.4,0.6C52.6,44,52.4,44.5,52.4,45.1z"/>
						<path class="st12" d="M64.6,48.2c-0.4,0-0.8-0.1-1.2-0.3c-0.4-0.2-0.6-0.4-0.8-0.7h0v0.8h-1.1v-8.6h1.1v2.7l0,0.8h0
							c0.2-0.3,0.5-0.5,0.8-0.7c0.4-0.2,0.8-0.3,1.2-0.3c0.8,0,1.4,0.3,2,0.9c0.6,0.6,0.8,1.4,0.8,2.2c0,0.9-0.3,1.6-0.8,2.2
							C66,47.9,65.3,48.2,64.6,48.2z M64.4,47.2c0.5,0,1-0.2,1.3-0.6c0.4-0.4,0.5-0.9,0.5-1.5c0-0.6-0.2-1.1-0.5-1.5
							c-0.4-0.4-0.8-0.6-1.3-0.6c-0.5,0-1,0.2-1.3,0.6c-0.4,0.4-0.5,0.9-0.5,1.5c0,0.6,0.2,1.1,0.5,1.5C63.4,47,63.9,47.2,64.4,47.2
							z"/>
						<path class="st12" d="M71.3,48.2c-0.9,0-1.6-0.3-2.1-0.9c-0.6-0.6-0.8-1.3-0.8-2.2c0-0.9,0.3-1.6,0.8-2.2s1.2-0.9,2.1-0.9
							c0.9,0,1.6,0.3,2.1,0.8c0.5,0.6,0.8,1.4,0.8,2.4l0,0.1h-4.6c0,0.6,0.2,1,0.6,1.4c0.4,0.4,0.8,0.5,1.3,0.5
							c0.7,0,1.3-0.4,1.7-1.1l1,0.5c-0.3,0.5-0.6,0.9-1.1,1.2C72.4,48.1,71.8,48.2,71.3,48.2z M69.5,44.4h3.4c0-0.4-0.2-0.7-0.5-1
							c-0.3-0.3-0.7-0.4-1.2-0.4c-0.4,0-0.8,0.1-1.1,0.4C69.8,43.6,69.6,44,69.5,44.4z"/>
						<path class="st12" d="M82.7,46.4c0,0.5-0.2,0.9-0.7,1.3c-0.4,0.4-1,0.5-1.7,0.5c-0.6,0-1.1-0.2-1.6-0.5
							c-0.4-0.3-0.8-0.7-1-1.2l1-0.4c0.1,0.4,0.4,0.6,0.6,0.8c0.3,0.2,0.6,0.3,0.9,0.3c0.4,0,0.6-0.1,0.9-0.2
							c0.2-0.2,0.4-0.3,0.4-0.5c0-0.4-0.3-0.7-0.9-0.8l-1-0.3c-1.1-0.3-1.7-0.8-1.7-1.7c0-0.5,0.2-1,0.7-1.3s1-0.5,1.7-0.5
							c0.5,0,1,0.1,1.4,0.4s0.7,0.6,0.9,1l-1,0.4c-0.1-0.2-0.3-0.4-0.5-0.6S80.5,43,80.2,43c-0.3,0-0.5,0.1-0.8,0.2
							c-0.2,0.1-0.3,0.3-0.3,0.5c0,0.3,0.3,0.6,0.9,0.7l0.9,0.2C82.1,44.9,82.7,45.5,82.7,46.4z"/>
						<path class="st12" d="M86.6,48.2c-0.9,0-1.6-0.3-2.1-0.9c-0.6-0.6-0.8-1.3-0.8-2.2c0-0.9,0.3-1.6,0.8-2.2s1.2-0.9,2.1-0.9
							c0.9,0,1.6,0.3,2.1,0.8c0.5,0.6,0.8,1.4,0.8,2.4l0,0.1h-4.6c0,0.6,0.2,1,0.6,1.4c0.4,0.4,0.8,0.5,1.3,0.5
							c0.7,0,1.3-0.4,1.7-1.1l1,0.5c-0.3,0.5-0.6,0.9-1.1,1.2C87.7,48.1,87.2,48.2,86.6,48.2z M84.8,44.4h3.4c0-0.4-0.2-0.7-0.5-1
							C87.4,43.1,87,43,86.5,43c-0.4,0-0.8,0.1-1.1,0.4C85.1,43.6,84.9,44,84.8,44.4z"/>
						<path class="st12" d="M93.3,48.2c-0.9,0-1.6-0.3-2.1-0.9c-0.6-0.6-0.8-1.3-0.8-2.2c0-0.9,0.3-1.6,0.8-2.2s1.2-0.9,2.1-0.9
							c0.9,0,1.6,0.3,2.1,0.8c0.5,0.6,0.8,1.4,0.8,2.4l0,0.1h-4.6c0,0.6,0.2,1,0.6,1.4c0.4,0.4,0.8,0.5,1.3,0.5
							c0.7,0,1.3-0.4,1.7-1.1l1,0.5c-0.3,0.5-0.6,0.9-1.1,1.2C94.4,48.1,93.9,48.2,93.3,48.2z M91.5,44.4h3.4c0-0.4-0.2-0.7-0.5-1
							c-0.3-0.3-0.7-0.4-1.2-0.4c-0.4,0-0.8,0.1-1.1,0.4C91.8,43.6,91.6,44,91.5,44.4z"/>
						<path class="st12" d="M97.3,42.2h1.1V43h0c0.2-0.3,0.4-0.5,0.8-0.7c0.3-0.2,0.7-0.3,1.1-0.3c0.7,0,1.3,0.2,1.7,0.6
							s0.6,1,0.6,1.8v3.7h-1.1v-3.6c0-1-0.5-1.4-1.5-1.4c-0.4,0-0.8,0.2-1.1,0.5c-0.3,0.4-0.4,0.8-0.4,1.3v3.3h-1.1V42.2z"/>
						<path class="st12" d="M109.3,48.1c-0.5,0-0.9-0.1-1.2-0.4c-0.3-0.3-0.5-0.7-0.5-1.2v-3.3h-1v-1h1v-1.8h1.1v1.8h1.4v1h-1.4v2.9
							c0,0.4,0.1,0.7,0.2,0.8c0.2,0.1,0.3,0.2,0.5,0.2c0.1,0,0.2,0,0.3,0c0.1,0,0.2,0,0.2-0.1l0.3,1C110,48.1,109.7,48.1,109.3,48.1
							z"/>
						<path class="st12" d="M111.5,39.5h1.1v2.7l0,0.8h0c0.2-0.3,0.4-0.5,0.8-0.7c0.3-0.2,0.7-0.3,1.1-0.3c0.7,0,1.3,0.2,1.7,0.6
							s0.6,1,0.6,1.8v3.7h-1.1v-3.5c0-1.1-0.5-1.6-1.4-1.6c-0.4,0-0.8,0.2-1.1,0.6c-0.3,0.4-0.5,0.8-0.5,1.3v3.2h-1.1V39.5z"/>
						<path class="st12" d="M119.3,48.1h-1.1v-5.9h1.1v1h0c0.1-0.3,0.3-0.6,0.7-0.8s0.7-0.3,1-0.3c0.3,0,0.6,0,0.8,0.1l-0.3,1.1
							c-0.1-0.1-0.4-0.1-0.6-0.1c-0.4,0-0.8,0.2-1.1,0.5c-0.3,0.3-0.5,0.7-0.5,1.2V48.1z"/>
						<path class="st12" d="M122.1,45.1c0-0.9,0.3-1.7,0.9-2.2c0.6-0.6,1.3-0.9,2.2-0.9s1.6,0.3,2.2,0.9c0.6,0.6,0.9,1.3,0.9,2.2
							c0,0.9-0.3,1.7-0.9,2.2c-0.6,0.6-1.3,0.9-2.2,0.9s-1.6-0.3-2.2-0.9C122.4,46.8,122.1,46,122.1,45.1z M123.2,45.1
							c0,0.6,0.2,1.1,0.6,1.5c0.4,0.4,0.8,0.6,1.4,0.6s1-0.2,1.4-0.6c0.4-0.4,0.6-0.9,0.6-1.5c0-0.6-0.2-1.1-0.6-1.5
							c-0.4-0.4-0.8-0.6-1.4-0.6s-1,0.2-1.4,0.6C123.4,44,123.2,44.5,123.2,45.1z"/>
						<path class="st12" d="M134.5,48.1h-1.1v-0.8h0c-0.2,0.3-0.4,0.5-0.8,0.7c-0.3,0.2-0.7,0.3-1.1,0.3c-0.7,0-1.3-0.2-1.7-0.6
							c-0.4-0.4-0.6-1-0.6-1.8v-3.7h1.1v3.6c0,1,0.5,1.4,1.5,1.4c0.4,0,0.8-0.2,1.1-0.5c0.3-0.4,0.4-0.8,0.4-1.3v-3.3h1.1V48.1z"/>
						<path class="st12" d="M138.7,50.8c-0.3,0-0.6,0-0.9-0.1s-0.6-0.2-0.8-0.4c-0.2-0.2-0.4-0.3-0.6-0.5s-0.3-0.4-0.4-0.7l1-0.4
							c0.1,0.3,0.3,0.6,0.6,0.8s0.6,0.3,1,0.3c0.6,0,1.1-0.2,1.4-0.5c0.3-0.4,0.5-0.9,0.5-1.5v-0.6h0c-0.2,0.3-0.5,0.6-0.8,0.7
							c-0.4,0.2-0.7,0.3-1.2,0.3c-0.8,0-1.4-0.3-2-0.9c-0.5-0.6-0.8-1.4-0.8-2.2c0-0.9,0.3-1.6,0.8-2.2c0.6-0.6,1.2-0.9,2-0.9
							c0.4,0,0.8,0.1,1.2,0.3c0.4,0.2,0.6,0.4,0.8,0.7h0v-0.8h1.1v5.6c0,0.9-0.3,1.7-0.8,2.2C140.3,50.6,139.6,50.8,138.7,50.8z
							 M138.7,47.2c0.5,0,1-0.2,1.3-0.6c0.4-0.4,0.5-0.9,0.5-1.5c0-0.6-0.2-1.1-0.5-1.5c-0.4-0.4-0.8-0.6-1.3-0.6
							c-0.5,0-1,0.2-1.3,0.6c-0.4,0.4-0.5,0.9-0.5,1.5c0,0.6,0.2,1.1,0.5,1.5C137.7,47,138.2,47.2,138.7,47.2z"/>
						<path class="st12" d="M143.2,39.5h1.1v2.7l0,0.8h0c0.2-0.3,0.4-0.5,0.8-0.7c0.3-0.2,0.7-0.3,1.1-0.3c0.7,0,1.3,0.2,1.7,0.6
							c0.4,0.4,0.6,1,0.6,1.8v3.7h-1.1v-3.5c0-1.1-0.5-1.6-1.4-1.6c-0.4,0-0.8,0.2-1.1,0.6c-0.3,0.4-0.5,0.8-0.5,1.3v3.2h-1.1V39.5z
							"/>
						<path class="st12" d="M150.3,49.2l-0.5-0.3l0.6-1c-0.2,0-0.3-0.1-0.4-0.3c-0.1-0.1-0.2-0.3-0.2-0.5c0-0.2,0.1-0.4,0.2-0.6
							c0.2-0.2,0.4-0.2,0.6-0.2c0.2,0,0.4,0.1,0.6,0.2c0.2,0.2,0.2,0.3,0.2,0.6c0,0.2-0.1,0.5-0.2,0.7L150.3,49.2z M151.5,42.9
							c0,0.2-0.1,0.4-0.2,0.6s-0.3,0.2-0.6,0.2c-0.2,0-0.4-0.1-0.6-0.2s-0.2-0.4-0.2-0.6c0-0.2,0.1-0.4,0.2-0.6s0.4-0.2,0.6-0.2
							c0.2,0,0.4,0.1,0.6,0.2S151.5,42.7,151.5,42.9z"/>
						<path class="st12" d="M155.9,42.2h1.1V43h0c0.2-0.3,0.4-0.5,0.8-0.7c0.3-0.2,0.7-0.3,1.1-0.3c0.7,0,1.3,0.2,1.7,0.6
							c0.4,0.4,0.6,1,0.6,1.8v3.7H160v-3.6c0-1-0.5-1.4-1.5-1.4c-0.4,0-0.8,0.2-1.1,0.5c-0.3,0.4-0.4,0.8-0.4,1.3v3.3h-1.1V42.2z"/>
						<path class="st12" d="M162.3,45.1c0-0.9,0.3-1.7,0.9-2.2c0.6-0.6,1.3-0.9,2.2-0.9s1.6,0.3,2.2,0.9c0.6,0.6,0.9,1.3,0.9,2.2
							c0,0.9-0.3,1.7-0.9,2.2c-0.6,0.6-1.3,0.9-2.2,0.9s-1.6-0.3-2.2-0.9C162.6,46.8,162.3,46,162.3,45.1z M163.4,45.1
							c0,0.6,0.2,1.1,0.6,1.5c0.4,0.4,0.8,0.6,1.4,0.6s1-0.2,1.4-0.6c0.4-0.4,0.6-0.9,0.6-1.5c0-0.6-0.2-1.1-0.6-1.5
							c-0.4-0.4-0.8-0.6-1.4-0.6s-1,0.2-1.4,0.6C163.6,44,163.4,44.5,163.4,45.1z"/>
						<path class="st12" d="M171.7,48.1c-0.5,0-0.9-0.1-1.2-0.4S170,47,170,46.5v-3.3h-1v-1h1v-1.8h1.1v1.8h1.4v1h-1.4v2.9
							c0,0.4,0.1,0.7,0.2,0.8c0.2,0.1,0.3,0.2,0.5,0.2c0.1,0,0.2,0,0.3,0c0.1,0,0.2,0,0.2-0.1l0.3,1
							C172.4,48.1,172.1,48.1,171.7,48.1z"/>
					</g>
					<g class="st2">
						<path class="st12" d="M3,64.1c-0.5,0-0.9-0.1-1.2-0.4c-0.3-0.3-0.5-0.7-0.5-1.2v-3.3h-1v-1h1v-1.8h1.1v1.8h1.4v1H2.4v2.9
							c0,0.4,0.1,0.7,0.2,0.8C2.8,63,3,63.1,3.2,63.1c0.1,0,0.2,0,0.3,0c0.1,0,0.2,0,0.2-0.1L4,64C3.7,64.1,3.4,64.1,3,64.1z"/>
						<path class="st12" d="M6.3,64.1H5.2v-5.9h1.1v1h0c0.1-0.3,0.3-0.6,0.7-0.8C7.3,58.1,7.6,58,8,58c0.3,0,0.6,0,0.8,0.1l-0.3,1.1
							c-0.1-0.1-0.4-0.1-0.6-0.1c-0.4,0-0.8,0.2-1.1,0.5c-0.3,0.3-0.5,0.7-0.5,1.2V64.1z"/>
						<path class="st12" d="M11.7,58c0.8,0,1.5,0.2,1.9,0.7c0.5,0.4,0.7,1,0.7,1.8v3.6h-1.1v-0.8h0c-0.5,0.7-1.1,1-1.8,1
							c-0.6,0-1.2-0.2-1.6-0.6c-0.4-0.4-0.7-0.9-0.7-1.4c0-0.6,0.2-1.1,0.7-1.5c0.5-0.4,1.1-0.5,1.8-0.5c0.7,0,1.2,0.1,1.6,0.4v-0.3
							c0-0.4-0.2-0.7-0.5-1c-0.3-0.3-0.7-0.4-1.1-0.4c-0.6,0-1.1,0.3-1.5,0.8l-1-0.6C9.9,58.4,10.7,58,11.7,58z M10.3,62.3
							c0,0.3,0.1,0.5,0.4,0.7s0.5,0.3,0.9,0.3c0.5,0,0.9-0.2,1.2-0.5c0.4-0.3,0.5-0.7,0.5-1.2c-0.3-0.3-0.8-0.4-1.4-0.4
							c-0.4,0-0.8,0.1-1.1,0.3C10.5,61.7,10.3,61.9,10.3,62.3z"/>
						<path class="st12" d="M15.9,58.2h1.1V59h0c0.2-0.3,0.4-0.5,0.8-0.7c0.3-0.2,0.7-0.3,1.1-0.3c0.7,0,1.3,0.2,1.7,0.6
							s0.6,1,0.6,1.8v3.7H20v-3.6c0-1-0.5-1.4-1.5-1.4c-0.4,0-0.8,0.2-1.1,0.5c-0.3,0.4-0.4,0.8-0.4,1.3v3.3h-1.1V58.2z"/>
						<path class="st12" d="M27.1,62.4c0,0.5-0.2,0.9-0.7,1.3c-0.4,0.4-1,0.5-1.7,0.5c-0.6,0-1.1-0.2-1.6-0.5
							c-0.4-0.3-0.8-0.7-1-1.2l1-0.4c0.1,0.4,0.4,0.6,0.6,0.8c0.3,0.2,0.6,0.3,0.9,0.3c0.4,0,0.6-0.1,0.9-0.2
							c0.2-0.2,0.4-0.3,0.4-0.5c0-0.4-0.3-0.7-0.9-0.8l-1-0.3c-1.1-0.3-1.7-0.8-1.7-1.7c0-0.5,0.2-1,0.7-1.3s1-0.5,1.7-0.5
							c0.5,0,1,0.1,1.4,0.4s0.7,0.6,0.9,1l-1,0.4c-0.1-0.2-0.3-0.4-0.5-0.6S24.9,59,24.6,59c-0.3,0-0.5,0.1-0.8,0.2
							c-0.2,0.1-0.3,0.3-0.3,0.5c0,0.3,0.3,0.6,0.9,0.7l0.9,0.2C26.5,60.9,27.1,61.5,27.1,62.4z"/>
						<path class="st12" d="M31.3,64.2c-0.4,0-0.8-0.1-1.2-0.3s-0.6-0.4-0.8-0.7h0l0,0.8v2.6h-1.1v-8.5h1.1V59h0
							c0.2-0.3,0.5-0.5,0.8-0.7s0.8-0.3,1.2-0.3c0.8,0,1.4,0.3,2,0.9c0.6,0.6,0.8,1.4,0.8,2.2c0,0.9-0.3,1.6-0.8,2.2
							C32.7,63.9,32,64.2,31.3,64.2z M31.1,63.2c0.5,0,1-0.2,1.3-0.6c0.4-0.4,0.5-0.9,0.5-1.5c0-0.6-0.2-1.1-0.5-1.5
							c-0.4-0.4-0.8-0.6-1.3-0.6c-0.5,0-1,0.2-1.3,0.6c-0.4,0.4-0.5,0.9-0.5,1.5c0,0.6,0.2,1.1,0.5,1.5C30.1,63,30.5,63.2,31.1,63.2
							z"/>
						<path class="st12" d="M37.5,58c0.8,0,1.5,0.2,1.9,0.7c0.5,0.4,0.7,1,0.7,1.8v3.6h-1.1v-0.8h0c-0.5,0.7-1.1,1-1.8,1
							c-0.6,0-1.2-0.2-1.6-0.6c-0.4-0.4-0.7-0.9-0.7-1.4c0-0.6,0.2-1.1,0.7-1.5c0.5-0.4,1.1-0.5,1.8-0.5c0.7,0,1.2,0.1,1.6,0.4v-0.3
							c0-0.4-0.2-0.7-0.5-1C38.4,59.1,38,59,37.6,59c-0.6,0-1.1,0.3-1.5,0.8l-1-0.6C35.7,58.4,36.5,58,37.5,58z M36.1,62.3
							c0,0.3,0.1,0.5,0.4,0.7s0.5,0.3,0.9,0.3c0.5,0,0.9-0.2,1.2-0.5c0.4-0.3,0.5-0.7,0.5-1.2c-0.3-0.3-0.8-0.4-1.4-0.4
							c-0.4,0-0.8,0.1-1.1,0.3C36.3,61.7,36.1,61.9,36.1,62.3z"/>
						<path class="st12" d="M42.8,64.1h-1.1v-5.9h1.1v1h0c0.1-0.3,0.3-0.6,0.7-0.8c0.3-0.2,0.7-0.3,1-0.3c0.3,0,0.6,0,0.8,0.1
							L45,59.2c-0.1-0.1-0.4-0.1-0.6-0.1c-0.4,0-0.8,0.2-1.1,0.5c-0.3,0.3-0.5,0.7-0.5,1.2V64.1z"/>
						<path class="st12" d="M48.5,64.2c-0.9,0-1.6-0.3-2.1-0.9c-0.6-0.6-0.8-1.3-0.8-2.2c0-0.9,0.3-1.6,0.8-2.2s1.2-0.9,2.1-0.9
							c0.9,0,1.6,0.3,2.1,0.8c0.5,0.6,0.8,1.4,0.8,2.4l0,0.1h-4.6c0,0.6,0.2,1,0.6,1.4c0.4,0.4,0.8,0.5,1.3,0.5
							c0.7,0,1.3-0.4,1.7-1.1l1,0.5c-0.3,0.5-0.6,0.9-1.1,1.2C49.7,64.1,49.1,64.2,48.5,64.2z M46.8,60.4h3.4c0-0.4-0.2-0.7-0.5-1
							c-0.3-0.3-0.7-0.4-1.2-0.4c-0.4,0-0.8,0.1-1.1,0.4C47.1,59.6,46.9,60,46.8,60.4z"/>
						<path class="st12" d="M52.6,58.2h1.1V59h0c0.2-0.3,0.4-0.5,0.8-0.7c0.3-0.2,0.7-0.3,1.1-0.3c0.7,0,1.3,0.2,1.7,0.6
							s0.6,1,0.6,1.8v3.7h-1.1v-3.6c0-1-0.5-1.4-1.5-1.4c-0.4,0-0.8,0.2-1.1,0.5c-0.3,0.4-0.4,0.8-0.4,1.3v3.3h-1.1V58.2z"/>
						<path class="st12" d="M61.3,64.1c-0.5,0-0.9-0.1-1.2-0.4c-0.3-0.3-0.5-0.7-0.5-1.2v-3.3h-1v-1h1v-1.8h1.1v1.8h1.4v1h-1.4v2.9
							c0,0.4,0.1,0.7,0.2,0.8c0.2,0.1,0.3,0.2,0.5,0.2c0.1,0,0.2,0,0.3,0c0.1,0,0.2,0,0.2-0.1l0.3,1C62.1,64.1,61.7,64.1,61.3,64.1z
							"/>
						<path class="st12" d="M65,63.3c0,0.2-0.1,0.4-0.2,0.6c-0.2,0.2-0.4,0.2-0.6,0.2c-0.2,0-0.4-0.1-0.6-0.2s-0.2-0.4-0.2-0.6
							c0-0.2,0.1-0.4,0.2-0.6s0.4-0.2,0.6-0.2c0.2,0,0.4,0.1,0.6,0.2C65,62.9,65,63.1,65,63.3z"/>
					</g>
					<g class="st2">
						<path class="st12" d="M1.9,75L1.9,75c0.2-0.3,0.5-0.5,0.9-0.7C3.1,74.1,3.5,74,3.9,74c0.6,0,1,0.2,1.4,0.5
							c0.3,0.3,0.5,0.8,0.5,1.3c0,0.1,0,0.3,0,0.4c0,0.2,0,0.3-0.1,0.5l-0.6,3.4H4l0.6-3.5c0-0.2,0-0.3,0-0.5c0-0.4-0.1-0.6-0.3-0.8
							C4.1,75.1,3.8,75,3.5,75c-0.2,0-0.5,0-0.7,0.1s-0.4,0.2-0.6,0.4s-0.3,0.4-0.4,0.6c-0.1,0.2-0.2,0.5-0.2,0.7L1,80.1h-1.1l1-5.9
							H2L1.9,75z"/>
						<path class="st12" d="M10.3,74c0.4,0,0.8,0.1,1.1,0.2c0.3,0.1,0.6,0.3,0.9,0.6c0.2,0.3,0.4,0.6,0.6,0.9s0.2,0.7,0.2,1.1
							c0,0.5-0.1,0.9-0.3,1.4c-0.2,0.4-0.4,0.8-0.7,1.1c-0.3,0.3-0.7,0.6-1.1,0.7s-0.9,0.3-1.4,0.3c-0.4,0-0.8-0.1-1.1-0.2
							c-0.3-0.1-0.6-0.3-0.9-0.6c-0.2-0.3-0.4-0.6-0.6-0.9c-0.1-0.3-0.2-0.7-0.2-1.1c0-0.5,0.1-0.9,0.3-1.4c0.2-0.4,0.4-0.8,0.7-1.1
							c0.3-0.3,0.7-0.6,1.1-0.7C9.3,74.1,9.8,74,10.3,74z M9.7,79.2c0.4,0,0.7-0.1,1-0.2c0.3-0.1,0.5-0.3,0.7-0.5
							c0.2-0.2,0.3-0.5,0.5-0.8s0.2-0.6,0.2-0.9c0-0.3,0-0.5-0.1-0.8c-0.1-0.2-0.2-0.4-0.4-0.6c-0.2-0.2-0.3-0.3-0.6-0.4
							S10.4,75,10.2,75c-0.4,0-0.7,0.1-1,0.2c-0.3,0.1-0.5,0.3-0.7,0.5c-0.2,0.2-0.3,0.5-0.4,0.8c-0.1,0.3-0.2,0.6-0.2,0.9
							c0,0.3,0,0.5,0.1,0.8c0.1,0.2,0.2,0.4,0.4,0.6C8.6,78.9,8.8,79,9,79.1S9.4,79.2,9.7,79.2z"/>
						<path class="st12" d="M17.8,79.2L17.8,79.2c-0.2,0.3-0.5,0.5-0.9,0.7c-0.3,0.2-0.7,0.3-1.2,0.3c-0.6,0-1-0.2-1.4-0.5
							s-0.5-0.8-0.5-1.3c0-0.1,0-0.3,0-0.4c0-0.2,0-0.3,0.1-0.5l0.6-3.4h1.1L15,77.7c0,0.2,0,0.3,0,0.5c0,0.4,0.1,0.6,0.3,0.8
							c0.2,0.2,0.5,0.3,0.9,0.3c0.2,0,0.5,0,0.7-0.1s0.4-0.2,0.6-0.4s0.3-0.4,0.4-0.6s0.2-0.5,0.2-0.7l0.6-3.3h1.1l-1,5.9h-1.1
							L17.8,79.2z"/>
						<path class="st12" d="M22.2,75L22.2,75c0.2-0.3,0.5-0.5,0.9-0.7c0.3-0.2,0.7-0.3,1.2-0.3c0.6,0,1,0.2,1.4,0.5
							c0.3,0.3,0.5,0.8,0.5,1.3c0,0.1,0,0.3,0,0.4c0,0.2,0,0.3-0.1,0.5l-0.6,3.4h-1.1l0.6-3.5c0-0.2,0-0.3,0-0.5
							c0-0.4-0.1-0.6-0.3-0.8c-0.2-0.2-0.5-0.3-0.9-0.3c-0.2,0-0.5,0-0.7,0.1s-0.4,0.2-0.6,0.4s-0.3,0.4-0.4,0.6
							c-0.1,0.2-0.2,0.5-0.2,0.7l-0.6,3.3h-1.1l1-5.9h1.1L22.2,75z"/>
					</g>
					<g class="st2">
						<path class="st12" d="M2.9,90c0.8,0,1.5,0.2,1.9,0.7c0.5,0.4,0.7,1,0.7,1.8v3.6H4.5v-0.8h0c-0.5,0.7-1.1,1-1.8,1
							c-0.6,0-1.2-0.2-1.6-0.6c-0.4-0.4-0.7-0.9-0.7-1.4c0-0.6,0.2-1.1,0.7-1.5c0.5-0.4,1.1-0.5,1.8-0.5c0.7,0,1.2,0.1,1.6,0.4v-0.3
							c0-0.4-0.2-0.7-0.5-1C3.7,91.1,3.4,91,3,91c-0.6,0-1.1,0.3-1.5,0.8l-1-0.6C1.1,90.4,1.9,90,2.9,90z M1.5,94.3
							c0,0.3,0.1,0.5,0.4,0.7s0.5,0.3,0.9,0.3c0.5,0,0.9-0.2,1.2-0.5c0.4-0.3,0.5-0.7,0.5-1.2c-0.3-0.3-0.8-0.4-1.4-0.4
							c-0.4,0-0.8,0.1-1.1,0.3C1.6,93.7,1.5,93.9,1.5,94.3z"/>
						<path class="st12" d="M7,90.2h1.1V91h0c0.2-0.3,0.4-0.5,0.8-0.7C9.3,90.1,9.6,90,10,90c0.7,0,1.3,0.2,1.7,0.6s0.6,1,0.6,1.8
							v3.7h-1.1v-3.6c0-1-0.5-1.4-1.5-1.4c-0.4,0-0.8,0.2-1.1,0.5c-0.3,0.4-0.4,0.8-0.4,1.3v3.3H7V90.2z"/>
						<path class="st12" d="M16.3,93.1c0-0.9,0.3-1.7,0.9-2.2c0.6-0.6,1.3-0.9,2.2-0.9s1.6,0.3,2.2,0.9c0.6,0.6,0.9,1.3,0.9,2.2
							c0,0.9-0.3,1.7-0.9,2.2c-0.6,0.6-1.3,0.9-2.2,0.9s-1.6-0.3-2.2-0.9C16.6,94.8,16.3,94,16.3,93.1z M17.4,93.1
							c0,0.6,0.2,1.1,0.6,1.5c0.4,0.4,0.8,0.6,1.4,0.6s1-0.2,1.4-0.6c0.4-0.4,0.6-0.9,0.6-1.5c0-0.6-0.2-1.1-0.6-1.5
							c-0.4-0.4-0.8-0.6-1.4-0.6s-1,0.2-1.4,0.6C17.6,92,17.4,92.5,17.4,93.1z"/>
						<path class="st12" d="M26.6,96.2c-0.4,0-0.8-0.1-1.2-0.3s-0.6-0.4-0.8-0.7h0l0,0.8v2.6h-1.1v-8.5h1.1V91h0
							c0.2-0.3,0.5-0.5,0.8-0.7s0.8-0.3,1.2-0.3c0.8,0,1.4,0.3,2,0.9c0.6,0.6,0.8,1.4,0.8,2.2c0,0.9-0.3,1.6-0.8,2.2
							C28,95.9,27.4,96.2,26.6,96.2z M26.4,95.2c0.5,0,1-0.2,1.3-0.6c0.4-0.4,0.5-0.9,0.5-1.5c0-0.6-0.2-1.1-0.5-1.5
							C27.4,91.2,27,91,26.4,91c-0.5,0-1,0.2-1.3,0.6c-0.4,0.4-0.5,0.9-0.5,1.5c0,0.6,0.2,1.1,0.5,1.5C25.5,95,25.9,95.2,26.4,95.2z
							"/>
						<path class="st12" d="M32.9,90c0.8,0,1.5,0.2,1.9,0.7c0.5,0.4,0.7,1,0.7,1.8v3.6h-1.1v-0.8h0c-0.5,0.7-1.1,1-1.8,1
							c-0.6,0-1.2-0.2-1.6-0.6c-0.4-0.4-0.7-0.9-0.7-1.4c0-0.6,0.2-1.1,0.7-1.5c0.5-0.4,1.1-0.5,1.8-0.5c0.7,0,1.2,0.1,1.6,0.4v-0.3
							c0-0.4-0.2-0.7-0.5-1C33.7,91.1,33.4,91,33,91c-0.6,0-1.1,0.3-1.5,0.8l-1-0.6C31.1,90.4,31.8,90,32.9,90z M31.5,94.3
							c0,0.3,0.1,0.5,0.4,0.7c0.2,0.2,0.5,0.3,0.9,0.3c0.5,0,0.9-0.2,1.2-0.5c0.4-0.3,0.5-0.7,0.5-1.2c-0.3-0.3-0.8-0.4-1.4-0.4
							c-0.4,0-0.8,0.1-1.1,0.3C31.6,93.7,31.5,93.9,31.5,94.3z"/>
						<path class="st12" d="M42.5,98.6h-1.1v-2.6l0-0.8h0c-0.2,0.3-0.5,0.5-0.8,0.7s-0.8,0.3-1.2,0.3c-0.8,0-1.4-0.3-2-0.9
							c-0.5-0.6-0.8-1.4-0.8-2.2c0-0.9,0.3-1.6,0.8-2.2c0.6-0.6,1.2-0.9,2-0.9c0.4,0,0.8,0.1,1.2,0.3s0.6,0.4,0.8,0.7h0v-0.8h1.1
							V98.6z M39.6,95.2c0.5,0,1-0.2,1.3-0.6c0.4-0.4,0.5-0.9,0.5-1.5c0-0.6-0.2-1.1-0.5-1.5c-0.4-0.4-0.8-0.6-1.3-0.6
							c-0.5,0-1,0.2-1.3,0.6s-0.5,0.9-0.5,1.5c0,0.6,0.2,1.1,0.5,1.5C38.6,95,39.1,95.2,39.6,95.2z"/>
						<path class="st12" d="M49.2,96.1h-1.1v-0.8h0c-0.2,0.3-0.4,0.5-0.8,0.7c-0.3,0.2-0.7,0.3-1.1,0.3c-0.7,0-1.3-0.2-1.7-0.6
							c-0.4-0.4-0.6-1-0.6-1.8v-3.7h1.1v3.6c0,1,0.5,1.4,1.5,1.4c0.4,0,0.8-0.2,1.1-0.5c0.3-0.4,0.4-0.8,0.4-1.3v-3.3h1.1V96.1z"/>
						<path class="st12" d="M53.4,96.2c-0.9,0-1.6-0.3-2.1-0.9c-0.6-0.6-0.8-1.3-0.8-2.2c0-0.9,0.3-1.6,0.8-2.2s1.2-0.9,2.1-0.9
							c0.9,0,1.6,0.3,2.1,0.8c0.5,0.6,0.8,1.4,0.8,2.4l0,0.1h-4.6c0,0.6,0.2,1,0.6,1.4c0.4,0.4,0.8,0.5,1.3,0.5
							c0.7,0,1.3-0.4,1.7-1.1l1,0.5c-0.3,0.5-0.6,0.9-1.1,1.2C54.5,96.1,54,96.2,53.4,96.2z M51.6,92.4H55c0-0.4-0.2-0.7-0.5-1
							c-0.3-0.3-0.7-0.4-1.2-0.4c-0.4,0-0.8,0.1-1.1,0.4C51.9,91.6,51.7,92,51.6,92.4z"/>
						<path class="st12" d="M62.6,96.1c-0.5,0-0.9-0.1-1.2-0.4c-0.3-0.3-0.5-0.7-0.5-1.2v-3.3h-1v-1h1v-1.8h1.1v1.8h1.4v1h-1.4v2.9
							c0,0.4,0.1,0.7,0.2,0.8c0.2,0.1,0.3,0.2,0.5,0.2c0.1,0,0.2,0,0.3,0c0.1,0,0.2,0,0.2-0.1l0.3,1C63.3,96.1,63,96.1,62.6,96.1z"
							/>
						<path class="st12" d="M64.8,87.5H66v2.7l0,0.8h0c0.2-0.3,0.4-0.5,0.8-0.7c0.3-0.2,0.7-0.3,1.1-0.3c0.7,0,1.3,0.2,1.7,0.6
							s0.6,1,0.6,1.8v3.7H69v-3.5c0-1.1-0.5-1.6-1.4-1.6c-0.4,0-0.8,0.2-1.1,0.6c-0.3,0.4-0.5,0.8-0.5,1.3v3.2h-1.1V87.5z"/>
						<path class="st12" d="M73,88.1c0,0.2-0.1,0.4-0.2,0.6c-0.2,0.2-0.3,0.2-0.6,0.2c-0.2,0-0.4-0.1-0.6-0.2
							c-0.2-0.2-0.2-0.3-0.2-0.6s0.1-0.4,0.2-0.6c0.2-0.2,0.3-0.2,0.6-0.2c0.2,0,0.4,0.1,0.6,0.2C72.9,87.7,73,87.9,73,88.1z
							 M72.8,90.2v5.9h-1.1v-5.9H72.8z"/>
						<path class="st12" d="M74.5,90.2h1.1V91h0c0.2-0.3,0.4-0.5,0.8-0.7c0.3-0.2,0.7-0.3,1.1-0.3c0.7,0,1.3,0.2,1.7,0.6
							s0.6,1,0.6,1.8v3.7h-1.1v-3.6c0-1-0.5-1.4-1.5-1.4c-0.4,0-0.8,0.2-1.1,0.5c-0.3,0.4-0.4,0.8-0.4,1.3v3.3h-1.1V90.2z"/>
						<path class="st12" d="M83.8,98.8c-0.3,0-0.6,0-0.9-0.1s-0.6-0.2-0.8-0.4c-0.2-0.2-0.4-0.3-0.6-0.5s-0.3-0.4-0.4-0.7l1-0.4
							c0.1,0.3,0.3,0.6,0.6,0.8c0.3,0.2,0.6,0.3,1,0.3c0.6,0,1.1-0.2,1.4-0.5c0.3-0.4,0.5-0.9,0.5-1.5v-0.6h0
							c-0.2,0.3-0.5,0.6-0.8,0.7s-0.7,0.3-1.2,0.3c-0.8,0-1.4-0.3-2-0.9c-0.5-0.6-0.8-1.4-0.8-2.2c0-0.9,0.3-1.6,0.8-2.2
							c0.6-0.6,1.2-0.9,2-0.9c0.4,0,0.8,0.1,1.2,0.3c0.4,0.2,0.6,0.4,0.8,0.7h0v-0.8h1.1v5.6c0,0.9-0.3,1.7-0.8,2.2
							C85.4,98.6,84.7,98.8,83.8,98.8z M83.8,95.2c0.5,0,1-0.2,1.3-0.6c0.4-0.4,0.5-0.9,0.5-1.5c0-0.6-0.2-1.1-0.5-1.5
							c-0.4-0.4-0.8-0.6-1.3-0.6c-0.5,0-1,0.2-1.3,0.6s-0.5,0.9-0.5,1.5c0,0.6,0.2,1.1,0.5,1.5C82.8,95,83.3,95.2,83.8,95.2z"/>
						<path class="st12" d="M89.8,95.3c0,0.2-0.1,0.4-0.2,0.6c-0.2,0.2-0.4,0.2-0.6,0.2c-0.2,0-0.4-0.1-0.6-0.2s-0.2-0.4-0.2-0.6
							c0-0.2,0.1-0.4,0.2-0.6s0.4-0.2,0.6-0.2c0.2,0,0.4,0.1,0.6,0.2C89.8,94.9,89.8,95.1,89.8,95.3z"/>
					</g>
				</g>
				<g id="Component_2_1" transform="translate(12.837 19.774)">
					<g id="Rectangle_160">
						<path class="st1" d="M4.3,0h1.2c2.4,0,4.3,1.9,4.3,4.3v0c0,2.4-1.9,4.3-4.3,4.3H4.3C1.9,8.5,0,6.6,0,4.3v0C0,1.9,1.9,0,4.3,0z
							"/>
					</g>
					<g class="st2">
						<path class="st13" d="M5.5,4.4c0,0.2-0.1,0.4-0.3,0.6C5,5.1,4.8,5.2,4.5,5.2C4.3,5.2,4.1,5.2,4,5C3.8,4.9,3.7,4.7,3.6,4.5
							L4,4.4c0,0.2,0.1,0.3,0.2,0.3c0.1,0.1,0.2,0.1,0.4,0.1c0.1,0,0.3,0,0.4-0.1C5,4.6,5.1,4.5,5.1,4.4C5.1,4.2,5,4.1,4.9,4
							C4.8,3.9,4.7,3.9,4.5,3.9H4.3V3.6h0.2c0.1,0,0.3,0,0.4-0.1C4.9,3.4,5,3.2,5,3.1c0-0.1,0-0.2-0.1-0.3C4.8,2.8,4.6,2.7,4.5,2.7
							C4.3,2.7,4.1,2.8,4,3.1L3.7,2.9C3.7,2.8,3.8,2.6,4,2.5c0.1-0.1,0.3-0.2,0.5-0.2c0.2,0,0.4,0.1,0.6,0.2
							c0.2,0.1,0.2,0.3,0.2,0.5c0,0.3-0.1,0.5-0.4,0.6v0C5.1,3.8,5.2,3.9,5.3,4S5.5,4.2,5.5,4.4z"/>
					</g>
				</g>
			</g>
			<g id="Group_198" transform="translate(768.473 2947.905)">
				<g id="Group_6661" transform="translate(-249.473)">
					<g id="Group_6659" transform="translate(113.856 0)">
						<g id="Group_5935" transform="translate(0)">
							<g id="Rectangle_58">
								<path class="st1" d="M4,0h98.1c2.2,0,4,1.8,4,4v23.5c0,2.2-1.8,4-4,4H4c-2.2,0-4-1.8-4-4V4C0,1.8,1.8,0,4,0z"/>
							</g>
							<g id="Group_233" transform="translate(35.136 10.25)">
								<g class="st2">
									<path class="st13" d="M-3.1,1.4h1.6L1.1,6h0.1l2.6-4.5h1.6V10H3.8V5.8l0.1-1.4H3.8L1.6,8.2h-1l-2.2-3.9h-0.1l0.1,1.4V10
										h-1.6V1.4z"/>
									<path class="st13" d="M9.9,1.4h1.8L15,10h-1.8l-0.7-2.1H9.2L8.5,10H6.7L9.9,1.4z M11.9,6.5l-0.8-2.1l-0.3-1h-0.1l-0.3,1
										L9.7,6.5H11.9z"/>
									<path class="st13" d="M18.8,10.2c-0.4,0-0.7-0.1-1.1-0.2c-0.3-0.1-0.6-0.3-0.9-0.5c-0.3-0.2-0.5-0.5-0.7-0.8
										c-0.2-0.3-0.4-0.6-0.5-1l1.5-0.6c0.1,0.4,0.3,0.8,0.6,1.1c0.3,0.3,0.6,0.4,1.1,0.4c0.2,0,0.3,0,0.5-0.1s0.3-0.1,0.4-0.2
										s0.2-0.2,0.3-0.3c0.1-0.1,0.1-0.3,0.1-0.4c0-0.2,0-0.3-0.1-0.4C20,7.1,19.9,7,19.8,6.8c-0.1-0.1-0.3-0.2-0.5-0.3
										c-0.2-0.1-0.5-0.2-0.8-0.3L18,6c-0.2-0.1-0.5-0.2-0.7-0.3c-0.2-0.1-0.5-0.3-0.6-0.5c-0.2-0.2-0.4-0.4-0.5-0.7
										C16,4.3,16,4,16,3.6C16,3.3,16,3,16.2,2.7c0.1-0.3,0.3-0.5,0.6-0.8s0.5-0.4,0.9-0.5s0.7-0.2,1.1-0.2c0.4,0,0.8,0.1,1.1,0.2
										c0.3,0.1,0.6,0.3,0.8,0.4c0.2,0.2,0.4,0.4,0.5,0.6c0.1,0.2,0.2,0.4,0.3,0.6l-1.4,0.6C20,3.4,19.8,3.2,19.6,3
										c-0.2-0.2-0.5-0.3-0.9-0.3c-0.4,0-0.6,0.1-0.9,0.2s-0.3,0.4-0.3,0.6c0,0.3,0.1,0.5,0.3,0.7c0.2,0.2,0.6,0.4,1.1,0.5
										l0.5,0.2c0.3,0.1,0.7,0.3,0.9,0.4c0.3,0.2,0.5,0.3,0.7,0.6c0.2,0.2,0.4,0.5,0.5,0.7c0.1,0.3,0.2,0.6,0.2,1
										c0,0.4-0.1,0.8-0.3,1.2c-0.2,0.3-0.4,0.6-0.7,0.8c-0.3,0.2-0.6,0.4-0.9,0.5C19.5,10.1,19.2,10.2,18.8,10.2z"/>
									<path class="st13" d="M25.1,10V2.9h-2.4V1.4h6.4v1.5h-2.4V10H25.1z"/>
									<path class="st13" d="M32.1,2.9v2h3.4v1.5h-3.4v2h3.8V10h-5.4V1.4h5.4v1.5H32.1z"/>
									<path class="st13" d="M37.7,1.4h3.1c0.4,0,0.8,0.1,1.2,0.2c0.4,0.1,0.7,0.3,0.9,0.6s0.4,0.5,0.6,0.9s0.2,0.7,0.2,1.1
										c0,0.3,0,0.6-0.1,0.8c-0.1,0.3-0.2,0.5-0.4,0.7S42.7,6,42.5,6.2c-0.2,0.2-0.5,0.3-0.7,0.4l0,0.1l2.3,3.3V10h-1.9L40,6.8
										h-0.8V10h-1.6V1.4z M40.8,5.3c0.4,0,0.7-0.1,0.9-0.3C41.9,4.7,42,4.4,42,4.1c0-0.2,0-0.3-0.1-0.4c-0.1-0.1-0.1-0.3-0.2-0.4
										c-0.1-0.1-0.2-0.2-0.4-0.3c-0.2-0.1-0.3-0.1-0.5-0.1h-1.5v2.4H40.8z"/>
									<path class="st13" d="M47,2.9v2h3.4v1.5H47v2h3.8V10h-5.4V1.4h5.4v1.5H47z"/>
									<path class="st13" d="M52.5,1.4h2.9c0.7,0,1.3,0.1,1.8,0.3s1,0.5,1.4,0.9C59,3,59.3,3.4,59.5,4s0.3,1.1,0.3,1.7
										c0,0.6-0.1,1.2-0.3,1.8s-0.5,1-0.9,1.4c-0.4,0.4-0.8,0.7-1.4,0.9S56.1,10,55.4,10h-2.9V1.4z M55.3,8.5
										c0.5,0,0.9-0.1,1.2-0.2c0.4-0.1,0.7-0.3,0.9-0.6s0.4-0.5,0.5-0.9s0.2-0.7,0.2-1.1S58.1,4.9,58,4.6s-0.3-0.6-0.5-0.9
										s-0.5-0.4-0.9-0.6c-0.4-0.1-0.8-0.2-1.2-0.2h-1.2v5.5H55.3z"/>
								</g>
							</g>
						</g>
						<g id="Component_172_2" transform="translate(4.961 5.186)">
							<g id="Group_6648">
								<g id="Path_3459">
									<path class="st14" d="M18.4,4.6v10.8H2.2l0-11C7.4,6.5,13.2,6.6,18.4,4.6z"/>
								</g>
								<g id="Path_3460">
									<path class="st14" d="M11.9,15.3l-1.6-2.1c0-0.1-0.1-0.1-0.1-0.1l-1.5,2.1c-0.1,0.2-0.1,0.4,0,0.6l1.5,2.1
										c0.1,0,0.1,0,0.1-0.1l1.6-2.1C11.9,15.5,11.9,15.4,11.9,15.3z"/>
								</g>
								<g id="Ellipse_116">
									<ellipse class="st15" cx="5.2" cy="12.7" rx="5.2" ry="5.2"/>
								</g>
								<g id="Ellipse_117">
									<g>
										<defs>
											<ellipse id="SVGID_5_" cx="5.2" cy="12.6" rx="4" ry="4"/>
										</defs>
										<clipPath id="SVGID_6_">
											<use xlink:href="#SVGID_5_"  style="overflow:visible;"/>
										</clipPath>
										<path class="st16" d="M1.2,8.6v8V8.6z"/>
										<rect x="1.2" y="8.6" class="st16" width="0.5" height="8"/>
										<rect x="1.6" y="8.6" class="st17" width="0.5" height="8"/>
										<rect x="2.1" y="8.6" class="st18" width="0.5" height="8"/>
										<rect x="2.6" y="8.6" class="st19" width="0.5" height="8"/>
										<rect x="3.1" y="8.6" class="st20" width="0.5" height="8"/>
										<rect x="3.5" y="8.6" class="st21" width="0.5" height="8"/>
										<rect x="4" y="8.6" class="st22" width="0.5" height="8"/>
										<rect x="4.5" y="8.6" class="st23" width="0.5" height="8"/>
										<rect x="4.9" y="8.6" class="st24" width="0.5" height="8"/>
										<rect x="5.4" y="8.6" class="st25" width="0.5" height="8"/>
										<rect x="5.9" y="8.6" class="st26" width="0.5" height="8"/>
										<rect x="6.4" y="8.6" class="st27" width="0.5" height="8"/>
										<rect x="6.8" y="8.6" class="st28" width="0.5" height="8"/>
										<rect x="7.3" y="8.6" class="st29" width="0.5" height="8"/>
										<rect x="7.8" y="8.6" class="st30" width="0.5" height="8"/>
										<rect x="8.3" y="8.6" class="st30" width="0.9" height="8"/>
									</g>
								</g>
								<g id="Path_3461">
									<path class="st15" d="M5.2,11.1c-0.3,0-0.5,0.1-0.7,0.2c0.2,0.2,0.2,0.4,0,0.6C4.3,12,4,12,3.9,11.9
										c-0.1,0.2-0.2,0.5-0.2,0.7c0.1,0.8,0.8,1.4,1.6,1.4c0.8-0.1,1.4-0.8,1.4-1.6C6.6,11.7,5.9,11.1,5.2,11.1L5.2,11.1z"/>
								</g>
								<g id="Ellipse_118">
									<ellipse class="st15" cx="15.4" cy="12.7" rx="5.2" ry="5.2"/>
								</g>
								<g id="Ellipse_119">
									<g>
										<defs>
											<ellipse id="SVGID_7_" cx="15.4" cy="12.6" rx="4" ry="4"/>
										</defs>
										<clipPath id="SVGID_8_">
											<use xlink:href="#SVGID_7_"  style="overflow:visible;"/>
										</clipPath>
										<path class="st31" d="M11.4,8.6v8V8.6z"/>
										<rect x="11.4" y="8.6" class="st31" width="0.5" height="8"/>
										<rect x="11.9" y="8.6" class="st32" width="0.5" height="8"/>
										<rect x="12.4" y="8.6" class="st33" width="0.5" height="8"/>
										<rect x="12.8" y="8.6" class="st34" width="0.5" height="8"/>
										<rect x="13.3" y="8.6" class="st35" width="0.5" height="8"/>
										<rect x="13.8" y="8.6" class="st36" width="0.5" height="8"/>
										<rect x="14.3" y="8.6" class="st37" width="0.5" height="8"/>
										<rect x="14.7" y="8.6" class="st38" width="0.5" height="8"/>
										<rect x="15.2" y="8.6" class="st39" width="0.5" height="8"/>
										<rect x="15.7" y="8.6" class="st40" width="0.5" height="8"/>
										<rect x="16.2" y="8.6" class="st41" width="0.5" height="8"/>
										<rect x="16.6" y="8.6" class="st42" width="0.5" height="8"/>
										<rect x="17.1" y="8.6" class="st43" width="0.5" height="8"/>
										<rect x="17.6" y="8.6" class="st44" width="0.5" height="8"/>
										<rect x="18" y="8.6" class="st45" width="0.5" height="8"/>
										<rect x="18.5" y="8.6" class="st45" width="0.9" height="8"/>
									</g>
								</g>
								<g id="Path_3462">
									<path class="st15" d="M15.4,11.1c-0.3,0-0.5,0.1-0.7,0.2c0.2,0.2,0.2,0.4,0,0.6c-0.1,0.1-0.4,0.2-0.5,0
										C14,12.1,14,12.4,14,12.6c0.1,0.8,0.8,1.4,1.6,1.4s1.4-0.8,1.4-1.6C16.8,11.7,16.2,11.1,15.4,11.1L15.4,11.1z"/>
								</g>
								<g id="Group_6647" transform="translate(5.736)">
									<g id="Ellipse_120">
										<ellipse class="st46" cx="4.5" cy="4.5" rx="4.5" ry="4.5"/>
									</g>
									<g id="Path_3463">
										<path class="st1" d="M3.6,5L2.2,3.6C2.1,3.5,2,3.5,1.9,3.6L1.3,4.2c-0.1,0.1-0.1,0.2,0,0.3l2,2l0.2,0.2
											c0.1,0.1,0.3,0.1,0.5,0c0,0,0,0,0-0.1l0.2-0.2l3.5-4.3L4,5.1C3.9,5.2,3.7,5.2,3.6,5z"/>
									</g>
								</g>
							</g>
						</g>
					</g>
				</g>
			</g>
			<g id="Group_6786" transform="translate(656.473 2947.905)">
				<g id="Group_6661-2" transform="translate(-249.473)">
					<g id="Group_6659-2" transform="translate(113.856 0)">
						<g id="Group_5935-2" transform="translate(0)">
							<g id="Rectangle_58-2">
								<path class="st1" d="M4,0h98.1c2.2,0,4,1.8,4,4v23.5c0,2.2-1.8,4-4,4H4c-2.2,0-4-1.8-4-4V4C0,1.8,1.8,0,4,0z"/>
							</g>
							<g id="Group_233-2" transform="translate(35.136 10.25)">
								<g class="st2">
									<path class="st13" d="M-0.5,10.2c-0.4,0-0.7-0.1-1.1-0.2c-0.3-0.1-0.6-0.3-0.9-0.5C-2.8,9.4-3,9.1-3.2,8.8
										c-0.2-0.3-0.4-0.6-0.5-1l1.5-0.6c0.1,0.4,0.3,0.8,0.6,1.1C-1.3,8.5-1,8.7-0.5,8.7c0.2,0,0.3,0,0.5-0.1
										c0.2,0,0.3-0.1,0.4-0.2c0.1-0.1,0.2-0.2,0.3-0.3C0.8,8,0.8,7.8,0.8,7.6c0-0.2,0-0.3-0.1-0.4C0.7,7.1,0.6,7,0.4,6.8
										C0.3,6.7,0.1,6.6-0.1,6.5c-0.2-0.1-0.5-0.2-0.8-0.3L-1.4,6c-0.2-0.1-0.5-0.2-0.7-0.3c-0.2-0.1-0.5-0.3-0.6-0.5
										C-2.9,5-3.1,4.8-3.2,4.5C-3.3,4.3-3.4,4-3.4,3.6c0-0.3,0.1-0.6,0.2-0.9c0.1-0.3,0.3-0.5,0.6-0.8s0.5-0.4,0.9-0.5
										C-1.4,1.3-1,1.2-0.6,1.2c0.4,0,0.8,0.1,1.1,0.2c0.3,0.1,0.6,0.3,0.8,0.4C1.5,2,1.7,2.2,1.8,2.4C2,2.6,2.1,2.8,2.1,3
										L0.7,3.6C0.6,3.4,0.5,3.2,0.3,3C0.1,2.8-0.2,2.7-0.6,2.7c-0.4,0-0.6,0.1-0.9,0.2c-0.2,0.2-0.3,0.4-0.3,0.6
										c0,0.3,0.1,0.5,0.3,0.7c0.2,0.2,0.6,0.4,1.1,0.5l0.5,0.2c0.3,0.1,0.7,0.3,0.9,0.4c0.3,0.2,0.5,0.3,0.7,0.6
										C2,6.1,2.2,6.4,2.3,6.7c0.1,0.3,0.2,0.6,0.2,1c0,0.4-0.1,0.8-0.3,1.2C2,9.1,1.8,9.4,1.5,9.6C1.2,9.8,0.9,9.9,0.5,10
										C0.2,10.1-0.2,10.2-0.5,10.2z"/>
									<path class="st13" d="M5.7,10V2.9H3.3V1.4h6.4v1.5H7.3V10H5.7z"/>
									<path class="st13" d="M11.1,1.4h3.1c0.4,0,0.8,0.1,1.2,0.2c0.4,0.1,0.7,0.3,0.9,0.6s0.4,0.5,0.6,0.9
										c0.1,0.3,0.2,0.7,0.2,1.1c0,0.3,0,0.6-0.1,0.8c-0.1,0.3-0.2,0.5-0.4,0.7C16.4,5.8,16.2,6,16,6.2c-0.2,0.2-0.5,0.3-0.7,0.4
										l0,0.1l2.3,3.3V10h-1.9l-2.2-3.2h-0.8V10h-1.6V1.4z M14.2,5.3c0.4,0,0.7-0.1,0.9-0.3c0.2-0.2,0.4-0.5,0.4-0.9
										c0-0.2,0-0.3-0.1-0.4c-0.1-0.1-0.1-0.3-0.2-0.4C15.1,3.2,15,3.1,14.8,3c-0.2-0.1-0.3-0.1-0.5-0.1h-1.5v2.4H14.2z"/>
									<path class="st13" d="M21.9,10.2c-0.5,0-1-0.1-1.4-0.2s-0.8-0.4-1-0.7c-0.3-0.3-0.5-0.7-0.7-1.1c-0.2-0.4-0.2-0.9-0.2-1.5
										V1.4h1.6v5.3c0,0.3,0,0.6,0.1,0.8c0.1,0.2,0.2,0.4,0.3,0.6c0.1,0.2,0.3,0.3,0.5,0.4c0.2,0.1,0.5,0.2,0.7,0.2
										c0.3,0,0.5,0,0.8-0.2c0.2-0.1,0.4-0.2,0.5-0.4c0.1-0.2,0.3-0.4,0.3-0.6c0.1-0.2,0.1-0.5,0.1-0.8V1.4h1.6v5.2
										c0,0.5-0.1,1-0.2,1.5c-0.2,0.4-0.4,0.8-0.7,1.1c-0.3,0.3-0.6,0.6-1.1,0.7S22.5,10.2,21.9,10.2z"/>
									<path class="st13" d="M31.1,5.3h4.2c0,0.1,0,0.2,0.1,0.3c0,0.1,0,0.3,0,0.4c0,0.6-0.1,1.1-0.3,1.6
										c-0.2,0.5-0.4,0.9-0.8,1.3C34,9.3,33.6,9.6,33,9.9c-0.5,0.2-1.1,0.3-1.8,0.3c-0.6,0-1.2-0.1-1.8-0.3
										c-0.6-0.2-1-0.5-1.4-0.9c-0.4-0.4-0.7-0.9-1-1.4c-0.2-0.5-0.4-1.1-0.4-1.8c0-0.6,0.1-1.2,0.4-1.8c0.2-0.5,0.6-1,1-1.4
										c0.4-0.4,0.9-0.7,1.4-0.9c0.6-0.2,1.1-0.3,1.8-0.3c0.7,0,1.3,0.1,1.9,0.4c0.5,0.2,1,0.6,1.4,1l-1.1,1.1
										c-0.3-0.3-0.6-0.5-0.9-0.7c-0.3-0.2-0.8-0.2-1.2-0.2c-0.4,0-0.8,0.1-1.1,0.2c-0.4,0.1-0.7,0.3-0.9,0.6
										c-0.3,0.3-0.5,0.6-0.6,0.9c-0.2,0.4-0.2,0.8-0.2,1.2s0.1,0.9,0.2,1.2c0.2,0.4,0.4,0.7,0.6,0.9c0.3,0.3,0.6,0.5,0.9,0.6
										c0.4,0.1,0.7,0.2,1.1,0.2c0.5,0,0.8-0.1,1.2-0.2s0.6-0.3,0.8-0.5c0.2-0.1,0.3-0.3,0.4-0.5c0.1-0.2,0.2-0.5,0.3-0.7h-2.7
										V5.3z"/>
									<path class="st13" d="M41.1,5.3h4.2c0,0.1,0,0.2,0.1,0.3c0,0.1,0,0.3,0,0.4c0,0.6-0.1,1.1-0.3,1.6
										c-0.2,0.5-0.4,0.9-0.8,1.3C44,9.3,43.5,9.6,43,9.9c-0.5,0.2-1.1,0.3-1.8,0.3c-0.6,0-1.2-0.1-1.8-0.3
										c-0.6-0.2-1-0.5-1.4-0.9c-0.4-0.4-0.7-0.9-1-1.4c-0.2-0.5-0.4-1.1-0.4-1.8c0-0.6,0.1-1.2,0.4-1.8c0.2-0.5,0.6-1,1-1.4
										c0.4-0.4,0.9-0.7,1.4-0.9c0.6-0.2,1.1-0.3,1.8-0.3c0.7,0,1.3,0.1,1.9,0.4c0.5,0.2,1,0.6,1.4,1l-1.1,1.1
										C43,3.4,42.7,3.1,42.4,3c-0.3-0.2-0.8-0.2-1.2-0.2c-0.4,0-0.8,0.1-1.1,0.2c-0.4,0.1-0.7,0.3-0.9,0.6
										c-0.3,0.3-0.5,0.6-0.6,0.9c-0.2,0.4-0.2,0.8-0.2,1.2s0.1,0.9,0.2,1.2c0.2,0.4,0.4,0.7,0.6,0.9c0.3,0.3,0.6,0.5,0.9,0.6
										c0.4,0.1,0.7,0.2,1.1,0.2c0.5,0,0.8-0.1,1.2-0.2s0.6-0.3,0.8-0.5c0.2-0.1,0.3-0.3,0.4-0.5c0.1-0.2,0.2-0.5,0.3-0.7h-2.7
										V5.3z"/>
									<path class="st13" d="M47,1.4h1.6v7.1h3.6V10H47V1.4z"/>
									<path class="st13" d="M55.3,2.9v2h3.4v1.5h-3.4v2h3.8V10h-5.4V1.4h5.4v1.5H55.3z"/>
									<path class="st13" d="M60.8,1.4h2.9c0.7,0,1.3,0.1,1.8,0.3s1,0.5,1.4,0.9C67.3,3,67.6,3.4,67.8,4s0.3,1.1,0.3,1.7
										c0,0.6-0.1,1.2-0.3,1.8s-0.5,1-0.9,1.4c-0.4,0.4-0.8,0.7-1.4,0.9S64.4,10,63.7,10h-2.9V1.4z M63.6,8.5
										c0.5,0,0.9-0.1,1.2-0.2c0.4-0.1,0.7-0.3,0.9-0.6c0.2-0.2,0.4-0.5,0.5-0.9c0.1-0.3,0.2-0.7,0.2-1.1s-0.1-0.8-0.2-1.1
										c-0.1-0.3-0.3-0.6-0.5-0.9c-0.2-0.2-0.5-0.4-0.9-0.6c-0.4-0.1-0.8-0.2-1.2-0.2h-1.2v5.5H63.6z"/>
								</g>
							</g>
						</g>
						<g id="Component_177_1" transform="translate(4.589 4.561)">
							<g id="Path_3453">
								<path class="st14" d="M19.8,4.6v11.8H2.4l0-12C7.8,6.3,14,6.9,19.8,4.6z"/>
							</g>
							<g id="Path_3454">
								<path class="st14" d="M12.8,16.2l-1.7-2.3c0-0.1-0.1-0.1-0.1-0.1l-1.7,2.3c-0.1,0.2-0.1,0.4,0,0.6L11,19
									c0.1,0,0.1,0,0.1-0.1l1.7-2.3C12.9,16.5,12.9,16.3,12.8,16.2z"/>
							</g>
							<g id="Ellipse_112">
								<circle class="st15" cx="5.6" cy="13.3" r="5.6"/>
							</g>
							<g id="Ellipse_113">
								<g>
									<defs>
										<circle id="SVGID_9_" cx="5.6" cy="13.3" r="4.4"/>
									</defs>
									<clipPath id="SVGID_10_">
										<use xlink:href="#SVGID_9_"  style="overflow:visible;"/>
									</clipPath>
									<path class="st47" d="M1.3,8.9v8.8V8.9z"/>
									<rect x="1.3" y="8.9" class="st47" width="0.5" height="8.8"/>
									<rect x="1.8" y="8.9" class="st48" width="0.5" height="8.8"/>
									<rect x="2.3" y="8.9" class="st49" width="0.5" height="8.8"/>
									<rect x="2.8" y="8.9" class="st50" width="0.5" height="8.8"/>
									<rect x="3.3" y="8.9" class="st51" width="0.5" height="8.8"/>
									<rect x="3.8" y="8.9" class="st52" width="0.5" height="8.8"/>
									<rect x="4.4" y="8.9" class="st53" width="0.5" height="8.8"/>
									<rect x="4.9" y="8.9" class="st54" width="0.5" height="8.8"/>
									<rect x="5.4" y="8.9" class="st55" width="0.5" height="8.8"/>
									<rect x="5.9" y="8.9" class="st56" width="0.5" height="8.8"/>
									<rect x="6.4" y="8.9" class="st57" width="0.5" height="8.8"/>
									<rect x="7" y="8.9" class="st58" width="0.5" height="8.8"/>
									<rect x="7.5" y="8.9" class="st59" width="0.5" height="8.8"/>
									<rect x="8" y="8.9" class="st60" width="0.5" height="8.8"/>
									<rect x="8.5" y="8.9" class="st61" width="0.5" height="8.8"/>
									<rect x="9" y="8.9" class="st61" width="1" height="8.8"/>
								</g>
							</g>
							<g id="Path_3455">
								<path class="st15" d="M5.6,11.6c-0.3,0-0.6,0.1-0.8,0.2c0.2,0.2,0.2,0.5,0,0.6c-0.2,0.1-0.4,0.2-0.6,0C4,12.8,4,13.1,4,13.4
									c0.1,0.9,0.8,1.5,1.7,1.5s1.5-0.8,1.5-1.7C7.1,12.3,6.4,11.7,5.6,11.6L5.6,11.6z"/>
							</g>
							<g id="Ellipse_114">
								<circle class="st15" cx="16.6" cy="13.3" r="5.6"/>
							</g>
							<g id="Ellipse_115">
								<g>
									<defs>
										<circle id="SVGID_11_" cx="16.5" cy="13.3" r="4.4"/>
									</defs>
									<clipPath id="SVGID_12_">
										<use xlink:href="#SVGID_11_"  style="overflow:visible;"/>
									</clipPath>
									<path class="st62" d="M12.2,8.9v8.8V8.9z"/>
									<rect x="12.2" y="8.9" class="st62" width="0.5" height="8.8"/>
									<rect x="12.7" y="8.9" class="st63" width="0.5" height="8.8"/>
									<rect x="13.2" y="8.9" class="st64" width="0.5" height="8.8"/>
									<rect x="13.7" y="8.9" class="st65" width="0.5" height="8.8"/>
									<rect x="14.2" y="8.9" class="st66" width="0.5" height="8.8"/>
									<rect x="14.8" y="8.9" class="st67" width="0.5" height="8.8"/>
									<rect x="15.3" y="8.9" class="st68" width="0.5" height="8.8"/>
									<rect x="15.8" y="8.9" class="st69" width="0.5" height="8.8"/>
									<rect x="16.3" y="8.9" class="st70" width="0.5" height="8.8"/>
									<rect x="16.8" y="8.9" class="st71" width="0.5" height="8.8"/>
									<rect x="17.3" y="8.9" class="st72" width="0.5" height="8.8"/>
									<rect x="17.9" y="8.9" class="st73" width="0.5" height="8.8"/>
									<rect x="18.4" y="8.9" class="st74" width="0.5" height="8.8"/>
									<rect x="18.9" y="8.9" class="st75" width="0.5" height="8.8"/>
									<rect x="19.4" y="8.9" class="st76" width="0.5" height="8.8"/>
									<rect x="19.9" y="8.9" class="st76" width="1" height="8.8"/>
								</g>
							</g>
							<g id="Path_3456">
								<path class="st15" d="M16.6,11.6c-0.3,0-0.6,0.1-0.8,0.2c0.2,0.2,0.2,0.5,0,0.6c-0.2,0.1-0.4,0.2-0.6,0
									c-0.1,0.3-0.2,0.5-0.2,0.8c0.1,0.9,0.8,1.5,1.7,1.5s1.5-0.8,1.5-1.7C18.1,12.3,17.4,11.7,16.6,11.6L16.6,11.6z"/>
							</g>
							<g id="Group_6645" transform="translate(9.082)">
								<g id="Path_3457">
									<path class="st77" d="M10.8,3.3c0.1,0.2,0,0.4-0.1,0.6L10.6,4L0.1,14.4h0c0,0-0.1-0.1-0.1-0.1L4.5,6H1.4
										C1.1,6,0.8,5.8,0.8,5.5c0-0.1,0-0.2,0.1-0.3L4.9,0h6.2L8,3h2.3C10.5,3,10.7,3.1,10.8,3.3z"/>
								</g>
								<g id="Path_3458">
									<path class="st1" d="M8.8,3.8L8.2,4.6l-5.9,6.8l4.6-6.6h-4l2.3-3.2h1.5L4.9,3.8H8.8z"/>
								</g>
							</g>
						</g>
					</g>
				</g>
			</g>
		</g>
		<g id="Group_208" transform="translate(594.042 2772)">
			<g id="Ellipse_6">
				<ellipse class="st7" cx="39.5" cy="39" rx="32.5" ry="32"/>
			</g>
			<g id="owl_bordered" transform="translate(22.152 18.812)">
				<g id="Ellipse_92">
					<circle class="st1" cx="8.8" cy="13.2" r="8"/>
				</g>
				<g id="Path_2015">
					<path class="st1" d="M24.8,5c4.3,0,7.8,3.5,7.8,7.8c0,0.7-0.1,1.4-0.3,2c-1.1,4.2-5.4,6.6-9.6,5.5s-6.6-5.4-5.5-9.6
						C18.1,7.4,21.2,5,24.8,5z"/>
				</g>
				<g id="Group_463" transform="translate(0)">
					<g id="Group_449" transform="translate(0)">
						<g id="Group_5902" transform="translate(0)">
							<g id="Path_2003">
								<path class="st78" d="M17.3,0"/>
							</g>
							<g id="Group_5901" transform="translate(0 1.279)">
								<g id="Rectangle_1597">
									<rect x="18" y="33.8" class="st15" width="7.5" height="2.1"/>
								</g>
								<g id="Union_10">
									<path class="st15" d="M2.6,21.3c0-3,0.9-5.9,2.6-8.3l0-13c7.2,3.7,15.5,4.8,23.2,0.3v11.5c3,3.5,4.2,8.2,3.2,12.7V36h-7.3
										c-1.1,0-2.1-0.2-3.2-0.5c-7.8,2.1-15.9-2.5-18-10.4C2.7,23.8,2.6,22.6,2.6,21.3z"/>
									<path class="st1" d="M17.2,36.5c-6.7,0-12.8-4.5-14.7-11.2c-0.3-1.3-0.5-2.6-0.5-3.9l0,0c0-3,0.9-5.9,2.6-8.5l0-13.7
										l0.7,0.4C11,2.4,19.5,4.8,28.1-0.2l0.8-0.4v12.1c3,3.6,4.2,8.4,3.2,13v12h-7.8c0,0,0,0,0,0c-1.1,0-2.1-0.2-3.2-0.5
										C19.8,36.3,18.5,36.5,17.2,36.5z M5.6,0.8l0,12.3l-0.1,0.1c-1.6,2.4-2.5,5.1-2.5,8v0c0,1.2,0.2,2.5,0.5,3.7
										c2,7.6,9.8,12,17.4,10l0.1,0l0.1,0c1,0.3,2,0.5,3,0.5c0,0,0,0,0,0h6.8l0-11.1C32,20,30.9,15.4,28,12l-0.1-0.1V1.1
										C19.5,5.6,11.3,3.5,5.6,0.8z"/>
								</g>
								<g id="Path_2006">
									<path class="st79" d="M34.5,25.2"/>
								</g>
								<g id="Group_5895" transform="translate(0 5.079)">
									<g id="Ellipse_86">
										<circle class="st7" cx="17.3" cy="17.3" r="12.2"/>
									</g>
									<g id="Group_5894" transform="translate(17.515 5.058)" class="st80">
										<g id="Path_2007">
											<path class="st81" d="M11.9,12.2C11.9,5.6,6.6,0.1,0,0c0.2,0.6,0.5,1.1,0.9,1.5c0.5,0.5,1,1.1,1.2,1.8
												c0.1,0.5,0,1,0.2,1.5c0.3,0.7,1,1.3,1.8,1.3c0.3,0,0.6,0.1,0.8,0.3c0.3,0.3,0.1,0.9,0.2,1.3c0.2,0.8,1.5,0.9,1.6,1.6
												c0.2,0.9-1.2,1.5-1,2.4C5.8,12,6,12.2,6,12.5c0,0.4-0.5,0.6-0.7,1c-0.3,0.5,0,1.2,0.4,1.7l1.1,1.6
												c0.4,0.6,0.8,1.3,0.5,1.9c-0.2,0.5-0.8,0.7-1.1,1.1c-0.2,0.5-0.2,1,0,1.4l0.3,1.1C9.9,20.1,11.9,16.3,11.9,12.2z"/>
										</g>
									</g>
									<g id="Path_2008" class="st82">
										<path class="st81" d="M21.1,27.6c0-0.4-0.1-0.9,0.2-1.2c0.1-0.1,0.3-0.1,0.3-0.2c0.2-0.2,0-0.5-0.3-0.7s-0.5-0.3-0.6-0.5
											c-0.1-0.3-0.1-0.5,0-0.8c0-0.8-1-1.2-1.8-1.3c-0.8,0-1.6-0.2-2.3-0.6c-0.2-0.2-0.4-0.4-0.6-0.6c-0.9-0.6-2.1,0.3-3.1-0.2
											c-0.3-0.1-0.4-0.3-0.4-0.6c0-0.1,0.1-0.3,0.1-0.4c0-0.3-0.4-0.4-0.6-0.5c-0.5-0.3-0.7-0.9-0.5-1.4c0.1-0.5,0.5-1,0.9-1.3
											c0.5-0.4,1.2-0.9,1.1-1.5c0-0.2-0.1-0.4-0.2-0.6c-0.1-1,1.5-1.4,1.6-2.4c0-0.3,0-0.7-0.1-1c-0.1-0.3,0-0.7,0.2-0.9
											c0.2-0.1,0.4-0.1,0.5-0.3c0.1-0.1,0.1-0.3,0.2-0.5c0.3-1,1.5-1.5,1.7-2.6c0-0.6-0.3-1.3-0.7-1.7c-0.3-0.3-0.5-0.6-0.8-0.8
											c-6.7,0.6-11.6,6.6-11,13.3c0.2,2.1,1,4.2,2.2,5.9c0.6,0,1.2,0.1,1.7,0.3c0.4,0.2,0.8,0.6,1.1,0.9
											c0.7,0.8,1.3,1.7,1.9,2.7c2.8,1.3,6,1.6,9,0.6C21.1,28.5,21.2,28,21.1,27.6z"/>
									</g>
									<g id="Path_2009">
										<path class="st83" d="M14.9,5c0,0,0.3-0.1,0.4,0.1S15.1,5.2,15,5.3s-0.3,0-0.1,0.2s0.7,0.2,0.9,0.6s0.5,0.4,0.2,0.8
											c-0.3,0.4-0.6,0.9-0.5,1.3c0.1,0.3,0.2,1.1-0.4,0.6c-0.5-0.3-0.8-0.8-0.9-1.4C14,7,13.8,6.7,13.6,6.3
											c-0.1-0.3-0.2-0.5-0.4-0.4C13,6,12.9,6.1,12.7,6.3c-0.1,0.1,0,0.2,0.2,0.4s0.3,0.1,0.1,0.4s-0.1,0.2,0,0.4
											s0.4,0.3,0.2,0.6C13,8.3,12.9,8.5,13,8.7s0.1,0.5-0.3,0.3c-0.4-0.2-0.7-0.4-0.9-0.8c0-0.2,0.1-0.1,0.2-0.2
											c0.1-0.2,0.2-0.4,0.2-0.6c0-0.2-0.2-0.2-0.3-0.3s-0.1,0.1-0.2,0.4c0,0.2-0.2,0.4-0.5,0.5c0,0,0.2,0.5,0,0.6
											c-0.2,0.1-0.5,0.1-0.7,0.1c-0.2,0.1-0.3,0.3-0.5,0.5C9.9,9.4,9.8,9.5,9.8,9.6S9.6,9.7,9.6,10s0.1,0.4,0.3,0.5
											c0.3,0.1,0.5,0.3,0.5,0.6c0.1,0.2,0.1,0.5,0.1,0.7c0,0.1,0.2,0.2,0.2-0.1c0-0.3,0.1-0.6,0.3-0.8c0.2-0.3,0.2-0.6,0.1-0.9
											c0-0.2,0-0.5,0.1-0.7c0.1-0.1,0.3-0.4,0.6-0.3s0.5,0.3,0.6,0.5s0.1,0.4,0.1,0.4s0.2-0.4,0.4-0.3c0.2,0,0.3,0.2,0.4,0.3
											c0.1,0.2,0.2,0.4,0.4,0.6c0.2,0.2,0.3,0.4,0.4,0.7c0.1,0.1,0.2,0.3,0.3,0.5c0,0.1-0.2,0-0.5,0.1S13.5,12,13.2,12
											s-0.7,0.1-0.9,0.3s-0.4,0.3-0.2,0.4s0.2,0,0.3-0.1c0.2-0.1,0.4-0.2,0.6-0.2c0.2,0,0.2-0.1,0.1,0.2s-0.1,0.4,0,0.4
											s0.1,0.3,0.3,0.1s0.3-0.3,0.3-0.2c0.1,0.1,0,0.3-0.1,0.4c-0.2,0.1-0.5,0.3-0.7,0.5c-0.2,0.2-0.2,0-0.3-0.1
											s-0.3,0.1-0.5,0.3s-0.3,0.1-0.3,0.3s0.2,0.6,0,0.6c-0.2,0-0.4,0-0.5,0.1c-0.1,0.1,0,0.1-0.1,0.3c-0.1,0.2-0.2,0.4-0.4,0.5
											c0,0,0.1,0.7-0.1,0.9s-0.3,0.7-0.5,0.8s-0.4,0.4-0.3,0.6c0.2,0.2,0.3,0.5,0.5,0.8c0,0.2,0.2,0.5-0.1,0.5s-0.4-0.4-0.6-0.8
											S9.3,18.1,9,18.2s-0.2,0.3-0.4,0.3c-0.2,0-0.4,0-0.6,0c-0.1,0.1-0.2,0.2-0.2,0.4s-0.5,1.7-0.1,2.1c0.3,0.2,0.7,0.3,1,0.3
											c0,0,0.3-0.7,0.6-0.5s0.1,0.5,0.1,0.7c0,0.2,0.1,0.5,0.2,0.7c0.2,0,0.5,0,0.7,0.1c0.1,0.1,0.2,0.1,0.2,0.4s0,0.4,0.3,0.6
											s0.3,0.3,0.5,0.3s0.4,0,0.5,0.1c0.1,0.1,0.1,0.1,0.2,0.1c0,0,0.2,0,0.3-0.1s-0.2-0.2-0.1-0.3s0.2-0.2,0.4-0.4
											s0.2-0.4,0.3-0.3s0.2,0.1,0,0.3s0,0.4,0.1,0.4c0.1,0,0.2-0.1,0.2-0.3c0,0,0-0.1,0-0.1c-0.1-0.1,0.1-0.2,0.3,0
											s0.2,0.4,0.6,0.2s0.7-0.3,0.9-0.3s0.4,0.1,0.5,0.5s0.5,0.6,1,0.6c0.5,0,0.7-0.1,0.9,0s0.4,0.2,0.4,0.5s0.1,0.5,0.5,0.5
											s0.6,0.1,0.9,0.1s1-0.1,1.3,0.3s-0.3,1.1-0.6,1.4c0,0-0.1,0.9-0.5,1.3c-0.3,0.2-0.5,0.4-0.7,0.7c-0.2,0.4-0.6,0.6-1,0.6
											c-0.8,0-1.5,0.2-2-0.5c-0.5-0.7-0.7-0.9-1.2-1c-0.9-0.3-1.6-1-2-1.9c-0.3-0.9,0.1-1.3-0.3-1.6s-0.5-0.3-0.6-0.3
											s-0.7-0.3-1.1-0.6c-0.5-0.5-1.1-0.9-1.7-1.2c-0.2-0.1-0.4-0.1-0.6-0.2c-0.4-0.1-0.7-0.3-1-0.6c-0.2-0.2-0.4-0.4-0.7-0.6
											c-0.2-0.2-0.4-0.4-0.5-0.7c-0.1-0.2-0.2-0.4-0.4-0.5c-0.2,0-0.3-0.1-0.4-0.3c-0.1-0.5-0.2-0.9-0.2-1.4c0-0.5,0-1,0-1.4
											c0-0.8,0-1.6,0.2-2.3c0.2-0.5,0.7-1.8,0.8-2.3c0.2-0.6,0.4-1.1,0.8-1.5C7,10.3,7.8,9.2,8.1,8.8c0.4-0.5,0.8-1,1.3-1.3
											c0.4-0.2,1.2-0.7,1.5-1s1.2-0.6,1.5-0.8C13.3,5.4,14.1,5.2,14.9,5z"/>
									</g>
									<g id="Path_2010">
										<path class="st83" d="M18.5,5.1c0,0,0,0.4,0.3,0.5s0.5,0,0.8,0.3s0.2,0.4,0.5,0.3s0.4,0,0.5,0.3s0.2,0.7,0.7,0.6
											s0.5,0.1,0.6,0.3s0.2,0.5,0.4,0.3s0.2-0.3,0.3,0c0,0.2,0.2,0.4,0.4,0.5c0.2,0.2,0.5,0.4,0.4,0.6s-0.6-0.2-1-0.4
											s-0.9-0.6-0.9-0.5s-0.4,0.2,0,0.5c0.3,0.3,0.4,0.3,0.5,0.7s0.2,0.9,0.5,0.9s0.5-0.3,0.6-0.1s0.1,0.3,0.3,0.1
											s0.3-0.5,0.5-0.4s0.2,0.1,0.1,0.4s-0.1,0.4-0.2,0.5s0,0.1,0.3,0.1s0.3,0.1,0.3,0.4c0,0.2,0.1,0.3,0.2,0.4
											c0.1,0.1,0,0.2-0.2,0.2s-0.4,0.2-0.2,0.5c0.2,0.3,0.4,0.6,0.6,1c0.2,0.4,0.1,0.6,0.4,0.5s0.5,0.2,0.6-0.3s0.2-0.8,0-1.1
											S25.7,11,25.9,11c0.3,0.1,0.5,0.3,0.7,0.5c0.3,0.3,0.4,0.2,0.6,0.1c0.1-0.1,0.2-0.2,0.4-0.3c0.1-0.1,0.2,0,0.4,0.6
											s0.6,1.4,0.6,1.4s-0.6-0.8-0.8-0.7s-0.2,0.3,0,0.4s0.1,0.5-0.2,0.1s-0.4-0.4-0.5-0.6s-0.4-0.2-0.5,0s0,0.3-0.3,0.5
											s-0.6,0.4-0.6,0.7c0,0.5,0,1-0.1,1.6c-0.1,0-0.2,0.1-0.3,0.6s0,1-0.1,1.3c-0.1,0.3-0.1,0.6,0,0.9c0.1,0.1,0.1,0.3,0.2,0.4
											c0,0,0,1.3,0,1.8c0,0.6,0.3,1.1,0.7,1.5c0.4,0.3,0.3,0.5,0.6,0.2c0.3-0.3,0.5-0.6,0.8-0.9c0.1-0.1,0.1,0.2,0,0.7
											c-0.2,0.7-0.4,1.4-0.7,2.1c-0.3,0.4-0.3,0.5-0.5,0.7c-0.2,0.1-0.4,0.4-0.5,0.6c-0.1,0.2-0.2,0.5-0.2,0.6s0,0.5,0,0.5
											c0.6-0.4,1.1-0.8,1.5-1.4c0.8-1.1,1.5-2.3,1.9-3.5c0.3-1.3,0.5-2.5,0.6-3.8c0-1.2-0.2-2.3-0.5-3.4c-0.4-1.2-1-2.4-1.7-3.4
											c-0.9-1.3-2-2.4-3.3-3.3c-1-0.7-2.2-1.3-3.4-1.6C20.1,5.2,19.3,5,18.5,5.1z"/>
									</g>
								</g>
								<g id="Ellipse_87">
									<circle class="st11" cx="18" cy="23" r="12"/>
								</g>
								<g id="Path_2011">
									<path class="st15" d="M19,15.6l-2.3-3c0-0.1-0.1-0.1-0.2-0.1l-2.2,3c-0.2,0.2-0.2,0.6,0,0.8l2.2,3c0.1,0,0.1-0.1,0.2-0.1
										l2.3-3C19.1,15.8,19.1,15.7,19,15.6z"/>
								</g>
								<g id="Ellipse_88">
									<circle class="st15" cx="9.4" cy="11.7" r="7.4"/>
								</g>
								<g id="Group_5896" transform="translate(3.569 5.914)">
									<g id="Ellipse_89">
										<g>
											<defs>
												<circle id="SVGID_13_" cx="5.8" cy="5.8" r="5.8"/>
											</defs>
											<clipPath id="SVGID_14_">
												<use xlink:href="#SVGID_13_"  style="overflow:visible;"/>
											</clipPath>
											<path class="st84" d="M0,0v11.6V0z"/>
											<rect x="0" y="0" class="st84" width="0.7" height="11.6"/>
											<rect x="0.7" y="0" class="st85" width="0.7" height="11.6"/>
											<rect x="1.4" y="0" class="st86" width="0.7" height="11.6"/>
											<rect x="2" y="0" class="st87" width="0.7" height="11.6"/>
											<rect x="2.7" y="0" class="st88" width="0.7" height="11.6"/>
											<rect x="3.4" y="0" class="st89" width="0.7" height="11.6"/>
											<rect x="4.1" y="0" class="st90" width="0.7" height="11.6"/>
											<rect x="4.8" y="0" class="st91" width="0.7" height="11.6"/>
											<rect x="5.5" y="0" class="st92" width="0.7" height="11.6"/>
											<rect x="6.1" y="0" class="st93" width="0.7" height="11.6"/>
											<rect x="6.8" y="0" class="st94" width="0.7" height="11.6"/>
											<rect x="7.5" y="0" class="st95" width="0.7" height="11.6"/>
											<rect x="8.2" y="0" class="st96" width="0.7" height="11.6"/>
											<rect x="8.9" y="0" class="st97" width="0.7" height="11.6"/>
											<rect x="9.6" y="0" class="st98" width="0.7" height="11.6"/>
											<rect x="10.2" y="0" class="st98" width="1.3" height="11.6"/>
										</g>
									</g>
									<g id="Path_2012">
										<path class="st15" d="M5.8,3.5C5.4,3.5,5,3.6,4.7,3.8c0.2,0.2,0.2,0.6,0,0.8c-0.2,0.2-0.5,0.2-0.8,0
											C3.8,5.1,3.7,5.4,3.7,5.8c0.1,1.2,1.1,2,2.3,2c1.2-0.1,2-1.1,2-2.3C7.8,4.4,6.9,3.5,5.8,3.5L5.8,3.5z"/>
									</g>
								</g>
								<g id="Ellipse_90">
									<circle class="st15" cx="24.1" cy="11.7" r="7.4"/>
								</g>
								<g id="Group_5898" transform="translate(18.327 5.914)">
									<g id="Ellipse_91">
										<g>
											<defs>
												<circle id="SVGID_15_" cx="5.8" cy="5.8" r="5.8"/>
											</defs>
											<clipPath id="SVGID_16_">
												<use xlink:href="#SVGID_15_"  style="overflow:visible;"/>
											</clipPath>
											<path class="st99" d="M0,0v11.6V0z"/>
											<rect x="0" y="0" class="st99" width="0.7" height="11.6"/>
											<rect x="0.7" y="0" class="st100" width="0.7" height="11.6"/>
											<rect x="1.4" y="0" class="st101" width="0.7" height="11.6"/>
											<rect x="2" y="0" class="st102" width="0.7" height="11.6"/>
											<rect x="2.7" y="0" class="st103" width="0.7" height="11.6"/>
											<rect x="3.4" y="0" class="st104" width="0.7" height="11.6"/>
											<rect x="4.1" y="0" class="st105" width="0.7" height="11.6"/>
											<rect x="4.8" y="0" class="st106" width="0.7" height="11.6"/>
											<rect x="5.5" y="0" class="st107" width="0.7" height="11.6"/>
											<rect x="6.1" y="0" class="st108" width="0.7" height="11.6"/>
											<rect x="6.8" y="0" class="st109" width="0.7" height="11.6"/>
											<rect x="7.5" y="0" class="st110" width="0.7" height="11.6"/>
											<rect x="8.2" y="0" class="st111" width="0.7" height="11.6"/>
											<rect x="8.9" y="0" class="st112" width="0.7" height="11.6"/>
											<rect x="9.6" y="0" class="st113" width="0.7" height="11.6"/>
											<rect x="10.2" y="0" class="st113" width="1.3" height="11.6"/>
										</g>
									</g>
									<g id="Path_2013">
										<path class="st15" d="M5.8,3.5C5.4,3.5,5,3.6,4.7,3.8c0.2,0.2,0.2,0.6,0,0.8c-0.2,0.2-0.5,0.2-0.8,0
											C3.8,5.1,3.7,5.4,3.7,5.8c0.1,1.2,1.1,2,2.3,2c1.2-0.1,2-1.1,2-2.3C7.8,4.4,6.9,3.5,5.8,3.5L5.8,3.5z"/>
									</g>
								</g>
								<g id="Path_2014">
									<path class="st83" d="M25.5,34.5c2.3-0.8,4-2.6,4.9-4.8v4.8H25.5z"/>
								</g>
							</g>
						</g>
					</g>
				</g>
			</g>
		</g>
	</g>
</g>
</svg>
