<svg id="star_empty" xmlns="http://www.w3.org/2000/svg" width="14.878" height="14.167" viewBox="0 0 14.878 14.167">
  <g id="Path_158" data-name="Path 158" transform="translate(-203.865 -454.766)" fill="none">
    <path d="M211.465,454.866l2.16,4.377a.179.179,0,0,0,.135.1l4.831.7a.179.179,0,0,1,.1.3l-3.5,3.407a.179.179,0,0,0-.051.158l.825,4.811a.179.179,0,0,1-.259.189l-4.321-2.271a.178.178,0,0,0-.167,0l-4.321,2.271a.179.179,0,0,1-.259-.189l.825-4.811a.178.178,0,0,0-.051-.158l-3.5-3.407a.179.179,0,0,1,.1-.3l4.831-.7a.179.179,0,0,0,.135-.1l2.16-4.377A.179.179,0,0,1,211.465,454.866Z" stroke="none"/>
    <path d="M 211.3044586181641 456.8006591796875 L 209.8803405761719 459.6864013671875 C 209.7083740234375 460.0342102050781 209.3765563964844 460.2750549316406 208.9931335449219 460.3305969238281 L 205.8092041015625 460.7932739257812 L 208.1133728027344 463.0392761230469 C 208.3912506103516 463.3103332519531 208.5177764892578 463.7005310058594 208.4519805908203 464.0822143554688 L 207.9081115722656 467.2533569335938 L 210.7539978027344 465.7572021484375 C 210.9229888916016 465.6679077148438 211.1133270263672 465.6206970214844 211.3044586181641 465.6206970214844 C 211.4956207275391 465.6206970214844 211.6860046386719 465.6679382324219 211.85302734375 465.7562255859375 L 214.7007751464844 467.2533569335938 L 214.1570434570312 464.0830383300781 C 214.0911407470703 463.7007141113281 214.2175750732422 463.3105773925781 214.4958038330078 463.0389709472656 L 216.7996673583984 460.7932739257812 L 213.6160888671875 460.3306579589844 C 213.2322998046875 460.2750244140625 212.9004974365234 460.0341796875 212.7282257080078 459.6857299804688 L 211.3044586181641 456.8006591796875 M 211.3044586181641 454.7662658691406 C 211.3681945800781 454.7662658691406 211.4319305419922 454.7994689941406 211.4647827148438 454.8658447265625 L 213.6249694824219 459.2431945800781 C 213.651123046875 459.2960815429688 213.7014465332031 459.3325805664062 213.7595367431641 459.3410034179688 L 218.5902709960938 460.04296875 C 218.73681640625 460.0643310546875 218.7955017089844 460.244384765625 218.6893005371094 460.3478393554688 L 215.1938171386719 463.7550659179688 C 215.1517028808594 463.7961730957031 215.1325378417969 463.8552856445312 215.1425170898438 463.9131774902344 L 215.9676666259766 468.7243041992188 C 215.9873962402344 468.8399353027344 215.8956756591797 468.9337158203125 215.7915496826172 468.9337158203125 C 215.7640533447266 468.9337158203125 215.7357177734375 468.9271850585938 215.7083282470703 468.9128112792969 L 211.3876953125 466.641357421875 C 211.3616485595703 466.6275939941406 211.3330535888672 466.6207275390625 211.3044586181641 466.6207275390625 C 211.2758483886719 466.6207275390625 211.2472534179688 466.6275939941406 211.22119140625 466.641357421875 L 206.9005737304688 468.9128112792969 C 206.8731842041016 468.9271850585938 206.8448486328125 468.9337158203125 206.8173522949219 468.9337158203125 C 206.7132263183594 468.9337158203125 206.6214904785156 468.8399658203125 206.6412353515625 468.7243041992188 L 207.4663696289062 463.9131774902344 C 207.4763488769531 463.8552856445312 207.4572143554688 463.7961730957031 207.4150695800781 463.7550659179688 L 203.9195861816406 460.3478393554688 C 203.8133850097656 460.244384765625 203.8720855712891 460.0643310546875 204.0186157226562 460.04296875 L 208.8493347167969 459.3410034179688 C 208.9074401855469 459.3325805664062 208.957763671875 459.2960815429688 208.9839172363281 459.2431945800781 L 211.1441345214844 454.8658447265625 C 211.1769714355469 454.7994689941406 211.24072265625 454.7662658691406 211.3044586181641 454.7662658691406 Z" stroke="none" fill="#00233f"/>
  </g>
</svg>
