<svg id="telescope" xmlns="http://www.w3.org/2000/svg" xmlns:xlink="http://www.w3.org/1999/xlink" width="301.297" height="294.277" viewBox="0 0 301.297 294.277">
  <defs>
    <linearGradient id="linear-gradient" x1="1" y1="0.5" x2="0" y2="0.5" gradientUnits="objectBoundingBox">
      <stop offset="0" stop-color="#e7f0f4"/>
      <stop offset="0.885" stop-color="#f6fcff"/>
    </linearGradient>
    <linearGradient id="linear-gradient-2" x1="0.323" y1="0.881" x2="0.71" y2="0.049" gradientUnits="objectBoundingBox">
      <stop offset="0" stop-color="#fff"/>
      <stop offset="1" stop-color="#92d0f2"/>
    </linearGradient>
  </defs>
  <g id="Group_6764" data-name="Group 6764" transform="translate(111.456 138.2)">
    <path id="Path_2005" data-name="Path 2005" d="M2519.469,500.815l27.6,2.731c26.414,3.536,50.933-16.809,54.767-45.446l4.193-43.832c-15.695,6.225-32.643,8.434-48.823,3.574a18.315,18.315,0,0,0-23.346,13.683Z" transform="translate(-2519.469 -414.268)" fill="#00233f"/>
    <g id="Group_6761" data-name="Group 6761" transform="translate(77.501 9.078)">
      <path id="Path_3560" data-name="Path 3560" d="M2528.462,436.038a5.367,5.367,0,0,0-1.168-10.551,2.324,2.324,0,0,1-.513-1.509,5.5,5.5,0,0,0-3.892-5.285,5.377,5.377,0,0,0-6.842,5.154c-.022,6.8,4.922,12.348,11.023,12.367A5.3,5.3,0,0,0,2528.462,436.038Z" transform="translate(-2516.048 -418.497)" fill="#00233f"/>
    </g>
    <g id="Group_6762" data-name="Group 6762" transform="translate(70.503 15.888)">
      <path id="Path_3561" data-name="Path 3561" d="M2531.378,439.474a5.368,5.368,0,0,0-.758-10.59,2.3,2.3,0,0,1-.455-1.526,5.5,5.5,0,0,0-3.684-5.431,5.376,5.376,0,0,0-7.037,4.884c-.283,6.794,4.44,12.528,10.538,12.786A5.47,5.47,0,0,0,2531.378,439.474Z" transform="translate(-2519.432 -421.669)" fill="#00233f"/>
    </g>
    <g id="Group_6763" data-name="Group 6763" transform="translate(83.95 1.906)">
      <path id="Path_3562" data-name="Path 3562" d="M2523.9,433.747a5.367,5.367,0,0,0,.7-10.592,2.308,2.308,0,0,1-.24-1.576,5.5,5.5,0,0,0-2.9-5.886,5.377,5.377,0,0,0-7.643,3.873c-1.215,6.691,2.677,13.02,8.682,14.11A5.321,5.321,0,0,0,2523.9,433.747Z" transform="translate(-2513.592 -415.156)" fill="#00233f"/>
    </g>
  </g>
  <ellipse id="Ellipse_141" data-name="Ellipse 141" cx="59.552" cy="10.814" rx="59.552" ry="10.814" transform="translate(18.924 258.234)" fill="#e6edf1"/>
  <circle id="Ellipse_142" data-name="Ellipse 142" cx="60.909" cy="60.909" r="60.909" transform="translate(86.139 294.277) rotate(-135)" fill="#00233f"/>
  <path id="Path_3563" data-name="Path 3563" d="M2566.883,522.136H2596.8a40.887,40.887,0,0,0,40.886-40.887v-46.94l-70.8,27.641Z" transform="translate(-2541.448 -253.087)" fill="#00233f"/>
  <path id="Path_3564" data-name="Path 3564" d="M2548.215,540.139l24.681.172c37.971,1.477,70.052-30.7,71.653-71.861l.071-62.785c-29.871,15.242-64.245,19.75-96.456,1.069Z" transform="translate(-2508.197 -285.935)" fill="#00233f"/>
  <path id="Path_3565" data-name="Path 3565" d="M2605.026,454.474" transform="translate(-2590.672 -229.963)" fill="#133c51"/>
  <g id="Group_6766" data-name="Group 6766" transform="translate(27.526 154.007)">
    <ellipse id="Ellipse_143" data-name="Ellipse 143" cx="50.673" cy="50.673" rx="50.673" ry="50.673" transform="matrix(-0.168, -0.986, 0.986, -0.168, 17.045, 116.947)" fill="#0052a0"/>
    <g id="Group_6765" data-name="Group 6765" transform="translate(7.8 7.815)" opacity="0.2" style="mix-blend-mode: multiply;isolation: isolate">
      <path id="Path_3566" data-name="Path 3566" d="M2572.149,475.93a50.67,50.67,0,0,1,49.6-50.658,19.826,19.826,0,0,1-3.747,6.29c-1.966,2.286-4.334,4.472-5,7.415-.447,1.979-.054,4.1-.65,6.039-.965,3.124-4.27,4.972-7.49,5.539-1.226.215-2.61.361-3.4,1.324-1.155,1.408-.292,3.572-.863,5.3-1.032,3.128-6.125,3.559-6.8,6.782-.773,3.664,5.1,6.384,4.1,9.993-.3,1.1-1.243,2.022-1.221,3.164.029,1.683,2,2.565,2.889,4,1.378,2.235-.176,5.071-1.689,7.215q-2.325,3.294-4.646,6.586c-1.651,2.34-3.362,5.332-2.054,7.878.979,1.906,3.343,2.763,4.386,4.635.988,1.769.551,3.961.09,5.934L2594.569,518A50.622,50.622,0,0,1,2572.149,475.93Z" transform="translate(-2572.149 -425.272)" fill="#3f6078"/>
    </g>
    <path id="Path_3567" data-name="Path 3567" d="M2550.572,518.818c.135-1.713.472-3.793-.891-4.839-.462-.354-1.071-.532-1.406-1-.627-.891.139-2.121,1.039-2.735s2.024-1.05,2.5-2.031.116-2.136.174-3.222c.178-3.31,4-5.1,7.292-5.515s6.987-.341,9.4-2.617a30.539,30.539,0,0,1,2.4-2.535c3.542-2.638,8.846,1.091,12.911-.638,1-.427,1.945-1.4,1.732-2.471-.112-.562-.526-1.05-.53-1.621-.011-1.172,1.479-1.6,2.51-2.164a5.307,5.307,0,0,0,2.271-5.764,9.935,9.935,0,0,0-3.714-5.36c-2.116-1.707-4.93-3.566-4.583-6.262.107-.831.528-1.6.635-2.43.523-4.1-6.148-5.742-6.8-9.83-.223-1.4.339-2.8.62-4.193s.161-3.085-1-3.9c-.706-.494-1.683-.573-2.256-1.215a4.358,4.358,0,0,1-.708-1.878c-1.115-4.147-6.365-6.374-6.934-10.631-.352-2.632,1.263-5.118,3.057-7.076a43.027,43.027,0,0,0,3.2-3.521,50.679,50.679,0,0,1,36.584,79.766c-2.477.292-5.034.266-7.251,1.37a14.319,14.319,0,0,0-4.382,3.9,85.05,85.05,0,0,0-7.838,11.141,50.828,50.828,0,0,1-37.368,2.533A13.567,13.567,0,0,1,2550.572,518.818Z" transform="translate(-2508.26 -417.346)" fill="#3f6078" opacity="0.2" style="mix-blend-mode: multiply;isolation: isolate"/>
    <path id="Path_3568" data-name="Path 3568" d="M2571.2,425.215s-1.2-.344-1.555.225.532.7,1.151.82,1.412.09.4.8-2.733.925-3.7,2.606-2.018,1.681-.882,3.4,2.509,3.952,2.284,5.255-.856,4.5,1.792,2.649a8.228,8.228,0,0,0,3.658-5.76,14.325,14.325,0,0,1,2.185-4.414c.589-1.052.967-1.977,1.514-1.767a7.07,7.07,0,0,1,2.186,1.43c.21.378,0,.631-.715,1.47s-1.387.547-.629,1.85.629.8-.126,1.6-1.767,1.3-.841,2.565,1.556,1.932,1.176,2.941-.517,2.1,1.213,1.179,3.538-2.482,3.707-3.154-.337-.421-.968-.966a3.192,3.192,0,0,1-.715-2.482c.043-.839.758-1.009,1.179-1.093s.588.253.8,1.513a2,2,0,0,0,1.891,1.891s-.883,2.145,0,2.692a4.172,4.172,0,0,0,2.984.335,24.15,24.15,0,0,1,2.018,1.977c.715.839,1.176,1.344,1.429,1.6s.715.462.546,1.765-.211,1.724-1.344,2.1a3.168,3.168,0,0,0-2.186,2.439,13.73,13.73,0,0,0-.38,3.111c.043.378-.756.672-.839-.5a5.962,5.962,0,0,0-1.052-3.4c-.714-.758-.714-2.4-.545-3.782a4.439,4.439,0,0,0-.547-2.9c-.337-.545-1.346-1.765-2.312-1.05s-2.185,1.3-2.4,2.059-.337,1.473-.337,1.473-.668-1.513-1.573-1.43a1.654,1.654,0,0,0-1.494,1.43,6.116,6.116,0,0,1-1.683,2.4,20.461,20.461,0,0,0-1.807,2.817,8.018,8.018,0,0,0-1.134,1.975c-.043.253.923.084,2.059.421s1.3,1.093,2.649,1.387,2.817.337,3.615,1.43,1.514,1.3.883,1.85-.756-.086-1.3-.59a4.97,4.97,0,0,0-2.354-.923c-.672-.084-.8-.421-.251.672s.631,1.556.084,1.851-.588,1.093-1.3.5-1.3-1.179-1.429-.715a1.194,1.194,0,0,0,.464,1.554,13.326,13.326,0,0,1,2.733,2.185c.629.8.629,0,1.05-.251s1.3.631,2.1,1.136,1.262.5,1.136,1.344-.842,2.312.041,2.355a5.755,5.755,0,0,1,2.188.337c.421.251-.043.5.251,1.428a3.888,3.888,0,0,0,1.473,2.228s-.421,2.859.251,3.825,1.346,2.859,1.892,3.488,1.85,1.767,1.346,2.565a20,20,0,0,0-1.892,3.153c-.169.672-.631,2.1.211,2.142s1.764-1.724,2.689-3.4,2.48-2.9,3.448-2.479,1.009,1.133,1.849,1.219a15.486,15.486,0,0,1,2.479.041c.547.21.8.8.968,1.6s2.018,7.022.378,8.619a5.967,5.967,0,0,1-4.331,1.3s-1.219-3.111-2.4-2.271-.378,1.934-.421,3.111a10.661,10.661,0,0,1-.839,2.986,11.863,11.863,0,0,0-2.944.251c-.631.294-.758.378-.882,1.85s.04,1.848-1.136,2.647-1.346,1.43-2.018,1.43-1.88-.041-2.265.464a1.376,1.376,0,0,1-1.013.5s-1.009-.127-1.219-.421.926-.715.334-1.43-.755-.882-1.47-1.765-.756-1.556-1.093-1.389-.715.464-.127,1.262.127,1.681-.545,1.554a.926.926,0,0,1-.547-1.428c.378-.38-.42-.758-1.052-.086s-.839,1.683-2.4,1.009-2.9-1.387-3.573-1.133-1.85.545-1.977,2.018-2.059,2.52-3.993,2.647-2.837-.5-3.687,0-1.775.882-1.862,2.228-.5,1.934-2.185,1.975-2.522.337-3.866.464-4.33-.421-5.633,1.43,1.05,4.708,2.436,5.757c0,0,.294,3.952,1.893,5.3a21.1,21.1,0,0,1,3.068,2.941c.8.968.841,2.271,4.246,2.439s6.348.841,8.366-1.891,2.773-3.615,5.128-4.33,6.85-3.868,8.239-7.778-.38-5.506,1.177-6.809,2.145-1.346,2.649-1.093,2.984-1.219,4.5-2.565,5.968-4.708,7.063-5.086a25.378,25.378,0,0,1,2.437-.8c.464-.084,3.364-1.136,4.289-2.355a8.968,8.968,0,0,1,2.984-2.436,6.157,6.157,0,0,0,2.144-2.776,4.1,4.1,0,0,1,1.638-1.934,1.993,1.993,0,0,0,1.724-1.344,18.545,18.545,0,0,0,.841-6.011,46.09,46.09,0,0,1,0-6.013c.208-1.176-.129-7.692-1.011-9.793s-2.817-7.608-3.448-9.669a20.247,20.247,0,0,0-3.321-6.389c-1.093-1.095-4.455-5.508-5.674-7.147s-3.825-4.71-5.592-5.508-4.918-3.111-6.432-4.034-5.044-2.649-6.472-3.448A50.442,50.442,0,0,0,2571.2,425.215Z" transform="translate(-2503.189 -417.64)" fill="#2ab3de"/>
    <path id="Path_3569" data-name="Path 3569" d="M2620.4,425.34s.176,1.722-1.067,2.254-2.247.118-3.49,1.125-1.007,1.479-2.19,1.361-1.657-.178-2.159,1.123-.919,2.724-2.93,2.546-2.012.592-2.664,1.3-.887,1.9-1.48,1.125-.829-1.361-1.182-.178a2.744,2.744,0,0,1-1.539,1.953c-.947.653-1.893,1.6-1.835,2.6s2.545-.769,3.965-1.775,3.553-2.544,3.789-2.19,1.479.771.118,1.953-1.657,1.361-2.072,2.84-.828,3.907-2.072,3.789-2.072-1.421-2.308-.474-.414,1.133-1.125.479-1.419-2.136-2.012-1.84-.65.474-.356,1.479.474,1.479.653,1.953.058.354-1.3.474-1.125.532-1.3,1.479a2.167,2.167,0,0,1-.947,1.715c-.592.414-.178.771.708.947s1.717.653.771,1.9a33.457,33.457,0,0,0-2.368,4.083c-.828,1.479-.415,2.308-1.539,2.248s-2.189.947-2.6-1.243-.71-3.254,0-4.733.683-3.729-.427-3.433a6.2,6.2,0,0,0-2.888,2.011c-1.122,1.125-1.479,1.007-2.483.3a8.072,8.072,0,0,1-1.481-1.243c-.3-.3-.769.118-1.833,2.308s-2.486,5.622-2.486,5.622,2.486-3.254,3.254-2.722.889,1.185.178,1.657-.3,2.072.947.592,1.657-1.6,1.953-2.486,1.479-.71,2.19.118-.061,1.183,1.064,2.25,2.368,1.775,2.368,2.958-.238,6.451.236,6.451,1.007.532,1.065,2.308.178,3.986.356,5.191a8.018,8.018,0,0,1-.06,3.568,11.846,11.846,0,0,1-.769,1.657s-.06,5.5-.178,7.458-1.361,5.03-2.9,6.155-1.125,2.012-2.6.711a47.709,47.709,0,0,1-3.136-3.669c-.415-.3-.354.947.178,2.78s1.657,7.161,2.78,8.819,1.125,2.19,2.25,3.078a4.826,4.826,0,0,1,2.011,2.486c.3,1,.889,2.069.947,2.366s.182,1.887.182,1.887-2.43-1.058-6.041-5.91-7.162-11.126-8.048-14.619S2573.819,480.2,2574,476.3s.651-11.42,1.894-14.321,3.847-10.356,6.865-14.321,8.048-10.18,13.79-13.851,9.291-5.444,13.967-6.805S2619.153,424.864,2620.4,425.34Z" transform="translate(-2566.942 -417.54)" fill="#2ab3de"/>
  </g>
  <ellipse id="Ellipse_144" data-name="Ellipse 144" cx="49.723" cy="49.723" rx="49.723" ry="49.723" transform="translate(33.205 165.421)" fill="none"/>
  <path id="Path_3570" data-name="Path 3570" d="M2567.114,440.955l9.416-12.6a.851.851,0,0,1,.717-.569l9.1,12.318a2.827,2.827,0,0,1,0,3.366l-9.1,12.318a.863.863,0,0,1-.717-.577l-9.416-12.6A2.03,2.03,0,0,1,2567.114,440.955Z" transform="translate(-2490.779 -260.566)" fill="#00233f"/>
  <path id="Path_3571" data-name="Path 3571" d="M2607.8,483.055c-10.414-4.4-15.684-9.518-20.237-20.005v20.005Z" transform="translate(-2555.968 -220.129)" fill="#2ab3de"/>
  <ellipse id="Ellipse_145" data-name="Ellipse 145" cx="41.27" cy="41.27" rx="41.27" ry="41.27" transform="translate(79.208 117.158)" fill="#00233f"/>
  <ellipse id="Ellipse_146" data-name="Ellipse 146" cx="31.849" cy="31.849" rx="31.849" ry="31.849" transform="translate(94.311 126.58)" fill="url(#linear-gradient)"/>
  <path id="Path_3572" data-name="Path 3572" d="M2554.676,414.006a10.976,10.976,0,0,1,5.852,1.707,3.308,3.308,0,0,0,4.407,4.895,13.11,13.11,0,0,1,1.365,5.854c0,6.878-5.2,12.455-11.625,12.455s-11.625-5.577-11.625-12.455S2548.255,414.006,2554.676,414.006Z" transform="translate(-2418.904 -276.369)" fill="#00233f"/>
  <g id="Group_6768" data-name="Group 6768" transform="matrix(0.996, 0.087, -0.087, 0.996, 146.62, 0)">
    <path id="Path_3573" data-name="Path 3573" d="M2560.759,414.94c-7.836-7.475-19.866-7.582-26.868-.24s-6.333,19.353,1.5,26.83,19.866,7.582,26.871.24,6.333-19.353-1.5-26.83Z" transform="translate(-2529.046 -288.247)" fill="#0b84c7" stroke="#00233f" stroke-width="1"/>
    <path id="Path_3574" data-name="Path 3574" d="M2550.32,385l-37.949,39.777a24.437,24.437,0,0,0,35.363,33.738l37.948-39.779Z" transform="translate(-2497.319 -316.07)" fill="#fff" stroke="#00233f" stroke-linecap="round" stroke-linejoin="round" stroke-width="1"/>
    <path id="Path_3575" data-name="Path 3575" d="M2529.283,373.349l-25.093,26.3a36.351,36.351,0,0,0,52.6,50.186l25.1-26.3Z" transform="translate(-2468.891 -329.429)" fill="#fff" stroke="#00233f" stroke-linecap="round" stroke-linejoin="round" stroke-width="1"/>
    <path id="Path_3576" data-name="Path 3576" d="M2548.818,447.413c-13.342,13.984-38.018,12.1-55.117-4.214s-20.14-40.871-6.8-54.857l29.659-31.087,61.916,59.071Z" transform="translate(-2432.1 -347.885)" fill="#0b84c7" stroke="#00233f" stroke-width="1"/>
    <path id="Path_3577" data-name="Path 3577" d="M2538.146,366.472c17.1,16.313,20.143,40.874,6.8,54.859s-38.021,12.1-55.116-4.214-20.143-40.871-6.8-54.857,38.018-12.1,55.115,4.212Z" transform="translate(-2398.571 -352.89)" fill="#fff" stroke="#00233f" stroke-linecap="round" stroke-linejoin="round" stroke-width="1"/>
    <path id="Path_3578" data-name="Path 3578" d="M2522.344,367.747c11.214,10.7,13.211,26.81,4.458,35.983s-24.936,7.936-36.153-2.763-13.211-26.81-4.459-35.983S2511.129,357.048,2522.344,367.747Z" transform="translate(-2390.489 -346.069)" stroke="#00233f" stroke-width="1" fill="url(#linear-gradient-2)"/>
    <g id="Group_6767" data-name="Group 6767" transform="translate(101.47 20.301)">
      <path id="Path_3579" data-name="Path 3579" d="M2496.429,378.73a3.235,3.235,0,0,1-3.014-1.883,16.9,16.9,0,0,0-3.72-5.163,17.429,17.429,0,0,0-3.385-2.529,3.232,3.232,0,0,1,3.2-5.616,23.876,23.876,0,0,1,4.646,3.467,23.338,23.338,0,0,1,5.131,7.14,3.236,3.236,0,0,1-2.859,4.583Z" transform="translate(-2467.746 -361.466)" fill="#fff"/>
      <path id="Path_3580" data-name="Path 3580" d="M2498.149,370.805a3.232,3.232,0,0,1-2.123-5.734,15.082,15.082,0,0,1,4.521-2.537,3.233,3.233,0,1,1,2.164,6.092,8.66,8.66,0,0,0-2.593,1.449,3.207,3.207,0,0,1-1.969.73Z" transform="translate(-2494.84 -362.347)" fill="#fff"/>
    </g>
  </g>
  <g id="Group_6769" data-name="Group 6769" transform="translate(38.152 140.544)">
    <path id="Path_3581" data-name="Path 3581" d="M2570.61,440.412a24.992,24.992,0,0,0,25.052,25.052,25.052,25.052,0,1,0-25.052-25.052Z" transform="translate(-2570.61 -415.36)" fill="#00233f"/>
    <ellipse id="Ellipse_147" data-name="Ellipse 147" cx="19.46" cy="19.46" rx="19.46" ry="19.46" transform="translate(5.582 5.576)" fill="url(#linear-gradient)"/>
    <path id="Path_3582" data-name="Path 3582" d="M2583.568,420.973a6.694,6.694,0,0,1,3.575,1.041,2.023,2.023,0,0,0,2.694,2.992,8.013,8.013,0,0,1,.833,3.576,7.119,7.119,0,1,1-7.1-7.61Z" transform="translate(-2553.154 -408.923)" fill="#00233f"/>
  </g>
  <path id="Path_3583" data-name="Path 3583" d="M2569.836,427.575a25.7,25.7,0,0,1,46.32,19.393A43.021,43.021,0,0,0,2569.836,427.575Z" transform="translate(-2526.678 -273.35)" fill="#00233f"/>
</svg>
